M48
; DRILL file {KiCad 8.0.8-8.0.8-0~ubuntu24.04.1} date 2025-02-12T19:28:21+0100
; FORMAT={-:-/ absolute / inch / decimal}
; #@! TF.CreationDate,2025-02-12T19:28:21+01:00
; #@! TF.GenerationSoftware,Kicad,Pcbnew,8.0.8-8.0.8-0~ubuntu24.04.1
; #@! TF.FileFunction,Plated,1,4,PTH
FMAT,2
INCH
; #@! TA.AperFunction,Plated,PTH,ViaDrill
T1C0.0118
; #@! TA.AperFunction,Plated,PTH,ComponentDrill
T2C0.0394
%
G90
G05
T1
X4.0256Y-4.6654
X4.3209Y-4.2028
X4.3898Y-4.4882
X4.4094Y-4.1929
X4.4291Y-4.626
X4.4685Y-4.7146
X4.4961Y-4.4685
X4.5079Y-4.3209
X4.5433Y-4.4685
X4.5571Y-4.5571
X4.5886Y-4.5571
X4.6516Y-4.6063
X4.7047Y-4.6004
X4.7244Y-4.2618
X4.7539Y-4.4291
X4.7638Y-4.5079
X4.8327Y-4.3602
X4.8917Y-4.685
X4.9016Y-4.3898
X4.9311Y-4.5079
X4.9705Y-4.4429
X5.061Y-4.4843
X5.0689Y-4.4429
X5.0787Y-4.5768
X5.0886Y-4.685
X5.1083Y-4.4193
X5.1083Y-4.5079
X5.1181Y-4.5768
X5.2264Y-4.5768
X5.2657Y-4.4193
X5.2657Y-4.5079
X5.2756Y-4.2618
X5.315Y-4.7146
X5.318Y-4.61
X5.3445Y-4.4587
X5.3445Y-4.5866
X5.3685Y-4.2323
X5.4186Y-4.402
X5.4232Y-4.2067
X5.4232Y-4.5079
X5.4331Y-4.374
X5.4429Y-4.2323
X5.4685Y-4.374
X5.5217Y-4.7244
X5.5472Y-4.5669
X5.561Y-4.2224
X5.6202Y-4.4588
X5.6299Y-4.3996
X5.6438Y-4.5465
X5.6594Y-4.2224
X5.7047Y-4.5669
X5.7185Y-4.7146
X5.7448Y-4.2886
X5.7677Y-4.435
X5.8071Y-4.6063
X5.8125Y-4.5723
X5.8169Y-4.2126
X5.876Y-4.2224
X5.8895Y-4.5111
X5.9941Y-4.3602
X6.0433Y-4.2224
T2
X4.0157Y-4.2618
X4.1157Y-4.2618
X4.2685Y-4.026
X4.2685Y-4.126
X4.3685Y-4.026
X4.3685Y-4.126
X4.4232Y-4.8902
X4.4232Y-4.9902
X4.4685Y-4.026
X4.4685Y-4.126
X4.5232Y-4.8902
X4.5232Y-4.9902
X4.5685Y-4.026
X4.5685Y-4.126
X4.6232Y-4.8902
X4.6232Y-4.9902
X4.6685Y-4.026
X4.6685Y-4.126
X4.7232Y-4.8902
X4.7232Y-4.9902
X4.7685Y-4.026
X4.7685Y-4.126
X4.8232Y-4.8902
X4.8232Y-4.9902
X4.8685Y-4.026
X4.8685Y-4.126
X4.9016Y-4.2815
X4.9232Y-4.8902
X4.9232Y-4.9902
X4.9685Y-4.026
X4.9685Y-4.126
X5.0016Y-4.2815
X5.0232Y-4.8902
X5.0232Y-4.9902
X5.0685Y-4.026
X5.0685Y-4.126
X5.1016Y-4.2815
X5.1232Y-4.8902
X5.1232Y-4.9902
X5.1685Y-4.026
X5.1685Y-4.126
X5.2232Y-4.8902
X5.2232Y-4.9902
X5.2685Y-4.026
X5.2685Y-4.126
X5.3232Y-4.8902
X5.3232Y-4.9902
X5.3685Y-4.026
X5.3685Y-4.126
X5.4232Y-4.8902
X5.4232Y-4.9902
X5.4685Y-4.026
X5.4685Y-4.126
X5.5232Y-4.8902
X5.5232Y-4.9902
X5.5685Y-4.026
X5.5685Y-4.126
X5.6232Y-4.8902
X5.6232Y-4.9902
X5.6685Y-4.026
X5.6685Y-4.126
X5.7232Y-4.8902
X5.7232Y-4.9902
X5.7685Y-4.026
X5.7685Y-4.126
X5.8232Y-4.8902
X5.8232Y-4.9902
X5.8685Y-4.026
X5.8685Y-4.126
X5.9232Y-4.8902
X5.9232Y-4.9902
X5.9685Y-4.026
X5.9685Y-4.126
X6.0232Y-4.8902
X6.0232Y-4.9902
X6.0685Y-4.026
X6.0685Y-4.126
X6.1685Y-4.026
X6.1685Y-4.126
X6.2205Y-4.4783
X6.2205Y-4.5768
M30
