%TF.GenerationSoftware,KiCad,Pcbnew,8.0.4+dfsg-1*%
%TF.CreationDate,2025-02-22T18:35:30+01:00*%
%TF.ProjectId,Acorn_1Mhz_bus_PiZero_interface,41636f72-6e5f-4314-9d68-7a5f6275735f,rev?*%
%TF.SameCoordinates,Original*%
%TF.FileFunction,Soldermask,Bot*%
%TF.FilePolarity,Negative*%
%FSLAX46Y46*%
G04 Gerber Fmt 4.6, Leading zero omitted, Abs format (unit mm)*
G04 Created by KiCad (PCBNEW 8.0.4+dfsg-1) date 2025-02-22 18:35:30*
%MOMM*%
%LPD*%
G01*
G04 APERTURE LIST*
G04 Aperture macros list*
%AMRoundRect*
0 Rectangle with rounded corners*
0 $1 Rounding radius*
0 $2 $3 $4 $5 $6 $7 $8 $9 X,Y pos of 4 corners*
0 Add a 4 corners polygon primitive as box body*
4,1,4,$2,$3,$4,$5,$6,$7,$8,$9,$2,$3,0*
0 Add four circle primitives for the rounded corners*
1,1,$1+$1,$2,$3*
1,1,$1+$1,$4,$5*
1,1,$1+$1,$6,$7*
1,1,$1+$1,$8,$9*
0 Add four rect primitives between the rounded corners*
20,1,$1+$1,$2,$3,$4,$5,0*
20,1,$1+$1,$4,$5,$6,$7,0*
20,1,$1+$1,$6,$7,$8,$9,0*
20,1,$1+$1,$8,$9,$2,$3,0*%
G04 Aperture macros list end*
%ADD10R,1.700000X1.700000*%
%ADD11O,1.700000X1.700000*%
%ADD12C,2.700000*%
%ADD13RoundRect,0.250000X-0.750000X0.600000X-0.750000X-0.600000X0.750000X-0.600000X0.750000X0.600000X0*%
%ADD14O,2.000000X1.700000*%
%ADD15RoundRect,0.250000X0.600000X-0.600000X0.600000X0.600000X-0.600000X0.600000X-0.600000X-0.600000X0*%
%ADD16C,1.700000*%
%ADD17R,1.000000X1.000000*%
G04 APERTURE END LIST*
D10*
%TO.C,J5*%
X124500000Y-108750000D03*
D11*
X127040000Y-108750000D03*
X129580000Y-108750000D03*
%TD*%
D12*
%TO.C,H4*%
X161550000Y-126500000D03*
%TD*%
%TO.C,H3*%
X103550000Y-126500000D03*
%TD*%
D10*
%TO.C,J4*%
X102000000Y-108250000D03*
D11*
X104540000Y-108250000D03*
%TD*%
D13*
%TO.C,J6*%
X158000000Y-113750000D03*
D14*
X158000000Y-116250000D03*
%TD*%
D12*
%TO.C,H2*%
X161550000Y-103500000D03*
%TD*%
D15*
%TO.C,J1*%
X112350000Y-126750000D03*
D16*
X112350000Y-124210000D03*
X114890000Y-126750000D03*
X114890000Y-124210000D03*
X117430000Y-126750000D03*
X117430000Y-124210000D03*
X119970000Y-126750000D03*
X119970000Y-124210000D03*
X122510000Y-126750000D03*
X122510000Y-124210000D03*
X125050000Y-126750000D03*
X125050000Y-124210000D03*
X127590000Y-126750000D03*
X127590000Y-124210000D03*
X130130000Y-126750000D03*
X130130000Y-124210000D03*
X132670000Y-126750000D03*
X132670000Y-124210000D03*
X135210000Y-126750000D03*
X135210000Y-124210000D03*
X137750000Y-126750000D03*
X137750000Y-124210000D03*
X140290000Y-126750000D03*
X140290000Y-124210000D03*
X142830000Y-126750000D03*
X142830000Y-124210000D03*
X145370000Y-126750000D03*
X145370000Y-124210000D03*
X147910000Y-126750000D03*
X147910000Y-124210000D03*
X150450000Y-126750000D03*
X150450000Y-124210000D03*
X152990000Y-126750000D03*
X152990000Y-124210000D03*
%TD*%
D12*
%TO.C,H1*%
X103550000Y-103500000D03*
%TD*%
D17*
%TO.C,TP2*%
X139750000Y-109000000D03*
%TD*%
%TO.C,TP1*%
X142750000Y-109000000D03*
%TD*%
D10*
%TO.C,J2*%
X108418680Y-104800000D03*
D11*
X108418680Y-102260000D03*
X110958680Y-104800000D03*
X110958680Y-102260000D03*
X113498680Y-104800000D03*
X113498680Y-102260000D03*
X116038680Y-104800000D03*
X116038680Y-102260000D03*
X118578680Y-104800000D03*
X118578680Y-102260000D03*
X121118680Y-104800000D03*
X121118680Y-102260000D03*
X123658680Y-104800000D03*
X123658680Y-102260000D03*
X126198680Y-104800000D03*
X126198680Y-102260000D03*
X128738680Y-104800000D03*
X128738680Y-102260000D03*
X131278680Y-104800000D03*
X131278680Y-102260000D03*
X133818680Y-104800000D03*
X133818680Y-102260000D03*
X136358680Y-104800000D03*
X136358680Y-102260000D03*
X138898680Y-104800000D03*
X138898680Y-102260000D03*
X141438680Y-104800000D03*
X141438680Y-102260000D03*
X143978680Y-104800000D03*
X143978680Y-102260000D03*
X146518680Y-104800000D03*
X146518680Y-102260000D03*
X149058680Y-104800000D03*
X149058680Y-102260000D03*
X151598680Y-104800000D03*
X151598680Y-102260000D03*
X154138680Y-104800000D03*
X154138680Y-102260000D03*
X156678680Y-104800000D03*
X156678680Y-102260000D03*
%TD*%
M02*
