%TF.GenerationSoftware,KiCad,Pcbnew,8.0.8-8.0.8-0~ubuntu24.04.1*%
%TF.CreationDate,2025-02-13T06:57:00+01:00*%
%TF.ProjectId,Acorn_1Mhz_bus_PiZero_interface,41636f72-6e5f-4314-9d68-7a5f6275735f,rev?*%
%TF.SameCoordinates,Original*%
%TF.FileFunction,Profile,NP*%
%FSLAX46Y46*%
G04 Gerber Fmt 4.6, Leading zero omitted, Abs format (unit mm)*
G04 Created by KiCad (PCBNEW 8.0.8-8.0.8-0~ubuntu24.04.1) date 2025-02-13 06:57:00*
%MOMM*%
%LPD*%
G01*
G04 APERTURE LIST*
%TA.AperFunction,Profile*%
%ADD10C,0.150000*%
%TD*%
%TA.AperFunction,Profile*%
%ADD11C,0.000000*%
%TD*%
G04 APERTURE END LIST*
D10*
X100028680Y-119000000D02*
X100028680Y-103000000D01*
X103028680Y-100000000D02*
X161528680Y-100000000D01*
X100028680Y-103000000D02*
G75*
G02*
X103028680Y-99999980I3000020J0D01*
G01*
X100028680Y-119000000D02*
X100028680Y-127000000D01*
X165028680Y-127000000D02*
G75*
G02*
X162028680Y-129999980I-2999980J0D01*
G01*
X162028680Y-100000000D02*
X161528680Y-100000000D01*
X103028680Y-130000000D02*
X161478680Y-130000000D01*
X103028680Y-130000000D02*
G75*
G02*
X100028700Y-127000000I20J3000000D01*
G01*
X162028680Y-130000000D02*
X161478680Y-130000000D01*
X165028680Y-103000000D02*
X165028680Y-126550000D01*
X162028680Y-100000000D02*
G75*
G02*
X165028700Y-103000000I20J-3000000D01*
G01*
X165028680Y-126550000D02*
X165028680Y-127000000D01*
D11*
%TA.AperFunction,Profile*%
%TO.C,J3*%
G36*
X102405291Y-114420445D02*
G01*
X102550000Y-114480385D01*
X102674264Y-114575736D01*
X102769615Y-114700000D01*
X102829555Y-114844709D01*
X102850000Y-115000000D01*
X102829555Y-115155291D01*
X102769615Y-115300000D01*
X102674264Y-115424264D01*
X102550000Y-115519615D01*
X102405291Y-115579555D01*
X102250000Y-115600000D01*
X102094709Y-115579555D01*
X101950000Y-115519615D01*
X101825736Y-115424264D01*
X101730385Y-115300000D01*
X101670445Y-115155291D01*
X101650000Y-115000000D01*
X101670445Y-114844709D01*
X101730385Y-114700000D01*
X101825736Y-114575736D01*
X101950000Y-114480385D01*
X102094709Y-114420445D01*
X102250000Y-114400000D01*
X102405291Y-114420445D01*
G37*
%TD.AperFunction*%
%TA.AperFunction,Profile*%
G36*
X109405291Y-114420445D02*
G01*
X109550000Y-114480385D01*
X109674264Y-114575736D01*
X109769615Y-114700000D01*
X109829555Y-114844709D01*
X109850000Y-115000000D01*
X109829555Y-115155291D01*
X109769615Y-115300000D01*
X109674264Y-115424264D01*
X109550000Y-115519615D01*
X109405291Y-115579555D01*
X109250000Y-115600000D01*
X109094709Y-115579555D01*
X108950000Y-115519615D01*
X108825736Y-115424264D01*
X108730385Y-115300000D01*
X108670445Y-115155291D01*
X108650000Y-115000000D01*
X108670445Y-114844709D01*
X108730385Y-114700000D01*
X108825736Y-114575736D01*
X108950000Y-114480385D01*
X109094709Y-114420445D01*
X109250000Y-114400000D01*
X109405291Y-114420445D01*
G37*
%TD.AperFunction*%
%TD*%
M02*
