%TF.GenerationSoftware,KiCad,Pcbnew,8.0.8-8.0.8-0~ubuntu24.04.1*%
%TF.CreationDate,2025-02-12T19:28:21+01:00*%
%TF.ProjectId,Acorn_1Mhz_bus_PiZero_interface,41636f72-6e5f-4314-9d68-7a5f6275735f,rev?*%
%TF.SameCoordinates,Original*%
%TF.FileFunction,Copper,L3,Inr*%
%TF.FilePolarity,Positive*%
%FSLAX46Y46*%
G04 Gerber Fmt 4.6, Leading zero omitted, Abs format (unit mm)*
G04 Created by KiCad (PCBNEW 8.0.8-8.0.8-0~ubuntu24.04.1) date 2025-02-12 19:28:21*
%MOMM*%
%LPD*%
G01*
G04 APERTURE LIST*
G04 Aperture macros list*
%AMRoundRect*
0 Rectangle with rounded corners*
0 $1 Rounding radius*
0 $2 $3 $4 $5 $6 $7 $8 $9 X,Y pos of 4 corners*
0 Add a 4 corners polygon primitive as box body*
4,1,4,$2,$3,$4,$5,$6,$7,$8,$9,$2,$3,0*
0 Add four circle primitives for the rounded corners*
1,1,$1+$1,$2,$3*
1,1,$1+$1,$4,$5*
1,1,$1+$1,$6,$7*
1,1,$1+$1,$8,$9*
0 Add four rect primitives between the rounded corners*
20,1,$1+$1,$2,$3,$4,$5,0*
20,1,$1+$1,$4,$5,$6,$7,0*
20,1,$1+$1,$6,$7,$8,$9,0*
20,1,$1+$1,$8,$9,$2,$3,0*%
G04 Aperture macros list end*
%TA.AperFunction,ComponentPad*%
%ADD10R,1.700000X1.700000*%
%TD*%
%TA.AperFunction,ComponentPad*%
%ADD11O,1.700000X1.700000*%
%TD*%
%TA.AperFunction,ComponentPad*%
%ADD12RoundRect,0.250000X-0.750000X0.600000X-0.750000X-0.600000X0.750000X-0.600000X0.750000X0.600000X0*%
%TD*%
%TA.AperFunction,ComponentPad*%
%ADD13O,2.000000X1.700000*%
%TD*%
%TA.AperFunction,ComponentPad*%
%ADD14RoundRect,0.250000X0.600000X-0.600000X0.600000X0.600000X-0.600000X0.600000X-0.600000X-0.600000X0*%
%TD*%
%TA.AperFunction,ComponentPad*%
%ADD15C,1.700000*%
%TD*%
%TA.AperFunction,ViaPad*%
%ADD16C,0.600000*%
%TD*%
%TA.AperFunction,Conductor*%
%ADD17C,0.200000*%
%TD*%
G04 APERTURE END LIST*
D10*
%TO.N,GND*%
%TO.C,J5*%
X124500000Y-108750000D03*
D11*
%TO.N,TxD*%
X127040000Y-108750000D03*
%TO.N,RxD*%
X129580000Y-108750000D03*
%TD*%
D10*
%TO.N,GND*%
%TO.C,J4*%
X102000000Y-108250000D03*
D11*
%TO.N,Net-(J4-Pin_2)*%
X104540000Y-108250000D03*
%TD*%
D12*
%TO.N,+5V*%
%TO.C,J6*%
X158000000Y-113750000D03*
D13*
%TO.N,GND*%
X158000000Y-116250000D03*
%TD*%
D14*
%TO.N,GND*%
%TO.C,J1*%
X112350000Y-126750000D03*
D15*
%TO.N,R{slash}~{W}*%
X112350000Y-124210000D03*
%TO.N,GND*%
X114890000Y-126750000D03*
%TO.N,1MHz*%
X114890000Y-124210000D03*
%TO.N,GND*%
X117430000Y-126750000D03*
%TO.N,~{NMI}*%
X117430000Y-124210000D03*
%TO.N,GND*%
X119970000Y-126750000D03*
%TO.N,~{IRQ}*%
X119970000Y-124210000D03*
%TO.N,GND*%
X122510000Y-126750000D03*
%TO.N,~{PCFC}*%
X122510000Y-124210000D03*
%TO.N,GND*%
X125050000Y-126750000D03*
%TO.N,~{PCFD}*%
X125050000Y-124210000D03*
%TO.N,GND*%
X127590000Y-126750000D03*
%TO.N,~{RST}*%
X127590000Y-124210000D03*
%TO.N,GND*%
X130130000Y-126750000D03*
%TO.N,BBC_Audio*%
X130130000Y-124210000D03*
%TO.N,GND*%
X132670000Y-126750000D03*
%TO.N,D0*%
X132670000Y-124210000D03*
%TO.N,D1*%
X135210000Y-126750000D03*
%TO.N,D2*%
X135210000Y-124210000D03*
%TO.N,D3*%
X137750000Y-126750000D03*
%TO.N,D4*%
X137750000Y-124210000D03*
%TO.N,D5*%
X140290000Y-126750000D03*
%TO.N,D6*%
X140290000Y-124210000D03*
%TO.N,D7*%
X142830000Y-126750000D03*
%TO.N,GND*%
X142830000Y-124210000D03*
%TO.N,A0*%
X145370000Y-126750000D03*
%TO.N,A1*%
X145370000Y-124210000D03*
%TO.N,A2*%
X147910000Y-126750000D03*
%TO.N,A3*%
X147910000Y-124210000D03*
%TO.N,A4*%
X150450000Y-126750000D03*
%TO.N,A5*%
X150450000Y-124210000D03*
%TO.N,A6*%
X152990000Y-126750000D03*
%TO.N,A7*%
X152990000Y-124210000D03*
%TD*%
D10*
%TO.N,+3V3*%
%TO.C,J2*%
X108418680Y-104800000D03*
D11*
%TO.N,+5V*%
X108418680Y-102260000D03*
%TO.N,GPIO_2*%
X110958680Y-104800000D03*
%TO.N,+5V*%
X110958680Y-102260000D03*
%TO.N,GPIO_3*%
X113498680Y-104800000D03*
%TO.N,GND*%
X113498680Y-102260000D03*
%TO.N,GPIO_4*%
X116038680Y-104800000D03*
%TO.N,TxD*%
X116038680Y-102260000D03*
%TO.N,GND*%
X118578680Y-104800000D03*
%TO.N,RxD*%
X118578680Y-102260000D03*
%TO.N,GPIO_17*%
X121118680Y-104800000D03*
%TO.N,GPIO_18*%
X121118680Y-102260000D03*
%TO.N,GPIO_27*%
X123658680Y-104800000D03*
%TO.N,GND*%
X123658680Y-102260000D03*
%TO.N,GPIO_22*%
X126198680Y-104800000D03*
%TO.N,GPIO_23*%
X126198680Y-102260000D03*
%TO.N,+3V3*%
X128738680Y-104800000D03*
%TO.N,GPIO_24*%
X128738680Y-102260000D03*
%TO.N,GPIO_10*%
X131278680Y-104800000D03*
%TO.N,GND*%
X131278680Y-102260000D03*
%TO.N,GPIO_9*%
X133818680Y-104800000D03*
%TO.N,GPIO_25*%
X133818680Y-102260000D03*
%TO.N,GPIO_11*%
X136358680Y-104800000D03*
%TO.N,GPIO_8*%
X136358680Y-102260000D03*
%TO.N,GND*%
X138898680Y-104800000D03*
%TO.N,GPIO_7*%
X138898680Y-102260000D03*
%TO.N,ID_SD*%
X141438680Y-104800000D03*
%TO.N,ID_SC*%
X141438680Y-102260000D03*
%TO.N,GPIO_5*%
X143978680Y-104800000D03*
%TO.N,GND*%
X143978680Y-102260000D03*
%TO.N,GPIO_6*%
X146518680Y-104800000D03*
%TO.N,GPIO_12*%
X146518680Y-102260000D03*
%TO.N,GPIO_13*%
X149058680Y-104800000D03*
%TO.N,GND*%
X149058680Y-102260000D03*
%TO.N,GPIO_19*%
X151598680Y-104800000D03*
%TO.N,GPIO_16*%
X151598680Y-102260000D03*
%TO.N,GPIO_26*%
X154138680Y-104800000D03*
%TO.N,GPIO_20*%
X154138680Y-102260000D03*
%TO.N,GND*%
X156678680Y-104800000D03*
%TO.N,GPIO_21*%
X156678680Y-102260000D03*
%TD*%
D16*
%TO.N,GPIO_13*%
X112500000Y-117500000D03*
%TO.N,+3.3VDAC*%
X114200000Y-113500000D03*
X115400000Y-113500000D03*
%TO.N,Net-(C4-Pad1)*%
X109750000Y-106750000D03*
X114500000Y-109750000D03*
%TO.N,GPIO_10*%
X122750000Y-110750000D03*
%TO.N,GPIO_11*%
X136358680Y-107500000D03*
%TO.N,GPIO_12*%
X129750000Y-112250000D03*
%TO.N,GPIO_24*%
X126250000Y-112850000D03*
%TO.N,GPIO_25*%
X128750000Y-112850000D03*
%TO.N,GPIO_26*%
X128548527Y-113900000D03*
%TO.N,GPIO_2*%
X129000000Y-116250000D03*
%TO.N,GPIO_3*%
X130000000Y-116250000D03*
%TO.N,GPIO_4*%
X132750000Y-116250000D03*
%TO.N,GPIO_5*%
X145918680Y-108929847D03*
X138900000Y-111100000D03*
%TO.N,GPIO_6*%
X135077604Y-117094961D03*
X146500000Y-112650000D03*
%TO.N,GPIO_7*%
X138000000Y-111100000D03*
X138250000Y-107500000D03*
X135750000Y-116500000D03*
%TO.N,GPIO_8*%
X137748680Y-106850000D03*
%TO.N,GPIO_17*%
X142752537Y-113252537D03*
X137633709Y-111811217D03*
%TO.N,GPIO_18*%
X143352537Y-115481217D03*
X135750000Y-113250000D03*
X124500000Y-111500000D03*
X120000000Y-108250000D03*
%TO.N,GPIO_22*%
X143000000Y-111750000D03*
X147500000Y-117000000D03*
%TO.N,GPIO_23*%
X147750000Y-107000000D03*
X147636765Y-116136765D03*
%TO.N,Net-(D1A-K)*%
X149592187Y-114582370D03*
X129750000Y-114500000D03*
X125250000Y-114500000D03*
X137750000Y-114500000D03*
X140900000Y-116000000D03*
X144900000Y-116000000D03*
X121000000Y-114500000D03*
X133750000Y-114500000D03*
%TO.N,GND*%
X134000000Y-108250000D03*
X111500000Y-114000000D03*
X140250000Y-120000000D03*
X149250000Y-107250000D03*
X129250000Y-119000000D03*
X120750000Y-112500000D03*
X135000000Y-119750000D03*
X115750000Y-115750000D03*
X133750000Y-112250000D03*
X141250000Y-107250000D03*
X112000000Y-106500000D03*
X113500000Y-119750000D03*
X124250000Y-119000000D03*
X145250000Y-119750000D03*
X102250000Y-118500000D03*
X153500000Y-107250000D03*
X143750000Y-107250000D03*
%TO.N,+5V*%
X116550003Y-115750000D03*
%TO.N,+3V3*%
X152250000Y-110750000D03*
%TO.N,Net-(JP1-A)*%
X119500000Y-116850000D03*
X118149999Y-117000000D03*
%TD*%
D17*
%TO.N,GND*%
X117428680Y-103650000D02*
X114888680Y-103650000D01*
X125048680Y-103650000D02*
X129888680Y-103650000D01*
X118578680Y-104800000D02*
X117428680Y-103650000D01*
X155288680Y-103410000D02*
X156678680Y-104800000D01*
X102000000Y-108250000D02*
X106600000Y-103650000D01*
X159300000Y-107421320D02*
X159300000Y-114950000D01*
X114890000Y-126750000D02*
X117430000Y-126750000D01*
X112348680Y-106151320D02*
X112348680Y-103410000D01*
X137748680Y-103650000D02*
X138898680Y-104800000D01*
X158000000Y-120826346D02*
X153466346Y-125360000D01*
X122508680Y-103410000D02*
X119968680Y-103410000D01*
X112000000Y-106500000D02*
X112348680Y-106151320D01*
X156678680Y-104800000D02*
X159300000Y-107421320D01*
X132670000Y-126750000D02*
X117430000Y-126750000D01*
X140288680Y-103410000D02*
X138898680Y-104800000D01*
X142830000Y-124210000D02*
X141680000Y-125360000D01*
X114000000Y-119750000D02*
X113500000Y-119750000D01*
X106600000Y-103650000D02*
X112108680Y-103650000D01*
X145128680Y-103410000D02*
X143978680Y-102260000D01*
X124808680Y-103410000D02*
X123658680Y-102260000D01*
X102250000Y-118500000D02*
X110500000Y-126750000D01*
X112108680Y-103650000D02*
X113498680Y-102260000D01*
X149058680Y-102260000D02*
X150208680Y-103410000D01*
X131278680Y-102260000D02*
X132668680Y-103650000D01*
X159300000Y-114950000D02*
X158000000Y-116250000D01*
X115750000Y-118000000D02*
X114000000Y-119750000D01*
X147908680Y-103410000D02*
X145128680Y-103410000D01*
X112348680Y-103410000D02*
X113498680Y-102260000D01*
X123658680Y-102260000D02*
X125048680Y-103650000D01*
X112350000Y-126750000D02*
X114890000Y-126750000D01*
X143978680Y-102260000D02*
X142828680Y-103410000D01*
X124808680Y-108441320D02*
X124808680Y-103410000D01*
X153466346Y-125360000D02*
X143980000Y-125360000D01*
X114888680Y-103650000D02*
X113498680Y-102260000D01*
X123658680Y-102260000D02*
X122508680Y-103410000D01*
X150208680Y-103410000D02*
X155288680Y-103410000D01*
X110500000Y-126750000D02*
X112350000Y-126750000D01*
X132668680Y-103650000D02*
X137748680Y-103650000D01*
X143980000Y-125360000D02*
X142830000Y-124210000D01*
X124500000Y-108750000D02*
X124808680Y-108441320D01*
X141680000Y-125360000D02*
X134060000Y-125360000D01*
X129888680Y-103650000D02*
X131278680Y-102260000D01*
X113500000Y-125600000D02*
X113500000Y-119750000D01*
X149058680Y-102260000D02*
X147908680Y-103410000D01*
X115750000Y-115750000D02*
X115750000Y-118000000D01*
X158000000Y-116250000D02*
X158000000Y-120826346D01*
X134060000Y-125360000D02*
X132670000Y-126750000D01*
X142828680Y-103410000D02*
X140288680Y-103410000D01*
X112350000Y-126750000D02*
X113500000Y-125600000D01*
X119968680Y-103410000D02*
X118578680Y-104800000D01*
%TD*%
%TA.AperFunction,Conductor*%
%TO.N,GND*%
G36*
X113704855Y-124876546D02*
G01*
X113721575Y-124895842D01*
X113851500Y-125081395D01*
X113851505Y-125081401D01*
X114018599Y-125248495D01*
X114175591Y-125358422D01*
X114204595Y-125378731D01*
X114248219Y-125433308D01*
X114255412Y-125502807D01*
X114223890Y-125565161D01*
X114204594Y-125581881D01*
X114128627Y-125635073D01*
X114128626Y-125635073D01*
X114760591Y-126267037D01*
X114697007Y-126284075D01*
X114582993Y-126349901D01*
X114489901Y-126442993D01*
X114424075Y-126557007D01*
X114407037Y-126620590D01*
X113770841Y-125984394D01*
X113718295Y-125973834D01*
X113668112Y-125925219D01*
X113658282Y-125903077D01*
X113634358Y-125830880D01*
X113634356Y-125830875D01*
X113542315Y-125681654D01*
X113418345Y-125557684D01*
X113269124Y-125465643D01*
X113269117Y-125465640D01*
X113260283Y-125462713D01*
X113202839Y-125422939D01*
X113176018Y-125358422D01*
X113188335Y-125289647D01*
X113217682Y-125252432D01*
X113217573Y-125252323D01*
X113218495Y-125251400D01*
X113219588Y-125250015D01*
X113221385Y-125248505D01*
X113221401Y-125248495D01*
X113388495Y-125081401D01*
X113518425Y-124895842D01*
X113573002Y-124852217D01*
X113642500Y-124845023D01*
X113704855Y-124876546D01*
G37*
%TD.AperFunction*%
%TA.AperFunction,Conductor*%
G36*
X116244855Y-124876546D02*
G01*
X116261575Y-124895842D01*
X116391500Y-125081395D01*
X116391505Y-125081401D01*
X116558599Y-125248495D01*
X116715591Y-125358422D01*
X116744595Y-125378731D01*
X116788219Y-125433308D01*
X116795412Y-125502807D01*
X116763890Y-125565161D01*
X116744594Y-125581881D01*
X116668627Y-125635073D01*
X116668626Y-125635073D01*
X117300591Y-126267037D01*
X117237007Y-126284075D01*
X117122993Y-126349901D01*
X117029901Y-126442993D01*
X116964075Y-126557007D01*
X116947037Y-126620590D01*
X116315073Y-125988626D01*
X116315073Y-125988627D01*
X116261575Y-126065031D01*
X116206999Y-126108656D01*
X116137500Y-126115850D01*
X116075145Y-126084327D01*
X116058425Y-126065032D01*
X116004925Y-125988626D01*
X115372962Y-126620590D01*
X115355925Y-126557007D01*
X115290099Y-126442993D01*
X115197007Y-126349901D01*
X115082993Y-126284075D01*
X115019409Y-126267037D01*
X115651372Y-125635073D01*
X115651372Y-125635072D01*
X115575405Y-125581879D01*
X115531780Y-125527302D01*
X115524588Y-125457804D01*
X115556110Y-125395449D01*
X115575406Y-125378730D01*
X115604409Y-125358422D01*
X115761401Y-125248495D01*
X115928495Y-125081401D01*
X116058425Y-124895842D01*
X116113002Y-124852217D01*
X116182500Y-124845023D01*
X116244855Y-124876546D01*
G37*
%TD.AperFunction*%
%TA.AperFunction,Conductor*%
G36*
X118784855Y-124876546D02*
G01*
X118801575Y-124895842D01*
X118931500Y-125081395D01*
X118931505Y-125081401D01*
X119098599Y-125248495D01*
X119255591Y-125358422D01*
X119284595Y-125378731D01*
X119328219Y-125433308D01*
X119335412Y-125502807D01*
X119303890Y-125565161D01*
X119284594Y-125581881D01*
X119208627Y-125635073D01*
X119208626Y-125635073D01*
X119840591Y-126267037D01*
X119777007Y-126284075D01*
X119662993Y-126349901D01*
X119569901Y-126442993D01*
X119504075Y-126557007D01*
X119487037Y-126620590D01*
X118855073Y-125988626D01*
X118855073Y-125988627D01*
X118801575Y-126065031D01*
X118746999Y-126108656D01*
X118677500Y-126115850D01*
X118615145Y-126084327D01*
X118598425Y-126065032D01*
X118544925Y-125988626D01*
X117912962Y-126620590D01*
X117895925Y-126557007D01*
X117830099Y-126442993D01*
X117737007Y-126349901D01*
X117622993Y-126284075D01*
X117559409Y-126267037D01*
X118191372Y-125635073D01*
X118191372Y-125635072D01*
X118115405Y-125581879D01*
X118071780Y-125527302D01*
X118064588Y-125457804D01*
X118096110Y-125395449D01*
X118115406Y-125378730D01*
X118144409Y-125358422D01*
X118301401Y-125248495D01*
X118468495Y-125081401D01*
X118598425Y-124895842D01*
X118653002Y-124852217D01*
X118722500Y-124845023D01*
X118784855Y-124876546D01*
G37*
%TD.AperFunction*%
%TA.AperFunction,Conductor*%
G36*
X121324855Y-124876546D02*
G01*
X121341575Y-124895842D01*
X121471500Y-125081395D01*
X121471505Y-125081401D01*
X121638599Y-125248495D01*
X121795591Y-125358422D01*
X121824595Y-125378731D01*
X121868219Y-125433308D01*
X121875412Y-125502807D01*
X121843890Y-125565161D01*
X121824594Y-125581881D01*
X121748627Y-125635073D01*
X121748626Y-125635073D01*
X122380591Y-126267037D01*
X122317007Y-126284075D01*
X122202993Y-126349901D01*
X122109901Y-126442993D01*
X122044075Y-126557007D01*
X122027037Y-126620590D01*
X121395073Y-125988626D01*
X121395073Y-125988627D01*
X121341575Y-126065031D01*
X121286999Y-126108656D01*
X121217500Y-126115850D01*
X121155145Y-126084327D01*
X121138425Y-126065032D01*
X121084925Y-125988626D01*
X120452962Y-126620590D01*
X120435925Y-126557007D01*
X120370099Y-126442993D01*
X120277007Y-126349901D01*
X120162993Y-126284075D01*
X120099409Y-126267037D01*
X120731372Y-125635073D01*
X120731372Y-125635072D01*
X120655405Y-125581879D01*
X120611780Y-125527302D01*
X120604588Y-125457804D01*
X120636110Y-125395449D01*
X120655406Y-125378730D01*
X120684409Y-125358422D01*
X120841401Y-125248495D01*
X121008495Y-125081401D01*
X121138425Y-124895842D01*
X121193002Y-124852217D01*
X121262500Y-124845023D01*
X121324855Y-124876546D01*
G37*
%TD.AperFunction*%
%TA.AperFunction,Conductor*%
G36*
X123864855Y-124876546D02*
G01*
X123881575Y-124895842D01*
X124011500Y-125081395D01*
X124011505Y-125081401D01*
X124178599Y-125248495D01*
X124335591Y-125358422D01*
X124364595Y-125378731D01*
X124408219Y-125433308D01*
X124415412Y-125502807D01*
X124383890Y-125565161D01*
X124364594Y-125581881D01*
X124288627Y-125635073D01*
X124288626Y-125635073D01*
X124920591Y-126267037D01*
X124857007Y-126284075D01*
X124742993Y-126349901D01*
X124649901Y-126442993D01*
X124584075Y-126557007D01*
X124567037Y-126620590D01*
X123935073Y-125988626D01*
X123935073Y-125988627D01*
X123881575Y-126065031D01*
X123826999Y-126108656D01*
X123757500Y-126115850D01*
X123695145Y-126084327D01*
X123678425Y-126065032D01*
X123624925Y-125988626D01*
X122992962Y-126620590D01*
X122975925Y-126557007D01*
X122910099Y-126442993D01*
X122817007Y-126349901D01*
X122702993Y-126284075D01*
X122639409Y-126267037D01*
X123271372Y-125635073D01*
X123271372Y-125635072D01*
X123195405Y-125581879D01*
X123151780Y-125527302D01*
X123144588Y-125457804D01*
X123176110Y-125395449D01*
X123195406Y-125378730D01*
X123224409Y-125358422D01*
X123381401Y-125248495D01*
X123548495Y-125081401D01*
X123678425Y-124895842D01*
X123733002Y-124852217D01*
X123802500Y-124845023D01*
X123864855Y-124876546D01*
G37*
%TD.AperFunction*%
%TA.AperFunction,Conductor*%
G36*
X126404855Y-124876546D02*
G01*
X126421575Y-124895842D01*
X126551500Y-125081395D01*
X126551505Y-125081401D01*
X126718599Y-125248495D01*
X126875591Y-125358422D01*
X126904595Y-125378731D01*
X126948219Y-125433308D01*
X126955412Y-125502807D01*
X126923890Y-125565161D01*
X126904594Y-125581881D01*
X126828627Y-125635073D01*
X126828626Y-125635073D01*
X127460591Y-126267037D01*
X127397007Y-126284075D01*
X127282993Y-126349901D01*
X127189901Y-126442993D01*
X127124075Y-126557007D01*
X127107037Y-126620590D01*
X126475073Y-125988626D01*
X126475073Y-125988627D01*
X126421575Y-126065031D01*
X126366999Y-126108656D01*
X126297500Y-126115850D01*
X126235145Y-126084327D01*
X126218425Y-126065032D01*
X126164925Y-125988626D01*
X125532962Y-126620590D01*
X125515925Y-126557007D01*
X125450099Y-126442993D01*
X125357007Y-126349901D01*
X125242993Y-126284075D01*
X125179409Y-126267037D01*
X125811372Y-125635073D01*
X125811372Y-125635072D01*
X125735405Y-125581879D01*
X125691780Y-125527302D01*
X125684588Y-125457804D01*
X125716110Y-125395449D01*
X125735406Y-125378730D01*
X125764409Y-125358422D01*
X125921401Y-125248495D01*
X126088495Y-125081401D01*
X126218425Y-124895842D01*
X126273002Y-124852217D01*
X126342500Y-124845023D01*
X126404855Y-124876546D01*
G37*
%TD.AperFunction*%
%TA.AperFunction,Conductor*%
G36*
X128944855Y-124876546D02*
G01*
X128961575Y-124895842D01*
X129091500Y-125081395D01*
X129091505Y-125081401D01*
X129258599Y-125248495D01*
X129415591Y-125358422D01*
X129444595Y-125378731D01*
X129488219Y-125433308D01*
X129495412Y-125502807D01*
X129463890Y-125565161D01*
X129444594Y-125581881D01*
X129368627Y-125635073D01*
X129368626Y-125635073D01*
X130000591Y-126267037D01*
X129937007Y-126284075D01*
X129822993Y-126349901D01*
X129729901Y-126442993D01*
X129664075Y-126557007D01*
X129647037Y-126620590D01*
X129015073Y-125988626D01*
X129015073Y-125988627D01*
X128961575Y-126065031D01*
X128906999Y-126108656D01*
X128837500Y-126115850D01*
X128775145Y-126084327D01*
X128758425Y-126065032D01*
X128704925Y-125988626D01*
X128072962Y-126620590D01*
X128055925Y-126557007D01*
X127990099Y-126442993D01*
X127897007Y-126349901D01*
X127782993Y-126284075D01*
X127719409Y-126267037D01*
X128351372Y-125635073D01*
X128351372Y-125635072D01*
X128275405Y-125581879D01*
X128231780Y-125527302D01*
X128224588Y-125457804D01*
X128256110Y-125395449D01*
X128275406Y-125378730D01*
X128304409Y-125358422D01*
X128461401Y-125248495D01*
X128628495Y-125081401D01*
X128758425Y-124895842D01*
X128813002Y-124852217D01*
X128882500Y-124845023D01*
X128944855Y-124876546D01*
G37*
%TD.AperFunction*%
%TA.AperFunction,Conductor*%
G36*
X131484855Y-124876546D02*
G01*
X131501575Y-124895842D01*
X131631500Y-125081395D01*
X131631505Y-125081401D01*
X131798599Y-125248495D01*
X131955591Y-125358422D01*
X131984595Y-125378731D01*
X132028219Y-125433308D01*
X132035412Y-125502807D01*
X132003890Y-125565161D01*
X131984594Y-125581881D01*
X131908627Y-125635073D01*
X131908626Y-125635073D01*
X132540591Y-126267037D01*
X132477007Y-126284075D01*
X132362993Y-126349901D01*
X132269901Y-126442993D01*
X132204075Y-126557007D01*
X132187037Y-126620590D01*
X131555073Y-125988626D01*
X131555073Y-125988627D01*
X131501575Y-126065031D01*
X131446999Y-126108656D01*
X131377500Y-126115850D01*
X131315145Y-126084327D01*
X131298425Y-126065032D01*
X131244925Y-125988626D01*
X130612962Y-126620590D01*
X130595925Y-126557007D01*
X130530099Y-126442993D01*
X130437007Y-126349901D01*
X130322993Y-126284075D01*
X130259409Y-126267037D01*
X130891372Y-125635073D01*
X130891372Y-125635072D01*
X130815405Y-125581879D01*
X130771780Y-125527302D01*
X130764588Y-125457804D01*
X130796110Y-125395449D01*
X130815406Y-125378730D01*
X130844409Y-125358422D01*
X131001401Y-125248495D01*
X131168495Y-125081401D01*
X131298425Y-124895842D01*
X131353002Y-124852217D01*
X131422500Y-124845023D01*
X131484855Y-124876546D01*
G37*
%TD.AperFunction*%
%TA.AperFunction,Conductor*%
G36*
X134024855Y-124876546D02*
G01*
X134041575Y-124895842D01*
X134171501Y-125081396D01*
X134171506Y-125081402D01*
X134338597Y-125248493D01*
X134338603Y-125248498D01*
X134524158Y-125378425D01*
X134567783Y-125433002D01*
X134574977Y-125502500D01*
X134543454Y-125564855D01*
X134524158Y-125581575D01*
X134338597Y-125711505D01*
X134171508Y-125878594D01*
X134041269Y-126064595D01*
X133986692Y-126108219D01*
X133917193Y-126115412D01*
X133854839Y-126083890D01*
X133838119Y-126064595D01*
X133784925Y-125988626D01*
X133152962Y-126620590D01*
X133135925Y-126557007D01*
X133070099Y-126442993D01*
X132977007Y-126349901D01*
X132862993Y-126284075D01*
X132799409Y-126267037D01*
X133431372Y-125635073D01*
X133431372Y-125635072D01*
X133355405Y-125581879D01*
X133311780Y-125527302D01*
X133304588Y-125457804D01*
X133336110Y-125395449D01*
X133355406Y-125378730D01*
X133384409Y-125358422D01*
X133541401Y-125248495D01*
X133708495Y-125081401D01*
X133838425Y-124895842D01*
X133893002Y-124852217D01*
X133962500Y-124845023D01*
X134024855Y-124876546D01*
G37*
%TD.AperFunction*%
%TA.AperFunction,Conductor*%
G36*
X136564855Y-124876546D02*
G01*
X136581575Y-124895842D01*
X136711501Y-125081396D01*
X136711506Y-125081402D01*
X136878597Y-125248493D01*
X136878603Y-125248498D01*
X137064158Y-125378425D01*
X137107783Y-125433002D01*
X137114977Y-125502500D01*
X137083454Y-125564855D01*
X137064158Y-125581575D01*
X136878597Y-125711505D01*
X136711505Y-125878597D01*
X136581575Y-126064158D01*
X136526998Y-126107783D01*
X136457500Y-126114977D01*
X136395145Y-126083454D01*
X136378425Y-126064158D01*
X136248494Y-125878597D01*
X136081402Y-125711506D01*
X136081396Y-125711501D01*
X135895842Y-125581575D01*
X135852217Y-125526998D01*
X135845023Y-125457500D01*
X135876546Y-125395145D01*
X135895842Y-125378425D01*
X135972248Y-125324925D01*
X136081401Y-125248495D01*
X136248495Y-125081401D01*
X136378425Y-124895842D01*
X136433002Y-124852217D01*
X136502500Y-124845023D01*
X136564855Y-124876546D01*
G37*
%TD.AperFunction*%
%TA.AperFunction,Conductor*%
G36*
X139104855Y-124876546D02*
G01*
X139121575Y-124895842D01*
X139251501Y-125081396D01*
X139251506Y-125081402D01*
X139418597Y-125248493D01*
X139418603Y-125248498D01*
X139604158Y-125378425D01*
X139647783Y-125433002D01*
X139654977Y-125502500D01*
X139623454Y-125564855D01*
X139604158Y-125581575D01*
X139418597Y-125711505D01*
X139251505Y-125878597D01*
X139121575Y-126064158D01*
X139066998Y-126107783D01*
X138997500Y-126114977D01*
X138935145Y-126083454D01*
X138918425Y-126064158D01*
X138788494Y-125878597D01*
X138621402Y-125711506D01*
X138621396Y-125711501D01*
X138435842Y-125581575D01*
X138392217Y-125526998D01*
X138385023Y-125457500D01*
X138416546Y-125395145D01*
X138435842Y-125378425D01*
X138512248Y-125324925D01*
X138621401Y-125248495D01*
X138788495Y-125081401D01*
X138918425Y-124895842D01*
X138973002Y-124852217D01*
X139042500Y-124845023D01*
X139104855Y-124876546D01*
G37*
%TD.AperFunction*%
%TA.AperFunction,Conductor*%
G36*
X142364075Y-124402993D02*
G01*
X142429901Y-124517007D01*
X142522993Y-124610099D01*
X142637007Y-124675925D01*
X142700591Y-124692962D01*
X142068627Y-125324925D01*
X142144595Y-125378119D01*
X142188219Y-125432696D01*
X142195412Y-125502195D01*
X142163890Y-125564549D01*
X142144595Y-125581269D01*
X141958594Y-125711508D01*
X141791505Y-125878597D01*
X141661575Y-126064158D01*
X141606998Y-126107783D01*
X141537500Y-126114977D01*
X141475145Y-126083454D01*
X141458425Y-126064158D01*
X141328494Y-125878597D01*
X141161402Y-125711506D01*
X141161396Y-125711501D01*
X140975842Y-125581575D01*
X140932217Y-125526998D01*
X140925023Y-125457500D01*
X140956546Y-125395145D01*
X140975842Y-125378425D01*
X141052248Y-125324925D01*
X141161401Y-125248495D01*
X141328495Y-125081401D01*
X141458730Y-124895405D01*
X141513307Y-124851781D01*
X141582805Y-124844587D01*
X141645160Y-124876110D01*
X141661879Y-124895405D01*
X141715072Y-124971372D01*
X141715073Y-124971372D01*
X142347037Y-124339408D01*
X142364075Y-124402993D01*
G37*
%TD.AperFunction*%
%TA.AperFunction,Conductor*%
G36*
X143944925Y-124971371D02*
G01*
X143998120Y-124895404D01*
X144052697Y-124851780D01*
X144122196Y-124844588D01*
X144184550Y-124876111D01*
X144201268Y-124895404D01*
X144331505Y-125081401D01*
X144331506Y-125081402D01*
X144498597Y-125248493D01*
X144498603Y-125248498D01*
X144684158Y-125378425D01*
X144727783Y-125433002D01*
X144734977Y-125502500D01*
X144703454Y-125564855D01*
X144684158Y-125581575D01*
X144498597Y-125711505D01*
X144331505Y-125878597D01*
X144201575Y-126064158D01*
X144146998Y-126107783D01*
X144077500Y-126114977D01*
X144015145Y-126083454D01*
X143998425Y-126064158D01*
X143868494Y-125878597D01*
X143701402Y-125711506D01*
X143701401Y-125711505D01*
X143515405Y-125581269D01*
X143471781Y-125526692D01*
X143464588Y-125457193D01*
X143496110Y-125394839D01*
X143515404Y-125378120D01*
X143591371Y-125324925D01*
X142959408Y-124692962D01*
X143022993Y-124675925D01*
X143137007Y-124610099D01*
X143230099Y-124517007D01*
X143295925Y-124402993D01*
X143312962Y-124339408D01*
X143944925Y-124971371D01*
G37*
%TD.AperFunction*%
%TA.AperFunction,Conductor*%
G36*
X146724855Y-124876546D02*
G01*
X146741575Y-124895842D01*
X146871501Y-125081396D01*
X146871506Y-125081402D01*
X147038597Y-125248493D01*
X147038603Y-125248498D01*
X147224158Y-125378425D01*
X147267783Y-125433002D01*
X147274977Y-125502500D01*
X147243454Y-125564855D01*
X147224158Y-125581575D01*
X147038597Y-125711505D01*
X146871505Y-125878597D01*
X146741575Y-126064158D01*
X146686998Y-126107783D01*
X146617500Y-126114977D01*
X146555145Y-126083454D01*
X146538425Y-126064158D01*
X146408494Y-125878597D01*
X146241402Y-125711506D01*
X146241396Y-125711501D01*
X146055842Y-125581575D01*
X146012217Y-125526998D01*
X146005023Y-125457500D01*
X146036546Y-125395145D01*
X146055842Y-125378425D01*
X146132248Y-125324925D01*
X146241401Y-125248495D01*
X146408495Y-125081401D01*
X146538425Y-124895842D01*
X146593002Y-124852217D01*
X146662500Y-124845023D01*
X146724855Y-124876546D01*
G37*
%TD.AperFunction*%
%TA.AperFunction,Conductor*%
G36*
X149264855Y-124876546D02*
G01*
X149281575Y-124895842D01*
X149411501Y-125081396D01*
X149411506Y-125081402D01*
X149578597Y-125248493D01*
X149578603Y-125248498D01*
X149764158Y-125378425D01*
X149807783Y-125433002D01*
X149814977Y-125502500D01*
X149783454Y-125564855D01*
X149764158Y-125581575D01*
X149578597Y-125711505D01*
X149411505Y-125878597D01*
X149281575Y-126064158D01*
X149226998Y-126107783D01*
X149157500Y-126114977D01*
X149095145Y-126083454D01*
X149078425Y-126064158D01*
X148948494Y-125878597D01*
X148781402Y-125711506D01*
X148781396Y-125711501D01*
X148595842Y-125581575D01*
X148552217Y-125526998D01*
X148545023Y-125457500D01*
X148576546Y-125395145D01*
X148595842Y-125378425D01*
X148672248Y-125324925D01*
X148781401Y-125248495D01*
X148948495Y-125081401D01*
X149078425Y-124895842D01*
X149133002Y-124852217D01*
X149202500Y-124845023D01*
X149264855Y-124876546D01*
G37*
%TD.AperFunction*%
%TA.AperFunction,Conductor*%
G36*
X151804855Y-124876546D02*
G01*
X151821575Y-124895842D01*
X151951501Y-125081396D01*
X151951506Y-125081402D01*
X152118597Y-125248493D01*
X152118603Y-125248498D01*
X152304158Y-125378425D01*
X152347783Y-125433002D01*
X152354977Y-125502500D01*
X152323454Y-125564855D01*
X152304158Y-125581575D01*
X152118597Y-125711505D01*
X151951505Y-125878597D01*
X151821575Y-126064158D01*
X151766998Y-126107783D01*
X151697500Y-126114977D01*
X151635145Y-126083454D01*
X151618425Y-126064158D01*
X151488494Y-125878597D01*
X151321402Y-125711506D01*
X151321396Y-125711501D01*
X151135842Y-125581575D01*
X151092217Y-125526998D01*
X151085023Y-125457500D01*
X151116546Y-125395145D01*
X151135842Y-125378425D01*
X151212248Y-125324925D01*
X151321401Y-125248495D01*
X151488495Y-125081401D01*
X151618425Y-124895842D01*
X151673002Y-124852217D01*
X151742500Y-124845023D01*
X151804855Y-124876546D01*
G37*
%TD.AperFunction*%
%TA.AperFunction,Conductor*%
G36*
X117393535Y-102926546D02*
G01*
X117410255Y-102945842D01*
X117540180Y-103131395D01*
X117540185Y-103131401D01*
X117707279Y-103298495D01*
X117874119Y-103415318D01*
X117893274Y-103428730D01*
X117936899Y-103483307D01*
X117944093Y-103552805D01*
X117912570Y-103615160D01*
X117893275Y-103631880D01*
X117707602Y-103761890D01*
X117707600Y-103761891D01*
X117540571Y-103928920D01*
X117540570Y-103928922D01*
X117410560Y-104114595D01*
X117355983Y-104158219D01*
X117286484Y-104165412D01*
X117224130Y-104133890D01*
X117207410Y-104114594D01*
X117077174Y-103928597D01*
X116910082Y-103761506D01*
X116910076Y-103761501D01*
X116724522Y-103631575D01*
X116680897Y-103576998D01*
X116673703Y-103507500D01*
X116705226Y-103445145D01*
X116724522Y-103428425D01*
X116836734Y-103349853D01*
X116910081Y-103298495D01*
X117077175Y-103131401D01*
X117207105Y-102945842D01*
X117261682Y-102902217D01*
X117331180Y-102895023D01*
X117393535Y-102926546D01*
G37*
%TD.AperFunction*%
%TA.AperFunction,Conductor*%
G36*
X119933535Y-102926546D02*
G01*
X119950255Y-102945842D01*
X120080181Y-103131396D01*
X120080186Y-103131402D01*
X120247277Y-103298493D01*
X120247283Y-103298498D01*
X120432838Y-103428425D01*
X120476463Y-103483002D01*
X120483657Y-103552500D01*
X120452134Y-103614855D01*
X120432838Y-103631575D01*
X120247277Y-103761505D01*
X120080188Y-103928594D01*
X119949949Y-104114595D01*
X119895372Y-104158219D01*
X119825873Y-104165412D01*
X119763519Y-104133890D01*
X119746799Y-104114594D01*
X119616793Y-103928926D01*
X119616788Y-103928920D01*
X119449758Y-103761890D01*
X119264085Y-103631879D01*
X119220460Y-103577302D01*
X119213268Y-103507804D01*
X119244790Y-103445449D01*
X119264086Y-103428730D01*
X119264959Y-103428119D01*
X119450081Y-103298495D01*
X119617175Y-103131401D01*
X119747105Y-102945842D01*
X119801682Y-102902217D01*
X119871180Y-102895023D01*
X119933535Y-102926546D01*
G37*
%TD.AperFunction*%
%TA.AperFunction,Conductor*%
G36*
X137713535Y-102926546D02*
G01*
X137730255Y-102945842D01*
X137860180Y-103131395D01*
X137860185Y-103131401D01*
X138027279Y-103298495D01*
X138194119Y-103415318D01*
X138213274Y-103428730D01*
X138256899Y-103483307D01*
X138264093Y-103552805D01*
X138232570Y-103615160D01*
X138213275Y-103631880D01*
X138027602Y-103761890D01*
X138027600Y-103761891D01*
X137860571Y-103928920D01*
X137860570Y-103928922D01*
X137730560Y-104114595D01*
X137675983Y-104158219D01*
X137606484Y-104165412D01*
X137544130Y-104133890D01*
X137527410Y-104114594D01*
X137397174Y-103928597D01*
X137230082Y-103761506D01*
X137230076Y-103761501D01*
X137044522Y-103631575D01*
X137000897Y-103576998D01*
X136993703Y-103507500D01*
X137025226Y-103445145D01*
X137044522Y-103428425D01*
X137156734Y-103349853D01*
X137230081Y-103298495D01*
X137397175Y-103131401D01*
X137527105Y-102945842D01*
X137581682Y-102902217D01*
X137651180Y-102895023D01*
X137713535Y-102926546D01*
G37*
%TD.AperFunction*%
%TA.AperFunction,Conductor*%
G36*
X140253535Y-102926546D02*
G01*
X140270255Y-102945842D01*
X140400181Y-103131396D01*
X140400186Y-103131402D01*
X140567277Y-103298493D01*
X140567283Y-103298498D01*
X140752838Y-103428425D01*
X140796463Y-103483002D01*
X140803657Y-103552500D01*
X140772134Y-103614855D01*
X140752838Y-103631575D01*
X140567277Y-103761505D01*
X140400188Y-103928594D01*
X140269949Y-104114595D01*
X140215372Y-104158219D01*
X140145873Y-104165412D01*
X140083519Y-104133890D01*
X140066799Y-104114594D01*
X139936793Y-103928926D01*
X139936788Y-103928920D01*
X139769758Y-103761890D01*
X139584085Y-103631879D01*
X139540460Y-103577302D01*
X139533268Y-103507804D01*
X139564790Y-103445449D01*
X139584086Y-103428730D01*
X139584959Y-103428119D01*
X139770081Y-103298495D01*
X139937175Y-103131401D01*
X140067105Y-102945842D01*
X140121682Y-102902217D01*
X140191180Y-102895023D01*
X140253535Y-102926546D01*
G37*
%TD.AperFunction*%
%TA.AperFunction,Conductor*%
G36*
X155493535Y-102926546D02*
G01*
X155510255Y-102945842D01*
X155640180Y-103131395D01*
X155640185Y-103131401D01*
X155807279Y-103298495D01*
X155974119Y-103415318D01*
X155993274Y-103428730D01*
X156036899Y-103483307D01*
X156044093Y-103552805D01*
X156012570Y-103615160D01*
X155993275Y-103631880D01*
X155807602Y-103761890D01*
X155807600Y-103761891D01*
X155640571Y-103928920D01*
X155640570Y-103928922D01*
X155510560Y-104114595D01*
X155455983Y-104158219D01*
X155386484Y-104165412D01*
X155324130Y-104133890D01*
X155307410Y-104114594D01*
X155177174Y-103928597D01*
X155010082Y-103761506D01*
X155010076Y-103761501D01*
X154824522Y-103631575D01*
X154780897Y-103576998D01*
X154773703Y-103507500D01*
X154805226Y-103445145D01*
X154824522Y-103428425D01*
X154936734Y-103349853D01*
X155010081Y-103298495D01*
X155177175Y-103131401D01*
X155307105Y-102945842D01*
X155361682Y-102902217D01*
X155431180Y-102895023D01*
X155493535Y-102926546D01*
G37*
%TD.AperFunction*%
%TA.AperFunction,Conductor*%
G36*
X112313840Y-102926110D02*
G01*
X112330559Y-102945405D01*
X112460570Y-103131078D01*
X112627597Y-103298105D01*
X112813275Y-103428119D01*
X112856899Y-103482696D01*
X112864092Y-103552195D01*
X112832570Y-103614549D01*
X112813275Y-103631269D01*
X112627274Y-103761508D01*
X112460185Y-103928597D01*
X112330255Y-104114158D01*
X112275678Y-104157783D01*
X112206180Y-104164977D01*
X112143825Y-104133454D01*
X112127105Y-104114158D01*
X111997174Y-103928597D01*
X111830082Y-103761506D01*
X111830076Y-103761501D01*
X111644522Y-103631575D01*
X111600897Y-103576998D01*
X111593703Y-103507500D01*
X111625226Y-103445145D01*
X111644522Y-103428425D01*
X111756734Y-103349853D01*
X111830081Y-103298495D01*
X111997175Y-103131401D01*
X112127410Y-102945405D01*
X112181987Y-102901781D01*
X112251485Y-102894587D01*
X112313840Y-102926110D01*
G37*
%TD.AperFunction*%
%TA.AperFunction,Conductor*%
G36*
X114853229Y-102926110D02*
G01*
X114869949Y-102945405D01*
X115000185Y-103131401D01*
X115000186Y-103131402D01*
X115167277Y-103298493D01*
X115167283Y-103298498D01*
X115352838Y-103428425D01*
X115396463Y-103483002D01*
X115403657Y-103552500D01*
X115372134Y-103614855D01*
X115352838Y-103631575D01*
X115167277Y-103761505D01*
X115000185Y-103928597D01*
X114870255Y-104114158D01*
X114815678Y-104157783D01*
X114746180Y-104164977D01*
X114683825Y-104133454D01*
X114667105Y-104114158D01*
X114537174Y-103928597D01*
X114370082Y-103761506D01*
X114370081Y-103761505D01*
X114202524Y-103644180D01*
X114184085Y-103631269D01*
X114140461Y-103576692D01*
X114133268Y-103507193D01*
X114164790Y-103444839D01*
X114184085Y-103428119D01*
X114369762Y-103298105D01*
X114536785Y-103131082D01*
X114666799Y-102945405D01*
X114721376Y-102901781D01*
X114790875Y-102894588D01*
X114853229Y-102926110D01*
G37*
%TD.AperFunction*%
%TA.AperFunction,Conductor*%
G36*
X122473840Y-102926110D02*
G01*
X122490559Y-102945405D01*
X122620570Y-103131078D01*
X122787597Y-103298105D01*
X122973275Y-103428119D01*
X123016899Y-103482696D01*
X123024092Y-103552195D01*
X122992570Y-103614549D01*
X122973275Y-103631269D01*
X122787274Y-103761508D01*
X122620185Y-103928597D01*
X122490255Y-104114158D01*
X122435678Y-104157783D01*
X122366180Y-104164977D01*
X122303825Y-104133454D01*
X122287105Y-104114158D01*
X122157174Y-103928597D01*
X121990082Y-103761506D01*
X121990076Y-103761501D01*
X121804522Y-103631575D01*
X121760897Y-103576998D01*
X121753703Y-103507500D01*
X121785226Y-103445145D01*
X121804522Y-103428425D01*
X121916734Y-103349853D01*
X121990081Y-103298495D01*
X122157175Y-103131401D01*
X122287410Y-102945405D01*
X122341987Y-102901781D01*
X122411485Y-102894587D01*
X122473840Y-102926110D01*
G37*
%TD.AperFunction*%
%TA.AperFunction,Conductor*%
G36*
X125013229Y-102926110D02*
G01*
X125029949Y-102945405D01*
X125160185Y-103131401D01*
X125160186Y-103131402D01*
X125327277Y-103298493D01*
X125327283Y-103298498D01*
X125512838Y-103428425D01*
X125556463Y-103483002D01*
X125563657Y-103552500D01*
X125532134Y-103614855D01*
X125512838Y-103631575D01*
X125327277Y-103761505D01*
X125160185Y-103928597D01*
X125030255Y-104114158D01*
X124975678Y-104157783D01*
X124906180Y-104164977D01*
X124843825Y-104133454D01*
X124827105Y-104114158D01*
X124697174Y-103928597D01*
X124530082Y-103761506D01*
X124530081Y-103761505D01*
X124362524Y-103644180D01*
X124344085Y-103631269D01*
X124300461Y-103576692D01*
X124293268Y-103507193D01*
X124324790Y-103444839D01*
X124344085Y-103428119D01*
X124529762Y-103298105D01*
X124696785Y-103131082D01*
X124826799Y-102945405D01*
X124881376Y-102901781D01*
X124950875Y-102894588D01*
X125013229Y-102926110D01*
G37*
%TD.AperFunction*%
%TA.AperFunction,Conductor*%
G36*
X127553535Y-102926546D02*
G01*
X127570255Y-102945842D01*
X127700181Y-103131396D01*
X127700186Y-103131402D01*
X127867277Y-103298493D01*
X127867283Y-103298498D01*
X128052838Y-103428425D01*
X128096463Y-103483002D01*
X128103657Y-103552500D01*
X128072134Y-103614855D01*
X128052838Y-103631575D01*
X127867277Y-103761505D01*
X127700185Y-103928597D01*
X127570255Y-104114158D01*
X127515678Y-104157783D01*
X127446180Y-104164977D01*
X127383825Y-104133454D01*
X127367105Y-104114158D01*
X127237174Y-103928597D01*
X127070082Y-103761506D01*
X127070076Y-103761501D01*
X126884522Y-103631575D01*
X126840897Y-103576998D01*
X126833703Y-103507500D01*
X126865226Y-103445145D01*
X126884522Y-103428425D01*
X126996734Y-103349853D01*
X127070081Y-103298495D01*
X127237175Y-103131401D01*
X127367105Y-102945842D01*
X127421682Y-102902217D01*
X127491180Y-102895023D01*
X127553535Y-102926546D01*
G37*
%TD.AperFunction*%
%TA.AperFunction,Conductor*%
G36*
X130093840Y-102926110D02*
G01*
X130110559Y-102945405D01*
X130240570Y-103131078D01*
X130407597Y-103298105D01*
X130593275Y-103428119D01*
X130636899Y-103482696D01*
X130644092Y-103552195D01*
X130612570Y-103614549D01*
X130593275Y-103631269D01*
X130407274Y-103761508D01*
X130240185Y-103928597D01*
X130110255Y-104114158D01*
X130055678Y-104157783D01*
X129986180Y-104164977D01*
X129923825Y-104133454D01*
X129907105Y-104114158D01*
X129777174Y-103928597D01*
X129610082Y-103761506D01*
X129610076Y-103761501D01*
X129424522Y-103631575D01*
X129380897Y-103576998D01*
X129373703Y-103507500D01*
X129405226Y-103445145D01*
X129424522Y-103428425D01*
X129536734Y-103349853D01*
X129610081Y-103298495D01*
X129777175Y-103131401D01*
X129907410Y-102945405D01*
X129961987Y-102901781D01*
X130031485Y-102894587D01*
X130093840Y-102926110D01*
G37*
%TD.AperFunction*%
%TA.AperFunction,Conductor*%
G36*
X132633229Y-102926110D02*
G01*
X132649949Y-102945405D01*
X132780185Y-103131401D01*
X132780186Y-103131402D01*
X132947277Y-103298493D01*
X132947283Y-103298498D01*
X133132838Y-103428425D01*
X133176463Y-103483002D01*
X133183657Y-103552500D01*
X133152134Y-103614855D01*
X133132838Y-103631575D01*
X132947277Y-103761505D01*
X132780185Y-103928597D01*
X132650255Y-104114158D01*
X132595678Y-104157783D01*
X132526180Y-104164977D01*
X132463825Y-104133454D01*
X132447105Y-104114158D01*
X132317174Y-103928597D01*
X132150082Y-103761506D01*
X132150081Y-103761505D01*
X131982524Y-103644180D01*
X131964085Y-103631269D01*
X131920461Y-103576692D01*
X131913268Y-103507193D01*
X131944790Y-103444839D01*
X131964085Y-103428119D01*
X132149762Y-103298105D01*
X132316785Y-103131082D01*
X132446799Y-102945405D01*
X132501376Y-102901781D01*
X132570875Y-102894588D01*
X132633229Y-102926110D01*
G37*
%TD.AperFunction*%
%TA.AperFunction,Conductor*%
G36*
X135173535Y-102926546D02*
G01*
X135190255Y-102945842D01*
X135320181Y-103131396D01*
X135320186Y-103131402D01*
X135487277Y-103298493D01*
X135487283Y-103298498D01*
X135672838Y-103428425D01*
X135716463Y-103483002D01*
X135723657Y-103552500D01*
X135692134Y-103614855D01*
X135672838Y-103631575D01*
X135487277Y-103761505D01*
X135320185Y-103928597D01*
X135190255Y-104114158D01*
X135135678Y-104157783D01*
X135066180Y-104164977D01*
X135003825Y-104133454D01*
X134987105Y-104114158D01*
X134857174Y-103928597D01*
X134690082Y-103761506D01*
X134690076Y-103761501D01*
X134504522Y-103631575D01*
X134460897Y-103576998D01*
X134453703Y-103507500D01*
X134485226Y-103445145D01*
X134504522Y-103428425D01*
X134616734Y-103349853D01*
X134690081Y-103298495D01*
X134857175Y-103131401D01*
X134987105Y-102945842D01*
X135041682Y-102902217D01*
X135111180Y-102895023D01*
X135173535Y-102926546D01*
G37*
%TD.AperFunction*%
%TA.AperFunction,Conductor*%
G36*
X142793840Y-102926110D02*
G01*
X142810559Y-102945405D01*
X142940570Y-103131078D01*
X143107597Y-103298105D01*
X143293275Y-103428119D01*
X143336899Y-103482696D01*
X143344092Y-103552195D01*
X143312570Y-103614549D01*
X143293275Y-103631269D01*
X143107274Y-103761508D01*
X142940185Y-103928597D01*
X142810255Y-104114158D01*
X142755678Y-104157783D01*
X142686180Y-104164977D01*
X142623825Y-104133454D01*
X142607105Y-104114158D01*
X142477174Y-103928597D01*
X142310082Y-103761506D01*
X142310076Y-103761501D01*
X142124522Y-103631575D01*
X142080897Y-103576998D01*
X142073703Y-103507500D01*
X142105226Y-103445145D01*
X142124522Y-103428425D01*
X142236734Y-103349853D01*
X142310081Y-103298495D01*
X142477175Y-103131401D01*
X142607410Y-102945405D01*
X142661987Y-102901781D01*
X142731485Y-102894587D01*
X142793840Y-102926110D01*
G37*
%TD.AperFunction*%
%TA.AperFunction,Conductor*%
G36*
X145333229Y-102926110D02*
G01*
X145349949Y-102945405D01*
X145480185Y-103131401D01*
X145480186Y-103131402D01*
X145647277Y-103298493D01*
X145647283Y-103298498D01*
X145832838Y-103428425D01*
X145876463Y-103483002D01*
X145883657Y-103552500D01*
X145852134Y-103614855D01*
X145832838Y-103631575D01*
X145647277Y-103761505D01*
X145480185Y-103928597D01*
X145350255Y-104114158D01*
X145295678Y-104157783D01*
X145226180Y-104164977D01*
X145163825Y-104133454D01*
X145147105Y-104114158D01*
X145017174Y-103928597D01*
X144850082Y-103761506D01*
X144850081Y-103761505D01*
X144682524Y-103644180D01*
X144664085Y-103631269D01*
X144620461Y-103576692D01*
X144613268Y-103507193D01*
X144644790Y-103444839D01*
X144664085Y-103428119D01*
X144849762Y-103298105D01*
X145016785Y-103131082D01*
X145146799Y-102945405D01*
X145201376Y-102901781D01*
X145270875Y-102894588D01*
X145333229Y-102926110D01*
G37*
%TD.AperFunction*%
%TA.AperFunction,Conductor*%
G36*
X147873840Y-102926110D02*
G01*
X147890559Y-102945405D01*
X148020570Y-103131078D01*
X148187597Y-103298105D01*
X148373275Y-103428119D01*
X148416899Y-103482696D01*
X148424092Y-103552195D01*
X148392570Y-103614549D01*
X148373275Y-103631269D01*
X148187274Y-103761508D01*
X148020185Y-103928597D01*
X147890255Y-104114158D01*
X147835678Y-104157783D01*
X147766180Y-104164977D01*
X147703825Y-104133454D01*
X147687105Y-104114158D01*
X147557174Y-103928597D01*
X147390082Y-103761506D01*
X147390076Y-103761501D01*
X147204522Y-103631575D01*
X147160897Y-103576998D01*
X147153703Y-103507500D01*
X147185226Y-103445145D01*
X147204522Y-103428425D01*
X147316734Y-103349853D01*
X147390081Y-103298495D01*
X147557175Y-103131401D01*
X147687410Y-102945405D01*
X147741987Y-102901781D01*
X147811485Y-102894587D01*
X147873840Y-102926110D01*
G37*
%TD.AperFunction*%
%TA.AperFunction,Conductor*%
G36*
X150413229Y-102926110D02*
G01*
X150429949Y-102945405D01*
X150560185Y-103131401D01*
X150560186Y-103131402D01*
X150727277Y-103298493D01*
X150727283Y-103298498D01*
X150912838Y-103428425D01*
X150956463Y-103483002D01*
X150963657Y-103552500D01*
X150932134Y-103614855D01*
X150912838Y-103631575D01*
X150727277Y-103761505D01*
X150560185Y-103928597D01*
X150430255Y-104114158D01*
X150375678Y-104157783D01*
X150306180Y-104164977D01*
X150243825Y-104133454D01*
X150227105Y-104114158D01*
X150097174Y-103928597D01*
X149930082Y-103761506D01*
X149930081Y-103761505D01*
X149762524Y-103644180D01*
X149744085Y-103631269D01*
X149700461Y-103576692D01*
X149693268Y-103507193D01*
X149724790Y-103444839D01*
X149744085Y-103428119D01*
X149929762Y-103298105D01*
X150096785Y-103131082D01*
X150226799Y-102945405D01*
X150281376Y-102901781D01*
X150350875Y-102894588D01*
X150413229Y-102926110D01*
G37*
%TD.AperFunction*%
%TA.AperFunction,Conductor*%
G36*
X152953535Y-102926546D02*
G01*
X152970255Y-102945842D01*
X153100181Y-103131396D01*
X153100186Y-103131402D01*
X153267277Y-103298493D01*
X153267283Y-103298498D01*
X153452838Y-103428425D01*
X153496463Y-103483002D01*
X153503657Y-103552500D01*
X153472134Y-103614855D01*
X153452838Y-103631575D01*
X153267277Y-103761505D01*
X153100185Y-103928597D01*
X152970255Y-104114158D01*
X152915678Y-104157783D01*
X152846180Y-104164977D01*
X152783825Y-104133454D01*
X152767105Y-104114158D01*
X152637174Y-103928597D01*
X152470082Y-103761506D01*
X152470076Y-103761501D01*
X152284522Y-103631575D01*
X152240897Y-103576998D01*
X152233703Y-103507500D01*
X152265226Y-103445145D01*
X152284522Y-103428425D01*
X152396734Y-103349853D01*
X152470081Y-103298495D01*
X152637175Y-103131401D01*
X152767105Y-102945842D01*
X152821682Y-102902217D01*
X152891180Y-102895023D01*
X152953535Y-102926546D01*
G37*
%TD.AperFunction*%
%TA.AperFunction,Conductor*%
G36*
X109773535Y-102926546D02*
G01*
X109790255Y-102945842D01*
X109920181Y-103131396D01*
X109920186Y-103131402D01*
X110087277Y-103298493D01*
X110087283Y-103298498D01*
X110272838Y-103428425D01*
X110316463Y-103483002D01*
X110323657Y-103552500D01*
X110292134Y-103614855D01*
X110272838Y-103631575D01*
X110087280Y-103761503D01*
X109965353Y-103883430D01*
X109904030Y-103916914D01*
X109834338Y-103911930D01*
X109778405Y-103870058D01*
X109761490Y-103839081D01*
X109712477Y-103707671D01*
X109712473Y-103707664D01*
X109626227Y-103592455D01*
X109626224Y-103592452D01*
X109511015Y-103506206D01*
X109511008Y-103506202D01*
X109379597Y-103457189D01*
X109323663Y-103415318D01*
X109299246Y-103349853D01*
X109314098Y-103281580D01*
X109335243Y-103253332D01*
X109457175Y-103131401D01*
X109587105Y-102945842D01*
X109641682Y-102902217D01*
X109711180Y-102895023D01*
X109773535Y-102926546D01*
G37*
%TD.AperFunction*%
%TA.AperFunction,Conductor*%
G36*
X161962791Y-100500501D02*
G01*
X162024933Y-100500500D01*
X162032419Y-100500725D01*
X162322483Y-100518269D01*
X162337341Y-100520073D01*
X162619489Y-100571778D01*
X162633999Y-100575353D01*
X162907865Y-100660691D01*
X162921862Y-100666000D01*
X163183426Y-100783719D01*
X163196685Y-100790678D01*
X163442150Y-100939066D01*
X163454473Y-100947572D01*
X163680262Y-101124464D01*
X163691470Y-101134393D01*
X163894295Y-101337216D01*
X163904220Y-101348419D01*
X164081076Y-101574158D01*
X164081119Y-101574212D01*
X164089623Y-101586532D01*
X164238013Y-101831999D01*
X164238016Y-101832003D01*
X164244973Y-101845259D01*
X164276148Y-101914526D01*
X164362694Y-102106822D01*
X164367999Y-102120810D01*
X164411416Y-102260138D01*
X164453335Y-102394661D01*
X164456918Y-102409199D01*
X164508623Y-102691338D01*
X164510428Y-102706203D01*
X164527954Y-102995932D01*
X164528180Y-103003419D01*
X164528180Y-126996249D01*
X164527954Y-127003736D01*
X164510408Y-127293793D01*
X164508603Y-127308658D01*
X164456900Y-127590792D01*
X164453316Y-127605331D01*
X164367983Y-127879173D01*
X164362677Y-127893166D01*
X164244955Y-128154732D01*
X164238000Y-128167984D01*
X164089608Y-128413453D01*
X164081102Y-128425776D01*
X163904210Y-128651561D01*
X163894280Y-128662770D01*
X163691457Y-128865591D01*
X163680249Y-128875520D01*
X163454459Y-129052414D01*
X163442135Y-129060920D01*
X163196679Y-129209301D01*
X163183421Y-129216260D01*
X162921857Y-129333979D01*
X162907856Y-129339289D01*
X162634008Y-129424622D01*
X162619469Y-129428205D01*
X162337343Y-129479905D01*
X162322478Y-129481710D01*
X162032087Y-129499273D01*
X162024601Y-129499499D01*
X161955197Y-129499499D01*
X161955181Y-129499500D01*
X103032435Y-129499500D01*
X103024947Y-129499274D01*
X103024930Y-129499273D01*
X103021345Y-129499056D01*
X102734888Y-129481726D01*
X102720024Y-129479921D01*
X102437891Y-129428217D01*
X102423352Y-129424633D01*
X102149513Y-129339300D01*
X102135512Y-129333990D01*
X101873953Y-129216270D01*
X101860694Y-129209311D01*
X101860677Y-129209301D01*
X101737964Y-129135117D01*
X101615234Y-129060923D01*
X101602912Y-129052418D01*
X101377124Y-128875524D01*
X101365916Y-128865594D01*
X101163094Y-128662771D01*
X101153172Y-128651572D01*
X101033214Y-128498456D01*
X100976274Y-128425777D01*
X100967768Y-128413454D01*
X100819381Y-128167991D01*
X100812422Y-128154732D01*
X100787789Y-128099999D01*
X100694701Y-127893163D01*
X100689393Y-127879165D01*
X100604062Y-127605329D01*
X100600478Y-127590790D01*
X100594640Y-127558935D01*
X100548775Y-127308657D01*
X100546971Y-127293794D01*
X100542124Y-127213663D01*
X100529405Y-127003399D01*
X100529180Y-126995925D01*
X100529180Y-126372070D01*
X101903180Y-126372070D01*
X101903180Y-126627929D01*
X101943206Y-126880640D01*
X102022268Y-127123972D01*
X102022269Y-127123975D01*
X102086483Y-127250000D01*
X102108797Y-127293794D01*
X102138430Y-127351950D01*
X102288812Y-127558935D01*
X102288816Y-127558940D01*
X102469739Y-127739863D01*
X102469744Y-127739867D01*
X102577761Y-127818345D01*
X102676733Y-127890252D01*
X102825760Y-127966185D01*
X102904704Y-128006410D01*
X102904707Y-128006411D01*
X102990721Y-128034358D01*
X103148041Y-128085474D01*
X103400750Y-128125500D01*
X103400751Y-128125500D01*
X103656609Y-128125500D01*
X103656610Y-128125500D01*
X103909319Y-128085474D01*
X104152655Y-128006410D01*
X104380627Y-127890252D01*
X104587622Y-127739862D01*
X104768542Y-127558942D01*
X104918932Y-127351947D01*
X105035090Y-127123975D01*
X105114154Y-126880639D01*
X105154180Y-126627930D01*
X105154180Y-126372070D01*
X105114154Y-126119361D01*
X105043880Y-125903077D01*
X105035091Y-125876027D01*
X105035090Y-125876024D01*
X104951264Y-125711508D01*
X104918932Y-125648053D01*
X104899718Y-125621607D01*
X104768547Y-125441064D01*
X104768543Y-125441059D01*
X104587620Y-125260136D01*
X104587615Y-125260132D01*
X104380630Y-125109750D01*
X104380629Y-125109749D01*
X104380627Y-125109748D01*
X104307590Y-125072533D01*
X104152655Y-124993589D01*
X104152652Y-124993588D01*
X103909320Y-124914526D01*
X103782964Y-124894513D01*
X103656610Y-124874500D01*
X103400750Y-124874500D01*
X103316589Y-124887830D01*
X103148039Y-124914526D01*
X102904707Y-124993588D01*
X102904704Y-124993589D01*
X102676729Y-125109750D01*
X102469744Y-125260132D01*
X102469739Y-125260136D01*
X102288816Y-125441059D01*
X102288812Y-125441064D01*
X102138430Y-125648049D01*
X102022269Y-125876024D01*
X102022268Y-125876027D01*
X101943206Y-126119359D01*
X101903180Y-126372070D01*
X100529180Y-126372070D01*
X100529180Y-124209999D01*
X110994341Y-124209999D01*
X110994341Y-124210000D01*
X111014936Y-124445403D01*
X111014938Y-124445413D01*
X111076094Y-124673655D01*
X111076096Y-124673659D01*
X111076097Y-124673663D01*
X111155801Y-124844588D01*
X111175965Y-124887830D01*
X111175967Y-124887834D01*
X111250018Y-124993589D01*
X111311504Y-125081400D01*
X111311506Y-125081402D01*
X111478597Y-125248493D01*
X111480419Y-125250022D01*
X111481001Y-125250897D01*
X111482427Y-125252323D01*
X111482140Y-125252609D01*
X111519119Y-125308195D01*
X111520224Y-125378056D01*
X111483384Y-125437424D01*
X111439719Y-125462712D01*
X111430883Y-125465640D01*
X111430875Y-125465643D01*
X111281654Y-125557684D01*
X111157684Y-125681654D01*
X111065643Y-125830875D01*
X111065641Y-125830880D01*
X111010494Y-125997302D01*
X111010493Y-125997309D01*
X111000000Y-126100013D01*
X111000000Y-126500000D01*
X111916988Y-126500000D01*
X111884075Y-126557007D01*
X111850000Y-126684174D01*
X111850000Y-126815826D01*
X111884075Y-126942993D01*
X111916988Y-127000000D01*
X111000001Y-127000000D01*
X111000001Y-127399986D01*
X111010494Y-127502697D01*
X111065641Y-127669119D01*
X111065643Y-127669124D01*
X111157684Y-127818345D01*
X111281654Y-127942315D01*
X111430875Y-128034356D01*
X111430880Y-128034358D01*
X111597302Y-128089505D01*
X111597309Y-128089506D01*
X111700019Y-128099999D01*
X112099999Y-128099999D01*
X112100000Y-128099998D01*
X112100000Y-127183012D01*
X112157007Y-127215925D01*
X112284174Y-127250000D01*
X112415826Y-127250000D01*
X112542993Y-127215925D01*
X112600000Y-127183012D01*
X112600000Y-128099999D01*
X112999972Y-128099999D01*
X112999986Y-128099998D01*
X113102697Y-128089505D01*
X113269119Y-128034358D01*
X113269124Y-128034356D01*
X113418345Y-127942315D01*
X113542315Y-127818345D01*
X113634356Y-127669124D01*
X113634358Y-127669119D01*
X113658282Y-127596922D01*
X113698054Y-127539477D01*
X113762570Y-127512654D01*
X113773911Y-127512534D01*
X114407037Y-126879408D01*
X114424075Y-126942993D01*
X114489901Y-127057007D01*
X114582993Y-127150099D01*
X114697007Y-127215925D01*
X114760591Y-127232962D01*
X114128626Y-127864926D01*
X114212417Y-127923598D01*
X114212421Y-127923600D01*
X114426507Y-128023429D01*
X114426516Y-128023433D01*
X114654673Y-128084567D01*
X114654684Y-128084569D01*
X114889998Y-128105157D01*
X114890002Y-128105157D01*
X115125315Y-128084569D01*
X115125326Y-128084567D01*
X115353483Y-128023433D01*
X115353492Y-128023429D01*
X115567580Y-127923599D01*
X115651371Y-127864925D01*
X115019408Y-127232962D01*
X115082993Y-127215925D01*
X115197007Y-127150099D01*
X115290099Y-127057007D01*
X115355925Y-126942993D01*
X115372962Y-126879408D01*
X116004925Y-127511371D01*
X116058426Y-127434968D01*
X116113004Y-127391344D01*
X116182502Y-127384152D01*
X116244856Y-127415675D01*
X116261575Y-127434969D01*
X116315073Y-127511372D01*
X116947037Y-126879408D01*
X116964075Y-126942993D01*
X117029901Y-127057007D01*
X117122993Y-127150099D01*
X117237007Y-127215925D01*
X117300591Y-127232962D01*
X116668626Y-127864926D01*
X116752417Y-127923598D01*
X116752421Y-127923600D01*
X116966507Y-128023429D01*
X116966516Y-128023433D01*
X117194673Y-128084567D01*
X117194684Y-128084569D01*
X117429998Y-128105157D01*
X117430002Y-128105157D01*
X117665315Y-128084569D01*
X117665326Y-128084567D01*
X117893483Y-128023433D01*
X117893492Y-128023429D01*
X118107580Y-127923599D01*
X118191371Y-127864925D01*
X117559408Y-127232962D01*
X117622993Y-127215925D01*
X117737007Y-127150099D01*
X117830099Y-127057007D01*
X117895925Y-126942993D01*
X117912962Y-126879408D01*
X118544925Y-127511371D01*
X118598426Y-127434968D01*
X118653004Y-127391344D01*
X118722502Y-127384152D01*
X118784856Y-127415675D01*
X118801575Y-127434969D01*
X118855073Y-127511372D01*
X119487037Y-126879408D01*
X119504075Y-126942993D01*
X119569901Y-127057007D01*
X119662993Y-127150099D01*
X119777007Y-127215925D01*
X119840591Y-127232962D01*
X119208626Y-127864926D01*
X119292417Y-127923598D01*
X119292421Y-127923600D01*
X119506507Y-128023429D01*
X119506516Y-128023433D01*
X119734673Y-128084567D01*
X119734684Y-128084569D01*
X119969998Y-128105157D01*
X119970002Y-128105157D01*
X120205315Y-128084569D01*
X120205326Y-128084567D01*
X120433483Y-128023433D01*
X120433492Y-128023429D01*
X120647580Y-127923599D01*
X120731371Y-127864925D01*
X120099408Y-127232962D01*
X120162993Y-127215925D01*
X120277007Y-127150099D01*
X120370099Y-127057007D01*
X120435925Y-126942993D01*
X120452962Y-126879408D01*
X121084925Y-127511371D01*
X121138426Y-127434968D01*
X121193004Y-127391344D01*
X121262502Y-127384152D01*
X121324856Y-127415675D01*
X121341575Y-127434969D01*
X121395073Y-127511372D01*
X122027037Y-126879408D01*
X122044075Y-126942993D01*
X122109901Y-127057007D01*
X122202993Y-127150099D01*
X122317007Y-127215925D01*
X122380591Y-127232962D01*
X121748626Y-127864926D01*
X121832417Y-127923598D01*
X121832421Y-127923600D01*
X122046507Y-128023429D01*
X122046516Y-128023433D01*
X122274673Y-128084567D01*
X122274684Y-128084569D01*
X122509998Y-128105157D01*
X122510002Y-128105157D01*
X122745315Y-128084569D01*
X122745326Y-128084567D01*
X122973483Y-128023433D01*
X122973492Y-128023429D01*
X123187580Y-127923599D01*
X123271371Y-127864925D01*
X122639408Y-127232962D01*
X122702993Y-127215925D01*
X122817007Y-127150099D01*
X122910099Y-127057007D01*
X122975925Y-126942993D01*
X122992962Y-126879408D01*
X123624925Y-127511371D01*
X123678426Y-127434968D01*
X123733004Y-127391344D01*
X123802502Y-127384152D01*
X123864856Y-127415675D01*
X123881575Y-127434969D01*
X123935073Y-127511372D01*
X124567037Y-126879408D01*
X124584075Y-126942993D01*
X124649901Y-127057007D01*
X124742993Y-127150099D01*
X124857007Y-127215925D01*
X124920591Y-127232962D01*
X124288626Y-127864926D01*
X124372417Y-127923598D01*
X124372421Y-127923600D01*
X124586507Y-128023429D01*
X124586516Y-128023433D01*
X124814673Y-128084567D01*
X124814684Y-128084569D01*
X125049998Y-128105157D01*
X125050002Y-128105157D01*
X125285315Y-128084569D01*
X125285326Y-128084567D01*
X125513483Y-128023433D01*
X125513492Y-128023429D01*
X125727580Y-127923599D01*
X125811371Y-127864925D01*
X125179408Y-127232962D01*
X125242993Y-127215925D01*
X125357007Y-127150099D01*
X125450099Y-127057007D01*
X125515925Y-126942993D01*
X125532962Y-126879408D01*
X126164925Y-127511371D01*
X126218426Y-127434968D01*
X126273004Y-127391344D01*
X126342502Y-127384152D01*
X126404856Y-127415675D01*
X126421575Y-127434969D01*
X126475073Y-127511372D01*
X127107037Y-126879408D01*
X127124075Y-126942993D01*
X127189901Y-127057007D01*
X127282993Y-127150099D01*
X127397007Y-127215925D01*
X127460591Y-127232962D01*
X126828626Y-127864926D01*
X126912417Y-127923598D01*
X126912421Y-127923600D01*
X127126507Y-128023429D01*
X127126516Y-128023433D01*
X127354673Y-128084567D01*
X127354684Y-128084569D01*
X127589998Y-128105157D01*
X127590002Y-128105157D01*
X127825315Y-128084569D01*
X127825326Y-128084567D01*
X128053483Y-128023433D01*
X128053492Y-128023429D01*
X128267580Y-127923599D01*
X128351371Y-127864925D01*
X127719408Y-127232962D01*
X127782993Y-127215925D01*
X127897007Y-127150099D01*
X127990099Y-127057007D01*
X128055925Y-126942993D01*
X128072962Y-126879408D01*
X128704925Y-127511371D01*
X128758426Y-127434968D01*
X128813004Y-127391344D01*
X128882502Y-127384152D01*
X128944856Y-127415675D01*
X128961575Y-127434969D01*
X129015073Y-127511372D01*
X129647037Y-126879408D01*
X129664075Y-126942993D01*
X129729901Y-127057007D01*
X129822993Y-127150099D01*
X129937007Y-127215925D01*
X130000591Y-127232962D01*
X129368626Y-127864926D01*
X129452417Y-127923598D01*
X129452421Y-127923600D01*
X129666507Y-128023429D01*
X129666516Y-128023433D01*
X129894673Y-128084567D01*
X129894684Y-128084569D01*
X130129998Y-128105157D01*
X130130002Y-128105157D01*
X130365315Y-128084569D01*
X130365326Y-128084567D01*
X130593483Y-128023433D01*
X130593492Y-128023429D01*
X130807580Y-127923599D01*
X130891371Y-127864925D01*
X130259408Y-127232962D01*
X130322993Y-127215925D01*
X130437007Y-127150099D01*
X130530099Y-127057007D01*
X130595925Y-126942993D01*
X130612962Y-126879408D01*
X131244925Y-127511371D01*
X131298426Y-127434968D01*
X131353004Y-127391344D01*
X131422502Y-127384152D01*
X131484856Y-127415675D01*
X131501575Y-127434969D01*
X131555073Y-127511372D01*
X132187037Y-126879408D01*
X132204075Y-126942993D01*
X132269901Y-127057007D01*
X132362993Y-127150099D01*
X132477007Y-127215925D01*
X132540591Y-127232962D01*
X131908626Y-127864926D01*
X131992417Y-127923598D01*
X131992421Y-127923600D01*
X132206507Y-128023429D01*
X132206516Y-128023433D01*
X132434673Y-128084567D01*
X132434684Y-128084569D01*
X132669998Y-128105157D01*
X132670002Y-128105157D01*
X132905315Y-128084569D01*
X132905326Y-128084567D01*
X133133483Y-128023433D01*
X133133492Y-128023429D01*
X133347580Y-127923599D01*
X133431371Y-127864925D01*
X132799408Y-127232962D01*
X132862993Y-127215925D01*
X132977007Y-127150099D01*
X133070099Y-127057007D01*
X133135925Y-126942993D01*
X133152962Y-126879408D01*
X133784925Y-127511371D01*
X133838120Y-127435404D01*
X133892697Y-127391780D01*
X133962196Y-127384588D01*
X134024550Y-127416111D01*
X134041268Y-127435404D01*
X134171505Y-127621401D01*
X134338599Y-127788495D01*
X134428685Y-127851574D01*
X134532165Y-127924032D01*
X134532167Y-127924033D01*
X134532170Y-127924035D01*
X134746337Y-128023903D01*
X134746343Y-128023904D01*
X134746344Y-128023905D01*
X134785356Y-128034358D01*
X134974592Y-128085063D01*
X135162918Y-128101539D01*
X135209999Y-128105659D01*
X135210000Y-128105659D01*
X135210001Y-128105659D01*
X135249234Y-128102226D01*
X135445408Y-128085063D01*
X135673663Y-128023903D01*
X135887830Y-127924035D01*
X136081401Y-127788495D01*
X136248495Y-127621401D01*
X136378425Y-127435842D01*
X136433002Y-127392217D01*
X136502500Y-127385023D01*
X136564855Y-127416546D01*
X136581575Y-127435842D01*
X136711500Y-127621395D01*
X136711505Y-127621401D01*
X136878599Y-127788495D01*
X136968685Y-127851574D01*
X137072165Y-127924032D01*
X137072167Y-127924033D01*
X137072170Y-127924035D01*
X137286337Y-128023903D01*
X137286343Y-128023904D01*
X137286344Y-128023905D01*
X137325356Y-128034358D01*
X137514592Y-128085063D01*
X137702918Y-128101539D01*
X137749999Y-128105659D01*
X137750000Y-128105659D01*
X137750001Y-128105659D01*
X137789234Y-128102226D01*
X137985408Y-128085063D01*
X138213663Y-128023903D01*
X138427830Y-127924035D01*
X138621401Y-127788495D01*
X138788495Y-127621401D01*
X138918425Y-127435842D01*
X138973002Y-127392217D01*
X139042500Y-127385023D01*
X139104855Y-127416546D01*
X139121575Y-127435842D01*
X139251500Y-127621395D01*
X139251505Y-127621401D01*
X139418599Y-127788495D01*
X139508685Y-127851574D01*
X139612165Y-127924032D01*
X139612167Y-127924033D01*
X139612170Y-127924035D01*
X139826337Y-128023903D01*
X139826343Y-128023904D01*
X139826344Y-128023905D01*
X139865356Y-128034358D01*
X140054592Y-128085063D01*
X140242918Y-128101539D01*
X140289999Y-128105659D01*
X140290000Y-128105659D01*
X140290001Y-128105659D01*
X140329234Y-128102226D01*
X140525408Y-128085063D01*
X140753663Y-128023903D01*
X140967830Y-127924035D01*
X141161401Y-127788495D01*
X141328495Y-127621401D01*
X141458425Y-127435842D01*
X141513002Y-127392217D01*
X141582500Y-127385023D01*
X141644855Y-127416546D01*
X141661575Y-127435842D01*
X141791500Y-127621395D01*
X141791505Y-127621401D01*
X141958599Y-127788495D01*
X142048685Y-127851574D01*
X142152165Y-127924032D01*
X142152167Y-127924033D01*
X142152170Y-127924035D01*
X142366337Y-128023903D01*
X142366343Y-128023904D01*
X142366344Y-128023905D01*
X142405356Y-128034358D01*
X142594592Y-128085063D01*
X142782918Y-128101539D01*
X142829999Y-128105659D01*
X142830000Y-128105659D01*
X142830001Y-128105659D01*
X142869234Y-128102226D01*
X143065408Y-128085063D01*
X143293663Y-128023903D01*
X143507830Y-127924035D01*
X143701401Y-127788495D01*
X143868495Y-127621401D01*
X143998425Y-127435842D01*
X144053002Y-127392217D01*
X144122500Y-127385023D01*
X144184855Y-127416546D01*
X144201575Y-127435842D01*
X144331500Y-127621395D01*
X144331505Y-127621401D01*
X144498599Y-127788495D01*
X144588685Y-127851574D01*
X144692165Y-127924032D01*
X144692167Y-127924033D01*
X144692170Y-127924035D01*
X144906337Y-128023903D01*
X144906343Y-128023904D01*
X144906344Y-128023905D01*
X144945356Y-128034358D01*
X145134592Y-128085063D01*
X145322918Y-128101539D01*
X145369999Y-128105659D01*
X145370000Y-128105659D01*
X145370001Y-128105659D01*
X145409234Y-128102226D01*
X145605408Y-128085063D01*
X145833663Y-128023903D01*
X146047830Y-127924035D01*
X146241401Y-127788495D01*
X146408495Y-127621401D01*
X146538425Y-127435842D01*
X146593002Y-127392217D01*
X146662500Y-127385023D01*
X146724855Y-127416546D01*
X146741575Y-127435842D01*
X146871500Y-127621395D01*
X146871505Y-127621401D01*
X147038599Y-127788495D01*
X147128685Y-127851574D01*
X147232165Y-127924032D01*
X147232167Y-127924033D01*
X147232170Y-127924035D01*
X147446337Y-128023903D01*
X147446343Y-128023904D01*
X147446344Y-128023905D01*
X147485356Y-128034358D01*
X147674592Y-128085063D01*
X147862918Y-128101539D01*
X147909999Y-128105659D01*
X147910000Y-128105659D01*
X147910001Y-128105659D01*
X147949234Y-128102226D01*
X148145408Y-128085063D01*
X148373663Y-128023903D01*
X148587830Y-127924035D01*
X148781401Y-127788495D01*
X148948495Y-127621401D01*
X149078425Y-127435842D01*
X149133002Y-127392217D01*
X149202500Y-127385023D01*
X149264855Y-127416546D01*
X149281575Y-127435842D01*
X149411500Y-127621395D01*
X149411505Y-127621401D01*
X149578599Y-127788495D01*
X149668685Y-127851574D01*
X149772165Y-127924032D01*
X149772167Y-127924033D01*
X149772170Y-127924035D01*
X149986337Y-128023903D01*
X149986343Y-128023904D01*
X149986344Y-128023905D01*
X150025356Y-128034358D01*
X150214592Y-128085063D01*
X150402918Y-128101539D01*
X150449999Y-128105659D01*
X150450000Y-128105659D01*
X150450001Y-128105659D01*
X150489234Y-128102226D01*
X150685408Y-128085063D01*
X150913663Y-128023903D01*
X151127830Y-127924035D01*
X151321401Y-127788495D01*
X151488495Y-127621401D01*
X151618425Y-127435842D01*
X151673002Y-127392217D01*
X151742500Y-127385023D01*
X151804855Y-127416546D01*
X151821575Y-127435842D01*
X151951500Y-127621395D01*
X151951505Y-127621401D01*
X152118599Y-127788495D01*
X152208685Y-127851574D01*
X152312165Y-127924032D01*
X152312167Y-127924033D01*
X152312170Y-127924035D01*
X152526337Y-128023903D01*
X152526343Y-128023904D01*
X152526344Y-128023905D01*
X152565356Y-128034358D01*
X152754592Y-128085063D01*
X152942918Y-128101539D01*
X152989999Y-128105659D01*
X152990000Y-128105659D01*
X152990001Y-128105659D01*
X153029234Y-128102226D01*
X153225408Y-128085063D01*
X153453663Y-128023903D01*
X153667830Y-127924035D01*
X153861401Y-127788495D01*
X154028495Y-127621401D01*
X154164035Y-127427830D01*
X154263903Y-127213663D01*
X154325063Y-126985408D01*
X154345659Y-126750000D01*
X154325063Y-126514592D01*
X154286875Y-126372070D01*
X159903180Y-126372070D01*
X159903180Y-126627929D01*
X159943206Y-126880640D01*
X160022268Y-127123972D01*
X160022269Y-127123975D01*
X160086483Y-127250000D01*
X160108797Y-127293794D01*
X160138430Y-127351950D01*
X160288812Y-127558935D01*
X160288816Y-127558940D01*
X160469739Y-127739863D01*
X160469744Y-127739867D01*
X160577761Y-127818345D01*
X160676733Y-127890252D01*
X160825760Y-127966185D01*
X160904704Y-128006410D01*
X160904707Y-128006411D01*
X160990721Y-128034358D01*
X161148041Y-128085474D01*
X161400750Y-128125500D01*
X161400751Y-128125500D01*
X161656609Y-128125500D01*
X161656610Y-128125500D01*
X161909319Y-128085474D01*
X162152655Y-128006410D01*
X162380627Y-127890252D01*
X162587622Y-127739862D01*
X162768542Y-127558942D01*
X162918932Y-127351947D01*
X163035090Y-127123975D01*
X163114154Y-126880639D01*
X163154180Y-126627930D01*
X163154180Y-126372070D01*
X163114154Y-126119361D01*
X163043880Y-125903077D01*
X163035091Y-125876027D01*
X163035090Y-125876024D01*
X162951264Y-125711508D01*
X162918932Y-125648053D01*
X162899718Y-125621607D01*
X162768547Y-125441064D01*
X162768543Y-125441059D01*
X162587620Y-125260136D01*
X162587615Y-125260132D01*
X162380630Y-125109750D01*
X162380629Y-125109749D01*
X162380627Y-125109748D01*
X162307590Y-125072533D01*
X162152655Y-124993589D01*
X162152652Y-124993588D01*
X161909320Y-124914526D01*
X161782964Y-124894513D01*
X161656610Y-124874500D01*
X161400750Y-124874500D01*
X161316589Y-124887830D01*
X161148039Y-124914526D01*
X160904707Y-124993588D01*
X160904704Y-124993589D01*
X160676729Y-125109750D01*
X160469744Y-125260132D01*
X160469739Y-125260136D01*
X160288816Y-125441059D01*
X160288812Y-125441064D01*
X160138430Y-125648049D01*
X160022269Y-125876024D01*
X160022268Y-125876027D01*
X159943206Y-126119359D01*
X159903180Y-126372070D01*
X154286875Y-126372070D01*
X154263903Y-126286337D01*
X154164035Y-126072171D01*
X154159037Y-126065032D01*
X154028494Y-125878597D01*
X153861402Y-125711506D01*
X153861396Y-125711501D01*
X153675842Y-125581575D01*
X153632217Y-125526998D01*
X153625023Y-125457500D01*
X153656546Y-125395145D01*
X153675842Y-125378425D01*
X153752248Y-125324925D01*
X153861401Y-125248495D01*
X154028495Y-125081401D01*
X154164035Y-124887830D01*
X154263903Y-124673663D01*
X154325063Y-124445408D01*
X154345659Y-124210000D01*
X154325063Y-123974592D01*
X154263903Y-123746337D01*
X154164035Y-123532171D01*
X154158731Y-123524595D01*
X154028494Y-123338597D01*
X153861402Y-123171506D01*
X153861395Y-123171501D01*
X153667834Y-123035967D01*
X153667830Y-123035965D01*
X153667828Y-123035964D01*
X153453663Y-122936097D01*
X153453659Y-122936096D01*
X153453655Y-122936094D01*
X153225413Y-122874938D01*
X153225403Y-122874936D01*
X152990001Y-122854341D01*
X152989999Y-122854341D01*
X152754596Y-122874936D01*
X152754586Y-122874938D01*
X152526344Y-122936094D01*
X152526335Y-122936098D01*
X152312171Y-123035964D01*
X152312169Y-123035965D01*
X152118597Y-123171505D01*
X151951505Y-123338597D01*
X151821575Y-123524158D01*
X151766998Y-123567783D01*
X151697500Y-123574977D01*
X151635145Y-123543454D01*
X151618425Y-123524158D01*
X151488494Y-123338597D01*
X151321402Y-123171506D01*
X151321395Y-123171501D01*
X151127834Y-123035967D01*
X151127830Y-123035965D01*
X151127828Y-123035964D01*
X150913663Y-122936097D01*
X150913659Y-122936096D01*
X150913655Y-122936094D01*
X150685413Y-122874938D01*
X150685403Y-122874936D01*
X150450001Y-122854341D01*
X150449999Y-122854341D01*
X150214596Y-122874936D01*
X150214586Y-122874938D01*
X149986344Y-122936094D01*
X149986335Y-122936098D01*
X149772171Y-123035964D01*
X149772169Y-123035965D01*
X149578597Y-123171505D01*
X149411505Y-123338597D01*
X149281575Y-123524158D01*
X149226998Y-123567783D01*
X149157500Y-123574977D01*
X149095145Y-123543454D01*
X149078425Y-123524158D01*
X148948494Y-123338597D01*
X148781402Y-123171506D01*
X148781395Y-123171501D01*
X148587834Y-123035967D01*
X148587830Y-123035965D01*
X148587828Y-123035964D01*
X148373663Y-122936097D01*
X148373659Y-122936096D01*
X148373655Y-122936094D01*
X148145413Y-122874938D01*
X148145403Y-122874936D01*
X147910001Y-122854341D01*
X147909999Y-122854341D01*
X147674596Y-122874936D01*
X147674586Y-122874938D01*
X147446344Y-122936094D01*
X147446335Y-122936098D01*
X147232171Y-123035964D01*
X147232169Y-123035965D01*
X147038597Y-123171505D01*
X146871505Y-123338597D01*
X146741575Y-123524158D01*
X146686998Y-123567783D01*
X146617500Y-123574977D01*
X146555145Y-123543454D01*
X146538425Y-123524158D01*
X146408494Y-123338597D01*
X146241402Y-123171506D01*
X146241395Y-123171501D01*
X146047834Y-123035967D01*
X146047830Y-123035965D01*
X146047828Y-123035964D01*
X145833663Y-122936097D01*
X145833659Y-122936096D01*
X145833655Y-122936094D01*
X145605413Y-122874938D01*
X145605403Y-122874936D01*
X145370001Y-122854341D01*
X145369999Y-122854341D01*
X145134596Y-122874936D01*
X145134586Y-122874938D01*
X144906344Y-122936094D01*
X144906335Y-122936098D01*
X144692171Y-123035964D01*
X144692169Y-123035965D01*
X144498597Y-123171505D01*
X144331508Y-123338594D01*
X144201269Y-123524595D01*
X144146692Y-123568219D01*
X144077193Y-123575412D01*
X144014839Y-123543890D01*
X143998119Y-123524595D01*
X143944925Y-123448626D01*
X143312962Y-124080590D01*
X143295925Y-124017007D01*
X143230099Y-123902993D01*
X143137007Y-123809901D01*
X143022993Y-123744075D01*
X142959409Y-123727037D01*
X143591372Y-123095073D01*
X143507576Y-123036398D01*
X143293492Y-122936570D01*
X143293483Y-122936566D01*
X143065326Y-122875432D01*
X143065315Y-122875430D01*
X142830002Y-122854843D01*
X142829998Y-122854843D01*
X142594684Y-122875430D01*
X142594673Y-122875432D01*
X142366516Y-122936566D01*
X142366507Y-122936570D01*
X142152423Y-123036399D01*
X142152421Y-123036400D01*
X142068627Y-123095073D01*
X142068626Y-123095073D01*
X142700591Y-123727037D01*
X142637007Y-123744075D01*
X142522993Y-123809901D01*
X142429901Y-123902993D01*
X142364075Y-124017007D01*
X142347037Y-124080590D01*
X141715073Y-123448626D01*
X141715072Y-123448627D01*
X141661880Y-123524595D01*
X141607303Y-123568220D01*
X141537805Y-123575414D01*
X141475450Y-123543891D01*
X141458730Y-123524595D01*
X141328494Y-123338597D01*
X141161402Y-123171506D01*
X141161395Y-123171501D01*
X140967834Y-123035967D01*
X140967830Y-123035965D01*
X140967828Y-123035964D01*
X140753663Y-122936097D01*
X140753659Y-122936096D01*
X140753655Y-122936094D01*
X140525413Y-122874938D01*
X140525403Y-122874936D01*
X140290001Y-122854341D01*
X140289999Y-122854341D01*
X140054596Y-122874936D01*
X140054586Y-122874938D01*
X139826344Y-122936094D01*
X139826335Y-122936098D01*
X139612171Y-123035964D01*
X139612169Y-123035965D01*
X139418597Y-123171505D01*
X139251505Y-123338597D01*
X139121575Y-123524158D01*
X139066998Y-123567783D01*
X138997500Y-123574977D01*
X138935145Y-123543454D01*
X138918425Y-123524158D01*
X138788494Y-123338597D01*
X138621402Y-123171506D01*
X138621395Y-123171501D01*
X138427834Y-123035967D01*
X138427830Y-123035965D01*
X138427828Y-123035964D01*
X138213663Y-122936097D01*
X138213659Y-122936096D01*
X138213655Y-122936094D01*
X137985413Y-122874938D01*
X137985403Y-122874936D01*
X137750001Y-122854341D01*
X137749999Y-122854341D01*
X137514596Y-122874936D01*
X137514586Y-122874938D01*
X137286344Y-122936094D01*
X137286335Y-122936098D01*
X137072171Y-123035964D01*
X137072169Y-123035965D01*
X136878597Y-123171505D01*
X136711505Y-123338597D01*
X136581575Y-123524158D01*
X136526998Y-123567783D01*
X136457500Y-123574977D01*
X136395145Y-123543454D01*
X136378425Y-123524158D01*
X136248494Y-123338597D01*
X136081402Y-123171506D01*
X136081395Y-123171501D01*
X135887834Y-123035967D01*
X135887830Y-123035965D01*
X135887828Y-123035964D01*
X135673663Y-122936097D01*
X135673659Y-122936096D01*
X135673655Y-122936094D01*
X135445413Y-122874938D01*
X135445403Y-122874936D01*
X135210001Y-122854341D01*
X135209999Y-122854341D01*
X134974596Y-122874936D01*
X134974586Y-122874938D01*
X134746344Y-122936094D01*
X134746335Y-122936098D01*
X134532171Y-123035964D01*
X134532169Y-123035965D01*
X134338597Y-123171505D01*
X134171505Y-123338597D01*
X134041575Y-123524158D01*
X133986998Y-123567783D01*
X133917500Y-123574977D01*
X133855145Y-123543454D01*
X133838425Y-123524158D01*
X133708494Y-123338597D01*
X133541402Y-123171506D01*
X133541395Y-123171501D01*
X133347834Y-123035967D01*
X133347830Y-123035965D01*
X133347828Y-123035964D01*
X133133663Y-122936097D01*
X133133659Y-122936096D01*
X133133655Y-122936094D01*
X132905413Y-122874938D01*
X132905403Y-122874936D01*
X132670001Y-122854341D01*
X132669999Y-122854341D01*
X132434596Y-122874936D01*
X132434586Y-122874938D01*
X132206344Y-122936094D01*
X132206335Y-122936098D01*
X131992171Y-123035964D01*
X131992169Y-123035965D01*
X131798597Y-123171505D01*
X131631505Y-123338597D01*
X131501575Y-123524158D01*
X131446998Y-123567783D01*
X131377500Y-123574977D01*
X131315145Y-123543454D01*
X131298425Y-123524158D01*
X131168494Y-123338597D01*
X131001402Y-123171506D01*
X131001395Y-123171501D01*
X130807834Y-123035967D01*
X130807830Y-123035965D01*
X130807828Y-123035964D01*
X130593663Y-122936097D01*
X130593659Y-122936096D01*
X130593655Y-122936094D01*
X130365413Y-122874938D01*
X130365403Y-122874936D01*
X130130001Y-122854341D01*
X130129999Y-122854341D01*
X129894596Y-122874936D01*
X129894586Y-122874938D01*
X129666344Y-122936094D01*
X129666335Y-122936098D01*
X129452171Y-123035964D01*
X129452169Y-123035965D01*
X129258597Y-123171505D01*
X129091505Y-123338597D01*
X128961575Y-123524158D01*
X128906998Y-123567783D01*
X128837500Y-123574977D01*
X128775145Y-123543454D01*
X128758425Y-123524158D01*
X128628494Y-123338597D01*
X128461402Y-123171506D01*
X128461395Y-123171501D01*
X128267834Y-123035967D01*
X128267830Y-123035965D01*
X128267828Y-123035964D01*
X128053663Y-122936097D01*
X128053659Y-122936096D01*
X128053655Y-122936094D01*
X127825413Y-122874938D01*
X127825403Y-122874936D01*
X127590001Y-122854341D01*
X127589999Y-122854341D01*
X127354596Y-122874936D01*
X127354586Y-122874938D01*
X127126344Y-122936094D01*
X127126335Y-122936098D01*
X126912171Y-123035964D01*
X126912169Y-123035965D01*
X126718597Y-123171505D01*
X126551505Y-123338597D01*
X126421575Y-123524158D01*
X126366998Y-123567783D01*
X126297500Y-123574977D01*
X126235145Y-123543454D01*
X126218425Y-123524158D01*
X126088494Y-123338597D01*
X125921402Y-123171506D01*
X125921395Y-123171501D01*
X125727834Y-123035967D01*
X125727830Y-123035965D01*
X125727828Y-123035964D01*
X125513663Y-122936097D01*
X125513659Y-122936096D01*
X125513655Y-122936094D01*
X125285413Y-122874938D01*
X125285403Y-122874936D01*
X125050001Y-122854341D01*
X125049999Y-122854341D01*
X124814596Y-122874936D01*
X124814586Y-122874938D01*
X124586344Y-122936094D01*
X124586335Y-122936098D01*
X124372171Y-123035964D01*
X124372169Y-123035965D01*
X124178597Y-123171505D01*
X124011505Y-123338597D01*
X123881575Y-123524158D01*
X123826998Y-123567783D01*
X123757500Y-123574977D01*
X123695145Y-123543454D01*
X123678425Y-123524158D01*
X123548494Y-123338597D01*
X123381402Y-123171506D01*
X123381395Y-123171501D01*
X123187834Y-123035967D01*
X123187830Y-123035965D01*
X123187828Y-123035964D01*
X122973663Y-122936097D01*
X122973659Y-122936096D01*
X122973655Y-122936094D01*
X122745413Y-122874938D01*
X122745403Y-122874936D01*
X122510001Y-122854341D01*
X122509999Y-122854341D01*
X122274596Y-122874936D01*
X122274586Y-122874938D01*
X122046344Y-122936094D01*
X122046335Y-122936098D01*
X121832171Y-123035964D01*
X121832169Y-123035965D01*
X121638597Y-123171505D01*
X121471505Y-123338597D01*
X121341575Y-123524158D01*
X121286998Y-123567783D01*
X121217500Y-123574977D01*
X121155145Y-123543454D01*
X121138425Y-123524158D01*
X121008494Y-123338597D01*
X120841402Y-123171506D01*
X120841395Y-123171501D01*
X120647834Y-123035967D01*
X120647830Y-123035965D01*
X120647828Y-123035964D01*
X120433663Y-122936097D01*
X120433659Y-122936096D01*
X120433655Y-122936094D01*
X120205413Y-122874938D01*
X120205403Y-122874936D01*
X119970001Y-122854341D01*
X119969999Y-122854341D01*
X119734596Y-122874936D01*
X119734586Y-122874938D01*
X119506344Y-122936094D01*
X119506335Y-122936098D01*
X119292171Y-123035964D01*
X119292169Y-123035965D01*
X119098597Y-123171505D01*
X118931505Y-123338597D01*
X118801575Y-123524158D01*
X118746998Y-123567783D01*
X118677500Y-123574977D01*
X118615145Y-123543454D01*
X118598425Y-123524158D01*
X118468494Y-123338597D01*
X118301402Y-123171506D01*
X118301395Y-123171501D01*
X118107834Y-123035967D01*
X118107830Y-123035965D01*
X118107828Y-123035964D01*
X117893663Y-122936097D01*
X117893659Y-122936096D01*
X117893655Y-122936094D01*
X117665413Y-122874938D01*
X117665403Y-122874936D01*
X117430001Y-122854341D01*
X117429999Y-122854341D01*
X117194596Y-122874936D01*
X117194586Y-122874938D01*
X116966344Y-122936094D01*
X116966335Y-122936098D01*
X116752171Y-123035964D01*
X116752169Y-123035965D01*
X116558597Y-123171505D01*
X116391505Y-123338597D01*
X116261575Y-123524158D01*
X116206998Y-123567783D01*
X116137500Y-123574977D01*
X116075145Y-123543454D01*
X116058425Y-123524158D01*
X115928494Y-123338597D01*
X115761402Y-123171506D01*
X115761395Y-123171501D01*
X115567834Y-123035967D01*
X115567830Y-123035965D01*
X115567828Y-123035964D01*
X115353663Y-122936097D01*
X115353659Y-122936096D01*
X115353655Y-122936094D01*
X115125413Y-122874938D01*
X115125403Y-122874936D01*
X114890001Y-122854341D01*
X114889999Y-122854341D01*
X114654596Y-122874936D01*
X114654586Y-122874938D01*
X114426344Y-122936094D01*
X114426335Y-122936098D01*
X114212171Y-123035964D01*
X114212169Y-123035965D01*
X114018597Y-123171505D01*
X113851505Y-123338597D01*
X113721575Y-123524158D01*
X113666998Y-123567783D01*
X113597500Y-123574977D01*
X113535145Y-123543454D01*
X113518425Y-123524158D01*
X113388494Y-123338597D01*
X113221402Y-123171506D01*
X113221395Y-123171501D01*
X113027834Y-123035967D01*
X113027830Y-123035965D01*
X113027828Y-123035964D01*
X112813663Y-122936097D01*
X112813659Y-122936096D01*
X112813655Y-122936094D01*
X112585413Y-122874938D01*
X112585403Y-122874936D01*
X112350001Y-122854341D01*
X112349999Y-122854341D01*
X112114596Y-122874936D01*
X112114586Y-122874938D01*
X111886344Y-122936094D01*
X111886335Y-122936098D01*
X111672171Y-123035964D01*
X111672169Y-123035965D01*
X111478597Y-123171505D01*
X111311505Y-123338597D01*
X111175965Y-123532169D01*
X111175964Y-123532171D01*
X111076098Y-123746335D01*
X111076094Y-123746344D01*
X111014938Y-123974586D01*
X111014936Y-123974596D01*
X110994341Y-124209999D01*
X100529180Y-124209999D01*
X100529180Y-117499996D01*
X111694435Y-117499996D01*
X111694435Y-117500003D01*
X111714630Y-117679249D01*
X111714631Y-117679254D01*
X111774211Y-117849523D01*
X111806259Y-117900526D01*
X111870184Y-118002262D01*
X111997738Y-118129816D01*
X112150478Y-118225789D01*
X112320745Y-118285368D01*
X112320750Y-118285369D01*
X112499996Y-118305565D01*
X112500000Y-118305565D01*
X112500004Y-118305565D01*
X112679249Y-118285369D01*
X112679252Y-118285368D01*
X112679255Y-118285368D01*
X112849522Y-118225789D01*
X113002262Y-118129816D01*
X113129816Y-118002262D01*
X113225789Y-117849522D01*
X113285368Y-117679255D01*
X113285369Y-117679249D01*
X113305565Y-117500003D01*
X113305565Y-117499996D01*
X113285369Y-117320750D01*
X113285368Y-117320745D01*
X113252141Y-117225789D01*
X113225789Y-117150478D01*
X113131235Y-116999996D01*
X117344434Y-116999996D01*
X117344434Y-117000003D01*
X117364629Y-117179249D01*
X117364630Y-117179254D01*
X117424210Y-117349523D01*
X117506079Y-117479815D01*
X117520183Y-117502262D01*
X117647737Y-117629816D01*
X117726409Y-117679249D01*
X117798864Y-117724776D01*
X117800477Y-117725789D01*
X117970744Y-117785368D01*
X117970749Y-117785369D01*
X118149995Y-117805565D01*
X118149999Y-117805565D01*
X118150003Y-117805565D01*
X118329248Y-117785369D01*
X118329251Y-117785368D01*
X118329254Y-117785368D01*
X118499521Y-117725789D01*
X118652261Y-117629816D01*
X118779815Y-117502262D01*
X118789841Y-117486304D01*
X118842171Y-117440014D01*
X118911224Y-117429363D01*
X118975073Y-117457735D01*
X118982516Y-117464594D01*
X118997738Y-117479816D01*
X119088080Y-117536582D01*
X119136103Y-117566757D01*
X119150478Y-117575789D01*
X119304878Y-117629816D01*
X119320745Y-117635368D01*
X119320750Y-117635369D01*
X119499996Y-117655565D01*
X119500000Y-117655565D01*
X119500004Y-117655565D01*
X119679249Y-117635369D01*
X119679252Y-117635368D01*
X119679255Y-117635368D01*
X119849522Y-117575789D01*
X120002262Y-117479816D01*
X120129816Y-117352262D01*
X120225789Y-117199522D01*
X120262378Y-117094957D01*
X134272039Y-117094957D01*
X134272039Y-117094964D01*
X134292234Y-117274210D01*
X134292235Y-117274215D01*
X134351815Y-117444484D01*
X134428645Y-117566757D01*
X134447788Y-117597223D01*
X134575342Y-117724777D01*
X134576953Y-117725789D01*
X134671773Y-117785369D01*
X134728082Y-117820750D01*
X134810308Y-117849522D01*
X134898349Y-117880329D01*
X134898354Y-117880330D01*
X135077600Y-117900526D01*
X135077604Y-117900526D01*
X135077608Y-117900526D01*
X135256853Y-117880330D01*
X135256856Y-117880329D01*
X135256859Y-117880329D01*
X135427126Y-117820750D01*
X135579866Y-117724777D01*
X135707420Y-117597223D01*
X135803393Y-117444483D01*
X135830455Y-117367142D01*
X135871177Y-117310367D01*
X135922991Y-117289220D01*
X135922466Y-117286918D01*
X135929251Y-117285369D01*
X135929253Y-117285368D01*
X135929255Y-117285368D01*
X136099522Y-117225789D01*
X136252262Y-117129816D01*
X136379816Y-117002262D01*
X136381240Y-116999996D01*
X146694435Y-116999996D01*
X146694435Y-117000003D01*
X146714630Y-117179249D01*
X146714631Y-117179254D01*
X146774211Y-117349523D01*
X146856080Y-117479815D01*
X146870184Y-117502262D01*
X146997738Y-117629816D01*
X147076410Y-117679249D01*
X147148865Y-117724776D01*
X147150478Y-117725789D01*
X147320745Y-117785368D01*
X147320750Y-117785369D01*
X147499996Y-117805565D01*
X147500000Y-117805565D01*
X147500004Y-117805565D01*
X147679249Y-117785369D01*
X147679252Y-117785368D01*
X147679255Y-117785368D01*
X147849522Y-117725789D01*
X148002262Y-117629816D01*
X148129816Y-117502262D01*
X148225789Y-117349522D01*
X148285368Y-117179255D01*
X148285369Y-117179249D01*
X148305565Y-117000003D01*
X148305565Y-116999996D01*
X148285369Y-116820753D01*
X148285368Y-116820751D01*
X148285368Y-116820745D01*
X148257528Y-116741186D01*
X148253967Y-116671408D01*
X148269576Y-116634260D01*
X148362554Y-116486287D01*
X148422133Y-116316020D01*
X148422857Y-116309593D01*
X148442330Y-116136768D01*
X148442330Y-116136761D01*
X148422134Y-115957515D01*
X148422133Y-115957510D01*
X148375870Y-115825299D01*
X148362554Y-115787243D01*
X148360563Y-115784075D01*
X148282898Y-115660471D01*
X148266581Y-115634503D01*
X148139027Y-115506949D01*
X148117536Y-115493445D01*
X147986288Y-115410976D01*
X147816019Y-115351396D01*
X147816014Y-115351395D01*
X147636769Y-115331200D01*
X147636761Y-115331200D01*
X147457515Y-115351395D01*
X147457510Y-115351396D01*
X147287241Y-115410976D01*
X147134502Y-115506949D01*
X147006949Y-115634502D01*
X146910976Y-115787241D01*
X146851396Y-115957510D01*
X146851395Y-115957515D01*
X146831200Y-116136761D01*
X146831200Y-116136768D01*
X146851395Y-116316014D01*
X146851398Y-116316027D01*
X146879235Y-116395579D01*
X146882797Y-116465358D01*
X146867188Y-116502506D01*
X146774211Y-116650476D01*
X146714631Y-116820745D01*
X146714630Y-116820750D01*
X146694435Y-116999996D01*
X136381240Y-116999996D01*
X136475789Y-116849522D01*
X136535368Y-116679255D01*
X136536162Y-116672213D01*
X136555565Y-116500000D01*
X136555565Y-116499996D01*
X136535369Y-116320750D01*
X136535368Y-116320745D01*
X136495569Y-116207006D01*
X136475789Y-116150478D01*
X136467174Y-116136768D01*
X136431417Y-116079861D01*
X136381235Y-115999996D01*
X140094435Y-115999996D01*
X140094435Y-116000000D01*
X140114630Y-116179249D01*
X140114631Y-116179254D01*
X140174211Y-116349523D01*
X140246862Y-116465145D01*
X140270184Y-116502262D01*
X140397738Y-116629816D01*
X140476410Y-116679249D01*
X140534779Y-116715925D01*
X140550478Y-116725789D01*
X140688860Y-116774211D01*
X140720745Y-116785368D01*
X140720750Y-116785369D01*
X140899996Y-116805565D01*
X140900000Y-116805565D01*
X140900004Y-116805565D01*
X141079249Y-116785369D01*
X141079252Y-116785368D01*
X141079255Y-116785368D01*
X141249522Y-116725789D01*
X141402262Y-116629816D01*
X141529816Y-116502262D01*
X141625789Y-116349522D01*
X141685368Y-116179255D01*
X141688611Y-116150478D01*
X141705565Y-116000000D01*
X141705565Y-115999996D01*
X141685369Y-115820750D01*
X141685368Y-115820745D01*
X141654312Y-115731993D01*
X141625789Y-115650478D01*
X141605860Y-115618762D01*
X141579814Y-115577309D01*
X141529816Y-115497738D01*
X141513291Y-115481213D01*
X142546972Y-115481213D01*
X142546972Y-115481220D01*
X142567167Y-115660466D01*
X142567168Y-115660471D01*
X142626748Y-115830740D01*
X142706407Y-115957515D01*
X142722721Y-115983479D01*
X142850275Y-116111033D01*
X142891232Y-116136768D01*
X142958849Y-116179255D01*
X143003015Y-116207006D01*
X143132349Y-116252262D01*
X143173282Y-116266585D01*
X143173287Y-116266586D01*
X143352533Y-116286782D01*
X143352537Y-116286782D01*
X143352541Y-116286782D01*
X143531786Y-116266586D01*
X143531789Y-116266585D01*
X143531792Y-116266585D01*
X143702059Y-116207006D01*
X143854799Y-116111033D01*
X143899341Y-116066490D01*
X143960662Y-116033006D01*
X144030353Y-116037990D01*
X144086287Y-116079861D01*
X144110241Y-116140289D01*
X144114630Y-116179249D01*
X144114631Y-116179254D01*
X144174211Y-116349523D01*
X144246862Y-116465145D01*
X144270184Y-116502262D01*
X144397738Y-116629816D01*
X144476410Y-116679249D01*
X144534779Y-116715925D01*
X144550478Y-116725789D01*
X144688860Y-116774211D01*
X144720745Y-116785368D01*
X144720750Y-116785369D01*
X144899996Y-116805565D01*
X144900000Y-116805565D01*
X144900004Y-116805565D01*
X145079249Y-116785369D01*
X145079252Y-116785368D01*
X145079255Y-116785368D01*
X145249522Y-116725789D01*
X145402262Y-116629816D01*
X145529816Y-116502262D01*
X145625789Y-116349522D01*
X145685368Y-116179255D01*
X145688611Y-116150478D01*
X145705565Y-116000000D01*
X145705565Y-115999996D01*
X145685369Y-115820750D01*
X145685368Y-115820745D01*
X145654312Y-115731993D01*
X145625789Y-115650478D01*
X145605860Y-115618762D01*
X145579814Y-115577309D01*
X145529816Y-115497738D01*
X145402262Y-115370184D01*
X145355697Y-115340925D01*
X145249523Y-115274211D01*
X145079254Y-115214631D01*
X145079249Y-115214630D01*
X144900004Y-115194435D01*
X144899996Y-115194435D01*
X144720750Y-115214630D01*
X144720745Y-115214631D01*
X144550476Y-115274211D01*
X144397737Y-115370184D01*
X144353195Y-115414726D01*
X144291872Y-115448210D01*
X144222180Y-115443225D01*
X144166247Y-115401353D01*
X144142295Y-115340928D01*
X144137905Y-115301962D01*
X144078326Y-115131695D01*
X144077145Y-115129816D01*
X144019735Y-115038448D01*
X143982353Y-114978955D01*
X143854799Y-114851401D01*
X143851807Y-114849521D01*
X143702060Y-114755428D01*
X143531791Y-114695848D01*
X143531786Y-114695847D01*
X143352541Y-114675652D01*
X143352533Y-114675652D01*
X143173287Y-114695847D01*
X143173282Y-114695848D01*
X143003013Y-114755428D01*
X142850274Y-114851401D01*
X142722721Y-114978954D01*
X142626748Y-115131693D01*
X142567168Y-115301962D01*
X142567167Y-115301967D01*
X142546972Y-115481213D01*
X141513291Y-115481213D01*
X141402262Y-115370184D01*
X141355697Y-115340925D01*
X141249523Y-115274211D01*
X141079254Y-115214631D01*
X141079249Y-115214630D01*
X140900004Y-115194435D01*
X140899996Y-115194435D01*
X140720750Y-115214630D01*
X140720745Y-115214631D01*
X140550476Y-115274211D01*
X140397737Y-115370184D01*
X140270184Y-115497737D01*
X140174211Y-115650476D01*
X140114631Y-115820745D01*
X140114630Y-115820750D01*
X140094435Y-115999996D01*
X136381235Y-115999996D01*
X136379816Y-115997738D01*
X136252262Y-115870184D01*
X136219982Y-115849901D01*
X136099523Y-115774211D01*
X135929254Y-115714631D01*
X135929249Y-115714630D01*
X135750004Y-115694435D01*
X135749996Y-115694435D01*
X135570750Y-115714630D01*
X135570745Y-115714631D01*
X135400476Y-115774211D01*
X135247737Y-115870184D01*
X135120184Y-115997737D01*
X135024212Y-116150475D01*
X135024211Y-116150476D01*
X134997147Y-116227820D01*
X134956425Y-116284596D01*
X134904613Y-116305752D01*
X134905137Y-116308044D01*
X134898351Y-116309592D01*
X134728082Y-116369171D01*
X134575341Y-116465145D01*
X134447788Y-116592698D01*
X134351815Y-116745437D01*
X134292235Y-116915706D01*
X134292234Y-116915711D01*
X134272039Y-117094957D01*
X120262378Y-117094957D01*
X120285368Y-117029255D01*
X120285369Y-117029249D01*
X120305565Y-116850003D01*
X120305565Y-116849996D01*
X120285369Y-116670750D01*
X120285368Y-116670745D01*
X120260446Y-116599522D01*
X120225789Y-116500478D01*
X120224067Y-116497738D01*
X120168930Y-116409988D01*
X120129816Y-116347738D01*
X120002262Y-116220184D01*
X119993426Y-116214632D01*
X119849523Y-116124211D01*
X119679254Y-116064631D01*
X119679249Y-116064630D01*
X119500004Y-116044435D01*
X119499996Y-116044435D01*
X119320750Y-116064630D01*
X119320745Y-116064631D01*
X119150476Y-116124211D01*
X118997737Y-116220184D01*
X118870182Y-116347739D01*
X118870179Y-116347743D01*
X118860153Y-116363699D01*
X118807817Y-116409988D01*
X118738763Y-116420634D01*
X118674916Y-116392256D01*
X118667481Y-116385404D01*
X118652261Y-116370184D01*
X118499522Y-116274211D01*
X118329253Y-116214631D01*
X118329248Y-116214630D01*
X118150003Y-116194435D01*
X118149995Y-116194435D01*
X117970749Y-116214630D01*
X117970744Y-116214631D01*
X117800475Y-116274211D01*
X117647736Y-116370184D01*
X117520183Y-116497737D01*
X117424210Y-116650476D01*
X117364630Y-116820745D01*
X117364629Y-116820750D01*
X117344434Y-116999996D01*
X113131235Y-116999996D01*
X113129816Y-116997738D01*
X113002262Y-116870184D01*
X112970144Y-116850003D01*
X112849523Y-116774211D01*
X112679254Y-116714631D01*
X112679249Y-116714630D01*
X112500004Y-116694435D01*
X112499996Y-116694435D01*
X112320750Y-116714630D01*
X112320745Y-116714631D01*
X112150476Y-116774211D01*
X111997737Y-116870184D01*
X111870184Y-116997737D01*
X111774211Y-117150476D01*
X111714631Y-117320745D01*
X111714630Y-117320750D01*
X111694435Y-117499996D01*
X100529180Y-117499996D01*
X100529180Y-114934009D01*
X101148825Y-114934009D01*
X101148825Y-115065990D01*
X101157229Y-115129816D01*
X101169270Y-115221274D01*
X101201330Y-115340925D01*
X101203423Y-115348735D01*
X101203428Y-115348751D01*
X101263357Y-115493433D01*
X101263364Y-115493447D01*
X101278787Y-115520160D01*
X101329345Y-115607729D01*
X101329350Y-115607735D01*
X101329351Y-115607737D01*
X101424694Y-115731991D01*
X101424700Y-115731998D01*
X101518001Y-115825299D01*
X101518007Y-115825304D01*
X101642271Y-115920655D01*
X101756555Y-115986637D01*
X101756560Y-115986639D01*
X101756566Y-115986642D01*
X101901248Y-116046571D01*
X101901254Y-116046572D01*
X101901264Y-116046577D01*
X102028726Y-116080730D01*
X102184017Y-116101175D01*
X102184024Y-116101175D01*
X102315976Y-116101175D01*
X102315983Y-116101175D01*
X102471274Y-116080730D01*
X102598736Y-116046577D01*
X102598748Y-116046571D01*
X102598751Y-116046571D01*
X102743433Y-115986642D01*
X102743433Y-115986641D01*
X102743445Y-115986637D01*
X102857729Y-115920655D01*
X102981993Y-115825304D01*
X103075304Y-115731993D01*
X103170655Y-115607729D01*
X103236637Y-115493445D01*
X103248572Y-115464631D01*
X103296571Y-115348751D01*
X103296571Y-115348748D01*
X103296577Y-115348736D01*
X103330730Y-115221274D01*
X103351175Y-115065983D01*
X103351175Y-114934017D01*
X103351174Y-114934009D01*
X108148825Y-114934009D01*
X108148825Y-115065990D01*
X108157229Y-115129816D01*
X108169270Y-115221274D01*
X108201330Y-115340925D01*
X108203423Y-115348735D01*
X108203428Y-115348751D01*
X108263357Y-115493433D01*
X108263364Y-115493447D01*
X108278787Y-115520160D01*
X108329345Y-115607729D01*
X108329350Y-115607735D01*
X108329351Y-115607737D01*
X108424694Y-115731991D01*
X108424700Y-115731998D01*
X108518001Y-115825299D01*
X108518007Y-115825304D01*
X108642271Y-115920655D01*
X108756555Y-115986637D01*
X108756560Y-115986639D01*
X108756566Y-115986642D01*
X108901248Y-116046571D01*
X108901254Y-116046572D01*
X108901264Y-116046577D01*
X109028726Y-116080730D01*
X109184017Y-116101175D01*
X109184024Y-116101175D01*
X109315976Y-116101175D01*
X109315983Y-116101175D01*
X109471274Y-116080730D01*
X109598736Y-116046577D01*
X109598748Y-116046571D01*
X109598751Y-116046571D01*
X109743433Y-115986642D01*
X109743433Y-115986641D01*
X109743445Y-115986637D01*
X109857729Y-115920655D01*
X109981993Y-115825304D01*
X110057301Y-115749996D01*
X115744438Y-115749996D01*
X115744438Y-115750003D01*
X115764633Y-115929249D01*
X115764634Y-115929254D01*
X115824214Y-116099523D01*
X115877404Y-116184174D01*
X115920187Y-116252262D01*
X116047741Y-116379816D01*
X116126413Y-116429249D01*
X116148286Y-116442993D01*
X116200481Y-116475789D01*
X116276834Y-116502506D01*
X116370748Y-116535368D01*
X116370753Y-116535369D01*
X116549999Y-116555565D01*
X116550003Y-116555565D01*
X116550007Y-116555565D01*
X116729252Y-116535369D01*
X116729255Y-116535368D01*
X116729258Y-116535368D01*
X116899525Y-116475789D01*
X117052265Y-116379816D01*
X117179819Y-116252262D01*
X117275792Y-116099522D01*
X117335371Y-115929255D01*
X117336341Y-115920648D01*
X117355568Y-115750003D01*
X117355568Y-115749996D01*
X117335372Y-115570750D01*
X117335371Y-115570745D01*
X117317792Y-115520506D01*
X117275792Y-115400478D01*
X117179819Y-115247738D01*
X117052265Y-115120184D01*
X117004226Y-115089999D01*
X116899526Y-115024211D01*
X116729257Y-114964631D01*
X116729252Y-114964630D01*
X116550007Y-114944435D01*
X116549999Y-114944435D01*
X116370753Y-114964630D01*
X116370748Y-114964631D01*
X116200479Y-115024211D01*
X116047740Y-115120184D01*
X115920187Y-115247737D01*
X115824214Y-115400476D01*
X115764634Y-115570745D01*
X115764633Y-115570750D01*
X115744438Y-115749996D01*
X110057301Y-115749996D01*
X110075304Y-115731993D01*
X110170655Y-115607729D01*
X110236637Y-115493445D01*
X110248572Y-115464631D01*
X110296571Y-115348751D01*
X110296571Y-115348748D01*
X110296577Y-115348736D01*
X110330730Y-115221274D01*
X110351175Y-115065983D01*
X110351175Y-114934017D01*
X110330730Y-114778726D01*
X110296577Y-114651264D01*
X110296572Y-114651254D01*
X110296571Y-114651248D01*
X110236642Y-114506566D01*
X110236639Y-114506560D01*
X110236637Y-114506555D01*
X110232850Y-114499996D01*
X120194435Y-114499996D01*
X120194435Y-114500003D01*
X120214630Y-114679249D01*
X120214631Y-114679254D01*
X120274211Y-114849523D01*
X120332766Y-114942712D01*
X120370184Y-115002262D01*
X120497738Y-115129816D01*
X120588080Y-115186582D01*
X120643295Y-115221276D01*
X120650478Y-115225789D01*
X120707812Y-115245851D01*
X120820745Y-115285368D01*
X120820750Y-115285369D01*
X120999996Y-115305565D01*
X121000000Y-115305565D01*
X121000004Y-115305565D01*
X121179249Y-115285369D01*
X121179252Y-115285368D01*
X121179255Y-115285368D01*
X121349522Y-115225789D01*
X121502262Y-115129816D01*
X121629816Y-115002262D01*
X121725789Y-114849522D01*
X121785368Y-114679255D01*
X121786486Y-114669331D01*
X121805565Y-114500003D01*
X121805565Y-114499996D01*
X124444435Y-114499996D01*
X124444435Y-114500003D01*
X124464630Y-114679249D01*
X124464631Y-114679254D01*
X124524211Y-114849523D01*
X124582766Y-114942712D01*
X124620184Y-115002262D01*
X124747738Y-115129816D01*
X124838080Y-115186582D01*
X124893295Y-115221276D01*
X124900478Y-115225789D01*
X124957812Y-115245851D01*
X125070745Y-115285368D01*
X125070750Y-115285369D01*
X125249996Y-115305565D01*
X125250000Y-115305565D01*
X125250004Y-115305565D01*
X125429249Y-115285369D01*
X125429252Y-115285368D01*
X125429255Y-115285368D01*
X125599522Y-115225789D01*
X125752262Y-115129816D01*
X125879816Y-115002262D01*
X125975789Y-114849522D01*
X126035368Y-114679255D01*
X126036486Y-114669331D01*
X126055565Y-114500003D01*
X126055565Y-114499996D01*
X126035369Y-114320750D01*
X126035368Y-114320745D01*
X126022989Y-114285368D01*
X125975789Y-114150478D01*
X125879816Y-113997738D01*
X125782074Y-113899996D01*
X127742962Y-113899996D01*
X127742962Y-113900003D01*
X127763157Y-114079249D01*
X127763158Y-114079254D01*
X127822738Y-114249523D01*
X127912428Y-114392262D01*
X127918711Y-114402262D01*
X128046265Y-114529816D01*
X128199005Y-114625789D01*
X128323455Y-114669336D01*
X128369272Y-114685368D01*
X128369277Y-114685369D01*
X128548523Y-114705565D01*
X128548527Y-114705565D01*
X128548531Y-114705565D01*
X128727776Y-114685369D01*
X128727779Y-114685368D01*
X128727782Y-114685368D01*
X128727783Y-114685367D01*
X128727786Y-114685367D01*
X128773599Y-114669336D01*
X128823659Y-114651818D01*
X128893437Y-114648256D01*
X128954065Y-114682985D01*
X128981656Y-114727906D01*
X129024210Y-114849521D01*
X129082766Y-114942712D01*
X129120184Y-115002262D01*
X129247738Y-115129816D01*
X129338080Y-115186582D01*
X129393295Y-115221276D01*
X129400478Y-115225789D01*
X129570745Y-115285368D01*
X129609578Y-115289743D01*
X129673989Y-115316808D01*
X129713546Y-115374402D01*
X129715685Y-115444239D01*
X129679728Y-115504146D01*
X129656157Y-115520160D01*
X129656374Y-115520506D01*
X129565971Y-115577309D01*
X129498734Y-115596309D01*
X129434029Y-115577309D01*
X129349520Y-115524209D01*
X129179262Y-115464633D01*
X129179249Y-115464630D01*
X129000004Y-115444435D01*
X128999996Y-115444435D01*
X128820750Y-115464630D01*
X128820745Y-115464631D01*
X128650476Y-115524211D01*
X128497737Y-115620184D01*
X128370184Y-115747737D01*
X128274211Y-115900476D01*
X128214631Y-116070745D01*
X128214630Y-116070750D01*
X128194435Y-116249996D01*
X128194435Y-116250003D01*
X128214630Y-116429249D01*
X128214631Y-116429254D01*
X128274211Y-116599523D01*
X128333849Y-116694435D01*
X128370184Y-116752262D01*
X128497738Y-116879816D01*
X128650478Y-116975789D01*
X128803258Y-117029249D01*
X128820745Y-117035368D01*
X128820750Y-117035369D01*
X128999996Y-117055565D01*
X129000000Y-117055565D01*
X129000004Y-117055565D01*
X129179249Y-117035369D01*
X129179252Y-117035368D01*
X129179255Y-117035368D01*
X129349522Y-116975789D01*
X129434027Y-116922691D01*
X129501264Y-116903690D01*
X129565973Y-116922691D01*
X129650475Y-116975788D01*
X129820745Y-117035368D01*
X129820750Y-117035369D01*
X129999996Y-117055565D01*
X130000000Y-117055565D01*
X130000004Y-117055565D01*
X130179249Y-117035369D01*
X130179252Y-117035368D01*
X130179255Y-117035368D01*
X130349522Y-116975789D01*
X130502262Y-116879816D01*
X130629816Y-116752262D01*
X130725789Y-116599522D01*
X130785368Y-116429255D01*
X130785369Y-116429249D01*
X130805565Y-116250003D01*
X130805565Y-116249996D01*
X131944435Y-116249996D01*
X131944435Y-116250003D01*
X131964630Y-116429249D01*
X131964631Y-116429254D01*
X132024211Y-116599523D01*
X132083849Y-116694435D01*
X132120184Y-116752262D01*
X132247738Y-116879816D01*
X132400478Y-116975789D01*
X132553258Y-117029249D01*
X132570745Y-117035368D01*
X132570750Y-117035369D01*
X132749996Y-117055565D01*
X132750000Y-117055565D01*
X132750004Y-117055565D01*
X132929249Y-117035369D01*
X132929252Y-117035368D01*
X132929255Y-117035368D01*
X133099522Y-116975789D01*
X133252262Y-116879816D01*
X133379816Y-116752262D01*
X133475789Y-116599522D01*
X133535368Y-116429255D01*
X133535369Y-116429249D01*
X133555565Y-116250003D01*
X133555565Y-116249996D01*
X133535369Y-116070750D01*
X133535368Y-116070745D01*
X133526162Y-116044435D01*
X133475789Y-115900478D01*
X133379816Y-115747738D01*
X133252262Y-115620184D01*
X133184027Y-115577309D01*
X133099523Y-115524211D01*
X132929254Y-115464631D01*
X132929249Y-115464630D01*
X132750004Y-115444435D01*
X132749996Y-115444435D01*
X132570750Y-115464630D01*
X132570745Y-115464631D01*
X132400476Y-115524211D01*
X132247737Y-115620184D01*
X132120184Y-115747737D01*
X132024211Y-115900476D01*
X131964631Y-116070745D01*
X131964630Y-116070750D01*
X131944435Y-116249996D01*
X130805565Y-116249996D01*
X130785369Y-116070750D01*
X130785368Y-116070745D01*
X130776162Y-116044435D01*
X130725789Y-115900478D01*
X130629816Y-115747738D01*
X130502262Y-115620184D01*
X130434027Y-115577309D01*
X130349523Y-115524211D01*
X130179254Y-115464631D01*
X130179250Y-115464630D01*
X130140422Y-115460256D01*
X130076008Y-115433190D01*
X130036453Y-115375595D01*
X130034316Y-115305758D01*
X130070274Y-115245851D01*
X130093844Y-115229841D01*
X130093626Y-115229494D01*
X130129660Y-115206851D01*
X130252262Y-115129816D01*
X130379816Y-115002262D01*
X130475789Y-114849522D01*
X130535368Y-114679255D01*
X130536486Y-114669331D01*
X130555565Y-114500003D01*
X130555565Y-114499996D01*
X132944435Y-114499996D01*
X132944435Y-114500003D01*
X132964630Y-114679249D01*
X132964631Y-114679254D01*
X133024211Y-114849523D01*
X133082766Y-114942712D01*
X133120184Y-115002262D01*
X133247738Y-115129816D01*
X133338080Y-115186582D01*
X133393295Y-115221276D01*
X133400478Y-115225789D01*
X133457812Y-115245851D01*
X133570745Y-115285368D01*
X133570750Y-115285369D01*
X133749996Y-115305565D01*
X133750000Y-115305565D01*
X133750004Y-115305565D01*
X133929249Y-115285369D01*
X133929252Y-115285368D01*
X133929255Y-115285368D01*
X134099522Y-115225789D01*
X134252262Y-115129816D01*
X134379816Y-115002262D01*
X134475789Y-114849522D01*
X134535368Y-114679255D01*
X134536486Y-114669331D01*
X134555565Y-114500003D01*
X134555565Y-114499996D01*
X136944435Y-114499996D01*
X136944435Y-114500003D01*
X136964630Y-114679249D01*
X136964631Y-114679254D01*
X137024211Y-114849523D01*
X137082766Y-114942712D01*
X137120184Y-115002262D01*
X137247738Y-115129816D01*
X137338080Y-115186582D01*
X137393295Y-115221276D01*
X137400478Y-115225789D01*
X137457812Y-115245851D01*
X137570745Y-115285368D01*
X137570750Y-115285369D01*
X137749996Y-115305565D01*
X137750000Y-115305565D01*
X137750004Y-115305565D01*
X137929249Y-115285369D01*
X137929252Y-115285368D01*
X137929255Y-115285368D01*
X138099522Y-115225789D01*
X138252262Y-115129816D01*
X138379816Y-115002262D01*
X138475789Y-114849522D01*
X138535368Y-114679255D01*
X138536486Y-114669331D01*
X138546285Y-114582366D01*
X148786622Y-114582366D01*
X148786622Y-114582373D01*
X148806817Y-114761619D01*
X148806818Y-114761624D01*
X148866398Y-114931893D01*
X148950649Y-115065976D01*
X148962371Y-115084632D01*
X149089925Y-115212186D01*
X149146504Y-115247737D01*
X149238843Y-115305758D01*
X149242665Y-115308159D01*
X149366229Y-115351396D01*
X149412932Y-115367738D01*
X149412937Y-115367739D01*
X149592183Y-115387935D01*
X149592187Y-115387935D01*
X149592191Y-115387935D01*
X149771436Y-115367739D01*
X149771439Y-115367738D01*
X149771442Y-115367738D01*
X149941709Y-115308159D01*
X150094449Y-115212186D01*
X150222003Y-115084632D01*
X150317976Y-114931892D01*
X150377555Y-114761625D01*
X150377556Y-114761619D01*
X150397752Y-114582373D01*
X150397752Y-114582366D01*
X150377556Y-114403120D01*
X150377555Y-114403115D01*
X150336354Y-114285369D01*
X150317976Y-114232848D01*
X150222003Y-114080108D01*
X150094449Y-113952554D01*
X149941710Y-113856581D01*
X149771441Y-113797001D01*
X149771436Y-113797000D01*
X149592191Y-113776805D01*
X149592183Y-113776805D01*
X149412937Y-113797000D01*
X149412932Y-113797001D01*
X149242663Y-113856581D01*
X149089924Y-113952554D01*
X148962371Y-114080107D01*
X148866398Y-114232846D01*
X148806818Y-114403115D01*
X148806817Y-114403120D01*
X148786622Y-114582366D01*
X138546285Y-114582366D01*
X138555565Y-114500003D01*
X138555565Y-114499996D01*
X138535369Y-114320750D01*
X138535368Y-114320745D01*
X138522989Y-114285368D01*
X138475789Y-114150478D01*
X138379816Y-113997738D01*
X138252262Y-113870184D01*
X138135794Y-113797002D01*
X138099523Y-113774211D01*
X137929254Y-113714631D01*
X137929249Y-113714630D01*
X137750004Y-113694435D01*
X137749996Y-113694435D01*
X137570750Y-113714630D01*
X137570745Y-113714631D01*
X137400476Y-113774211D01*
X137247737Y-113870184D01*
X137120184Y-113997737D01*
X137024211Y-114150476D01*
X136964631Y-114320745D01*
X136964630Y-114320750D01*
X136944435Y-114499996D01*
X134555565Y-114499996D01*
X134535369Y-114320750D01*
X134535368Y-114320745D01*
X134522989Y-114285368D01*
X134475789Y-114150478D01*
X134379816Y-113997738D01*
X134252262Y-113870184D01*
X134135794Y-113797002D01*
X134099523Y-113774211D01*
X133929254Y-113714631D01*
X133929249Y-113714630D01*
X133750004Y-113694435D01*
X133749996Y-113694435D01*
X133570750Y-113714630D01*
X133570745Y-113714631D01*
X133400476Y-113774211D01*
X133247737Y-113870184D01*
X133120184Y-113997737D01*
X133024211Y-114150476D01*
X132964631Y-114320745D01*
X132964630Y-114320750D01*
X132944435Y-114499996D01*
X130555565Y-114499996D01*
X130535369Y-114320750D01*
X130535368Y-114320745D01*
X130522989Y-114285368D01*
X130475789Y-114150478D01*
X130379816Y-113997738D01*
X130252262Y-113870184D01*
X130135794Y-113797002D01*
X130099523Y-113774211D01*
X129929254Y-113714631D01*
X129929249Y-113714630D01*
X129750004Y-113694435D01*
X129749996Y-113694435D01*
X129570750Y-113714630D01*
X129570742Y-113714632D01*
X129474866Y-113748181D01*
X129405088Y-113751742D01*
X129344460Y-113717013D01*
X129316872Y-113672096D01*
X129276016Y-113555336D01*
X129272455Y-113485557D01*
X129305377Y-113426701D01*
X129334340Y-113397738D01*
X129379816Y-113352262D01*
X129444074Y-113249996D01*
X134944435Y-113249996D01*
X134944435Y-113250003D01*
X134964630Y-113429249D01*
X134964631Y-113429254D01*
X135024211Y-113599523D01*
X135100384Y-113720750D01*
X135120184Y-113752262D01*
X135247738Y-113879816D01*
X135400478Y-113975789D01*
X135507861Y-114013364D01*
X135570745Y-114035368D01*
X135570750Y-114035369D01*
X135749996Y-114055565D01*
X135750000Y-114055565D01*
X135750004Y-114055565D01*
X135929249Y-114035369D01*
X135929252Y-114035368D01*
X135929255Y-114035368D01*
X136099522Y-113975789D01*
X136252262Y-113879816D01*
X136379816Y-113752262D01*
X136475789Y-113599522D01*
X136535368Y-113429255D01*
X136541392Y-113375789D01*
X136555280Y-113252533D01*
X141946972Y-113252533D01*
X141946972Y-113252540D01*
X141967167Y-113431786D01*
X141967168Y-113431791D01*
X142026748Y-113602060D01*
X142118563Y-113748181D01*
X142122721Y-113754799D01*
X142250275Y-113882353D01*
X142309028Y-113919270D01*
X142398975Y-113975788D01*
X142403015Y-113978326D01*
X142503128Y-114013357D01*
X142573282Y-114037905D01*
X142573287Y-114037906D01*
X142752533Y-114058102D01*
X142752537Y-114058102D01*
X142752541Y-114058102D01*
X142931786Y-114037906D01*
X142931789Y-114037905D01*
X142931792Y-114037905D01*
X143102059Y-113978326D01*
X143254799Y-113882353D01*
X143382353Y-113754799D01*
X143478326Y-113602059D01*
X143537905Y-113431792D01*
X143546866Y-113352262D01*
X143558102Y-113252540D01*
X143558102Y-113252533D01*
X143537906Y-113073287D01*
X143537905Y-113073282D01*
X143520390Y-113023226D01*
X143478326Y-112903015D01*
X143463748Y-112879815D01*
X143397393Y-112774211D01*
X143382353Y-112750275D01*
X143309990Y-112677912D01*
X143294747Y-112649996D01*
X145694435Y-112649996D01*
X145694435Y-112650003D01*
X145714630Y-112829249D01*
X145714631Y-112829254D01*
X145774211Y-112999523D01*
X145837344Y-113099998D01*
X145870184Y-113152262D01*
X145997738Y-113279816D01*
X146150478Y-113375789D01*
X146295976Y-113426701D01*
X146320745Y-113435368D01*
X146320750Y-113435369D01*
X146499996Y-113455565D01*
X146500000Y-113455565D01*
X146500004Y-113455565D01*
X146679249Y-113435369D01*
X146679252Y-113435368D01*
X146679255Y-113435368D01*
X146849522Y-113375789D01*
X147002262Y-113279816D01*
X147129816Y-113152262D01*
X147162665Y-113099983D01*
X156499500Y-113099983D01*
X156499500Y-114400001D01*
X156499501Y-114400018D01*
X156510000Y-114502796D01*
X156510001Y-114502799D01*
X156565185Y-114669331D01*
X156565187Y-114669336D01*
X156571305Y-114679255D01*
X156657288Y-114818656D01*
X156781344Y-114942712D01*
X156877890Y-115002262D01*
X156936558Y-115038448D01*
X156983283Y-115090396D01*
X156994506Y-115159358D01*
X156966663Y-115223441D01*
X156959144Y-115231668D01*
X156820271Y-115370541D01*
X156695379Y-115542442D01*
X156598904Y-115731782D01*
X156533242Y-115933870D01*
X156533242Y-115933873D01*
X156522769Y-116000000D01*
X157566988Y-116000000D01*
X157534075Y-116057007D01*
X157500000Y-116184174D01*
X157500000Y-116315826D01*
X157534075Y-116442993D01*
X157566988Y-116500000D01*
X156522769Y-116500000D01*
X156533242Y-116566126D01*
X156533242Y-116566129D01*
X156598904Y-116768217D01*
X156695379Y-116957557D01*
X156820272Y-117129459D01*
X156820276Y-117129464D01*
X156970535Y-117279723D01*
X156970540Y-117279727D01*
X157142442Y-117404620D01*
X157331782Y-117501095D01*
X157533870Y-117566757D01*
X157743754Y-117600000D01*
X157750000Y-117600000D01*
X157750000Y-116683012D01*
X157807007Y-116715925D01*
X157934174Y-116750000D01*
X158065826Y-116750000D01*
X158192993Y-116715925D01*
X158250000Y-116683012D01*
X158250000Y-117600000D01*
X158256246Y-117600000D01*
X158466127Y-117566757D01*
X158466130Y-117566757D01*
X158668217Y-117501095D01*
X158857557Y-117404620D01*
X159029459Y-117279727D01*
X159029464Y-117279723D01*
X159179723Y-117129464D01*
X159179727Y-117129459D01*
X159304620Y-116957557D01*
X159401095Y-116768217D01*
X159466757Y-116566129D01*
X159466757Y-116566126D01*
X159477231Y-116500000D01*
X158433012Y-116500000D01*
X158465925Y-116442993D01*
X158500000Y-116315826D01*
X158500000Y-116184174D01*
X158465925Y-116057007D01*
X158433012Y-116000000D01*
X159477231Y-116000000D01*
X159466757Y-115933873D01*
X159466757Y-115933870D01*
X159401095Y-115731782D01*
X159304620Y-115542442D01*
X159179727Y-115370540D01*
X159179723Y-115370535D01*
X159040856Y-115231668D01*
X159007371Y-115170345D01*
X159012355Y-115100653D01*
X159054227Y-115044720D01*
X159063441Y-115038448D01*
X159069331Y-115034814D01*
X159069334Y-115034814D01*
X159218656Y-114942712D01*
X159342712Y-114818656D01*
X159434814Y-114669334D01*
X159489999Y-114502797D01*
X159500500Y-114400009D01*
X159500499Y-113099992D01*
X159489999Y-112997203D01*
X159434814Y-112830666D01*
X159342712Y-112681344D01*
X159218656Y-112557288D01*
X159090933Y-112478508D01*
X159069336Y-112465187D01*
X159069331Y-112465185D01*
X159040523Y-112455639D01*
X158902797Y-112410001D01*
X158902795Y-112410000D01*
X158800010Y-112399500D01*
X157199998Y-112399500D01*
X157199981Y-112399501D01*
X157097203Y-112410000D01*
X157097200Y-112410001D01*
X156930668Y-112465185D01*
X156930663Y-112465187D01*
X156781342Y-112557289D01*
X156657289Y-112681342D01*
X156565187Y-112830663D01*
X156565185Y-112830668D01*
X156541212Y-112903015D01*
X156510001Y-112997203D01*
X156510001Y-112997204D01*
X156510000Y-112997204D01*
X156499500Y-113099983D01*
X147162665Y-113099983D01*
X147225789Y-112999522D01*
X147285368Y-112829255D01*
X147298283Y-112714630D01*
X147305565Y-112650003D01*
X147305565Y-112649996D01*
X147285369Y-112470750D01*
X147285368Y-112470745D01*
X147255696Y-112385947D01*
X147225789Y-112300478D01*
X147216295Y-112285369D01*
X147175337Y-112220184D01*
X147129816Y-112147738D01*
X147002262Y-112020184D01*
X146849523Y-111924211D01*
X146679254Y-111864631D01*
X146679249Y-111864630D01*
X146500004Y-111844435D01*
X146499996Y-111844435D01*
X146320750Y-111864630D01*
X146320745Y-111864631D01*
X146150476Y-111924211D01*
X145997737Y-112020184D01*
X145870184Y-112147737D01*
X145774211Y-112300476D01*
X145714631Y-112470745D01*
X145714630Y-112470750D01*
X145694435Y-112649996D01*
X143294747Y-112649996D01*
X143276505Y-112616589D01*
X143281489Y-112546897D01*
X143323361Y-112490964D01*
X143343875Y-112478508D01*
X143349514Y-112475791D01*
X143349522Y-112475789D01*
X143502262Y-112379816D01*
X143629816Y-112252262D01*
X143725789Y-112099522D01*
X143785368Y-111929255D01*
X143785369Y-111929249D01*
X143805565Y-111750003D01*
X143805565Y-111749996D01*
X143785369Y-111570750D01*
X143785368Y-111570745D01*
X143747209Y-111461693D01*
X143725789Y-111400478D01*
X143629816Y-111247738D01*
X143502262Y-111120184D01*
X143470144Y-111100003D01*
X143349523Y-111024211D01*
X143179254Y-110964631D01*
X143179249Y-110964630D01*
X143000004Y-110944435D01*
X142999996Y-110944435D01*
X142820750Y-110964630D01*
X142820745Y-110964631D01*
X142650476Y-111024211D01*
X142497737Y-111120184D01*
X142370184Y-111247737D01*
X142274211Y-111400476D01*
X142214631Y-111570745D01*
X142214630Y-111570750D01*
X142194435Y-111749996D01*
X142194435Y-111750003D01*
X142214630Y-111929249D01*
X142214631Y-111929254D01*
X142274211Y-112099523D01*
X142370184Y-112252262D01*
X142442546Y-112324624D01*
X142476031Y-112385947D01*
X142471047Y-112455639D01*
X142429175Y-112511572D01*
X142408672Y-112524022D01*
X142403022Y-112526742D01*
X142250274Y-112622721D01*
X142122721Y-112750274D01*
X142026748Y-112903013D01*
X141967168Y-113073282D01*
X141967167Y-113073287D01*
X141946972Y-113252533D01*
X136555280Y-113252533D01*
X136555565Y-113250003D01*
X136555565Y-113249996D01*
X136535369Y-113070750D01*
X136535368Y-113070745D01*
X136509635Y-112997204D01*
X136475789Y-112900478D01*
X136379816Y-112747738D01*
X136252262Y-112620184D01*
X136214706Y-112596586D01*
X136099523Y-112524211D01*
X135929254Y-112464631D01*
X135929249Y-112464630D01*
X135750004Y-112444435D01*
X135749996Y-112444435D01*
X135570750Y-112464630D01*
X135570745Y-112464631D01*
X135400476Y-112524211D01*
X135247737Y-112620184D01*
X135120184Y-112747737D01*
X135024211Y-112900476D01*
X134964631Y-113070745D01*
X134964630Y-113070750D01*
X134944435Y-113249996D01*
X129444074Y-113249996D01*
X129475789Y-113199522D01*
X129501991Y-113124639D01*
X129542712Y-113067863D01*
X129607664Y-113042115D01*
X129632917Y-113042373D01*
X129749997Y-113055565D01*
X129750000Y-113055565D01*
X129750004Y-113055565D01*
X129929249Y-113035369D01*
X129929252Y-113035368D01*
X129929255Y-113035368D01*
X130099522Y-112975789D01*
X130252262Y-112879816D01*
X130379816Y-112752262D01*
X130475789Y-112599522D01*
X130535368Y-112429255D01*
X130535369Y-112429249D01*
X130555565Y-112250003D01*
X130555565Y-112249996D01*
X130535369Y-112070750D01*
X130535368Y-112070745D01*
X130511405Y-112002262D01*
X130475789Y-111900478D01*
X130466295Y-111885369D01*
X130419704Y-111811220D01*
X130419700Y-111811213D01*
X136828144Y-111811213D01*
X136828144Y-111811220D01*
X136848339Y-111990466D01*
X136848340Y-111990471D01*
X136907920Y-112160740D01*
X136964004Y-112249996D01*
X137003893Y-112313479D01*
X137131447Y-112441033D01*
X137186758Y-112475787D01*
X137267861Y-112526748D01*
X137284187Y-112537006D01*
X137454454Y-112596585D01*
X137454459Y-112596586D01*
X137633705Y-112616782D01*
X137633709Y-112616782D01*
X137633713Y-112616782D01*
X137812958Y-112596586D01*
X137812961Y-112596585D01*
X137812964Y-112596585D01*
X137983231Y-112537006D01*
X138135971Y-112441033D01*
X138263525Y-112313479D01*
X138359498Y-112160739D01*
X138419077Y-111990472D01*
X138424503Y-111942311D01*
X138451568Y-111877901D01*
X138509163Y-111838345D01*
X138579000Y-111836206D01*
X138588678Y-111839156D01*
X138720737Y-111885366D01*
X138720743Y-111885367D01*
X138720745Y-111885368D01*
X138720746Y-111885368D01*
X138720750Y-111885369D01*
X138899996Y-111905565D01*
X138900000Y-111905565D01*
X138900004Y-111905565D01*
X139079249Y-111885369D01*
X139079252Y-111885368D01*
X139079255Y-111885368D01*
X139249522Y-111825789D01*
X139402262Y-111729816D01*
X139529816Y-111602262D01*
X139625789Y-111449522D01*
X139685368Y-111279255D01*
X139685369Y-111279249D01*
X139705565Y-111100003D01*
X139705565Y-111099996D01*
X139685369Y-110920750D01*
X139685368Y-110920745D01*
X139667676Y-110870184D01*
X139625789Y-110750478D01*
X139625486Y-110749996D01*
X151444435Y-110749996D01*
X151444435Y-110750003D01*
X151464630Y-110929249D01*
X151464631Y-110929254D01*
X151524211Y-111099523D01*
X151575659Y-111181401D01*
X151620184Y-111252262D01*
X151747738Y-111379816D01*
X151838080Y-111436582D01*
X151882721Y-111464632D01*
X151900478Y-111475789D01*
X151969678Y-111500003D01*
X152070745Y-111535368D01*
X152070750Y-111535369D01*
X152249996Y-111555565D01*
X152250000Y-111555565D01*
X152250004Y-111555565D01*
X152429249Y-111535369D01*
X152429252Y-111535368D01*
X152429255Y-111535368D01*
X152599522Y-111475789D01*
X152752262Y-111379816D01*
X152879816Y-111252262D01*
X152975789Y-111099522D01*
X153035368Y-110929255D01*
X153035369Y-110929249D01*
X153055565Y-110750003D01*
X153055565Y-110749996D01*
X153035369Y-110570750D01*
X153035368Y-110570745D01*
X152988689Y-110437345D01*
X152975789Y-110400478D01*
X152879816Y-110247738D01*
X152752262Y-110120184D01*
X152729146Y-110105659D01*
X152599523Y-110024211D01*
X152429254Y-109964631D01*
X152429249Y-109964630D01*
X152250004Y-109944435D01*
X152249996Y-109944435D01*
X152070750Y-109964630D01*
X152070745Y-109964631D01*
X151900476Y-110024211D01*
X151747737Y-110120184D01*
X151620184Y-110247737D01*
X151524211Y-110400476D01*
X151464631Y-110570745D01*
X151464630Y-110570750D01*
X151444435Y-110749996D01*
X139625486Y-110749996D01*
X139603265Y-110714632D01*
X139529815Y-110597737D01*
X139402262Y-110470184D01*
X139249523Y-110374211D01*
X139079254Y-110314631D01*
X139079249Y-110314630D01*
X138900004Y-110294435D01*
X138899996Y-110294435D01*
X138720750Y-110314630D01*
X138720737Y-110314633D01*
X138550480Y-110374209D01*
X138515970Y-110395893D01*
X138448733Y-110414892D01*
X138384030Y-110395893D01*
X138349519Y-110374209D01*
X138179262Y-110314633D01*
X138179249Y-110314630D01*
X138000004Y-110294435D01*
X137999996Y-110294435D01*
X137820750Y-110314630D01*
X137820745Y-110314631D01*
X137650476Y-110374211D01*
X137497737Y-110470184D01*
X137370184Y-110597737D01*
X137274211Y-110750476D01*
X137214631Y-110920745D01*
X137214630Y-110920750D01*
X137196049Y-111085669D01*
X137168983Y-111150083D01*
X137138806Y-111176777D01*
X137131447Y-111181401D01*
X137131444Y-111181403D01*
X137003893Y-111308954D01*
X136907920Y-111461693D01*
X136848340Y-111631962D01*
X136848339Y-111631967D01*
X136828144Y-111811213D01*
X130419700Y-111811213D01*
X130379816Y-111747738D01*
X130252262Y-111620184D01*
X130099523Y-111524211D01*
X129929254Y-111464631D01*
X129929249Y-111464630D01*
X129750004Y-111444435D01*
X129749996Y-111444435D01*
X129570750Y-111464630D01*
X129570745Y-111464631D01*
X129400476Y-111524211D01*
X129247737Y-111620184D01*
X129120184Y-111747737D01*
X129024209Y-111900480D01*
X128998007Y-111975361D01*
X128957286Y-112032137D01*
X128892333Y-112057884D01*
X128867083Y-112057626D01*
X128750004Y-112044435D01*
X128749996Y-112044435D01*
X128570750Y-112064630D01*
X128570745Y-112064631D01*
X128400476Y-112124211D01*
X128247737Y-112220184D01*
X128120184Y-112347737D01*
X128024211Y-112500476D01*
X127964631Y-112670745D01*
X127964630Y-112670750D01*
X127944435Y-112849996D01*
X127944435Y-112850003D01*
X127964630Y-113029249D01*
X127964633Y-113029262D01*
X128022510Y-113194662D01*
X128026072Y-113264441D01*
X127993151Y-113323298D01*
X127918710Y-113397739D01*
X127822738Y-113550476D01*
X127763158Y-113720745D01*
X127763157Y-113720750D01*
X127742962Y-113899996D01*
X125782074Y-113899996D01*
X125752262Y-113870184D01*
X125635794Y-113797002D01*
X125599523Y-113774211D01*
X125429254Y-113714631D01*
X125429249Y-113714630D01*
X125250004Y-113694435D01*
X125249996Y-113694435D01*
X125070750Y-113714630D01*
X125070745Y-113714631D01*
X124900476Y-113774211D01*
X124747737Y-113870184D01*
X124620184Y-113997737D01*
X124524211Y-114150476D01*
X124464631Y-114320745D01*
X124464630Y-114320750D01*
X124444435Y-114499996D01*
X121805565Y-114499996D01*
X121785369Y-114320750D01*
X121785368Y-114320745D01*
X121772989Y-114285368D01*
X121725789Y-114150478D01*
X121629816Y-113997738D01*
X121502262Y-113870184D01*
X121385794Y-113797002D01*
X121349523Y-113774211D01*
X121179254Y-113714631D01*
X121179249Y-113714630D01*
X121000004Y-113694435D01*
X120999996Y-113694435D01*
X120820750Y-113714630D01*
X120820745Y-113714631D01*
X120650476Y-113774211D01*
X120497737Y-113870184D01*
X120370184Y-113997737D01*
X120274211Y-114150476D01*
X120214631Y-114320745D01*
X120214630Y-114320750D01*
X120194435Y-114499996D01*
X110232850Y-114499996D01*
X110170655Y-114392271D01*
X110104123Y-114305565D01*
X110075305Y-114268008D01*
X110075299Y-114268001D01*
X109981998Y-114174700D01*
X109981991Y-114174694D01*
X109857737Y-114079351D01*
X109857735Y-114079350D01*
X109857729Y-114079345D01*
X109785953Y-114037905D01*
X109743447Y-114013364D01*
X109743433Y-114013357D01*
X109598751Y-113953428D01*
X109598739Y-113953424D01*
X109598736Y-113953423D01*
X109471274Y-113919270D01*
X109445317Y-113915852D01*
X109315990Y-113898825D01*
X109315983Y-113898825D01*
X109184017Y-113898825D01*
X109184009Y-113898825D01*
X109036206Y-113918285D01*
X109028726Y-113919270D01*
X108904507Y-113952554D01*
X108901264Y-113953423D01*
X108901248Y-113953428D01*
X108756566Y-114013357D01*
X108756552Y-114013364D01*
X108642277Y-114079341D01*
X108642262Y-114079351D01*
X108518008Y-114174694D01*
X108518001Y-114174700D01*
X108424700Y-114268001D01*
X108424694Y-114268008D01*
X108329351Y-114392262D01*
X108329341Y-114392277D01*
X108263364Y-114506552D01*
X108263357Y-114506566D01*
X108203428Y-114651248D01*
X108203423Y-114651264D01*
X108173853Y-114761624D01*
X108169271Y-114778723D01*
X108169269Y-114778734D01*
X108148825Y-114934009D01*
X103351174Y-114934009D01*
X103330730Y-114778726D01*
X103296577Y-114651264D01*
X103296572Y-114651254D01*
X103296571Y-114651248D01*
X103236642Y-114506566D01*
X103236639Y-114506560D01*
X103236637Y-114506555D01*
X103170655Y-114392271D01*
X103104123Y-114305565D01*
X103075305Y-114268008D01*
X103075299Y-114268001D01*
X102981998Y-114174700D01*
X102981991Y-114174694D01*
X102857737Y-114079351D01*
X102857735Y-114079350D01*
X102857729Y-114079345D01*
X102785953Y-114037905D01*
X102743447Y-114013364D01*
X102743433Y-114013357D01*
X102598751Y-113953428D01*
X102598739Y-113953424D01*
X102598736Y-113953423D01*
X102471274Y-113919270D01*
X102445317Y-113915852D01*
X102315990Y-113898825D01*
X102315983Y-113898825D01*
X102184017Y-113898825D01*
X102184009Y-113898825D01*
X102036206Y-113918285D01*
X102028726Y-113919270D01*
X101904507Y-113952554D01*
X101901264Y-113953423D01*
X101901248Y-113953428D01*
X101756566Y-114013357D01*
X101756552Y-114013364D01*
X101642277Y-114079341D01*
X101642262Y-114079351D01*
X101518008Y-114174694D01*
X101518001Y-114174700D01*
X101424700Y-114268001D01*
X101424694Y-114268008D01*
X101329351Y-114392262D01*
X101329341Y-114392277D01*
X101263364Y-114506552D01*
X101263357Y-114506566D01*
X101203428Y-114651248D01*
X101203423Y-114651264D01*
X101173853Y-114761624D01*
X101169271Y-114778723D01*
X101169269Y-114778734D01*
X101148825Y-114934009D01*
X100529180Y-114934009D01*
X100529180Y-113499996D01*
X113394435Y-113499996D01*
X113394435Y-113500003D01*
X113414630Y-113679249D01*
X113414631Y-113679254D01*
X113474211Y-113849523D01*
X113553549Y-113975788D01*
X113570184Y-114002262D01*
X113697738Y-114129816D01*
X113850478Y-114225789D01*
X113918306Y-114249523D01*
X114020745Y-114285368D01*
X114020750Y-114285369D01*
X114199996Y-114305565D01*
X114200000Y-114305565D01*
X114200004Y-114305565D01*
X114379249Y-114285369D01*
X114379252Y-114285368D01*
X114379255Y-114285368D01*
X114549522Y-114225789D01*
X114702262Y-114129816D01*
X114712319Y-114119759D01*
X114773642Y-114086274D01*
X114843334Y-114091258D01*
X114887681Y-114119759D01*
X114897738Y-114129816D01*
X115050478Y-114225789D01*
X115118306Y-114249523D01*
X115220745Y-114285368D01*
X115220750Y-114285369D01*
X115399996Y-114305565D01*
X115400000Y-114305565D01*
X115400004Y-114305565D01*
X115579249Y-114285369D01*
X115579252Y-114285368D01*
X115579255Y-114285368D01*
X115749522Y-114225789D01*
X115902262Y-114129816D01*
X116029816Y-114002262D01*
X116125789Y-113849522D01*
X116185368Y-113679255D01*
X116186175Y-113672093D01*
X116205565Y-113500003D01*
X116205565Y-113499996D01*
X116185369Y-113320750D01*
X116185368Y-113320745D01*
X116161501Y-113252537D01*
X116125789Y-113150478D01*
X116029816Y-112997738D01*
X115902262Y-112870184D01*
X115870144Y-112850003D01*
X115870133Y-112849996D01*
X125444435Y-112849996D01*
X125444435Y-112850003D01*
X125464630Y-113029249D01*
X125464631Y-113029254D01*
X125524211Y-113199523D01*
X125600384Y-113320750D01*
X125620184Y-113352262D01*
X125747738Y-113479816D01*
X125838080Y-113536582D01*
X125860192Y-113550476D01*
X125900478Y-113575789D01*
X126070745Y-113635368D01*
X126070750Y-113635369D01*
X126249996Y-113655565D01*
X126250000Y-113655565D01*
X126250004Y-113655565D01*
X126429249Y-113635369D01*
X126429252Y-113635368D01*
X126429255Y-113635368D01*
X126599522Y-113575789D01*
X126752262Y-113479816D01*
X126879816Y-113352262D01*
X126975789Y-113199522D01*
X127035368Y-113029255D01*
X127035369Y-113029249D01*
X127055565Y-112850003D01*
X127055565Y-112849996D01*
X127035369Y-112670750D01*
X127035368Y-112670745D01*
X127017676Y-112620184D01*
X126975789Y-112500478D01*
X126957106Y-112470745D01*
X126879815Y-112347737D01*
X126752262Y-112220184D01*
X126599523Y-112124211D01*
X126429254Y-112064631D01*
X126429249Y-112064630D01*
X126250004Y-112044435D01*
X126249996Y-112044435D01*
X126070750Y-112064630D01*
X126070745Y-112064631D01*
X125900476Y-112124211D01*
X125747737Y-112220184D01*
X125620184Y-112347737D01*
X125524211Y-112500476D01*
X125464631Y-112670745D01*
X125464630Y-112670750D01*
X125444435Y-112849996D01*
X115870133Y-112849996D01*
X115749523Y-112774211D01*
X115579254Y-112714631D01*
X115579249Y-112714630D01*
X115400004Y-112694435D01*
X115399996Y-112694435D01*
X115220750Y-112714630D01*
X115220745Y-112714631D01*
X115050476Y-112774211D01*
X114897737Y-112870184D01*
X114887681Y-112880241D01*
X114826358Y-112913726D01*
X114756666Y-112908742D01*
X114712319Y-112880241D01*
X114702262Y-112870184D01*
X114549523Y-112774211D01*
X114379254Y-112714631D01*
X114379249Y-112714630D01*
X114200004Y-112694435D01*
X114199996Y-112694435D01*
X114020750Y-112714630D01*
X114020745Y-112714631D01*
X113850476Y-112774211D01*
X113697737Y-112870184D01*
X113570184Y-112997737D01*
X113474211Y-113150476D01*
X113414631Y-113320745D01*
X113414630Y-113320750D01*
X113394435Y-113499996D01*
X100529180Y-113499996D01*
X100529180Y-110749996D01*
X121944435Y-110749996D01*
X121944435Y-110750003D01*
X121964630Y-110929249D01*
X121964631Y-110929254D01*
X122024211Y-111099523D01*
X122075659Y-111181401D01*
X122120184Y-111252262D01*
X122247738Y-111379816D01*
X122338080Y-111436582D01*
X122382721Y-111464632D01*
X122400478Y-111475789D01*
X122469678Y-111500003D01*
X122570745Y-111535368D01*
X122570750Y-111535369D01*
X122749996Y-111555565D01*
X122750000Y-111555565D01*
X122750004Y-111555565D01*
X122929249Y-111535369D01*
X122929252Y-111535368D01*
X122929255Y-111535368D01*
X123030342Y-111499996D01*
X123694435Y-111499996D01*
X123694435Y-111500003D01*
X123714630Y-111679249D01*
X123714631Y-111679254D01*
X123774211Y-111849523D01*
X123832517Y-111942315D01*
X123870184Y-112002262D01*
X123997738Y-112129816D01*
X124026259Y-112147737D01*
X124141557Y-112220184D01*
X124150478Y-112225789D01*
X124320745Y-112285368D01*
X124320750Y-112285369D01*
X124499996Y-112305565D01*
X124500000Y-112305565D01*
X124500004Y-112305565D01*
X124679249Y-112285369D01*
X124679252Y-112285368D01*
X124679255Y-112285368D01*
X124849522Y-112225789D01*
X125002262Y-112129816D01*
X125129816Y-112002262D01*
X125225789Y-111849522D01*
X125285368Y-111679255D01*
X125294043Y-111602262D01*
X125305565Y-111500003D01*
X125305565Y-111499996D01*
X125285369Y-111320750D01*
X125285368Y-111320745D01*
X125225789Y-111150478D01*
X125129816Y-110997738D01*
X125002262Y-110870184D01*
X124849523Y-110774211D01*
X124679254Y-110714631D01*
X124679249Y-110714630D01*
X124500004Y-110694435D01*
X124499996Y-110694435D01*
X124320750Y-110714630D01*
X124320745Y-110714631D01*
X124150476Y-110774211D01*
X123997737Y-110870184D01*
X123870184Y-110997737D01*
X123774211Y-111150476D01*
X123714631Y-111320745D01*
X123714630Y-111320750D01*
X123694435Y-111499996D01*
X123030342Y-111499996D01*
X123099522Y-111475789D01*
X123252262Y-111379816D01*
X123379816Y-111252262D01*
X123475789Y-111099522D01*
X123535368Y-110929255D01*
X123535369Y-110929249D01*
X123555565Y-110750003D01*
X123555565Y-110749996D01*
X123535369Y-110570750D01*
X123535368Y-110570745D01*
X123488689Y-110437345D01*
X123475789Y-110400478D01*
X123475788Y-110400476D01*
X123475787Y-110400473D01*
X123398374Y-110277272D01*
X123379373Y-110210036D01*
X123399740Y-110143201D01*
X123453008Y-110097986D01*
X123522264Y-110088748D01*
X123535008Y-110092071D01*
X123535070Y-110091813D01*
X123542627Y-110093598D01*
X123602155Y-110099999D01*
X123602172Y-110100000D01*
X124250000Y-110100000D01*
X124250000Y-109183012D01*
X124307007Y-109215925D01*
X124434174Y-109250000D01*
X124565826Y-109250000D01*
X124692993Y-109215925D01*
X124750000Y-109183012D01*
X124750000Y-110100000D01*
X125397828Y-110100000D01*
X125397844Y-110099999D01*
X125457372Y-110093598D01*
X125457379Y-110093596D01*
X125592086Y-110043354D01*
X125592093Y-110043350D01*
X125707187Y-109957190D01*
X125707190Y-109957187D01*
X125793350Y-109842093D01*
X125793354Y-109842086D01*
X125842422Y-109710529D01*
X125884293Y-109654595D01*
X125949757Y-109630178D01*
X126018030Y-109645030D01*
X126046285Y-109666181D01*
X126168599Y-109788495D01*
X126245135Y-109842086D01*
X126362165Y-109924032D01*
X126362167Y-109924033D01*
X126362170Y-109924035D01*
X126576337Y-110023903D01*
X126804592Y-110085063D01*
X126975319Y-110100000D01*
X127039999Y-110105659D01*
X127040000Y-110105659D01*
X127040001Y-110105659D01*
X127104681Y-110100000D01*
X127275408Y-110085063D01*
X127503663Y-110023903D01*
X127717830Y-109924035D01*
X127911401Y-109788495D01*
X128078495Y-109621401D01*
X128208425Y-109435842D01*
X128263002Y-109392217D01*
X128332500Y-109385023D01*
X128394855Y-109416546D01*
X128411575Y-109435842D01*
X128541500Y-109621395D01*
X128541505Y-109621401D01*
X128708599Y-109788495D01*
X128785135Y-109842086D01*
X128902165Y-109924032D01*
X128902167Y-109924033D01*
X128902170Y-109924035D01*
X129116337Y-110023903D01*
X129344592Y-110085063D01*
X129515319Y-110100000D01*
X129579999Y-110105659D01*
X129580000Y-110105659D01*
X129580001Y-110105659D01*
X129644681Y-110100000D01*
X129815408Y-110085063D01*
X130043663Y-110023903D01*
X130257830Y-109924035D01*
X130451401Y-109788495D01*
X130618495Y-109621401D01*
X130754035Y-109427830D01*
X130853903Y-109213663D01*
X130915063Y-108985408D01*
X130919924Y-108929843D01*
X145113115Y-108929843D01*
X145113115Y-108929850D01*
X145133310Y-109109096D01*
X145133311Y-109109101D01*
X145192891Y-109279370D01*
X145275312Y-109410541D01*
X145288864Y-109432109D01*
X145416418Y-109559663D01*
X145434055Y-109570745D01*
X145552278Y-109645030D01*
X145569158Y-109655636D01*
X145717011Y-109707372D01*
X145739425Y-109715215D01*
X145739430Y-109715216D01*
X145918676Y-109735412D01*
X145918680Y-109735412D01*
X145918684Y-109735412D01*
X146097929Y-109715216D01*
X146097932Y-109715215D01*
X146097935Y-109715215D01*
X146268202Y-109655636D01*
X146420942Y-109559663D01*
X146548496Y-109432109D01*
X146644469Y-109279369D01*
X146704048Y-109109102D01*
X146716341Y-109000000D01*
X146724245Y-108929850D01*
X146724245Y-108929843D01*
X146704049Y-108750597D01*
X146704048Y-108750592D01*
X146703841Y-108750000D01*
X146644469Y-108580325D01*
X146548496Y-108427585D01*
X146420942Y-108300031D01*
X146395548Y-108284075D01*
X146268203Y-108204058D01*
X146097934Y-108144478D01*
X146097929Y-108144477D01*
X145918684Y-108124282D01*
X145918676Y-108124282D01*
X145739430Y-108144477D01*
X145739425Y-108144478D01*
X145569156Y-108204058D01*
X145416417Y-108300031D01*
X145288864Y-108427584D01*
X145192891Y-108580323D01*
X145133311Y-108750592D01*
X145133310Y-108750597D01*
X145113115Y-108929843D01*
X130919924Y-108929843D01*
X130935659Y-108750000D01*
X130915063Y-108514592D01*
X130868626Y-108341285D01*
X130853905Y-108286344D01*
X130853904Y-108286343D01*
X130853903Y-108286337D01*
X130754035Y-108072171D01*
X130748425Y-108064158D01*
X130618494Y-107878597D01*
X130451402Y-107711506D01*
X130451395Y-107711501D01*
X130257834Y-107575967D01*
X130257830Y-107575965D01*
X130176255Y-107537926D01*
X130043663Y-107476097D01*
X130043659Y-107476096D01*
X130043655Y-107476094D01*
X129815413Y-107414938D01*
X129815403Y-107414936D01*
X129580001Y-107394341D01*
X129579999Y-107394341D01*
X129344596Y-107414936D01*
X129344586Y-107414938D01*
X129116344Y-107476094D01*
X129116335Y-107476098D01*
X128902171Y-107575964D01*
X128902169Y-107575965D01*
X128708597Y-107711505D01*
X128541505Y-107878597D01*
X128411575Y-108064158D01*
X128356998Y-108107783D01*
X128287500Y-108114977D01*
X128225145Y-108083454D01*
X128208425Y-108064158D01*
X128078494Y-107878597D01*
X127911402Y-107711506D01*
X127911395Y-107711501D01*
X127717834Y-107575967D01*
X127717830Y-107575965D01*
X127636255Y-107537926D01*
X127503663Y-107476097D01*
X127503659Y-107476096D01*
X127503655Y-107476094D01*
X127275413Y-107414938D01*
X127275403Y-107414936D01*
X127040001Y-107394341D01*
X127039999Y-107394341D01*
X126804596Y-107414936D01*
X126804586Y-107414938D01*
X126576344Y-107476094D01*
X126576335Y-107476098D01*
X126362171Y-107575964D01*
X126362169Y-107575965D01*
X126168600Y-107711503D01*
X126046284Y-107833819D01*
X125984961Y-107867303D01*
X125915269Y-107862319D01*
X125859336Y-107820447D01*
X125842421Y-107789470D01*
X125793354Y-107657913D01*
X125793350Y-107657906D01*
X125707190Y-107542812D01*
X125707187Y-107542809D01*
X125592093Y-107456649D01*
X125592086Y-107456645D01*
X125457379Y-107406403D01*
X125457372Y-107406401D01*
X125397844Y-107400000D01*
X124750000Y-107400000D01*
X124750000Y-108316988D01*
X124692993Y-108284075D01*
X124565826Y-108250000D01*
X124434174Y-108250000D01*
X124307007Y-108284075D01*
X124250000Y-108316988D01*
X124250000Y-107400000D01*
X123602155Y-107400000D01*
X123542627Y-107406401D01*
X123542620Y-107406403D01*
X123407913Y-107456645D01*
X123407906Y-107456649D01*
X123292812Y-107542809D01*
X123292809Y-107542812D01*
X123206649Y-107657906D01*
X123206645Y-107657913D01*
X123156403Y-107792620D01*
X123156401Y-107792627D01*
X123150000Y-107852155D01*
X123150000Y-108500000D01*
X124066988Y-108500000D01*
X124034075Y-108557007D01*
X124000000Y-108684174D01*
X124000000Y-108815826D01*
X124034075Y-108942993D01*
X124066988Y-109000000D01*
X123150000Y-109000000D01*
X123150000Y-109647844D01*
X123156401Y-109707372D01*
X123156403Y-109707379D01*
X123208468Y-109846973D01*
X123213452Y-109916665D01*
X123179967Y-109977988D01*
X123118644Y-110011472D01*
X123051332Y-110007348D01*
X122929257Y-109964632D01*
X122929249Y-109964630D01*
X122750004Y-109944435D01*
X122749996Y-109944435D01*
X122570750Y-109964630D01*
X122570745Y-109964631D01*
X122400476Y-110024211D01*
X122247737Y-110120184D01*
X122120184Y-110247737D01*
X122024211Y-110400476D01*
X121964631Y-110570745D01*
X121964630Y-110570750D01*
X121944435Y-110749996D01*
X100529180Y-110749996D01*
X100529180Y-109749996D01*
X113694435Y-109749996D01*
X113694435Y-109750003D01*
X113714630Y-109929249D01*
X113714631Y-109929254D01*
X113774211Y-110099523D01*
X113867341Y-110247737D01*
X113870184Y-110252262D01*
X113997738Y-110379816D01*
X114053561Y-110414892D01*
X114141557Y-110470184D01*
X114150478Y-110475789D01*
X114320745Y-110535368D01*
X114320750Y-110535369D01*
X114499996Y-110555565D01*
X114500000Y-110555565D01*
X114500004Y-110555565D01*
X114679249Y-110535369D01*
X114679252Y-110535368D01*
X114679255Y-110535368D01*
X114849522Y-110475789D01*
X115002262Y-110379816D01*
X115129816Y-110252262D01*
X115225789Y-110099522D01*
X115285368Y-109929255D01*
X115285956Y-109924035D01*
X115305565Y-109750003D01*
X115305565Y-109749996D01*
X115285369Y-109570750D01*
X115285368Y-109570745D01*
X115268977Y-109523903D01*
X115225789Y-109400478D01*
X115129816Y-109247738D01*
X115002262Y-109120184D01*
X114984616Y-109109096D01*
X114849523Y-109024211D01*
X114679254Y-108964631D01*
X114679249Y-108964630D01*
X114500004Y-108944435D01*
X114499996Y-108944435D01*
X114320750Y-108964630D01*
X114320745Y-108964631D01*
X114150476Y-109024211D01*
X113997737Y-109120184D01*
X113870184Y-109247737D01*
X113774211Y-109400476D01*
X113714631Y-109570745D01*
X113714630Y-109570750D01*
X113694435Y-109749996D01*
X100529180Y-109749996D01*
X100529180Y-109477580D01*
X100548865Y-109410541D01*
X100601669Y-109364786D01*
X100670827Y-109354842D01*
X100734383Y-109383867D01*
X100752447Y-109403269D01*
X100792813Y-109457190D01*
X100907906Y-109543350D01*
X100907913Y-109543354D01*
X101042620Y-109593596D01*
X101042627Y-109593598D01*
X101102155Y-109599999D01*
X101102172Y-109600000D01*
X101750000Y-109600000D01*
X101750000Y-108683012D01*
X101807007Y-108715925D01*
X101934174Y-108750000D01*
X102065826Y-108750000D01*
X102192993Y-108715925D01*
X102250000Y-108683012D01*
X102250000Y-109600000D01*
X102897828Y-109600000D01*
X102897844Y-109599999D01*
X102957372Y-109593598D01*
X102957379Y-109593596D01*
X103092086Y-109543354D01*
X103092093Y-109543350D01*
X103207187Y-109457190D01*
X103207190Y-109457187D01*
X103293350Y-109342093D01*
X103293354Y-109342086D01*
X103342422Y-109210529D01*
X103384293Y-109154595D01*
X103449757Y-109130178D01*
X103518030Y-109145030D01*
X103546285Y-109166181D01*
X103668599Y-109288495D01*
X103745135Y-109342086D01*
X103862165Y-109424032D01*
X103862167Y-109424033D01*
X103862170Y-109424035D01*
X104076337Y-109523903D01*
X104304592Y-109585063D01*
X104475319Y-109600000D01*
X104539999Y-109605659D01*
X104540000Y-109605659D01*
X104540001Y-109605659D01*
X104604681Y-109600000D01*
X104775408Y-109585063D01*
X105003663Y-109523903D01*
X105217830Y-109424035D01*
X105411401Y-109288495D01*
X105578495Y-109121401D01*
X105714035Y-108927830D01*
X105813903Y-108713663D01*
X105875063Y-108485408D01*
X105895659Y-108250000D01*
X105895659Y-108249996D01*
X119194435Y-108249996D01*
X119194435Y-108250003D01*
X119214630Y-108429249D01*
X119214631Y-108429254D01*
X119274211Y-108599523D01*
X119345931Y-108713664D01*
X119370184Y-108752262D01*
X119497738Y-108879816D01*
X119577362Y-108929847D01*
X119632721Y-108964632D01*
X119650478Y-108975789D01*
X119788860Y-109024211D01*
X119820745Y-109035368D01*
X119820750Y-109035369D01*
X119999996Y-109055565D01*
X120000000Y-109055565D01*
X120000004Y-109055565D01*
X120179249Y-109035369D01*
X120179252Y-109035368D01*
X120179255Y-109035368D01*
X120349522Y-108975789D01*
X120502262Y-108879816D01*
X120629816Y-108752262D01*
X120725789Y-108599522D01*
X120785368Y-108429255D01*
X120785556Y-108427585D01*
X120805565Y-108250003D01*
X120805565Y-108249996D01*
X120785369Y-108070750D01*
X120785368Y-108070745D01*
X120761405Y-108002262D01*
X120725789Y-107900478D01*
X120712041Y-107878599D01*
X120666151Y-107805565D01*
X120629816Y-107747738D01*
X120502262Y-107620184D01*
X120349523Y-107524211D01*
X120179254Y-107464631D01*
X120179249Y-107464630D01*
X120000004Y-107444435D01*
X119999996Y-107444435D01*
X119820750Y-107464630D01*
X119820745Y-107464631D01*
X119650476Y-107524211D01*
X119497737Y-107620184D01*
X119370184Y-107747737D01*
X119274211Y-107900476D01*
X119214631Y-108070745D01*
X119214630Y-108070750D01*
X119194435Y-108249996D01*
X105895659Y-108249996D01*
X105875063Y-108014592D01*
X105815587Y-107792620D01*
X105813905Y-107786344D01*
X105813904Y-107786343D01*
X105813903Y-107786337D01*
X105714035Y-107572171D01*
X105702408Y-107555565D01*
X105578494Y-107378597D01*
X105411402Y-107211506D01*
X105411395Y-107211501D01*
X105217834Y-107075967D01*
X105217830Y-107075965D01*
X105146727Y-107042809D01*
X105003663Y-106976097D01*
X105003659Y-106976096D01*
X105003655Y-106976094D01*
X104775413Y-106914938D01*
X104775403Y-106914936D01*
X104540001Y-106894341D01*
X104539999Y-106894341D01*
X104304596Y-106914936D01*
X104304586Y-106914938D01*
X104076344Y-106976094D01*
X104076335Y-106976098D01*
X103862171Y-107075964D01*
X103862169Y-107075965D01*
X103668600Y-107211503D01*
X103546284Y-107333819D01*
X103484961Y-107367303D01*
X103415269Y-107362319D01*
X103359336Y-107320447D01*
X103342421Y-107289470D01*
X103293354Y-107157913D01*
X103293350Y-107157906D01*
X103207190Y-107042812D01*
X103207187Y-107042809D01*
X103092093Y-106956649D01*
X103092086Y-106956645D01*
X102957379Y-106906403D01*
X102957372Y-106906401D01*
X102897844Y-106900000D01*
X102250000Y-106900000D01*
X102250000Y-107816988D01*
X102192993Y-107784075D01*
X102065826Y-107750000D01*
X101934174Y-107750000D01*
X101807007Y-107784075D01*
X101750000Y-107816988D01*
X101750000Y-106900000D01*
X101102155Y-106900000D01*
X101042627Y-106906401D01*
X101042620Y-106906403D01*
X100907913Y-106956645D01*
X100907906Y-106956649D01*
X100792812Y-107042809D01*
X100752446Y-107096731D01*
X100696512Y-107138601D01*
X100626820Y-107143585D01*
X100565497Y-107110099D01*
X100532013Y-107048775D01*
X100529180Y-107022419D01*
X100529180Y-103372070D01*
X101903180Y-103372070D01*
X101903180Y-103627930D01*
X101903806Y-103631880D01*
X101943206Y-103880640D01*
X102022268Y-104123972D01*
X102022269Y-104123975D01*
X102043383Y-104165412D01*
X102130474Y-104336337D01*
X102138430Y-104351950D01*
X102288812Y-104558935D01*
X102288816Y-104558940D01*
X102469739Y-104739863D01*
X102469744Y-104739867D01*
X102552511Y-104800000D01*
X102676733Y-104890252D01*
X102825760Y-104966185D01*
X102904704Y-105006410D01*
X102904707Y-105006411D01*
X102993952Y-105035408D01*
X103148041Y-105085474D01*
X103400750Y-105125500D01*
X103400751Y-105125500D01*
X103656609Y-105125500D01*
X103656610Y-105125500D01*
X103909319Y-105085474D01*
X104152655Y-105006410D01*
X104380627Y-104890252D01*
X104587622Y-104739862D01*
X104768542Y-104558942D01*
X104918932Y-104351947D01*
X105035090Y-104123975D01*
X105114154Y-103880639D01*
X105154180Y-103627930D01*
X105154180Y-103372070D01*
X105114154Y-103119361D01*
X105055173Y-102937834D01*
X105035091Y-102876027D01*
X105035090Y-102876024D01*
X104975972Y-102760000D01*
X104918932Y-102648053D01*
X104808033Y-102495413D01*
X104768547Y-102441064D01*
X104768543Y-102441059D01*
X104587620Y-102260136D01*
X104587615Y-102260132D01*
X104587432Y-102259999D01*
X107063021Y-102259999D01*
X107063021Y-102260000D01*
X107083616Y-102495403D01*
X107083618Y-102495413D01*
X107144774Y-102723655D01*
X107144776Y-102723659D01*
X107144777Y-102723663D01*
X107224481Y-102894588D01*
X107244645Y-102937830D01*
X107244647Y-102937834D01*
X107352961Y-103092521D01*
X107380184Y-103131400D01*
X107380186Y-103131402D01*
X107502110Y-103253326D01*
X107535595Y-103314649D01*
X107530611Y-103384341D01*
X107488739Y-103440274D01*
X107457763Y-103457189D01*
X107326349Y-103506203D01*
X107326344Y-103506206D01*
X107211135Y-103592452D01*
X107211132Y-103592455D01*
X107124886Y-103707664D01*
X107124882Y-103707671D01*
X107074588Y-103842517D01*
X107068181Y-103902116D01*
X107068180Y-103902135D01*
X107068180Y-105697870D01*
X107068181Y-105697876D01*
X107074588Y-105757483D01*
X107124882Y-105892328D01*
X107124886Y-105892335D01*
X107211132Y-106007544D01*
X107211135Y-106007547D01*
X107326344Y-106093793D01*
X107326351Y-106093797D01*
X107461197Y-106144091D01*
X107461196Y-106144091D01*
X107468124Y-106144835D01*
X107520807Y-106150500D01*
X108956921Y-106150499D01*
X109023960Y-106170184D01*
X109069715Y-106222987D01*
X109079659Y-106292146D01*
X109061915Y-106340470D01*
X109024212Y-106400474D01*
X108964631Y-106570745D01*
X108964630Y-106570750D01*
X108944435Y-106749996D01*
X108944435Y-106750003D01*
X108964630Y-106929249D01*
X108964631Y-106929254D01*
X109024211Y-107099523D01*
X109094575Y-107211506D01*
X109120184Y-107252262D01*
X109247738Y-107379816D01*
X109338080Y-107436582D01*
X109382721Y-107464632D01*
X109400478Y-107475789D01*
X109570745Y-107535368D01*
X109570750Y-107535369D01*
X109749996Y-107555565D01*
X109750000Y-107555565D01*
X109750004Y-107555565D01*
X109929249Y-107535369D01*
X109929252Y-107535368D01*
X109929255Y-107535368D01*
X110099522Y-107475789D01*
X110252262Y-107379816D01*
X110379816Y-107252262D01*
X110475789Y-107099522D01*
X110535368Y-106929255D01*
X110536981Y-106914938D01*
X110555565Y-106750003D01*
X110555565Y-106749996D01*
X110535369Y-106570750D01*
X110535368Y-106570745D01*
X110475788Y-106400475D01*
X110407719Y-106292146D01*
X110393246Y-106269112D01*
X110374246Y-106201877D01*
X110394613Y-106135042D01*
X110447881Y-106089827D01*
X110517137Y-106080589D01*
X110530333Y-106083366D01*
X110569263Y-106093797D01*
X110723272Y-106135063D01*
X110899714Y-106150500D01*
X110958679Y-106155659D01*
X110958680Y-106155659D01*
X110958681Y-106155659D01*
X111017646Y-106150500D01*
X111194088Y-106135063D01*
X111422343Y-106073903D01*
X111636510Y-105974035D01*
X111830081Y-105838495D01*
X111997175Y-105671401D01*
X112127105Y-105485842D01*
X112181682Y-105442217D01*
X112251180Y-105435023D01*
X112313535Y-105466546D01*
X112330255Y-105485842D01*
X112459961Y-105671082D01*
X112460185Y-105671401D01*
X112627279Y-105838495D01*
X112714847Y-105899811D01*
X112820845Y-105974032D01*
X112820847Y-105974033D01*
X112820850Y-105974035D01*
X113035017Y-106073903D01*
X113263272Y-106135063D01*
X113439714Y-106150500D01*
X113498679Y-106155659D01*
X113498680Y-106155659D01*
X113498681Y-106155659D01*
X113557646Y-106150500D01*
X113734088Y-106135063D01*
X113962343Y-106073903D01*
X114176510Y-105974035D01*
X114370081Y-105838495D01*
X114537175Y-105671401D01*
X114667105Y-105485842D01*
X114721682Y-105442217D01*
X114791180Y-105435023D01*
X114853535Y-105466546D01*
X114870255Y-105485842D01*
X114999961Y-105671082D01*
X115000185Y-105671401D01*
X115167279Y-105838495D01*
X115254847Y-105899811D01*
X115360845Y-105974032D01*
X115360847Y-105974033D01*
X115360850Y-105974035D01*
X115575017Y-106073903D01*
X115803272Y-106135063D01*
X115979714Y-106150500D01*
X116038679Y-106155659D01*
X116038680Y-106155659D01*
X116038681Y-106155659D01*
X116097646Y-106150500D01*
X116274088Y-106135063D01*
X116502343Y-106073903D01*
X116716510Y-105974035D01*
X116910081Y-105838495D01*
X117077175Y-105671401D01*
X117207410Y-105485405D01*
X117261987Y-105441781D01*
X117331485Y-105434587D01*
X117393840Y-105466110D01*
X117410559Y-105485405D01*
X117540570Y-105671078D01*
X117707597Y-105838105D01*
X117901101Y-105973600D01*
X118115187Y-106073429D01*
X118115196Y-106073433D01*
X118328680Y-106130634D01*
X118328680Y-105233012D01*
X118385687Y-105265925D01*
X118512854Y-105300000D01*
X118644506Y-105300000D01*
X118771673Y-105265925D01*
X118828680Y-105233012D01*
X118828680Y-106130634D01*
X119042163Y-106073433D01*
X119042172Y-106073429D01*
X119256258Y-105973600D01*
X119449762Y-105838105D01*
X119616785Y-105671082D01*
X119746799Y-105485405D01*
X119801376Y-105441781D01*
X119870875Y-105434588D01*
X119933229Y-105466110D01*
X119949949Y-105485405D01*
X120080185Y-105671401D01*
X120247279Y-105838495D01*
X120334847Y-105899811D01*
X120440845Y-105974032D01*
X120440847Y-105974033D01*
X120440850Y-105974035D01*
X120655017Y-106073903D01*
X120883272Y-106135063D01*
X121059714Y-106150500D01*
X121118679Y-106155659D01*
X121118680Y-106155659D01*
X121118681Y-106155659D01*
X121177646Y-106150500D01*
X121354088Y-106135063D01*
X121582343Y-106073903D01*
X121796510Y-105974035D01*
X121990081Y-105838495D01*
X122157175Y-105671401D01*
X122287105Y-105485842D01*
X122341682Y-105442217D01*
X122411180Y-105435023D01*
X122473535Y-105466546D01*
X122490255Y-105485842D01*
X122619961Y-105671082D01*
X122620185Y-105671401D01*
X122787279Y-105838495D01*
X122874847Y-105899811D01*
X122980845Y-105974032D01*
X122980847Y-105974033D01*
X122980850Y-105974035D01*
X123195017Y-106073903D01*
X123423272Y-106135063D01*
X123599714Y-106150500D01*
X123658679Y-106155659D01*
X123658680Y-106155659D01*
X123658681Y-106155659D01*
X123717646Y-106150500D01*
X123894088Y-106135063D01*
X124122343Y-106073903D01*
X124336510Y-105974035D01*
X124530081Y-105838495D01*
X124697175Y-105671401D01*
X124827105Y-105485842D01*
X124881682Y-105442217D01*
X124951180Y-105435023D01*
X125013535Y-105466546D01*
X125030255Y-105485842D01*
X125159961Y-105671082D01*
X125160185Y-105671401D01*
X125327279Y-105838495D01*
X125414847Y-105899811D01*
X125520845Y-105974032D01*
X125520847Y-105974033D01*
X125520850Y-105974035D01*
X125735017Y-106073903D01*
X125963272Y-106135063D01*
X126139714Y-106150500D01*
X126198679Y-106155659D01*
X126198680Y-106155659D01*
X126198681Y-106155659D01*
X126257646Y-106150500D01*
X126434088Y-106135063D01*
X126662343Y-106073903D01*
X126876510Y-105974035D01*
X127070081Y-105838495D01*
X127237175Y-105671401D01*
X127367105Y-105485842D01*
X127421682Y-105442217D01*
X127491180Y-105435023D01*
X127553535Y-105466546D01*
X127570255Y-105485842D01*
X127699961Y-105671082D01*
X127700185Y-105671401D01*
X127867279Y-105838495D01*
X127954847Y-105899811D01*
X128060845Y-105974032D01*
X128060847Y-105974033D01*
X128060850Y-105974035D01*
X128275017Y-106073903D01*
X128503272Y-106135063D01*
X128679714Y-106150500D01*
X128738679Y-106155659D01*
X128738680Y-106155659D01*
X128738681Y-106155659D01*
X128797646Y-106150500D01*
X128974088Y-106135063D01*
X129202343Y-106073903D01*
X129416510Y-105974035D01*
X129610081Y-105838495D01*
X129777175Y-105671401D01*
X129907105Y-105485842D01*
X129961682Y-105442217D01*
X130031180Y-105435023D01*
X130093535Y-105466546D01*
X130110255Y-105485842D01*
X130239961Y-105671082D01*
X130240185Y-105671401D01*
X130407279Y-105838495D01*
X130494847Y-105899811D01*
X130600845Y-105974032D01*
X130600847Y-105974033D01*
X130600850Y-105974035D01*
X130815017Y-106073903D01*
X131043272Y-106135063D01*
X131219714Y-106150500D01*
X131278679Y-106155659D01*
X131278680Y-106155659D01*
X131278681Y-106155659D01*
X131337646Y-106150500D01*
X131514088Y-106135063D01*
X131742343Y-106073903D01*
X131956510Y-105974035D01*
X132150081Y-105838495D01*
X132317175Y-105671401D01*
X132447105Y-105485842D01*
X132501682Y-105442217D01*
X132571180Y-105435023D01*
X132633535Y-105466546D01*
X132650255Y-105485842D01*
X132779961Y-105671082D01*
X132780185Y-105671401D01*
X132947279Y-105838495D01*
X133034847Y-105899811D01*
X133140845Y-105974032D01*
X133140847Y-105974033D01*
X133140850Y-105974035D01*
X133355017Y-106073903D01*
X133583272Y-106135063D01*
X133759714Y-106150500D01*
X133818679Y-106155659D01*
X133818680Y-106155659D01*
X133818681Y-106155659D01*
X133877646Y-106150500D01*
X134054088Y-106135063D01*
X134282343Y-106073903D01*
X134496510Y-105974035D01*
X134690081Y-105838495D01*
X134857175Y-105671401D01*
X134987105Y-105485842D01*
X135041682Y-105442217D01*
X135111180Y-105435023D01*
X135173535Y-105466546D01*
X135190255Y-105485842D01*
X135319961Y-105671082D01*
X135320185Y-105671401D01*
X135487279Y-105838495D01*
X135574847Y-105899811D01*
X135680845Y-105974032D01*
X135680847Y-105974033D01*
X135680850Y-105974035D01*
X135895017Y-106073903D01*
X136123272Y-106135063D01*
X136299714Y-106150500D01*
X136358679Y-106155659D01*
X136358680Y-106155659D01*
X136358681Y-106155659D01*
X136417646Y-106150500D01*
X136594088Y-106135063D01*
X136822343Y-106073903D01*
X137036510Y-105974035D01*
X137230081Y-105838495D01*
X137397175Y-105671401D01*
X137527410Y-105485405D01*
X137581987Y-105441781D01*
X137651485Y-105434587D01*
X137713840Y-105466110D01*
X137730559Y-105485405D01*
X137860570Y-105671078D01*
X138027600Y-105838108D01*
X138037775Y-105845233D01*
X138081398Y-105899811D01*
X138088590Y-105969309D01*
X138057066Y-106031663D01*
X137996836Y-106067076D01*
X137935082Y-106064623D01*
X137934727Y-106066182D01*
X137927929Y-106064630D01*
X137748684Y-106044435D01*
X137748676Y-106044435D01*
X137569430Y-106064630D01*
X137569425Y-106064631D01*
X137399156Y-106124211D01*
X137246417Y-106220184D01*
X137118864Y-106347737D01*
X137022891Y-106500476D01*
X136963311Y-106670745D01*
X136963310Y-106670749D01*
X136957653Y-106720964D01*
X136930586Y-106785378D01*
X136872991Y-106824933D01*
X136803154Y-106827070D01*
X136768461Y-106812074D01*
X136708203Y-106774211D01*
X136537934Y-106714631D01*
X136537929Y-106714630D01*
X136358684Y-106694435D01*
X136358676Y-106694435D01*
X136179430Y-106714630D01*
X136179425Y-106714631D01*
X136009156Y-106774211D01*
X135856417Y-106870184D01*
X135728864Y-106997737D01*
X135632891Y-107150476D01*
X135573311Y-107320745D01*
X135573310Y-107320750D01*
X135553115Y-107499996D01*
X135553115Y-107500003D01*
X135573310Y-107679249D01*
X135573311Y-107679254D01*
X135632891Y-107849523D01*
X135691623Y-107942993D01*
X135728864Y-108002262D01*
X135856418Y-108129816D01*
X136009158Y-108225789D01*
X136078358Y-108250003D01*
X136179425Y-108285368D01*
X136179430Y-108285369D01*
X136358676Y-108305565D01*
X136358680Y-108305565D01*
X136358684Y-108305565D01*
X136537929Y-108285369D01*
X136537932Y-108285368D01*
X136537935Y-108285368D01*
X136708202Y-108225789D01*
X136860942Y-108129816D01*
X136988496Y-108002262D01*
X137084469Y-107849522D01*
X137144048Y-107679255D01*
X137149706Y-107629034D01*
X137176771Y-107564623D01*
X137234365Y-107525067D01*
X137304202Y-107522928D01*
X137338898Y-107537926D01*
X137405054Y-107579495D01*
X137403583Y-107581834D01*
X137446153Y-107620243D01*
X137463734Y-107671292D01*
X137464630Y-107679249D01*
X137524210Y-107849521D01*
X137556229Y-107900478D01*
X137620184Y-108002262D01*
X137747738Y-108129816D01*
X137900478Y-108225789D01*
X137969678Y-108250003D01*
X138070745Y-108285368D01*
X138070750Y-108285369D01*
X138249996Y-108305565D01*
X138250000Y-108305565D01*
X138250004Y-108305565D01*
X138429249Y-108285369D01*
X138429252Y-108285368D01*
X138429255Y-108285368D01*
X138599522Y-108225789D01*
X138752262Y-108129816D01*
X138879816Y-108002262D01*
X138975789Y-107849522D01*
X139035368Y-107679255D01*
X139035369Y-107679249D01*
X139055565Y-107500003D01*
X139055565Y-107499996D01*
X139035369Y-107320750D01*
X139035368Y-107320745D01*
X139011405Y-107252262D01*
X138975789Y-107150478D01*
X138942017Y-107096731D01*
X138881237Y-107000000D01*
X138881234Y-106999996D01*
X146944435Y-106999996D01*
X146944435Y-107000003D01*
X146964630Y-107179249D01*
X146964631Y-107179254D01*
X147024211Y-107349523D01*
X147103743Y-107476097D01*
X147120184Y-107502262D01*
X147247738Y-107629816D01*
X147292443Y-107657906D01*
X147377746Y-107711506D01*
X147400478Y-107725789D01*
X147567050Y-107784075D01*
X147570745Y-107785368D01*
X147570750Y-107785369D01*
X147749996Y-107805565D01*
X147750000Y-107805565D01*
X147750004Y-107805565D01*
X147929249Y-107785369D01*
X147929252Y-107785368D01*
X147929255Y-107785368D01*
X148099522Y-107725789D01*
X148252262Y-107629816D01*
X148379816Y-107502262D01*
X148475789Y-107349522D01*
X148535368Y-107179255D01*
X148537773Y-107157913D01*
X148555565Y-107000003D01*
X148555565Y-106999996D01*
X148535369Y-106820750D01*
X148535368Y-106820745D01*
X148532334Y-106812074D01*
X148475789Y-106650478D01*
X148379816Y-106497738D01*
X148252262Y-106370184D01*
X148099523Y-106274211D01*
X147929254Y-106214631D01*
X147929249Y-106214630D01*
X147750004Y-106194435D01*
X147749996Y-106194435D01*
X147570750Y-106214630D01*
X147570745Y-106214631D01*
X147400476Y-106274211D01*
X147247737Y-106370184D01*
X147120184Y-106497737D01*
X147024211Y-106650476D01*
X146964631Y-106820745D01*
X146964630Y-106820750D01*
X146944435Y-106999996D01*
X138881234Y-106999996D01*
X138879816Y-106997738D01*
X138752262Y-106870184D01*
X138680246Y-106824933D01*
X138593626Y-106770506D01*
X138595093Y-106768170D01*
X138552507Y-106729725D01*
X138534944Y-106678701D01*
X138534048Y-106670749D01*
X138534048Y-106670745D01*
X138474469Y-106500478D01*
X138378496Y-106347738D01*
X138310265Y-106279507D01*
X138276780Y-106218184D01*
X138281764Y-106148492D01*
X138323636Y-106092559D01*
X138389100Y-106068142D01*
X138430039Y-106072051D01*
X138648680Y-106130634D01*
X138648680Y-105233012D01*
X138705687Y-105265925D01*
X138832854Y-105300000D01*
X138964506Y-105300000D01*
X139091673Y-105265925D01*
X139148680Y-105233012D01*
X139148680Y-106130633D01*
X139362163Y-106073433D01*
X139362172Y-106073429D01*
X139576258Y-105973600D01*
X139769762Y-105838105D01*
X139936785Y-105671082D01*
X140066799Y-105485405D01*
X140121376Y-105441781D01*
X140190875Y-105434588D01*
X140253229Y-105466110D01*
X140269949Y-105485405D01*
X140400185Y-105671401D01*
X140567279Y-105838495D01*
X140654847Y-105899811D01*
X140760845Y-105974032D01*
X140760847Y-105974033D01*
X140760850Y-105974035D01*
X140975017Y-106073903D01*
X141203272Y-106135063D01*
X141379714Y-106150500D01*
X141438679Y-106155659D01*
X141438680Y-106155659D01*
X141438681Y-106155659D01*
X141497646Y-106150500D01*
X141674088Y-106135063D01*
X141902343Y-106073903D01*
X142116510Y-105974035D01*
X142310081Y-105838495D01*
X142477175Y-105671401D01*
X142607105Y-105485842D01*
X142661682Y-105442217D01*
X142731180Y-105435023D01*
X142793535Y-105466546D01*
X142810255Y-105485842D01*
X142939961Y-105671082D01*
X142940185Y-105671401D01*
X143107279Y-105838495D01*
X143194847Y-105899811D01*
X143300845Y-105974032D01*
X143300847Y-105974033D01*
X143300850Y-105974035D01*
X143515017Y-106073903D01*
X143743272Y-106135063D01*
X143919714Y-106150500D01*
X143978679Y-106155659D01*
X143978680Y-106155659D01*
X143978681Y-106155659D01*
X144037646Y-106150500D01*
X144214088Y-106135063D01*
X144442343Y-106073903D01*
X144656510Y-105974035D01*
X144850081Y-105838495D01*
X145017175Y-105671401D01*
X145147105Y-105485842D01*
X145201682Y-105442217D01*
X145271180Y-105435023D01*
X145333535Y-105466546D01*
X145350255Y-105485842D01*
X145479961Y-105671082D01*
X145480185Y-105671401D01*
X145647279Y-105838495D01*
X145734847Y-105899811D01*
X145840845Y-105974032D01*
X145840847Y-105974033D01*
X145840850Y-105974035D01*
X146055017Y-106073903D01*
X146283272Y-106135063D01*
X146459714Y-106150500D01*
X146518679Y-106155659D01*
X146518680Y-106155659D01*
X146518681Y-106155659D01*
X146577646Y-106150500D01*
X146754088Y-106135063D01*
X146982343Y-106073903D01*
X147196510Y-105974035D01*
X147390081Y-105838495D01*
X147557175Y-105671401D01*
X147687105Y-105485842D01*
X147741682Y-105442217D01*
X147811180Y-105435023D01*
X147873535Y-105466546D01*
X147890255Y-105485842D01*
X148019961Y-105671082D01*
X148020185Y-105671401D01*
X148187279Y-105838495D01*
X148274847Y-105899811D01*
X148380845Y-105974032D01*
X148380847Y-105974033D01*
X148380850Y-105974035D01*
X148595017Y-106073903D01*
X148823272Y-106135063D01*
X148999714Y-106150500D01*
X149058679Y-106155659D01*
X149058680Y-106155659D01*
X149058681Y-106155659D01*
X149117646Y-106150500D01*
X149294088Y-106135063D01*
X149522343Y-106073903D01*
X149736510Y-105974035D01*
X149930081Y-105838495D01*
X150097175Y-105671401D01*
X150227105Y-105485842D01*
X150281682Y-105442217D01*
X150351180Y-105435023D01*
X150413535Y-105466546D01*
X150430255Y-105485842D01*
X150559961Y-105671082D01*
X150560185Y-105671401D01*
X150727279Y-105838495D01*
X150814847Y-105899811D01*
X150920845Y-105974032D01*
X150920847Y-105974033D01*
X150920850Y-105974035D01*
X151135017Y-106073903D01*
X151363272Y-106135063D01*
X151539714Y-106150500D01*
X151598679Y-106155659D01*
X151598680Y-106155659D01*
X151598681Y-106155659D01*
X151657646Y-106150500D01*
X151834088Y-106135063D01*
X152062343Y-106073903D01*
X152276510Y-105974035D01*
X152470081Y-105838495D01*
X152637175Y-105671401D01*
X152767105Y-105485842D01*
X152821682Y-105442217D01*
X152891180Y-105435023D01*
X152953535Y-105466546D01*
X152970255Y-105485842D01*
X153099961Y-105671082D01*
X153100185Y-105671401D01*
X153267279Y-105838495D01*
X153354847Y-105899811D01*
X153460845Y-105974032D01*
X153460847Y-105974033D01*
X153460850Y-105974035D01*
X153675017Y-106073903D01*
X153903272Y-106135063D01*
X154079714Y-106150500D01*
X154138679Y-106155659D01*
X154138680Y-106155659D01*
X154138681Y-106155659D01*
X154197646Y-106150500D01*
X154374088Y-106135063D01*
X154602343Y-106073903D01*
X154816510Y-105974035D01*
X155010081Y-105838495D01*
X155177175Y-105671401D01*
X155307410Y-105485405D01*
X155361987Y-105441781D01*
X155431485Y-105434587D01*
X155493840Y-105466110D01*
X155510559Y-105485405D01*
X155640570Y-105671078D01*
X155807597Y-105838105D01*
X156001101Y-105973600D01*
X156215187Y-106073429D01*
X156215196Y-106073433D01*
X156428680Y-106130634D01*
X156428680Y-105233012D01*
X156485687Y-105265925D01*
X156612854Y-105300000D01*
X156744506Y-105300000D01*
X156871673Y-105265925D01*
X156928680Y-105233012D01*
X156928680Y-106130633D01*
X157142163Y-106073433D01*
X157142172Y-106073429D01*
X157356258Y-105973600D01*
X157549762Y-105838105D01*
X157716785Y-105671082D01*
X157852280Y-105477578D01*
X157952109Y-105263492D01*
X157952112Y-105263486D01*
X158009316Y-105050000D01*
X157111692Y-105050000D01*
X157144605Y-104992993D01*
X157178680Y-104865826D01*
X157178680Y-104734174D01*
X157144605Y-104607007D01*
X157111692Y-104550000D01*
X158009316Y-104550000D01*
X158009315Y-104549999D01*
X157952112Y-104336513D01*
X157952109Y-104336507D01*
X157852280Y-104122422D01*
X157852279Y-104122420D01*
X157716793Y-103928926D01*
X157716788Y-103928920D01*
X157549758Y-103761890D01*
X157364085Y-103631879D01*
X157320460Y-103577302D01*
X157313268Y-103507804D01*
X157344790Y-103445449D01*
X157364086Y-103428730D01*
X157364959Y-103428119D01*
X157445005Y-103372070D01*
X159903180Y-103372070D01*
X159903180Y-103627930D01*
X159903806Y-103631880D01*
X159943206Y-103880640D01*
X160022268Y-104123972D01*
X160022269Y-104123975D01*
X160043383Y-104165412D01*
X160130474Y-104336337D01*
X160138430Y-104351950D01*
X160288812Y-104558935D01*
X160288816Y-104558940D01*
X160469739Y-104739863D01*
X160469744Y-104739867D01*
X160552511Y-104800000D01*
X160676733Y-104890252D01*
X160825760Y-104966185D01*
X160904704Y-105006410D01*
X160904707Y-105006411D01*
X160993952Y-105035408D01*
X161148041Y-105085474D01*
X161400750Y-105125500D01*
X161400751Y-105125500D01*
X161656609Y-105125500D01*
X161656610Y-105125500D01*
X161909319Y-105085474D01*
X162152655Y-105006410D01*
X162380627Y-104890252D01*
X162587622Y-104739862D01*
X162768542Y-104558942D01*
X162918932Y-104351947D01*
X163035090Y-104123975D01*
X163114154Y-103880639D01*
X163154180Y-103627930D01*
X163154180Y-103372070D01*
X163114154Y-103119361D01*
X163055173Y-102937834D01*
X163035091Y-102876027D01*
X163035090Y-102876024D01*
X162975972Y-102760000D01*
X162918932Y-102648053D01*
X162808033Y-102495413D01*
X162768547Y-102441064D01*
X162768543Y-102441059D01*
X162587620Y-102260136D01*
X162587615Y-102260132D01*
X162380630Y-102109750D01*
X162380629Y-102109749D01*
X162380627Y-102109748D01*
X162307590Y-102072533D01*
X162152655Y-101993589D01*
X162152652Y-101993588D01*
X161909320Y-101914526D01*
X161782964Y-101894513D01*
X161656610Y-101874500D01*
X161400750Y-101874500D01*
X161316513Y-101887842D01*
X161148039Y-101914526D01*
X160904707Y-101993588D01*
X160904704Y-101993589D01*
X160676729Y-102109750D01*
X160469744Y-102260132D01*
X160469739Y-102260136D01*
X160288816Y-102441059D01*
X160288812Y-102441064D01*
X160138430Y-102648049D01*
X160022269Y-102876024D01*
X160022268Y-102876027D01*
X159943206Y-103119359D01*
X159914895Y-103298105D01*
X159903180Y-103372070D01*
X157445005Y-103372070D01*
X157550081Y-103298495D01*
X157717175Y-103131401D01*
X157852715Y-102937830D01*
X157952583Y-102723663D01*
X158013743Y-102495408D01*
X158034339Y-102260000D01*
X158013743Y-102024592D01*
X157962140Y-101832003D01*
X157952585Y-101796344D01*
X157952584Y-101796343D01*
X157952583Y-101796337D01*
X157852715Y-101582171D01*
X157847411Y-101574595D01*
X157717174Y-101388597D01*
X157550082Y-101221506D01*
X157550075Y-101221501D01*
X157356514Y-101085967D01*
X157356510Y-101085965D01*
X157356508Y-101085964D01*
X157142343Y-100986097D01*
X157142339Y-100986096D01*
X157142335Y-100986094D01*
X156914093Y-100924938D01*
X156914083Y-100924936D01*
X156678681Y-100904341D01*
X156678679Y-100904341D01*
X156443276Y-100924936D01*
X156443266Y-100924938D01*
X156215024Y-100986094D01*
X156215015Y-100986098D01*
X156000851Y-101085964D01*
X156000849Y-101085965D01*
X155807277Y-101221505D01*
X155640185Y-101388597D01*
X155510255Y-101574158D01*
X155455678Y-101617783D01*
X155386180Y-101624977D01*
X155323825Y-101593454D01*
X155307105Y-101574158D01*
X155177174Y-101388597D01*
X155010082Y-101221506D01*
X155010075Y-101221501D01*
X154816514Y-101085967D01*
X154816510Y-101085965D01*
X154816508Y-101085964D01*
X154602343Y-100986097D01*
X154602339Y-100986096D01*
X154602335Y-100986094D01*
X154374093Y-100924938D01*
X154374083Y-100924936D01*
X154138681Y-100904341D01*
X154138679Y-100904341D01*
X153903276Y-100924936D01*
X153903266Y-100924938D01*
X153675024Y-100986094D01*
X153675015Y-100986098D01*
X153460851Y-101085964D01*
X153460849Y-101085965D01*
X153267277Y-101221505D01*
X153100185Y-101388597D01*
X152970255Y-101574158D01*
X152915678Y-101617783D01*
X152846180Y-101624977D01*
X152783825Y-101593454D01*
X152767105Y-101574158D01*
X152637174Y-101388597D01*
X152470082Y-101221506D01*
X152470075Y-101221501D01*
X152276514Y-101085967D01*
X152276510Y-101085965D01*
X152276508Y-101085964D01*
X152062343Y-100986097D01*
X152062339Y-100986096D01*
X152062335Y-100986094D01*
X151834093Y-100924938D01*
X151834083Y-100924936D01*
X151598681Y-100904341D01*
X151598679Y-100904341D01*
X151363276Y-100924936D01*
X151363266Y-100924938D01*
X151135024Y-100986094D01*
X151135015Y-100986098D01*
X150920851Y-101085964D01*
X150920849Y-101085965D01*
X150727277Y-101221505D01*
X150560188Y-101388594D01*
X150429949Y-101574595D01*
X150375372Y-101618219D01*
X150305873Y-101625412D01*
X150243519Y-101593890D01*
X150226799Y-101574594D01*
X150096793Y-101388926D01*
X150096788Y-101388920D01*
X149929762Y-101221894D01*
X149736258Y-101086399D01*
X149522172Y-100986570D01*
X149522166Y-100986567D01*
X149308680Y-100929364D01*
X149308680Y-101826988D01*
X149251673Y-101794075D01*
X149124506Y-101760000D01*
X148992854Y-101760000D01*
X148865687Y-101794075D01*
X148808680Y-101826988D01*
X148808680Y-100929364D01*
X148808679Y-100929364D01*
X148595193Y-100986567D01*
X148595187Y-100986570D01*
X148381102Y-101086399D01*
X148381100Y-101086400D01*
X148187606Y-101221886D01*
X148187600Y-101221891D01*
X148020571Y-101388920D01*
X148020570Y-101388922D01*
X147890560Y-101574595D01*
X147835983Y-101618219D01*
X147766484Y-101625412D01*
X147704130Y-101593890D01*
X147687410Y-101574594D01*
X147557174Y-101388597D01*
X147390082Y-101221506D01*
X147390075Y-101221501D01*
X147196514Y-101085967D01*
X147196510Y-101085965D01*
X147196508Y-101085964D01*
X146982343Y-100986097D01*
X146982339Y-100986096D01*
X146982335Y-100986094D01*
X146754093Y-100924938D01*
X146754083Y-100924936D01*
X146518681Y-100904341D01*
X146518679Y-100904341D01*
X146283276Y-100924936D01*
X146283266Y-100924938D01*
X146055024Y-100986094D01*
X146055015Y-100986098D01*
X145840851Y-101085964D01*
X145840849Y-101085965D01*
X145647277Y-101221505D01*
X145480188Y-101388594D01*
X145349949Y-101574595D01*
X145295372Y-101618219D01*
X145225873Y-101625412D01*
X145163519Y-101593890D01*
X145146799Y-101574594D01*
X145016793Y-101388926D01*
X145016788Y-101388920D01*
X144849762Y-101221894D01*
X144656258Y-101086399D01*
X144442172Y-100986570D01*
X144442166Y-100986567D01*
X144228680Y-100929364D01*
X144228680Y-101826988D01*
X144171673Y-101794075D01*
X144044506Y-101760000D01*
X143912854Y-101760000D01*
X143785687Y-101794075D01*
X143728680Y-101826988D01*
X143728680Y-100929364D01*
X143728679Y-100929364D01*
X143515193Y-100986567D01*
X143515187Y-100986570D01*
X143301102Y-101086399D01*
X143301100Y-101086400D01*
X143107606Y-101221886D01*
X143107600Y-101221891D01*
X142940571Y-101388920D01*
X142940570Y-101388922D01*
X142810560Y-101574595D01*
X142755983Y-101618219D01*
X142686484Y-101625412D01*
X142624130Y-101593890D01*
X142607410Y-101574594D01*
X142477174Y-101388597D01*
X142310082Y-101221506D01*
X142310075Y-101221501D01*
X142116514Y-101085967D01*
X142116510Y-101085965D01*
X142116508Y-101085964D01*
X141902343Y-100986097D01*
X141902339Y-100986096D01*
X141902335Y-100986094D01*
X141674093Y-100924938D01*
X141674083Y-100924936D01*
X141438681Y-100904341D01*
X141438679Y-100904341D01*
X141203276Y-100924936D01*
X141203266Y-100924938D01*
X140975024Y-100986094D01*
X140975015Y-100986098D01*
X140760851Y-101085964D01*
X140760849Y-101085965D01*
X140567277Y-101221505D01*
X140400185Y-101388597D01*
X140270255Y-101574158D01*
X140215678Y-101617783D01*
X140146180Y-101624977D01*
X140083825Y-101593454D01*
X140067105Y-101574158D01*
X139937174Y-101388597D01*
X139770082Y-101221506D01*
X139770075Y-101221501D01*
X139576514Y-101085967D01*
X139576510Y-101085965D01*
X139576508Y-101085964D01*
X139362343Y-100986097D01*
X139362339Y-100986096D01*
X139362335Y-100986094D01*
X139134093Y-100924938D01*
X139134083Y-100924936D01*
X138898681Y-100904341D01*
X138898679Y-100904341D01*
X138663276Y-100924936D01*
X138663266Y-100924938D01*
X138435024Y-100986094D01*
X138435015Y-100986098D01*
X138220851Y-101085964D01*
X138220849Y-101085965D01*
X138027277Y-101221505D01*
X137860185Y-101388597D01*
X137730255Y-101574158D01*
X137675678Y-101617783D01*
X137606180Y-101624977D01*
X137543825Y-101593454D01*
X137527105Y-101574158D01*
X137397174Y-101388597D01*
X137230082Y-101221506D01*
X137230075Y-101221501D01*
X137036514Y-101085967D01*
X137036510Y-101085965D01*
X137036508Y-101085964D01*
X136822343Y-100986097D01*
X136822339Y-100986096D01*
X136822335Y-100986094D01*
X136594093Y-100924938D01*
X136594083Y-100924936D01*
X136358681Y-100904341D01*
X136358679Y-100904341D01*
X136123276Y-100924936D01*
X136123266Y-100924938D01*
X135895024Y-100986094D01*
X135895015Y-100986098D01*
X135680851Y-101085964D01*
X135680849Y-101085965D01*
X135487277Y-101221505D01*
X135320185Y-101388597D01*
X135190255Y-101574158D01*
X135135678Y-101617783D01*
X135066180Y-101624977D01*
X135003825Y-101593454D01*
X134987105Y-101574158D01*
X134857174Y-101388597D01*
X134690082Y-101221506D01*
X134690075Y-101221501D01*
X134496514Y-101085967D01*
X134496510Y-101085965D01*
X134496508Y-101085964D01*
X134282343Y-100986097D01*
X134282339Y-100986096D01*
X134282335Y-100986094D01*
X134054093Y-100924938D01*
X134054083Y-100924936D01*
X133818681Y-100904341D01*
X133818679Y-100904341D01*
X133583276Y-100924936D01*
X133583266Y-100924938D01*
X133355024Y-100986094D01*
X133355015Y-100986098D01*
X133140851Y-101085964D01*
X133140849Y-101085965D01*
X132947277Y-101221505D01*
X132780188Y-101388594D01*
X132649949Y-101574595D01*
X132595372Y-101618219D01*
X132525873Y-101625412D01*
X132463519Y-101593890D01*
X132446799Y-101574594D01*
X132316793Y-101388926D01*
X132316788Y-101388920D01*
X132149762Y-101221894D01*
X131956258Y-101086399D01*
X131742172Y-100986570D01*
X131742166Y-100986567D01*
X131528680Y-100929364D01*
X131528680Y-101826988D01*
X131471673Y-101794075D01*
X131344506Y-101760000D01*
X131212854Y-101760000D01*
X131085687Y-101794075D01*
X131028680Y-101826988D01*
X131028680Y-100929364D01*
X131028679Y-100929364D01*
X130815193Y-100986567D01*
X130815187Y-100986570D01*
X130601102Y-101086399D01*
X130601100Y-101086400D01*
X130407606Y-101221886D01*
X130407600Y-101221891D01*
X130240571Y-101388920D01*
X130240570Y-101388922D01*
X130110560Y-101574595D01*
X130055983Y-101618219D01*
X129986484Y-101625412D01*
X129924130Y-101593890D01*
X129907410Y-101574594D01*
X129777174Y-101388597D01*
X129610082Y-101221506D01*
X129610075Y-101221501D01*
X129416514Y-101085967D01*
X129416510Y-101085965D01*
X129416508Y-101085964D01*
X129202343Y-100986097D01*
X129202339Y-100986096D01*
X129202335Y-100986094D01*
X128974093Y-100924938D01*
X128974083Y-100924936D01*
X128738681Y-100904341D01*
X128738679Y-100904341D01*
X128503276Y-100924936D01*
X128503266Y-100924938D01*
X128275024Y-100986094D01*
X128275015Y-100986098D01*
X128060851Y-101085964D01*
X128060849Y-101085965D01*
X127867277Y-101221505D01*
X127700185Y-101388597D01*
X127570255Y-101574158D01*
X127515678Y-101617783D01*
X127446180Y-101624977D01*
X127383825Y-101593454D01*
X127367105Y-101574158D01*
X127237174Y-101388597D01*
X127070082Y-101221506D01*
X127070075Y-101221501D01*
X126876514Y-101085967D01*
X126876510Y-101085965D01*
X126876508Y-101085964D01*
X126662343Y-100986097D01*
X126662339Y-100986096D01*
X126662335Y-100986094D01*
X126434093Y-100924938D01*
X126434083Y-100924936D01*
X126198681Y-100904341D01*
X126198679Y-100904341D01*
X125963276Y-100924936D01*
X125963266Y-100924938D01*
X125735024Y-100986094D01*
X125735015Y-100986098D01*
X125520851Y-101085964D01*
X125520849Y-101085965D01*
X125327277Y-101221505D01*
X125160188Y-101388594D01*
X125029949Y-101574595D01*
X124975372Y-101618219D01*
X124905873Y-101625412D01*
X124843519Y-101593890D01*
X124826799Y-101574594D01*
X124696793Y-101388926D01*
X124696788Y-101388920D01*
X124529762Y-101221894D01*
X124336258Y-101086399D01*
X124122172Y-100986570D01*
X124122166Y-100986567D01*
X123908680Y-100929364D01*
X123908680Y-101826988D01*
X123851673Y-101794075D01*
X123724506Y-101760000D01*
X123592854Y-101760000D01*
X123465687Y-101794075D01*
X123408680Y-101826988D01*
X123408680Y-100929364D01*
X123408679Y-100929364D01*
X123195193Y-100986567D01*
X123195187Y-100986570D01*
X122981102Y-101086399D01*
X122981100Y-101086400D01*
X122787606Y-101221886D01*
X122787600Y-101221891D01*
X122620571Y-101388920D01*
X122620570Y-101388922D01*
X122490560Y-101574595D01*
X122435983Y-101618219D01*
X122366484Y-101625412D01*
X122304130Y-101593890D01*
X122287410Y-101574594D01*
X122157174Y-101388597D01*
X121990082Y-101221506D01*
X121990075Y-101221501D01*
X121796514Y-101085967D01*
X121796510Y-101085965D01*
X121796508Y-101085964D01*
X121582343Y-100986097D01*
X121582339Y-100986096D01*
X121582335Y-100986094D01*
X121354093Y-100924938D01*
X121354083Y-100924936D01*
X121118681Y-100904341D01*
X121118679Y-100904341D01*
X120883276Y-100924936D01*
X120883266Y-100924938D01*
X120655024Y-100986094D01*
X120655015Y-100986098D01*
X120440851Y-101085964D01*
X120440849Y-101085965D01*
X120247277Y-101221505D01*
X120080185Y-101388597D01*
X119950255Y-101574158D01*
X119895678Y-101617783D01*
X119826180Y-101624977D01*
X119763825Y-101593454D01*
X119747105Y-101574158D01*
X119617174Y-101388597D01*
X119450082Y-101221506D01*
X119450075Y-101221501D01*
X119256514Y-101085967D01*
X119256510Y-101085965D01*
X119256508Y-101085964D01*
X119042343Y-100986097D01*
X119042339Y-100986096D01*
X119042335Y-100986094D01*
X118814093Y-100924938D01*
X118814083Y-100924936D01*
X118578681Y-100904341D01*
X118578679Y-100904341D01*
X118343276Y-100924936D01*
X118343266Y-100924938D01*
X118115024Y-100986094D01*
X118115015Y-100986098D01*
X117900851Y-101085964D01*
X117900849Y-101085965D01*
X117707277Y-101221505D01*
X117540185Y-101388597D01*
X117410255Y-101574158D01*
X117355678Y-101617783D01*
X117286180Y-101624977D01*
X117223825Y-101593454D01*
X117207105Y-101574158D01*
X117077174Y-101388597D01*
X116910082Y-101221506D01*
X116910075Y-101221501D01*
X116716514Y-101085967D01*
X116716510Y-101085965D01*
X116716508Y-101085964D01*
X116502343Y-100986097D01*
X116502339Y-100986096D01*
X116502335Y-100986094D01*
X116274093Y-100924938D01*
X116274083Y-100924936D01*
X116038681Y-100904341D01*
X116038679Y-100904341D01*
X115803276Y-100924936D01*
X115803266Y-100924938D01*
X115575024Y-100986094D01*
X115575015Y-100986098D01*
X115360851Y-101085964D01*
X115360849Y-101085965D01*
X115167277Y-101221505D01*
X115000188Y-101388594D01*
X114869949Y-101574595D01*
X114815372Y-101618219D01*
X114745873Y-101625412D01*
X114683519Y-101593890D01*
X114666799Y-101574594D01*
X114536793Y-101388926D01*
X114536788Y-101388920D01*
X114369762Y-101221894D01*
X114176258Y-101086399D01*
X113962172Y-100986570D01*
X113962166Y-100986567D01*
X113748680Y-100929364D01*
X113748680Y-101826988D01*
X113691673Y-101794075D01*
X113564506Y-101760000D01*
X113432854Y-101760000D01*
X113305687Y-101794075D01*
X113248680Y-101826988D01*
X113248680Y-100929364D01*
X113248679Y-100929364D01*
X113035193Y-100986567D01*
X113035187Y-100986570D01*
X112821102Y-101086399D01*
X112821100Y-101086400D01*
X112627606Y-101221886D01*
X112627600Y-101221891D01*
X112460571Y-101388920D01*
X112460570Y-101388922D01*
X112330560Y-101574595D01*
X112275983Y-101618219D01*
X112206484Y-101625412D01*
X112144130Y-101593890D01*
X112127410Y-101574594D01*
X111997174Y-101388597D01*
X111830082Y-101221506D01*
X111830075Y-101221501D01*
X111636514Y-101085967D01*
X111636510Y-101085965D01*
X111636508Y-101085964D01*
X111422343Y-100986097D01*
X111422339Y-100986096D01*
X111422335Y-100986094D01*
X111194093Y-100924938D01*
X111194083Y-100924936D01*
X110958681Y-100904341D01*
X110958679Y-100904341D01*
X110723276Y-100924936D01*
X110723266Y-100924938D01*
X110495024Y-100986094D01*
X110495015Y-100986098D01*
X110280851Y-101085964D01*
X110280849Y-101085965D01*
X110087277Y-101221505D01*
X109920185Y-101388597D01*
X109790255Y-101574158D01*
X109735678Y-101617783D01*
X109666180Y-101624977D01*
X109603825Y-101593454D01*
X109587105Y-101574158D01*
X109457174Y-101388597D01*
X109290082Y-101221506D01*
X109290075Y-101221501D01*
X109096514Y-101085967D01*
X109096510Y-101085965D01*
X109096508Y-101085964D01*
X108882343Y-100986097D01*
X108882339Y-100986096D01*
X108882335Y-100986094D01*
X108654093Y-100924938D01*
X108654083Y-100924936D01*
X108418681Y-100904341D01*
X108418679Y-100904341D01*
X108183276Y-100924936D01*
X108183266Y-100924938D01*
X107955024Y-100986094D01*
X107955015Y-100986098D01*
X107740851Y-101085964D01*
X107740849Y-101085965D01*
X107547277Y-101221505D01*
X107380185Y-101388597D01*
X107244645Y-101582169D01*
X107244644Y-101582171D01*
X107144778Y-101796335D01*
X107144774Y-101796344D01*
X107083618Y-102024586D01*
X107083616Y-102024596D01*
X107063021Y-102259999D01*
X104587432Y-102259999D01*
X104380630Y-102109750D01*
X104380629Y-102109749D01*
X104380627Y-102109748D01*
X104307590Y-102072533D01*
X104152655Y-101993589D01*
X104152652Y-101993588D01*
X103909320Y-101914526D01*
X103782964Y-101894513D01*
X103656610Y-101874500D01*
X103400750Y-101874500D01*
X103316513Y-101887842D01*
X103148039Y-101914526D01*
X102904707Y-101993588D01*
X102904704Y-101993589D01*
X102676729Y-102109750D01*
X102469744Y-102260132D01*
X102469739Y-102260136D01*
X102288816Y-102441059D01*
X102288812Y-102441064D01*
X102138430Y-102648049D01*
X102022269Y-102876024D01*
X102022268Y-102876027D01*
X101943206Y-103119359D01*
X101914895Y-103298105D01*
X101903180Y-103372070D01*
X100529180Y-103372070D01*
X100529180Y-103003750D01*
X100529406Y-102996263D01*
X100532940Y-102937834D01*
X100546951Y-102706199D01*
X100548756Y-102691338D01*
X100556689Y-102648053D01*
X100600460Y-102409195D01*
X100604044Y-102394661D01*
X100645963Y-102260138D01*
X100689376Y-102120818D01*
X100694678Y-102106838D01*
X100812408Y-101845251D01*
X100819362Y-101832003D01*
X100967753Y-101586531D01*
X100976258Y-101574212D01*
X101153153Y-101348419D01*
X101163078Y-101337216D01*
X101365907Y-101134385D01*
X101377097Y-101124471D01*
X101602904Y-100947561D01*
X101615212Y-100939066D01*
X101860697Y-100790663D01*
X101873938Y-100783714D01*
X102135517Y-100665986D01*
X102149494Y-100660685D01*
X102423354Y-100575345D01*
X102437880Y-100571764D01*
X102720026Y-100520057D01*
X102734882Y-100518253D01*
X103024616Y-100500725D01*
X103032104Y-100500500D01*
X103094575Y-100500500D01*
X161462788Y-100500500D01*
X161962787Y-100500500D01*
X161962791Y-100500501D01*
G37*
%TD.AperFunction*%
%TD*%
M02*
