M48
; DRILL file {KiCad 8.0.4+dfsg-1} date 2025-02-22T18:35:30+0100
; FORMAT={-:-/ absolute / inch / decimal}
; #@! TF.CreationDate,2025-02-22T18:35:30+01:00
; #@! TF.GenerationSoftware,Kicad,Pcbnew,8.0.4+dfsg-1
; #@! TF.FileFunction,Plated,1,4,PTH
FMAT,2
INCH
; #@! TA.AperFunction,Plated,PTH,ViaDrill
T1C0.0118
; #@! TA.AperFunction,Plated,PTH,ComponentDrill
T2C0.0394
%
G90
G05
T1
X3.9882Y-4.4213
X3.9882Y-4.6339
X4.0079Y-4.7047
X4.0118Y-4.3504
X4.0315Y-4.4213
X4.0315Y-4.6339
X4.4055Y-4.4882
X4.4252Y-4.6614
X4.4291Y-4.5906
X4.4291Y-4.626
X4.4409Y-4.2638
X4.4685Y-4.7146
X4.503Y-4.5915
X4.5354Y-4.4685
X4.563Y-4.5571
X4.5906Y-4.5394
X4.5965Y-4.6161
X4.626Y-4.5236
X4.6969Y-4.5551
X4.7008Y-4.5118
X4.7323Y-4.5669
X4.7638Y-4.4606
X4.7756Y-4.315
X4.8031Y-4.3406
X4.8327Y-4.3602
X4.8543Y-4.6024
X4.8858Y-4.6811
X4.9094Y-4.5709
X5.0197Y-4.5965
X5.0433Y-4.3976
X5.0787Y-4.4016
X5.0787Y-4.6811
X5.0827Y-4.5709
X5.1378Y-4.4843
X5.1417Y-4.4055
X5.1575Y-4.5394
X5.1772Y-4.4094
X5.1772Y-4.4803
X5.1772Y-4.5984
X5.2126Y-4.4764
X5.2205Y-4.374
X5.2205Y-4.4094
X5.2362Y-4.3071
X5.2402Y-4.5
X5.2441Y-4.5709
X5.252Y-4.3386
X5.252Y-4.4252
X5.2756Y-4.4567
X5.2835Y-4.6811
X5.311Y-4.4449
X5.3268Y-4.3898
X5.3543Y-4.4843
X5.3661Y-4.3031
X5.3819Y-4.374
X5.3819Y-4.4606
X5.3976Y-4.5709
X5.4134Y-4.2756
X5.423Y-4.2384
X5.4409Y-4.3031
X5.4961Y-4.6063
X5.4961Y-4.6811
X5.5079Y-4.4921
X5.5276Y-4.4606
X5.5551Y-4.5709
X5.561Y-4.2953
X5.6024Y-4.4961
X5.6378Y-4.4961
X5.6496Y-4.5315
X5.6496Y-4.5945
X5.7126Y-4.5709
X5.7126Y-4.6811
X5.8031Y-4.6024
X5.8228Y-4.5276
X5.8268Y-4.5768
X5.8937Y-4.5709
X5.9173Y-4.6811
X5.9291Y-4.5709
T2
X4.0157Y-4.2618
X4.1157Y-4.2618
X4.2685Y-4.026
X4.2685Y-4.126
X4.3685Y-4.026
X4.3685Y-4.126
X4.4232Y-4.8902
X4.4232Y-4.9902
X4.4685Y-4.026
X4.4685Y-4.126
X4.5232Y-4.8902
X4.5232Y-4.9902
X4.5685Y-4.026
X4.5685Y-4.126
X4.6232Y-4.8902
X4.6232Y-4.9902
X4.6685Y-4.026
X4.6685Y-4.126
X4.7232Y-4.8902
X4.7232Y-4.9902
X4.7685Y-4.026
X4.7685Y-4.126
X4.8232Y-4.8902
X4.8232Y-4.9902
X4.8685Y-4.026
X4.8685Y-4.126
X4.9016Y-4.2815
X4.9232Y-4.8902
X4.9232Y-4.9902
X4.9685Y-4.026
X4.9685Y-4.126
X5.0016Y-4.2815
X5.0232Y-4.8902
X5.0232Y-4.9902
X5.0685Y-4.026
X5.0685Y-4.126
X5.1016Y-4.2815
X5.1232Y-4.8902
X5.1232Y-4.9902
X5.1685Y-4.026
X5.1685Y-4.126
X5.2232Y-4.8902
X5.2232Y-4.9902
X5.2685Y-4.026
X5.2685Y-4.126
X5.3232Y-4.8902
X5.3232Y-4.9902
X5.3685Y-4.026
X5.3685Y-4.126
X5.4232Y-4.8902
X5.4232Y-4.9902
X5.4685Y-4.026
X5.4685Y-4.126
X5.5232Y-4.8902
X5.5232Y-4.9902
X5.5685Y-4.026
X5.5685Y-4.126
X5.6232Y-4.8902
X5.6232Y-4.9902
X5.6685Y-4.026
X5.6685Y-4.126
X5.7232Y-4.8902
X5.7232Y-4.9902
X5.7685Y-4.026
X5.7685Y-4.126
X5.8232Y-4.8902
X5.8232Y-4.9902
X5.8685Y-4.026
X5.8685Y-4.126
X5.9232Y-4.8902
X5.9232Y-4.9902
X5.9685Y-4.026
X5.9685Y-4.126
X6.0232Y-4.8902
X6.0232Y-4.9902
X6.0685Y-4.026
X6.0685Y-4.126
X6.1685Y-4.026
X6.1685Y-4.126
X6.2205Y-4.4783
X6.2205Y-4.5768
M30
