%TF.GenerationSoftware,KiCad,Pcbnew,8.0.8-8.0.8-0~ubuntu24.04.1*%
%TF.CreationDate,2025-02-13T10:07:34+01:00*%
%TF.ProjectId,Acorn_1Mhz_bus_PiZero_interface,41636f72-6e5f-4314-9d68-7a5f6275735f,rev?*%
%TF.SameCoordinates,Original*%
%TF.FileFunction,Legend,Top*%
%TF.FilePolarity,Positive*%
%FSLAX46Y46*%
G04 Gerber Fmt 4.6, Leading zero omitted, Abs format (unit mm)*
G04 Created by KiCad (PCBNEW 8.0.8-8.0.8-0~ubuntu24.04.1) date 2025-02-13 10:07:34*
%MOMM*%
%LPD*%
G01*
G04 APERTURE LIST*
G04 Aperture macros list*
%AMRoundRect*
0 Rectangle with rounded corners*
0 $1 Rounding radius*
0 $2 $3 $4 $5 $6 $7 $8 $9 X,Y pos of 4 corners*
0 Add a 4 corners polygon primitive as box body*
4,1,4,$2,$3,$4,$5,$6,$7,$8,$9,$2,$3,0*
0 Add four circle primitives for the rounded corners*
1,1,$1+$1,$2,$3*
1,1,$1+$1,$4,$5*
1,1,$1+$1,$6,$7*
1,1,$1+$1,$8,$9*
0 Add four rect primitives between the rounded corners*
20,1,$1+$1,$2,$3,$4,$5,0*
20,1,$1+$1,$4,$5,$6,$7,0*
20,1,$1+$1,$6,$7,$8,$9,0*
20,1,$1+$1,$8,$9,$2,$3,0*%
G04 Aperture macros list end*
%ADD10C,0.100000*%
%ADD11C,0.150000*%
%ADD12C,0.120000*%
%ADD13C,0.254000*%
%ADD14RoundRect,0.100000X0.100000X-0.225000X0.100000X0.225000X-0.100000X0.225000X-0.100000X-0.225000X0*%
%ADD15R,0.400000X0.500000*%
%ADD16R,0.300000X0.500000*%
%ADD17R,1.700000X1.700000*%
%ADD18O,1.700000X1.700000*%
%ADD19R,1.000000X1.500000*%
%ADD20RoundRect,0.225000X0.225000X0.250000X-0.225000X0.250000X-0.225000X-0.250000X0.225000X-0.250000X0*%
%ADD21RoundRect,0.225000X0.250000X-0.225000X0.250000X0.225000X-0.250000X0.225000X-0.250000X-0.225000X0*%
%ADD22RoundRect,0.200000X-0.200000X-0.275000X0.200000X-0.275000X0.200000X0.275000X-0.200000X0.275000X0*%
%ADD23RoundRect,0.200000X0.275000X-0.200000X0.275000X0.200000X-0.275000X0.200000X-0.275000X-0.200000X0*%
%ADD24RoundRect,0.225000X-0.225000X-0.250000X0.225000X-0.250000X0.225000X0.250000X-0.225000X0.250000X0*%
%ADD25R,1.800000X2.300000*%
%ADD26RoundRect,0.225000X-0.250000X0.225000X-0.250000X-0.225000X0.250000X-0.225000X0.250000X0.225000X0*%
%ADD27RoundRect,0.250000X-0.750000X0.600000X-0.750000X-0.600000X0.750000X-0.600000X0.750000X0.600000X0*%
%ADD28O,2.000000X1.700000*%
%ADD29RoundRect,0.150000X0.150000X-0.512500X0.150000X0.512500X-0.150000X0.512500X-0.150000X-0.512500X0*%
%ADD30RoundRect,0.250000X0.600000X-0.600000X0.600000X0.600000X-0.600000X0.600000X-0.600000X-0.600000X0*%
%ADD31C,1.700000*%
%ADD32RoundRect,0.200000X0.200000X0.275000X-0.200000X0.275000X-0.200000X-0.275000X0.200000X-0.275000X0*%
G04 APERTURE END LIST*
D10*
X126141979Y-110596895D02*
X126599122Y-110596895D01*
X126370550Y-111396895D02*
X126370550Y-110596895D01*
X126789598Y-111396895D02*
X127208646Y-110863561D01*
X126789598Y-110863561D02*
X127208646Y-111396895D01*
X127513408Y-111396895D02*
X127513408Y-110596895D01*
X127513408Y-110596895D02*
X127703884Y-110596895D01*
X127703884Y-110596895D02*
X127818170Y-110634990D01*
X127818170Y-110634990D02*
X127894360Y-110711180D01*
X127894360Y-110711180D02*
X127932455Y-110787371D01*
X127932455Y-110787371D02*
X127970551Y-110939752D01*
X127970551Y-110939752D02*
X127970551Y-111054038D01*
X127970551Y-111054038D02*
X127932455Y-111206419D01*
X127932455Y-111206419D02*
X127894360Y-111282609D01*
X127894360Y-111282609D02*
X127818170Y-111358800D01*
X127818170Y-111358800D02*
X127703884Y-111396895D01*
X127703884Y-111396895D02*
X127513408Y-111396895D01*
X138756265Y-108336704D02*
X139232455Y-108336704D01*
X138661027Y-108622419D02*
X138994360Y-107622419D01*
X138994360Y-107622419D02*
X139327693Y-108622419D01*
X140089598Y-108574800D02*
X139994360Y-108622419D01*
X139994360Y-108622419D02*
X139803884Y-108622419D01*
X139803884Y-108622419D02*
X139708646Y-108574800D01*
X139708646Y-108574800D02*
X139661027Y-108527180D01*
X139661027Y-108527180D02*
X139613408Y-108431942D01*
X139613408Y-108431942D02*
X139613408Y-108146228D01*
X139613408Y-108146228D02*
X139661027Y-108050990D01*
X139661027Y-108050990D02*
X139708646Y-108003371D01*
X139708646Y-108003371D02*
X139803884Y-107955752D01*
X139803884Y-107955752D02*
X139994360Y-107955752D01*
X139994360Y-107955752D02*
X140089598Y-108003371D01*
X140661027Y-108622419D02*
X140565789Y-108574800D01*
X140565789Y-108574800D02*
X140518170Y-108527180D01*
X140518170Y-108527180D02*
X140470551Y-108431942D01*
X140470551Y-108431942D02*
X140470551Y-108146228D01*
X140470551Y-108146228D02*
X140518170Y-108050990D01*
X140518170Y-108050990D02*
X140565789Y-108003371D01*
X140565789Y-108003371D02*
X140661027Y-107955752D01*
X140661027Y-107955752D02*
X140803884Y-107955752D01*
X140803884Y-107955752D02*
X140899122Y-108003371D01*
X140899122Y-108003371D02*
X140946741Y-108050990D01*
X140946741Y-108050990D02*
X140994360Y-108146228D01*
X140994360Y-108146228D02*
X140994360Y-108431942D01*
X140994360Y-108431942D02*
X140946741Y-108527180D01*
X140946741Y-108527180D02*
X140899122Y-108574800D01*
X140899122Y-108574800D02*
X140803884Y-108622419D01*
X140803884Y-108622419D02*
X140661027Y-108622419D01*
X141422932Y-108622419D02*
X141422932Y-107955752D01*
X141422932Y-108146228D02*
X141470551Y-108050990D01*
X141470551Y-108050990D02*
X141518170Y-108003371D01*
X141518170Y-108003371D02*
X141613408Y-107955752D01*
X141613408Y-107955752D02*
X141708646Y-107955752D01*
X142041980Y-107955752D02*
X142041980Y-108622419D01*
X142041980Y-108050990D02*
X142089599Y-108003371D01*
X142089599Y-108003371D02*
X142184837Y-107955752D01*
X142184837Y-107955752D02*
X142327694Y-107955752D01*
X142327694Y-107955752D02*
X142422932Y-108003371D01*
X142422932Y-108003371D02*
X142470551Y-108098609D01*
X142470551Y-108098609D02*
X142470551Y-108622419D01*
X144232456Y-108622419D02*
X143661028Y-108622419D01*
X143946742Y-108622419D02*
X143946742Y-107622419D01*
X143946742Y-107622419D02*
X143851504Y-107765276D01*
X143851504Y-107765276D02*
X143756266Y-107860514D01*
X143756266Y-107860514D02*
X143661028Y-107908133D01*
X145422933Y-108622419D02*
X145422933Y-107622419D01*
X145422933Y-107622419D02*
X145756266Y-108336704D01*
X145756266Y-108336704D02*
X146089599Y-107622419D01*
X146089599Y-107622419D02*
X146089599Y-108622419D01*
X146565790Y-108622419D02*
X146565790Y-107622419D01*
X146565790Y-108098609D02*
X147137218Y-108098609D01*
X147137218Y-108622419D02*
X147137218Y-107622419D01*
X147518171Y-107955752D02*
X148041980Y-107955752D01*
X148041980Y-107955752D02*
X147518171Y-108622419D01*
X147518171Y-108622419D02*
X148041980Y-108622419D01*
X149518171Y-108098609D02*
X149661028Y-108146228D01*
X149661028Y-108146228D02*
X149708647Y-108193847D01*
X149708647Y-108193847D02*
X149756266Y-108289085D01*
X149756266Y-108289085D02*
X149756266Y-108431942D01*
X149756266Y-108431942D02*
X149708647Y-108527180D01*
X149708647Y-108527180D02*
X149661028Y-108574800D01*
X149661028Y-108574800D02*
X149565790Y-108622419D01*
X149565790Y-108622419D02*
X149184838Y-108622419D01*
X149184838Y-108622419D02*
X149184838Y-107622419D01*
X149184838Y-107622419D02*
X149518171Y-107622419D01*
X149518171Y-107622419D02*
X149613409Y-107670038D01*
X149613409Y-107670038D02*
X149661028Y-107717657D01*
X149661028Y-107717657D02*
X149708647Y-107812895D01*
X149708647Y-107812895D02*
X149708647Y-107908133D01*
X149708647Y-107908133D02*
X149661028Y-108003371D01*
X149661028Y-108003371D02*
X149613409Y-108050990D01*
X149613409Y-108050990D02*
X149518171Y-108098609D01*
X149518171Y-108098609D02*
X149184838Y-108098609D01*
X150613409Y-107955752D02*
X150613409Y-108622419D01*
X150184838Y-107955752D02*
X150184838Y-108479561D01*
X150184838Y-108479561D02*
X150232457Y-108574800D01*
X150232457Y-108574800D02*
X150327695Y-108622419D01*
X150327695Y-108622419D02*
X150470552Y-108622419D01*
X150470552Y-108622419D02*
X150565790Y-108574800D01*
X150565790Y-108574800D02*
X150613409Y-108527180D01*
X151041981Y-108574800D02*
X151137219Y-108622419D01*
X151137219Y-108622419D02*
X151327695Y-108622419D01*
X151327695Y-108622419D02*
X151422933Y-108574800D01*
X151422933Y-108574800D02*
X151470552Y-108479561D01*
X151470552Y-108479561D02*
X151470552Y-108431942D01*
X151470552Y-108431942D02*
X151422933Y-108336704D01*
X151422933Y-108336704D02*
X151327695Y-108289085D01*
X151327695Y-108289085D02*
X151184838Y-108289085D01*
X151184838Y-108289085D02*
X151089600Y-108241466D01*
X151089600Y-108241466D02*
X151041981Y-108146228D01*
X151041981Y-108146228D02*
X151041981Y-108098609D01*
X151041981Y-108098609D02*
X151089600Y-108003371D01*
X151089600Y-108003371D02*
X151184838Y-107955752D01*
X151184838Y-107955752D02*
X151327695Y-107955752D01*
X151327695Y-107955752D02*
X151422933Y-108003371D01*
X152518172Y-107955752D02*
X152899124Y-107955752D01*
X152661029Y-107622419D02*
X152661029Y-108479561D01*
X152661029Y-108479561D02*
X152708648Y-108574800D01*
X152708648Y-108574800D02*
X152803886Y-108622419D01*
X152803886Y-108622419D02*
X152899124Y-108622419D01*
X153375315Y-108622419D02*
X153280077Y-108574800D01*
X153280077Y-108574800D02*
X153232458Y-108527180D01*
X153232458Y-108527180D02*
X153184839Y-108431942D01*
X153184839Y-108431942D02*
X153184839Y-108146228D01*
X153184839Y-108146228D02*
X153232458Y-108050990D01*
X153232458Y-108050990D02*
X153280077Y-108003371D01*
X153280077Y-108003371D02*
X153375315Y-107955752D01*
X153375315Y-107955752D02*
X153518172Y-107955752D01*
X153518172Y-107955752D02*
X153613410Y-108003371D01*
X153613410Y-108003371D02*
X153661029Y-108050990D01*
X153661029Y-108050990D02*
X153708648Y-108146228D01*
X153708648Y-108146228D02*
X153708648Y-108431942D01*
X153708648Y-108431942D02*
X153661029Y-108527180D01*
X153661029Y-108527180D02*
X153613410Y-108574800D01*
X153613410Y-108574800D02*
X153518172Y-108622419D01*
X153518172Y-108622419D02*
X153375315Y-108622419D01*
X154899125Y-108622419D02*
X154899125Y-107622419D01*
X154899125Y-107622419D02*
X155280077Y-107622419D01*
X155280077Y-107622419D02*
X155375315Y-107670038D01*
X155375315Y-107670038D02*
X155422934Y-107717657D01*
X155422934Y-107717657D02*
X155470553Y-107812895D01*
X155470553Y-107812895D02*
X155470553Y-107955752D01*
X155470553Y-107955752D02*
X155422934Y-108050990D01*
X155422934Y-108050990D02*
X155375315Y-108098609D01*
X155375315Y-108098609D02*
X155280077Y-108146228D01*
X155280077Y-108146228D02*
X154899125Y-108146228D01*
X155899125Y-108622419D02*
X155899125Y-107955752D01*
X155899125Y-107622419D02*
X155851506Y-107670038D01*
X155851506Y-107670038D02*
X155899125Y-107717657D01*
X155899125Y-107717657D02*
X155946744Y-107670038D01*
X155946744Y-107670038D02*
X155899125Y-107622419D01*
X155899125Y-107622419D02*
X155899125Y-107717657D01*
X157041982Y-107622419D02*
X157708648Y-107622419D01*
X157708648Y-107622419D02*
X157041982Y-108622419D01*
X157041982Y-108622419D02*
X157708648Y-108622419D01*
X158470553Y-108574800D02*
X158375315Y-108622419D01*
X158375315Y-108622419D02*
X158184839Y-108622419D01*
X158184839Y-108622419D02*
X158089601Y-108574800D01*
X158089601Y-108574800D02*
X158041982Y-108479561D01*
X158041982Y-108479561D02*
X158041982Y-108098609D01*
X158041982Y-108098609D02*
X158089601Y-108003371D01*
X158089601Y-108003371D02*
X158184839Y-107955752D01*
X158184839Y-107955752D02*
X158375315Y-107955752D01*
X158375315Y-107955752D02*
X158470553Y-108003371D01*
X158470553Y-108003371D02*
X158518172Y-108098609D01*
X158518172Y-108098609D02*
X158518172Y-108193847D01*
X158518172Y-108193847D02*
X158041982Y-108289085D01*
X158946744Y-108622419D02*
X158946744Y-107955752D01*
X158946744Y-108146228D02*
X158994363Y-108050990D01*
X158994363Y-108050990D02*
X159041982Y-108003371D01*
X159041982Y-108003371D02*
X159137220Y-107955752D01*
X159137220Y-107955752D02*
X159232458Y-107955752D01*
X159708649Y-108622419D02*
X159613411Y-108574800D01*
X159613411Y-108574800D02*
X159565792Y-108527180D01*
X159565792Y-108527180D02*
X159518173Y-108431942D01*
X159518173Y-108431942D02*
X159518173Y-108146228D01*
X159518173Y-108146228D02*
X159565792Y-108050990D01*
X159565792Y-108050990D02*
X159613411Y-108003371D01*
X159613411Y-108003371D02*
X159708649Y-107955752D01*
X159708649Y-107955752D02*
X159851506Y-107955752D01*
X159851506Y-107955752D02*
X159946744Y-108003371D01*
X159946744Y-108003371D02*
X159994363Y-108050990D01*
X159994363Y-108050990D02*
X160041982Y-108146228D01*
X160041982Y-108146228D02*
X160041982Y-108431942D01*
X160041982Y-108431942D02*
X159994363Y-108527180D01*
X159994363Y-108527180D02*
X159946744Y-108574800D01*
X159946744Y-108574800D02*
X159851506Y-108622419D01*
X159851506Y-108622419D02*
X159708649Y-108622419D01*
X129463408Y-111396895D02*
X129196741Y-111015942D01*
X129006265Y-111396895D02*
X129006265Y-110596895D01*
X129006265Y-110596895D02*
X129311027Y-110596895D01*
X129311027Y-110596895D02*
X129387217Y-110634990D01*
X129387217Y-110634990D02*
X129425312Y-110673085D01*
X129425312Y-110673085D02*
X129463408Y-110749276D01*
X129463408Y-110749276D02*
X129463408Y-110863561D01*
X129463408Y-110863561D02*
X129425312Y-110939752D01*
X129425312Y-110939752D02*
X129387217Y-110977847D01*
X129387217Y-110977847D02*
X129311027Y-111015942D01*
X129311027Y-111015942D02*
X129006265Y-111015942D01*
X129730074Y-111396895D02*
X130149122Y-110863561D01*
X129730074Y-110863561D02*
X130149122Y-111396895D01*
X130453884Y-111396895D02*
X130453884Y-110596895D01*
X130453884Y-110596895D02*
X130644360Y-110596895D01*
X130644360Y-110596895D02*
X130758646Y-110634990D01*
X130758646Y-110634990D02*
X130834836Y-110711180D01*
X130834836Y-110711180D02*
X130872931Y-110787371D01*
X130872931Y-110787371D02*
X130911027Y-110939752D01*
X130911027Y-110939752D02*
X130911027Y-111054038D01*
X130911027Y-111054038D02*
X130872931Y-111206419D01*
X130872931Y-111206419D02*
X130834836Y-111282609D01*
X130834836Y-111282609D02*
X130758646Y-111358800D01*
X130758646Y-111358800D02*
X130644360Y-111396895D01*
X130644360Y-111396895D02*
X130453884Y-111396895D01*
X123925312Y-110634990D02*
X123849122Y-110596895D01*
X123849122Y-110596895D02*
X123734836Y-110596895D01*
X123734836Y-110596895D02*
X123620550Y-110634990D01*
X123620550Y-110634990D02*
X123544360Y-110711180D01*
X123544360Y-110711180D02*
X123506265Y-110787371D01*
X123506265Y-110787371D02*
X123468169Y-110939752D01*
X123468169Y-110939752D02*
X123468169Y-111054038D01*
X123468169Y-111054038D02*
X123506265Y-111206419D01*
X123506265Y-111206419D02*
X123544360Y-111282609D01*
X123544360Y-111282609D02*
X123620550Y-111358800D01*
X123620550Y-111358800D02*
X123734836Y-111396895D01*
X123734836Y-111396895D02*
X123811027Y-111396895D01*
X123811027Y-111396895D02*
X123925312Y-111358800D01*
X123925312Y-111358800D02*
X123963408Y-111320704D01*
X123963408Y-111320704D02*
X123963408Y-111054038D01*
X123963408Y-111054038D02*
X123811027Y-111054038D01*
X124306265Y-111396895D02*
X124306265Y-110596895D01*
X124306265Y-110596895D02*
X124763408Y-111396895D01*
X124763408Y-111396895D02*
X124763408Y-110596895D01*
X125144360Y-111396895D02*
X125144360Y-110596895D01*
X125144360Y-110596895D02*
X125334836Y-110596895D01*
X125334836Y-110596895D02*
X125449122Y-110634990D01*
X125449122Y-110634990D02*
X125525312Y-110711180D01*
X125525312Y-110711180D02*
X125563407Y-110787371D01*
X125563407Y-110787371D02*
X125601503Y-110939752D01*
X125601503Y-110939752D02*
X125601503Y-111054038D01*
X125601503Y-111054038D02*
X125563407Y-111206419D01*
X125563407Y-111206419D02*
X125525312Y-111282609D01*
X125525312Y-111282609D02*
X125449122Y-111358800D01*
X125449122Y-111358800D02*
X125334836Y-111396895D01*
X125334836Y-111396895D02*
X125144360Y-111396895D01*
X101075312Y-105534990D02*
X100999122Y-105496895D01*
X100999122Y-105496895D02*
X100884836Y-105496895D01*
X100884836Y-105496895D02*
X100770550Y-105534990D01*
X100770550Y-105534990D02*
X100694360Y-105611180D01*
X100694360Y-105611180D02*
X100656265Y-105687371D01*
X100656265Y-105687371D02*
X100618169Y-105839752D01*
X100618169Y-105839752D02*
X100618169Y-105954038D01*
X100618169Y-105954038D02*
X100656265Y-106106419D01*
X100656265Y-106106419D02*
X100694360Y-106182609D01*
X100694360Y-106182609D02*
X100770550Y-106258800D01*
X100770550Y-106258800D02*
X100884836Y-106296895D01*
X100884836Y-106296895D02*
X100961027Y-106296895D01*
X100961027Y-106296895D02*
X101075312Y-106258800D01*
X101075312Y-106258800D02*
X101113408Y-106220704D01*
X101113408Y-106220704D02*
X101113408Y-105954038D01*
X101113408Y-105954038D02*
X100961027Y-105954038D01*
X101456265Y-106296895D02*
X101456265Y-105496895D01*
X101456265Y-105496895D02*
X101913408Y-106296895D01*
X101913408Y-106296895D02*
X101913408Y-105496895D01*
X102294360Y-106296895D02*
X102294360Y-105496895D01*
X102294360Y-105496895D02*
X102484836Y-105496895D01*
X102484836Y-105496895D02*
X102599122Y-105534990D01*
X102599122Y-105534990D02*
X102675312Y-105611180D01*
X102675312Y-105611180D02*
X102713407Y-105687371D01*
X102713407Y-105687371D02*
X102751503Y-105839752D01*
X102751503Y-105839752D02*
X102751503Y-105954038D01*
X102751503Y-105954038D02*
X102713407Y-106106419D01*
X102713407Y-106106419D02*
X102675312Y-106182609D01*
X102675312Y-106182609D02*
X102599122Y-106258800D01*
X102599122Y-106258800D02*
X102484836Y-106296895D01*
X102484836Y-106296895D02*
X102294360Y-106296895D01*
X154803884Y-113741466D02*
X155565789Y-113741466D01*
X155184836Y-114122419D02*
X155184836Y-113360514D01*
X103518169Y-106068323D02*
X103899122Y-106068323D01*
X103441979Y-106296895D02*
X103708646Y-105496895D01*
X103708646Y-105496895D02*
X103975312Y-106296895D01*
X104584836Y-105763561D02*
X104584836Y-106296895D01*
X104241979Y-105763561D02*
X104241979Y-106182609D01*
X104241979Y-106182609D02*
X104280074Y-106258800D01*
X104280074Y-106258800D02*
X104356264Y-106296895D01*
X104356264Y-106296895D02*
X104470550Y-106296895D01*
X104470550Y-106296895D02*
X104546741Y-106258800D01*
X104546741Y-106258800D02*
X104584836Y-106220704D01*
X105308646Y-106296895D02*
X105308646Y-105496895D01*
X105308646Y-106258800D02*
X105232455Y-106296895D01*
X105232455Y-106296895D02*
X105080074Y-106296895D01*
X105080074Y-106296895D02*
X105003884Y-106258800D01*
X105003884Y-106258800D02*
X104965789Y-106220704D01*
X104965789Y-106220704D02*
X104927693Y-106144514D01*
X104927693Y-106144514D02*
X104927693Y-105915942D01*
X104927693Y-105915942D02*
X104965789Y-105839752D01*
X104965789Y-105839752D02*
X105003884Y-105801657D01*
X105003884Y-105801657D02*
X105080074Y-105763561D01*
X105080074Y-105763561D02*
X105232455Y-105763561D01*
X105232455Y-105763561D02*
X105308646Y-105801657D01*
X105689599Y-106296895D02*
X105689599Y-105763561D01*
X105689599Y-105496895D02*
X105651503Y-105534990D01*
X105651503Y-105534990D02*
X105689599Y-105573085D01*
X105689599Y-105573085D02*
X105727694Y-105534990D01*
X105727694Y-105534990D02*
X105689599Y-105496895D01*
X105689599Y-105496895D02*
X105689599Y-105573085D01*
X106184836Y-106296895D02*
X106108646Y-106258800D01*
X106108646Y-106258800D02*
X106070551Y-106220704D01*
X106070551Y-106220704D02*
X106032455Y-106144514D01*
X106032455Y-106144514D02*
X106032455Y-105915942D01*
X106032455Y-105915942D02*
X106070551Y-105839752D01*
X106070551Y-105839752D02*
X106108646Y-105801657D01*
X106108646Y-105801657D02*
X106184836Y-105763561D01*
X106184836Y-105763561D02*
X106299122Y-105763561D01*
X106299122Y-105763561D02*
X106375313Y-105801657D01*
X106375313Y-105801657D02*
X106413408Y-105839752D01*
X106413408Y-105839752D02*
X106451503Y-105915942D01*
X106451503Y-105915942D02*
X106451503Y-106144514D01*
X106451503Y-106144514D02*
X106413408Y-106220704D01*
X106413408Y-106220704D02*
X106375313Y-106258800D01*
X106375313Y-106258800D02*
X106299122Y-106296895D01*
X106299122Y-106296895D02*
X106184836Y-106296895D01*
D11*
X144811905Y-114454819D02*
X144811905Y-113454819D01*
X144811905Y-113454819D02*
X145050000Y-113454819D01*
X145050000Y-113454819D02*
X145192857Y-113502438D01*
X145192857Y-113502438D02*
X145288095Y-113597676D01*
X145288095Y-113597676D02*
X145335714Y-113692914D01*
X145335714Y-113692914D02*
X145383333Y-113883390D01*
X145383333Y-113883390D02*
X145383333Y-114026247D01*
X145383333Y-114026247D02*
X145335714Y-114216723D01*
X145335714Y-114216723D02*
X145288095Y-114311961D01*
X145288095Y-114311961D02*
X145192857Y-114407200D01*
X145192857Y-114407200D02*
X145050000Y-114454819D01*
X145050000Y-114454819D02*
X144811905Y-114454819D01*
X145716667Y-113454819D02*
X146383333Y-113454819D01*
X146383333Y-113454819D02*
X145954762Y-114454819D01*
X133704819Y-119940476D02*
X133228628Y-120273809D01*
X133704819Y-120511904D02*
X132704819Y-120511904D01*
X132704819Y-120511904D02*
X132704819Y-120130952D01*
X132704819Y-120130952D02*
X132752438Y-120035714D01*
X132752438Y-120035714D02*
X132800057Y-119988095D01*
X132800057Y-119988095D02*
X132895295Y-119940476D01*
X132895295Y-119940476D02*
X133038152Y-119940476D01*
X133038152Y-119940476D02*
X133133390Y-119988095D01*
X133133390Y-119988095D02*
X133181009Y-120035714D01*
X133181009Y-120035714D02*
X133228628Y-120130952D01*
X133228628Y-120130952D02*
X133228628Y-120511904D01*
X133704819Y-119511904D02*
X132704819Y-119511904D01*
X132704819Y-119511904D02*
X133704819Y-118940476D01*
X133704819Y-118940476D02*
X132704819Y-118940476D01*
X132704819Y-118559523D02*
X132704819Y-117940476D01*
X132704819Y-117940476D02*
X133085771Y-118273809D01*
X133085771Y-118273809D02*
X133085771Y-118130952D01*
X133085771Y-118130952D02*
X133133390Y-118035714D01*
X133133390Y-118035714D02*
X133181009Y-117988095D01*
X133181009Y-117988095D02*
X133276247Y-117940476D01*
X133276247Y-117940476D02*
X133514342Y-117940476D01*
X133514342Y-117940476D02*
X133609580Y-117988095D01*
X133609580Y-117988095D02*
X133657200Y-118035714D01*
X133657200Y-118035714D02*
X133704819Y-118130952D01*
X133704819Y-118130952D02*
X133704819Y-118416666D01*
X133704819Y-118416666D02*
X133657200Y-118511904D01*
X133657200Y-118511904D02*
X133609580Y-118559523D01*
X131816666Y-108204819D02*
X131816666Y-108919104D01*
X131816666Y-108919104D02*
X131769047Y-109061961D01*
X131769047Y-109061961D02*
X131673809Y-109157200D01*
X131673809Y-109157200D02*
X131530952Y-109204819D01*
X131530952Y-109204819D02*
X131435714Y-109204819D01*
X132769047Y-108204819D02*
X132292857Y-108204819D01*
X132292857Y-108204819D02*
X132245238Y-108681009D01*
X132245238Y-108681009D02*
X132292857Y-108633390D01*
X132292857Y-108633390D02*
X132388095Y-108585771D01*
X132388095Y-108585771D02*
X132626190Y-108585771D01*
X132626190Y-108585771D02*
X132721428Y-108633390D01*
X132721428Y-108633390D02*
X132769047Y-108681009D01*
X132769047Y-108681009D02*
X132816666Y-108776247D01*
X132816666Y-108776247D02*
X132816666Y-109014342D01*
X132816666Y-109014342D02*
X132769047Y-109109580D01*
X132769047Y-109109580D02*
X132721428Y-109157200D01*
X132721428Y-109157200D02*
X132626190Y-109204819D01*
X132626190Y-109204819D02*
X132388095Y-109204819D01*
X132388095Y-109204819D02*
X132292857Y-109157200D01*
X132292857Y-109157200D02*
X132245238Y-109109580D01*
X119716666Y-107554819D02*
X119716666Y-108269104D01*
X119716666Y-108269104D02*
X119669047Y-108411961D01*
X119669047Y-108411961D02*
X119573809Y-108507200D01*
X119573809Y-108507200D02*
X119430952Y-108554819D01*
X119430952Y-108554819D02*
X119335714Y-108554819D01*
X120192857Y-108554819D02*
X120192857Y-107554819D01*
X120192857Y-107554819D02*
X120573809Y-107554819D01*
X120573809Y-107554819D02*
X120669047Y-107602438D01*
X120669047Y-107602438D02*
X120716666Y-107650057D01*
X120716666Y-107650057D02*
X120764285Y-107745295D01*
X120764285Y-107745295D02*
X120764285Y-107888152D01*
X120764285Y-107888152D02*
X120716666Y-107983390D01*
X120716666Y-107983390D02*
X120669047Y-108031009D01*
X120669047Y-108031009D02*
X120573809Y-108078628D01*
X120573809Y-108078628D02*
X120192857Y-108078628D01*
X121145238Y-107650057D02*
X121192857Y-107602438D01*
X121192857Y-107602438D02*
X121288095Y-107554819D01*
X121288095Y-107554819D02*
X121526190Y-107554819D01*
X121526190Y-107554819D02*
X121621428Y-107602438D01*
X121621428Y-107602438D02*
X121669047Y-107650057D01*
X121669047Y-107650057D02*
X121716666Y-107745295D01*
X121716666Y-107745295D02*
X121716666Y-107840533D01*
X121716666Y-107840533D02*
X121669047Y-107983390D01*
X121669047Y-107983390D02*
X121097619Y-108554819D01*
X121097619Y-108554819D02*
X121716666Y-108554819D01*
X148811905Y-114454819D02*
X148811905Y-113454819D01*
X148811905Y-113454819D02*
X149050000Y-113454819D01*
X149050000Y-113454819D02*
X149192857Y-113502438D01*
X149192857Y-113502438D02*
X149288095Y-113597676D01*
X149288095Y-113597676D02*
X149335714Y-113692914D01*
X149335714Y-113692914D02*
X149383333Y-113883390D01*
X149383333Y-113883390D02*
X149383333Y-114026247D01*
X149383333Y-114026247D02*
X149335714Y-114216723D01*
X149335714Y-114216723D02*
X149288095Y-114311961D01*
X149288095Y-114311961D02*
X149192857Y-114407200D01*
X149192857Y-114407200D02*
X149050000Y-114454819D01*
X149050000Y-114454819D02*
X148811905Y-114454819D01*
X149954762Y-113883390D02*
X149859524Y-113835771D01*
X149859524Y-113835771D02*
X149811905Y-113788152D01*
X149811905Y-113788152D02*
X149764286Y-113692914D01*
X149764286Y-113692914D02*
X149764286Y-113645295D01*
X149764286Y-113645295D02*
X149811905Y-113550057D01*
X149811905Y-113550057D02*
X149859524Y-113502438D01*
X149859524Y-113502438D02*
X149954762Y-113454819D01*
X149954762Y-113454819D02*
X150145238Y-113454819D01*
X150145238Y-113454819D02*
X150240476Y-113502438D01*
X150240476Y-113502438D02*
X150288095Y-113550057D01*
X150288095Y-113550057D02*
X150335714Y-113645295D01*
X150335714Y-113645295D02*
X150335714Y-113692914D01*
X150335714Y-113692914D02*
X150288095Y-113788152D01*
X150288095Y-113788152D02*
X150240476Y-113835771D01*
X150240476Y-113835771D02*
X150145238Y-113883390D01*
X150145238Y-113883390D02*
X149954762Y-113883390D01*
X149954762Y-113883390D02*
X149859524Y-113931009D01*
X149859524Y-113931009D02*
X149811905Y-113978628D01*
X149811905Y-113978628D02*
X149764286Y-114073866D01*
X149764286Y-114073866D02*
X149764286Y-114264342D01*
X149764286Y-114264342D02*
X149811905Y-114359580D01*
X149811905Y-114359580D02*
X149859524Y-114407200D01*
X149859524Y-114407200D02*
X149954762Y-114454819D01*
X149954762Y-114454819D02*
X150145238Y-114454819D01*
X150145238Y-114454819D02*
X150240476Y-114407200D01*
X150240476Y-114407200D02*
X150288095Y-114359580D01*
X150288095Y-114359580D02*
X150335714Y-114264342D01*
X150335714Y-114264342D02*
X150335714Y-114073866D01*
X150335714Y-114073866D02*
X150288095Y-113978628D01*
X150288095Y-113978628D02*
X150240476Y-113931009D01*
X150240476Y-113931009D02*
X150145238Y-113883390D01*
X106133333Y-105159580D02*
X106085714Y-105207200D01*
X106085714Y-105207200D02*
X105942857Y-105254819D01*
X105942857Y-105254819D02*
X105847619Y-105254819D01*
X105847619Y-105254819D02*
X105704762Y-105207200D01*
X105704762Y-105207200D02*
X105609524Y-105111961D01*
X105609524Y-105111961D02*
X105561905Y-105016723D01*
X105561905Y-105016723D02*
X105514286Y-104826247D01*
X105514286Y-104826247D02*
X105514286Y-104683390D01*
X105514286Y-104683390D02*
X105561905Y-104492914D01*
X105561905Y-104492914D02*
X105609524Y-104397676D01*
X105609524Y-104397676D02*
X105704762Y-104302438D01*
X105704762Y-104302438D02*
X105847619Y-104254819D01*
X105847619Y-104254819D02*
X105942857Y-104254819D01*
X105942857Y-104254819D02*
X106085714Y-104302438D01*
X106085714Y-104302438D02*
X106133333Y-104350057D01*
X107038095Y-104254819D02*
X106561905Y-104254819D01*
X106561905Y-104254819D02*
X106514286Y-104731009D01*
X106514286Y-104731009D02*
X106561905Y-104683390D01*
X106561905Y-104683390D02*
X106657143Y-104635771D01*
X106657143Y-104635771D02*
X106895238Y-104635771D01*
X106895238Y-104635771D02*
X106990476Y-104683390D01*
X106990476Y-104683390D02*
X107038095Y-104731009D01*
X107038095Y-104731009D02*
X107085714Y-104826247D01*
X107085714Y-104826247D02*
X107085714Y-105064342D01*
X107085714Y-105064342D02*
X107038095Y-105159580D01*
X107038095Y-105159580D02*
X106990476Y-105207200D01*
X106990476Y-105207200D02*
X106895238Y-105254819D01*
X106895238Y-105254819D02*
X106657143Y-105254819D01*
X106657143Y-105254819D02*
X106561905Y-105207200D01*
X106561905Y-105207200D02*
X106514286Y-105159580D01*
D10*
X113390476Y-113014895D02*
X113390476Y-113662514D01*
X113390476Y-113662514D02*
X113428571Y-113738704D01*
X113428571Y-113738704D02*
X113466666Y-113776800D01*
X113466666Y-113776800D02*
X113542857Y-113814895D01*
X113542857Y-113814895D02*
X113695238Y-113814895D01*
X113695238Y-113814895D02*
X113771428Y-113776800D01*
X113771428Y-113776800D02*
X113809523Y-113738704D01*
X113809523Y-113738704D02*
X113847619Y-113662514D01*
X113847619Y-113662514D02*
X113847619Y-113014895D01*
X114190475Y-113091085D02*
X114228571Y-113052990D01*
X114228571Y-113052990D02*
X114304761Y-113014895D01*
X114304761Y-113014895D02*
X114495237Y-113014895D01*
X114495237Y-113014895D02*
X114571428Y-113052990D01*
X114571428Y-113052990D02*
X114609523Y-113091085D01*
X114609523Y-113091085D02*
X114647618Y-113167276D01*
X114647618Y-113167276D02*
X114647618Y-113243466D01*
X114647618Y-113243466D02*
X114609523Y-113357752D01*
X114609523Y-113357752D02*
X114152380Y-113814895D01*
X114152380Y-113814895D02*
X114647618Y-113814895D01*
X119438704Y-112733332D02*
X119476800Y-112771428D01*
X119476800Y-112771428D02*
X119514895Y-112885713D01*
X119514895Y-112885713D02*
X119514895Y-112961904D01*
X119514895Y-112961904D02*
X119476800Y-113076190D01*
X119476800Y-113076190D02*
X119400609Y-113152380D01*
X119400609Y-113152380D02*
X119324419Y-113190475D01*
X119324419Y-113190475D02*
X119172038Y-113228571D01*
X119172038Y-113228571D02*
X119057752Y-113228571D01*
X119057752Y-113228571D02*
X118905371Y-113190475D01*
X118905371Y-113190475D02*
X118829180Y-113152380D01*
X118829180Y-113152380D02*
X118752990Y-113076190D01*
X118752990Y-113076190D02*
X118714895Y-112961904D01*
X118714895Y-112961904D02*
X118714895Y-112885713D01*
X118714895Y-112885713D02*
X118752990Y-112771428D01*
X118752990Y-112771428D02*
X118791085Y-112733332D01*
X119514895Y-111971428D02*
X119514895Y-112428571D01*
X119514895Y-112199999D02*
X118714895Y-112199999D01*
X118714895Y-112199999D02*
X118829180Y-112276190D01*
X118829180Y-112276190D02*
X118905371Y-112352380D01*
X118905371Y-112352380D02*
X118943466Y-112428571D01*
D11*
X106833333Y-110954819D02*
X106500000Y-110478628D01*
X106261905Y-110954819D02*
X106261905Y-109954819D01*
X106261905Y-109954819D02*
X106642857Y-109954819D01*
X106642857Y-109954819D02*
X106738095Y-110002438D01*
X106738095Y-110002438D02*
X106785714Y-110050057D01*
X106785714Y-110050057D02*
X106833333Y-110145295D01*
X106833333Y-110145295D02*
X106833333Y-110288152D01*
X106833333Y-110288152D02*
X106785714Y-110383390D01*
X106785714Y-110383390D02*
X106738095Y-110431009D01*
X106738095Y-110431009D02*
X106642857Y-110478628D01*
X106642857Y-110478628D02*
X106261905Y-110478628D01*
X107738095Y-109954819D02*
X107261905Y-109954819D01*
X107261905Y-109954819D02*
X107214286Y-110431009D01*
X107214286Y-110431009D02*
X107261905Y-110383390D01*
X107261905Y-110383390D02*
X107357143Y-110335771D01*
X107357143Y-110335771D02*
X107595238Y-110335771D01*
X107595238Y-110335771D02*
X107690476Y-110383390D01*
X107690476Y-110383390D02*
X107738095Y-110431009D01*
X107738095Y-110431009D02*
X107785714Y-110526247D01*
X107785714Y-110526247D02*
X107785714Y-110764342D01*
X107785714Y-110764342D02*
X107738095Y-110859580D01*
X107738095Y-110859580D02*
X107690476Y-110907200D01*
X107690476Y-110907200D02*
X107595238Y-110954819D01*
X107595238Y-110954819D02*
X107357143Y-110954819D01*
X107357143Y-110954819D02*
X107261905Y-110907200D01*
X107261905Y-110907200D02*
X107214286Y-110859580D01*
X111854819Y-116441666D02*
X111378628Y-116774999D01*
X111854819Y-117013094D02*
X110854819Y-117013094D01*
X110854819Y-117013094D02*
X110854819Y-116632142D01*
X110854819Y-116632142D02*
X110902438Y-116536904D01*
X110902438Y-116536904D02*
X110950057Y-116489285D01*
X110950057Y-116489285D02*
X111045295Y-116441666D01*
X111045295Y-116441666D02*
X111188152Y-116441666D01*
X111188152Y-116441666D02*
X111283390Y-116489285D01*
X111283390Y-116489285D02*
X111331009Y-116536904D01*
X111331009Y-116536904D02*
X111378628Y-116632142D01*
X111378628Y-116632142D02*
X111378628Y-117013094D01*
X110950057Y-116060713D02*
X110902438Y-116013094D01*
X110902438Y-116013094D02*
X110854819Y-115917856D01*
X110854819Y-115917856D02*
X110854819Y-115679761D01*
X110854819Y-115679761D02*
X110902438Y-115584523D01*
X110902438Y-115584523D02*
X110950057Y-115536904D01*
X110950057Y-115536904D02*
X111045295Y-115489285D01*
X111045295Y-115489285D02*
X111140533Y-115489285D01*
X111140533Y-115489285D02*
X111283390Y-115536904D01*
X111283390Y-115536904D02*
X111854819Y-116108332D01*
X111854819Y-116108332D02*
X111854819Y-115489285D01*
X151366666Y-109654819D02*
X151366666Y-110369104D01*
X151366666Y-110369104D02*
X151319047Y-110511961D01*
X151319047Y-110511961D02*
X151223809Y-110607200D01*
X151223809Y-110607200D02*
X151080952Y-110654819D01*
X151080952Y-110654819D02*
X150985714Y-110654819D01*
X151842857Y-110654819D02*
X151842857Y-109654819D01*
X151842857Y-109654819D02*
X152223809Y-109654819D01*
X152223809Y-109654819D02*
X152319047Y-109702438D01*
X152319047Y-109702438D02*
X152366666Y-109750057D01*
X152366666Y-109750057D02*
X152414285Y-109845295D01*
X152414285Y-109845295D02*
X152414285Y-109988152D01*
X152414285Y-109988152D02*
X152366666Y-110083390D01*
X152366666Y-110083390D02*
X152319047Y-110131009D01*
X152319047Y-110131009D02*
X152223809Y-110178628D01*
X152223809Y-110178628D02*
X151842857Y-110178628D01*
X152747619Y-109654819D02*
X153366666Y-109654819D01*
X153366666Y-109654819D02*
X153033333Y-110035771D01*
X153033333Y-110035771D02*
X153176190Y-110035771D01*
X153176190Y-110035771D02*
X153271428Y-110083390D01*
X153271428Y-110083390D02*
X153319047Y-110131009D01*
X153319047Y-110131009D02*
X153366666Y-110226247D01*
X153366666Y-110226247D02*
X153366666Y-110464342D01*
X153366666Y-110464342D02*
X153319047Y-110559580D01*
X153319047Y-110559580D02*
X153271428Y-110607200D01*
X153271428Y-110607200D02*
X153176190Y-110654819D01*
X153176190Y-110654819D02*
X152890476Y-110654819D01*
X152890476Y-110654819D02*
X152795238Y-110607200D01*
X152795238Y-110607200D02*
X152747619Y-110559580D01*
X149885714Y-112454819D02*
X149314286Y-112454819D01*
X149600000Y-112454819D02*
X149600000Y-111454819D01*
X149600000Y-111454819D02*
X149504762Y-111597676D01*
X149504762Y-111597676D02*
X149409524Y-111692914D01*
X149409524Y-111692914D02*
X149314286Y-111740533D01*
X154466667Y-111454819D02*
X155085714Y-111454819D01*
X155085714Y-111454819D02*
X154752381Y-111835771D01*
X154752381Y-111835771D02*
X154895238Y-111835771D01*
X154895238Y-111835771D02*
X154990476Y-111883390D01*
X154990476Y-111883390D02*
X155038095Y-111931009D01*
X155038095Y-111931009D02*
X155085714Y-112026247D01*
X155085714Y-112026247D02*
X155085714Y-112264342D01*
X155085714Y-112264342D02*
X155038095Y-112359580D01*
X155038095Y-112359580D02*
X154990476Y-112407200D01*
X154990476Y-112407200D02*
X154895238Y-112454819D01*
X154895238Y-112454819D02*
X154609524Y-112454819D01*
X154609524Y-112454819D02*
X154514286Y-112407200D01*
X154514286Y-112407200D02*
X154466667Y-112359580D01*
X123454819Y-119940476D02*
X122978628Y-120273809D01*
X123454819Y-120511904D02*
X122454819Y-120511904D01*
X122454819Y-120511904D02*
X122454819Y-120130952D01*
X122454819Y-120130952D02*
X122502438Y-120035714D01*
X122502438Y-120035714D02*
X122550057Y-119988095D01*
X122550057Y-119988095D02*
X122645295Y-119940476D01*
X122645295Y-119940476D02*
X122788152Y-119940476D01*
X122788152Y-119940476D02*
X122883390Y-119988095D01*
X122883390Y-119988095D02*
X122931009Y-120035714D01*
X122931009Y-120035714D02*
X122978628Y-120130952D01*
X122978628Y-120130952D02*
X122978628Y-120511904D01*
X123454819Y-119511904D02*
X122454819Y-119511904D01*
X122454819Y-119511904D02*
X123454819Y-118940476D01*
X123454819Y-118940476D02*
X122454819Y-118940476D01*
X123454819Y-117940476D02*
X123454819Y-118511904D01*
X123454819Y-118226190D02*
X122454819Y-118226190D01*
X122454819Y-118226190D02*
X122597676Y-118321428D01*
X122597676Y-118321428D02*
X122692914Y-118416666D01*
X122692914Y-118416666D02*
X122740533Y-118511904D01*
X113354819Y-110866666D02*
X112878628Y-111199999D01*
X113354819Y-111438094D02*
X112354819Y-111438094D01*
X112354819Y-111438094D02*
X112354819Y-111057142D01*
X112354819Y-111057142D02*
X112402438Y-110961904D01*
X112402438Y-110961904D02*
X112450057Y-110914285D01*
X112450057Y-110914285D02*
X112545295Y-110866666D01*
X112545295Y-110866666D02*
X112688152Y-110866666D01*
X112688152Y-110866666D02*
X112783390Y-110914285D01*
X112783390Y-110914285D02*
X112831009Y-110961904D01*
X112831009Y-110961904D02*
X112878628Y-111057142D01*
X112878628Y-111057142D02*
X112878628Y-111438094D01*
X112354819Y-110533332D02*
X112354819Y-109914285D01*
X112354819Y-109914285D02*
X112735771Y-110247618D01*
X112735771Y-110247618D02*
X112735771Y-110104761D01*
X112735771Y-110104761D02*
X112783390Y-110009523D01*
X112783390Y-110009523D02*
X112831009Y-109961904D01*
X112831009Y-109961904D02*
X112926247Y-109914285D01*
X112926247Y-109914285D02*
X113164342Y-109914285D01*
X113164342Y-109914285D02*
X113259580Y-109961904D01*
X113259580Y-109961904D02*
X113307200Y-110009523D01*
X113307200Y-110009523D02*
X113354819Y-110104761D01*
X113354819Y-110104761D02*
X113354819Y-110390475D01*
X113354819Y-110390475D02*
X113307200Y-110485713D01*
X113307200Y-110485713D02*
X113259580Y-110533332D01*
X144454819Y-119940476D02*
X143978628Y-120273809D01*
X144454819Y-120511904D02*
X143454819Y-120511904D01*
X143454819Y-120511904D02*
X143454819Y-120130952D01*
X143454819Y-120130952D02*
X143502438Y-120035714D01*
X143502438Y-120035714D02*
X143550057Y-119988095D01*
X143550057Y-119988095D02*
X143645295Y-119940476D01*
X143645295Y-119940476D02*
X143788152Y-119940476D01*
X143788152Y-119940476D02*
X143883390Y-119988095D01*
X143883390Y-119988095D02*
X143931009Y-120035714D01*
X143931009Y-120035714D02*
X143978628Y-120130952D01*
X143978628Y-120130952D02*
X143978628Y-120511904D01*
X144454819Y-119511904D02*
X143454819Y-119511904D01*
X143454819Y-119511904D02*
X144454819Y-118940476D01*
X144454819Y-118940476D02*
X143454819Y-118940476D01*
X143454819Y-117988095D02*
X143454819Y-118464285D01*
X143454819Y-118464285D02*
X143931009Y-118511904D01*
X143931009Y-118511904D02*
X143883390Y-118464285D01*
X143883390Y-118464285D02*
X143835771Y-118369047D01*
X143835771Y-118369047D02*
X143835771Y-118130952D01*
X143835771Y-118130952D02*
X143883390Y-118035714D01*
X143883390Y-118035714D02*
X143931009Y-117988095D01*
X143931009Y-117988095D02*
X144026247Y-117940476D01*
X144026247Y-117940476D02*
X144264342Y-117940476D01*
X144264342Y-117940476D02*
X144359580Y-117988095D01*
X144359580Y-117988095D02*
X144407200Y-118035714D01*
X144407200Y-118035714D02*
X144454819Y-118130952D01*
X144454819Y-118130952D02*
X144454819Y-118369047D01*
X144454819Y-118369047D02*
X144407200Y-118464285D01*
X144407200Y-118464285D02*
X144359580Y-118511904D01*
X124261905Y-114454819D02*
X124261905Y-113454819D01*
X124261905Y-113454819D02*
X124500000Y-113454819D01*
X124500000Y-113454819D02*
X124642857Y-113502438D01*
X124642857Y-113502438D02*
X124738095Y-113597676D01*
X124738095Y-113597676D02*
X124785714Y-113692914D01*
X124785714Y-113692914D02*
X124833333Y-113883390D01*
X124833333Y-113883390D02*
X124833333Y-114026247D01*
X124833333Y-114026247D02*
X124785714Y-114216723D01*
X124785714Y-114216723D02*
X124738095Y-114311961D01*
X124738095Y-114311961D02*
X124642857Y-114407200D01*
X124642857Y-114407200D02*
X124500000Y-114454819D01*
X124500000Y-114454819D02*
X124261905Y-114454819D01*
X125214286Y-113550057D02*
X125261905Y-113502438D01*
X125261905Y-113502438D02*
X125357143Y-113454819D01*
X125357143Y-113454819D02*
X125595238Y-113454819D01*
X125595238Y-113454819D02*
X125690476Y-113502438D01*
X125690476Y-113502438D02*
X125738095Y-113550057D01*
X125738095Y-113550057D02*
X125785714Y-113645295D01*
X125785714Y-113645295D02*
X125785714Y-113740533D01*
X125785714Y-113740533D02*
X125738095Y-113883390D01*
X125738095Y-113883390D02*
X125166667Y-114454819D01*
X125166667Y-114454819D02*
X125785714Y-114454819D01*
X113733333Y-107359580D02*
X113685714Y-107407200D01*
X113685714Y-107407200D02*
X113542857Y-107454819D01*
X113542857Y-107454819D02*
X113447619Y-107454819D01*
X113447619Y-107454819D02*
X113304762Y-107407200D01*
X113304762Y-107407200D02*
X113209524Y-107311961D01*
X113209524Y-107311961D02*
X113161905Y-107216723D01*
X113161905Y-107216723D02*
X113114286Y-107026247D01*
X113114286Y-107026247D02*
X113114286Y-106883390D01*
X113114286Y-106883390D02*
X113161905Y-106692914D01*
X113161905Y-106692914D02*
X113209524Y-106597676D01*
X113209524Y-106597676D02*
X113304762Y-106502438D01*
X113304762Y-106502438D02*
X113447619Y-106454819D01*
X113447619Y-106454819D02*
X113542857Y-106454819D01*
X113542857Y-106454819D02*
X113685714Y-106502438D01*
X113685714Y-106502438D02*
X113733333Y-106550057D01*
X114590476Y-106788152D02*
X114590476Y-107454819D01*
X114352381Y-106407200D02*
X114114286Y-107121485D01*
X114114286Y-107121485D02*
X114733333Y-107121485D01*
D10*
X105216666Y-114457419D02*
X105216666Y-115171704D01*
X105216666Y-115171704D02*
X105169047Y-115314561D01*
X105169047Y-115314561D02*
X105073809Y-115409800D01*
X105073809Y-115409800D02*
X104930952Y-115457419D01*
X104930952Y-115457419D02*
X104835714Y-115457419D01*
X105597619Y-114457419D02*
X106216666Y-114457419D01*
X106216666Y-114457419D02*
X105883333Y-114838371D01*
X105883333Y-114838371D02*
X106026190Y-114838371D01*
X106026190Y-114838371D02*
X106121428Y-114885990D01*
X106121428Y-114885990D02*
X106169047Y-114933609D01*
X106169047Y-114933609D02*
X106216666Y-115028847D01*
X106216666Y-115028847D02*
X106216666Y-115266942D01*
X106216666Y-115266942D02*
X106169047Y-115362180D01*
X106169047Y-115362180D02*
X106121428Y-115409800D01*
X106121428Y-115409800D02*
X106026190Y-115457419D01*
X106026190Y-115457419D02*
X105740476Y-115457419D01*
X105740476Y-115457419D02*
X105645238Y-115409800D01*
X105645238Y-115409800D02*
X105597619Y-115362180D01*
X115788704Y-111133332D02*
X115826800Y-111171428D01*
X115826800Y-111171428D02*
X115864895Y-111285713D01*
X115864895Y-111285713D02*
X115864895Y-111361904D01*
X115864895Y-111361904D02*
X115826800Y-111476190D01*
X115826800Y-111476190D02*
X115750609Y-111552380D01*
X115750609Y-111552380D02*
X115674419Y-111590475D01*
X115674419Y-111590475D02*
X115522038Y-111628571D01*
X115522038Y-111628571D02*
X115407752Y-111628571D01*
X115407752Y-111628571D02*
X115255371Y-111590475D01*
X115255371Y-111590475D02*
X115179180Y-111552380D01*
X115179180Y-111552380D02*
X115102990Y-111476190D01*
X115102990Y-111476190D02*
X115064895Y-111361904D01*
X115064895Y-111361904D02*
X115064895Y-111285713D01*
X115064895Y-111285713D02*
X115102990Y-111171428D01*
X115102990Y-111171428D02*
X115141085Y-111133332D01*
X115064895Y-110866666D02*
X115064895Y-110371428D01*
X115064895Y-110371428D02*
X115369657Y-110638094D01*
X115369657Y-110638094D02*
X115369657Y-110523809D01*
X115369657Y-110523809D02*
X115407752Y-110447618D01*
X115407752Y-110447618D02*
X115445847Y-110409523D01*
X115445847Y-110409523D02*
X115522038Y-110371428D01*
X115522038Y-110371428D02*
X115712514Y-110371428D01*
X115712514Y-110371428D02*
X115788704Y-110409523D01*
X115788704Y-110409523D02*
X115826800Y-110447618D01*
X115826800Y-110447618D02*
X115864895Y-110523809D01*
X115864895Y-110523809D02*
X115864895Y-110752380D01*
X115864895Y-110752380D02*
X115826800Y-110828571D01*
X115826800Y-110828571D02*
X115788704Y-110866666D01*
D11*
X140811905Y-114454819D02*
X140811905Y-113454819D01*
X140811905Y-113454819D02*
X141050000Y-113454819D01*
X141050000Y-113454819D02*
X141192857Y-113502438D01*
X141192857Y-113502438D02*
X141288095Y-113597676D01*
X141288095Y-113597676D02*
X141335714Y-113692914D01*
X141335714Y-113692914D02*
X141383333Y-113883390D01*
X141383333Y-113883390D02*
X141383333Y-114026247D01*
X141383333Y-114026247D02*
X141335714Y-114216723D01*
X141335714Y-114216723D02*
X141288095Y-114311961D01*
X141288095Y-114311961D02*
X141192857Y-114407200D01*
X141192857Y-114407200D02*
X141050000Y-114454819D01*
X141050000Y-114454819D02*
X140811905Y-114454819D01*
X142240476Y-113454819D02*
X142050000Y-113454819D01*
X142050000Y-113454819D02*
X141954762Y-113502438D01*
X141954762Y-113502438D02*
X141907143Y-113550057D01*
X141907143Y-113550057D02*
X141811905Y-113692914D01*
X141811905Y-113692914D02*
X141764286Y-113883390D01*
X141764286Y-113883390D02*
X141764286Y-114264342D01*
X141764286Y-114264342D02*
X141811905Y-114359580D01*
X141811905Y-114359580D02*
X141859524Y-114407200D01*
X141859524Y-114407200D02*
X141954762Y-114454819D01*
X141954762Y-114454819D02*
X142145238Y-114454819D01*
X142145238Y-114454819D02*
X142240476Y-114407200D01*
X142240476Y-114407200D02*
X142288095Y-114359580D01*
X142288095Y-114359580D02*
X142335714Y-114264342D01*
X142335714Y-114264342D02*
X142335714Y-114026247D01*
X142335714Y-114026247D02*
X142288095Y-113931009D01*
X142288095Y-113931009D02*
X142240476Y-113883390D01*
X142240476Y-113883390D02*
X142145238Y-113835771D01*
X142145238Y-113835771D02*
X141954762Y-113835771D01*
X141954762Y-113835771D02*
X141859524Y-113883390D01*
X141859524Y-113883390D02*
X141811905Y-113931009D01*
X141811905Y-113931009D02*
X141764286Y-114026247D01*
X152461905Y-114454819D02*
X152461905Y-113454819D01*
X152461905Y-113454819D02*
X152700000Y-113454819D01*
X152700000Y-113454819D02*
X152842857Y-113502438D01*
X152842857Y-113502438D02*
X152938095Y-113597676D01*
X152938095Y-113597676D02*
X152985714Y-113692914D01*
X152985714Y-113692914D02*
X153033333Y-113883390D01*
X153033333Y-113883390D02*
X153033333Y-114026247D01*
X153033333Y-114026247D02*
X152985714Y-114216723D01*
X152985714Y-114216723D02*
X152938095Y-114311961D01*
X152938095Y-114311961D02*
X152842857Y-114407200D01*
X152842857Y-114407200D02*
X152700000Y-114454819D01*
X152700000Y-114454819D02*
X152461905Y-114454819D01*
X153509524Y-114454819D02*
X153700000Y-114454819D01*
X153700000Y-114454819D02*
X153795238Y-114407200D01*
X153795238Y-114407200D02*
X153842857Y-114359580D01*
X153842857Y-114359580D02*
X153938095Y-114216723D01*
X153938095Y-114216723D02*
X153985714Y-114026247D01*
X153985714Y-114026247D02*
X153985714Y-113645295D01*
X153985714Y-113645295D02*
X153938095Y-113550057D01*
X153938095Y-113550057D02*
X153890476Y-113502438D01*
X153890476Y-113502438D02*
X153795238Y-113454819D01*
X153795238Y-113454819D02*
X153604762Y-113454819D01*
X153604762Y-113454819D02*
X153509524Y-113502438D01*
X153509524Y-113502438D02*
X153461905Y-113550057D01*
X153461905Y-113550057D02*
X153414286Y-113645295D01*
X153414286Y-113645295D02*
X153414286Y-113883390D01*
X153414286Y-113883390D02*
X153461905Y-113978628D01*
X153461905Y-113978628D02*
X153509524Y-114026247D01*
X153509524Y-114026247D02*
X153604762Y-114073866D01*
X153604762Y-114073866D02*
X153795238Y-114073866D01*
X153795238Y-114073866D02*
X153890476Y-114026247D01*
X153890476Y-114026247D02*
X153938095Y-113978628D01*
X153938095Y-113978628D02*
X153985714Y-113883390D01*
X119666666Y-110054819D02*
X119666666Y-110769104D01*
X119666666Y-110769104D02*
X119619047Y-110911961D01*
X119619047Y-110911961D02*
X119523809Y-111007200D01*
X119523809Y-111007200D02*
X119380952Y-111054819D01*
X119380952Y-111054819D02*
X119285714Y-111054819D01*
X120142857Y-111054819D02*
X120142857Y-110054819D01*
X120142857Y-110054819D02*
X120523809Y-110054819D01*
X120523809Y-110054819D02*
X120619047Y-110102438D01*
X120619047Y-110102438D02*
X120666666Y-110150057D01*
X120666666Y-110150057D02*
X120714285Y-110245295D01*
X120714285Y-110245295D02*
X120714285Y-110388152D01*
X120714285Y-110388152D02*
X120666666Y-110483390D01*
X120666666Y-110483390D02*
X120619047Y-110531009D01*
X120619047Y-110531009D02*
X120523809Y-110578628D01*
X120523809Y-110578628D02*
X120142857Y-110578628D01*
X121666666Y-111054819D02*
X121095238Y-111054819D01*
X121380952Y-111054819D02*
X121380952Y-110054819D01*
X121380952Y-110054819D02*
X121285714Y-110197676D01*
X121285714Y-110197676D02*
X121190476Y-110292914D01*
X121190476Y-110292914D02*
X121095238Y-110340533D01*
X112784580Y-119916666D02*
X112832200Y-119964285D01*
X112832200Y-119964285D02*
X112879819Y-120107142D01*
X112879819Y-120107142D02*
X112879819Y-120202380D01*
X112879819Y-120202380D02*
X112832200Y-120345237D01*
X112832200Y-120345237D02*
X112736961Y-120440475D01*
X112736961Y-120440475D02*
X112641723Y-120488094D01*
X112641723Y-120488094D02*
X112451247Y-120535713D01*
X112451247Y-120535713D02*
X112308390Y-120535713D01*
X112308390Y-120535713D02*
X112117914Y-120488094D01*
X112117914Y-120488094D02*
X112022676Y-120440475D01*
X112022676Y-120440475D02*
X111927438Y-120345237D01*
X111927438Y-120345237D02*
X111879819Y-120202380D01*
X111879819Y-120202380D02*
X111879819Y-120107142D01*
X111879819Y-120107142D02*
X111927438Y-119964285D01*
X111927438Y-119964285D02*
X111975057Y-119916666D01*
X111975057Y-119535713D02*
X111927438Y-119488094D01*
X111927438Y-119488094D02*
X111879819Y-119392856D01*
X111879819Y-119392856D02*
X111879819Y-119154761D01*
X111879819Y-119154761D02*
X111927438Y-119059523D01*
X111927438Y-119059523D02*
X111975057Y-119011904D01*
X111975057Y-119011904D02*
X112070295Y-118964285D01*
X112070295Y-118964285D02*
X112165533Y-118964285D01*
X112165533Y-118964285D02*
X112308390Y-119011904D01*
X112308390Y-119011904D02*
X112879819Y-119583332D01*
X112879819Y-119583332D02*
X112879819Y-118964285D01*
X132861905Y-114454819D02*
X132861905Y-113454819D01*
X132861905Y-113454819D02*
X133100000Y-113454819D01*
X133100000Y-113454819D02*
X133242857Y-113502438D01*
X133242857Y-113502438D02*
X133338095Y-113597676D01*
X133338095Y-113597676D02*
X133385714Y-113692914D01*
X133385714Y-113692914D02*
X133433333Y-113883390D01*
X133433333Y-113883390D02*
X133433333Y-114026247D01*
X133433333Y-114026247D02*
X133385714Y-114216723D01*
X133385714Y-114216723D02*
X133338095Y-114311961D01*
X133338095Y-114311961D02*
X133242857Y-114407200D01*
X133242857Y-114407200D02*
X133100000Y-114454819D01*
X133100000Y-114454819D02*
X132861905Y-114454819D01*
X134290476Y-113788152D02*
X134290476Y-114454819D01*
X134052381Y-113407200D02*
X133814286Y-114121485D01*
X133814286Y-114121485D02*
X134433333Y-114121485D01*
X120261905Y-114454819D02*
X120261905Y-113454819D01*
X120261905Y-113454819D02*
X120500000Y-113454819D01*
X120500000Y-113454819D02*
X120642857Y-113502438D01*
X120642857Y-113502438D02*
X120738095Y-113597676D01*
X120738095Y-113597676D02*
X120785714Y-113692914D01*
X120785714Y-113692914D02*
X120833333Y-113883390D01*
X120833333Y-113883390D02*
X120833333Y-114026247D01*
X120833333Y-114026247D02*
X120785714Y-114216723D01*
X120785714Y-114216723D02*
X120738095Y-114311961D01*
X120738095Y-114311961D02*
X120642857Y-114407200D01*
X120642857Y-114407200D02*
X120500000Y-114454819D01*
X120500000Y-114454819D02*
X120261905Y-114454819D01*
X121785714Y-114454819D02*
X121214286Y-114454819D01*
X121500000Y-114454819D02*
X121500000Y-113454819D01*
X121500000Y-113454819D02*
X121404762Y-113597676D01*
X121404762Y-113597676D02*
X121309524Y-113692914D01*
X121309524Y-113692914D02*
X121214286Y-113740533D01*
X149954819Y-119940476D02*
X149478628Y-120273809D01*
X149954819Y-120511904D02*
X148954819Y-120511904D01*
X148954819Y-120511904D02*
X148954819Y-120130952D01*
X148954819Y-120130952D02*
X149002438Y-120035714D01*
X149002438Y-120035714D02*
X149050057Y-119988095D01*
X149050057Y-119988095D02*
X149145295Y-119940476D01*
X149145295Y-119940476D02*
X149288152Y-119940476D01*
X149288152Y-119940476D02*
X149383390Y-119988095D01*
X149383390Y-119988095D02*
X149431009Y-120035714D01*
X149431009Y-120035714D02*
X149478628Y-120130952D01*
X149478628Y-120130952D02*
X149478628Y-120511904D01*
X149954819Y-119511904D02*
X148954819Y-119511904D01*
X148954819Y-119511904D02*
X149954819Y-118940476D01*
X149954819Y-118940476D02*
X148954819Y-118940476D01*
X148954819Y-118035714D02*
X148954819Y-118226190D01*
X148954819Y-118226190D02*
X149002438Y-118321428D01*
X149002438Y-118321428D02*
X149050057Y-118369047D01*
X149050057Y-118369047D02*
X149192914Y-118464285D01*
X149192914Y-118464285D02*
X149383390Y-118511904D01*
X149383390Y-118511904D02*
X149764342Y-118511904D01*
X149764342Y-118511904D02*
X149859580Y-118464285D01*
X149859580Y-118464285D02*
X149907200Y-118416666D01*
X149907200Y-118416666D02*
X149954819Y-118321428D01*
X149954819Y-118321428D02*
X149954819Y-118130952D01*
X149954819Y-118130952D02*
X149907200Y-118035714D01*
X149907200Y-118035714D02*
X149859580Y-117988095D01*
X149859580Y-117988095D02*
X149764342Y-117940476D01*
X149764342Y-117940476D02*
X149526247Y-117940476D01*
X149526247Y-117940476D02*
X149431009Y-117988095D01*
X149431009Y-117988095D02*
X149383390Y-118035714D01*
X149383390Y-118035714D02*
X149335771Y-118130952D01*
X149335771Y-118130952D02*
X149335771Y-118321428D01*
X149335771Y-118321428D02*
X149383390Y-118416666D01*
X149383390Y-118416666D02*
X149431009Y-118464285D01*
X149431009Y-118464285D02*
X149526247Y-118511904D01*
X103666666Y-109954819D02*
X103666666Y-110669104D01*
X103666666Y-110669104D02*
X103619047Y-110811961D01*
X103619047Y-110811961D02*
X103523809Y-110907200D01*
X103523809Y-110907200D02*
X103380952Y-110954819D01*
X103380952Y-110954819D02*
X103285714Y-110954819D01*
X104571428Y-110288152D02*
X104571428Y-110954819D01*
X104333333Y-109907200D02*
X104095238Y-110621485D01*
X104095238Y-110621485D02*
X104714285Y-110621485D01*
X128811905Y-114454819D02*
X128811905Y-113454819D01*
X128811905Y-113454819D02*
X129050000Y-113454819D01*
X129050000Y-113454819D02*
X129192857Y-113502438D01*
X129192857Y-113502438D02*
X129288095Y-113597676D01*
X129288095Y-113597676D02*
X129335714Y-113692914D01*
X129335714Y-113692914D02*
X129383333Y-113883390D01*
X129383333Y-113883390D02*
X129383333Y-114026247D01*
X129383333Y-114026247D02*
X129335714Y-114216723D01*
X129335714Y-114216723D02*
X129288095Y-114311961D01*
X129288095Y-114311961D02*
X129192857Y-114407200D01*
X129192857Y-114407200D02*
X129050000Y-114454819D01*
X129050000Y-114454819D02*
X128811905Y-114454819D01*
X129716667Y-113454819D02*
X130335714Y-113454819D01*
X130335714Y-113454819D02*
X130002381Y-113835771D01*
X130002381Y-113835771D02*
X130145238Y-113835771D01*
X130145238Y-113835771D02*
X130240476Y-113883390D01*
X130240476Y-113883390D02*
X130288095Y-113931009D01*
X130288095Y-113931009D02*
X130335714Y-114026247D01*
X130335714Y-114026247D02*
X130335714Y-114264342D01*
X130335714Y-114264342D02*
X130288095Y-114359580D01*
X130288095Y-114359580D02*
X130240476Y-114407200D01*
X130240476Y-114407200D02*
X130145238Y-114454819D01*
X130145238Y-114454819D02*
X129859524Y-114454819D01*
X129859524Y-114454819D02*
X129764286Y-114407200D01*
X129764286Y-114407200D02*
X129716667Y-114359580D01*
X163266666Y-109454819D02*
X163266666Y-110169104D01*
X163266666Y-110169104D02*
X163219047Y-110311961D01*
X163219047Y-110311961D02*
X163123809Y-110407200D01*
X163123809Y-110407200D02*
X162980952Y-110454819D01*
X162980952Y-110454819D02*
X162885714Y-110454819D01*
X164171428Y-109454819D02*
X163980952Y-109454819D01*
X163980952Y-109454819D02*
X163885714Y-109502438D01*
X163885714Y-109502438D02*
X163838095Y-109550057D01*
X163838095Y-109550057D02*
X163742857Y-109692914D01*
X163742857Y-109692914D02*
X163695238Y-109883390D01*
X163695238Y-109883390D02*
X163695238Y-110264342D01*
X163695238Y-110264342D02*
X163742857Y-110359580D01*
X163742857Y-110359580D02*
X163790476Y-110407200D01*
X163790476Y-110407200D02*
X163885714Y-110454819D01*
X163885714Y-110454819D02*
X164076190Y-110454819D01*
X164076190Y-110454819D02*
X164171428Y-110407200D01*
X164171428Y-110407200D02*
X164219047Y-110359580D01*
X164219047Y-110359580D02*
X164266666Y-110264342D01*
X164266666Y-110264342D02*
X164266666Y-110026247D01*
X164266666Y-110026247D02*
X164219047Y-109931009D01*
X164219047Y-109931009D02*
X164171428Y-109883390D01*
X164171428Y-109883390D02*
X164076190Y-109835771D01*
X164076190Y-109835771D02*
X163885714Y-109835771D01*
X163885714Y-109835771D02*
X163790476Y-109883390D01*
X163790476Y-109883390D02*
X163742857Y-109931009D01*
X163742857Y-109931009D02*
X163695238Y-110026247D01*
X128454819Y-119940476D02*
X127978628Y-120273809D01*
X128454819Y-120511904D02*
X127454819Y-120511904D01*
X127454819Y-120511904D02*
X127454819Y-120130952D01*
X127454819Y-120130952D02*
X127502438Y-120035714D01*
X127502438Y-120035714D02*
X127550057Y-119988095D01*
X127550057Y-119988095D02*
X127645295Y-119940476D01*
X127645295Y-119940476D02*
X127788152Y-119940476D01*
X127788152Y-119940476D02*
X127883390Y-119988095D01*
X127883390Y-119988095D02*
X127931009Y-120035714D01*
X127931009Y-120035714D02*
X127978628Y-120130952D01*
X127978628Y-120130952D02*
X127978628Y-120511904D01*
X128454819Y-119511904D02*
X127454819Y-119511904D01*
X127454819Y-119511904D02*
X128454819Y-118940476D01*
X128454819Y-118940476D02*
X127454819Y-118940476D01*
X127550057Y-118511904D02*
X127502438Y-118464285D01*
X127502438Y-118464285D02*
X127454819Y-118369047D01*
X127454819Y-118369047D02*
X127454819Y-118130952D01*
X127454819Y-118130952D02*
X127502438Y-118035714D01*
X127502438Y-118035714D02*
X127550057Y-117988095D01*
X127550057Y-117988095D02*
X127645295Y-117940476D01*
X127645295Y-117940476D02*
X127740533Y-117940476D01*
X127740533Y-117940476D02*
X127883390Y-117988095D01*
X127883390Y-117988095D02*
X128454819Y-118559523D01*
X128454819Y-118559523D02*
X128454819Y-117940476D01*
X116838095Y-119254819D02*
X116838095Y-120064342D01*
X116838095Y-120064342D02*
X116885714Y-120159580D01*
X116885714Y-120159580D02*
X116933333Y-120207200D01*
X116933333Y-120207200D02*
X117028571Y-120254819D01*
X117028571Y-120254819D02*
X117219047Y-120254819D01*
X117219047Y-120254819D02*
X117314285Y-120207200D01*
X117314285Y-120207200D02*
X117361904Y-120159580D01*
X117361904Y-120159580D02*
X117409523Y-120064342D01*
X117409523Y-120064342D02*
X117409523Y-119254819D01*
X118409523Y-120254819D02*
X117838095Y-120254819D01*
X118123809Y-120254819D02*
X118123809Y-119254819D01*
X118123809Y-119254819D02*
X118028571Y-119397676D01*
X118028571Y-119397676D02*
X117933333Y-119492914D01*
X117933333Y-119492914D02*
X117838095Y-119540533D01*
X105666666Y-128654819D02*
X105666666Y-129369104D01*
X105666666Y-129369104D02*
X105619047Y-129511961D01*
X105619047Y-129511961D02*
X105523809Y-129607200D01*
X105523809Y-129607200D02*
X105380952Y-129654819D01*
X105380952Y-129654819D02*
X105285714Y-129654819D01*
X106666666Y-129654819D02*
X106095238Y-129654819D01*
X106380952Y-129654819D02*
X106380952Y-128654819D01*
X106380952Y-128654819D02*
X106285714Y-128797676D01*
X106285714Y-128797676D02*
X106190476Y-128892914D01*
X106190476Y-128892914D02*
X106095238Y-128940533D01*
X113833333Y-108754819D02*
X113500000Y-108278628D01*
X113261905Y-108754819D02*
X113261905Y-107754819D01*
X113261905Y-107754819D02*
X113642857Y-107754819D01*
X113642857Y-107754819D02*
X113738095Y-107802438D01*
X113738095Y-107802438D02*
X113785714Y-107850057D01*
X113785714Y-107850057D02*
X113833333Y-107945295D01*
X113833333Y-107945295D02*
X113833333Y-108088152D01*
X113833333Y-108088152D02*
X113785714Y-108183390D01*
X113785714Y-108183390D02*
X113738095Y-108231009D01*
X113738095Y-108231009D02*
X113642857Y-108278628D01*
X113642857Y-108278628D02*
X113261905Y-108278628D01*
X114690476Y-108088152D02*
X114690476Y-108754819D01*
X114452381Y-107707200D02*
X114214286Y-108421485D01*
X114214286Y-108421485D02*
X114833333Y-108421485D01*
X136811905Y-114454819D02*
X136811905Y-113454819D01*
X136811905Y-113454819D02*
X137050000Y-113454819D01*
X137050000Y-113454819D02*
X137192857Y-113502438D01*
X137192857Y-113502438D02*
X137288095Y-113597676D01*
X137288095Y-113597676D02*
X137335714Y-113692914D01*
X137335714Y-113692914D02*
X137383333Y-113883390D01*
X137383333Y-113883390D02*
X137383333Y-114026247D01*
X137383333Y-114026247D02*
X137335714Y-114216723D01*
X137335714Y-114216723D02*
X137288095Y-114311961D01*
X137288095Y-114311961D02*
X137192857Y-114407200D01*
X137192857Y-114407200D02*
X137050000Y-114454819D01*
X137050000Y-114454819D02*
X136811905Y-114454819D01*
X138288095Y-113454819D02*
X137811905Y-113454819D01*
X137811905Y-113454819D02*
X137764286Y-113931009D01*
X137764286Y-113931009D02*
X137811905Y-113883390D01*
X137811905Y-113883390D02*
X137907143Y-113835771D01*
X137907143Y-113835771D02*
X138145238Y-113835771D01*
X138145238Y-113835771D02*
X138240476Y-113883390D01*
X138240476Y-113883390D02*
X138288095Y-113931009D01*
X138288095Y-113931009D02*
X138335714Y-114026247D01*
X138335714Y-114026247D02*
X138335714Y-114264342D01*
X138335714Y-114264342D02*
X138288095Y-114359580D01*
X138288095Y-114359580D02*
X138240476Y-114407200D01*
X138240476Y-114407200D02*
X138145238Y-114454819D01*
X138145238Y-114454819D02*
X137907143Y-114454819D01*
X137907143Y-114454819D02*
X137811905Y-114407200D01*
X137811905Y-114407200D02*
X137764286Y-114359580D01*
X110654819Y-116366666D02*
X110178628Y-116699999D01*
X110654819Y-116938094D02*
X109654819Y-116938094D01*
X109654819Y-116938094D02*
X109654819Y-116557142D01*
X109654819Y-116557142D02*
X109702438Y-116461904D01*
X109702438Y-116461904D02*
X109750057Y-116414285D01*
X109750057Y-116414285D02*
X109845295Y-116366666D01*
X109845295Y-116366666D02*
X109988152Y-116366666D01*
X109988152Y-116366666D02*
X110083390Y-116414285D01*
X110083390Y-116414285D02*
X110131009Y-116461904D01*
X110131009Y-116461904D02*
X110178628Y-116557142D01*
X110178628Y-116557142D02*
X110178628Y-116938094D01*
X110654819Y-115414285D02*
X110654819Y-115985713D01*
X110654819Y-115699999D02*
X109654819Y-115699999D01*
X109654819Y-115699999D02*
X109797676Y-115795237D01*
X109797676Y-115795237D02*
X109892914Y-115890475D01*
X109892914Y-115890475D02*
X109940533Y-115985713D01*
X139454819Y-119940476D02*
X138978628Y-120273809D01*
X139454819Y-120511904D02*
X138454819Y-120511904D01*
X138454819Y-120511904D02*
X138454819Y-120130952D01*
X138454819Y-120130952D02*
X138502438Y-120035714D01*
X138502438Y-120035714D02*
X138550057Y-119988095D01*
X138550057Y-119988095D02*
X138645295Y-119940476D01*
X138645295Y-119940476D02*
X138788152Y-119940476D01*
X138788152Y-119940476D02*
X138883390Y-119988095D01*
X138883390Y-119988095D02*
X138931009Y-120035714D01*
X138931009Y-120035714D02*
X138978628Y-120130952D01*
X138978628Y-120130952D02*
X138978628Y-120511904D01*
X139454819Y-119511904D02*
X138454819Y-119511904D01*
X138454819Y-119511904D02*
X139454819Y-118940476D01*
X139454819Y-118940476D02*
X138454819Y-118940476D01*
X138788152Y-118035714D02*
X139454819Y-118035714D01*
X138407200Y-118273809D02*
X139121485Y-118511904D01*
X139121485Y-118511904D02*
X139121485Y-117892857D01*
D12*
%TO.C,D7*%
X144290000Y-116910000D02*
X144290000Y-115500000D01*
X146610000Y-116900000D02*
X146610000Y-115500000D01*
X144340000Y-117280000D02*
X144010000Y-117520000D01*
X144010000Y-117040000D01*
X144340000Y-117280000D01*
G36*
X144340000Y-117280000D02*
G01*
X144010000Y-117520000D01*
X144010000Y-117040000D01*
X144340000Y-117280000D01*
G37*
%TO.C,RN3*%
X130070000Y-118750000D02*
X130070000Y-119250000D01*
X132430000Y-118750000D02*
X132430000Y-119250000D01*
%TO.C,J5*%
X123170000Y-110080000D02*
X123170000Y-108750000D01*
X124500000Y-110080000D02*
X123170000Y-110080000D01*
X125770000Y-107420000D02*
X130910000Y-107420000D01*
X125770000Y-110080000D02*
X125770000Y-107420000D01*
X125770000Y-110080000D02*
X130910000Y-110080000D01*
X130910000Y-110080000D02*
X130910000Y-107420000D01*
%TO.C,JP2*%
X116250000Y-107100000D02*
X119050000Y-107100000D01*
X116250000Y-109100000D02*
X116250000Y-107100000D01*
X119050000Y-107100000D02*
X119050000Y-109100000D01*
X119050000Y-109100000D02*
X116250000Y-109100000D01*
%TO.C,D8*%
X148290000Y-116910000D02*
X148290000Y-115500000D01*
X150610000Y-116900000D02*
X150610000Y-115500000D01*
X148340000Y-117280000D02*
X148010000Y-117520000D01*
X148010000Y-117040000D01*
X148340000Y-117280000D01*
G36*
X148340000Y-117280000D02*
G01*
X148010000Y-117520000D01*
X148010000Y-117040000D01*
X148340000Y-117280000D01*
G37*
%TO.C,C5*%
X108390580Y-106990000D02*
X108109420Y-106990000D01*
X108390580Y-108010000D02*
X108109420Y-108010000D01*
%TO.C,U2*%
X112990000Y-114160000D02*
X112990000Y-112750000D01*
X115310000Y-114150000D02*
X115310000Y-112750000D01*
X113040000Y-114530000D02*
X112710000Y-114770000D01*
X112710000Y-114290000D01*
X113040000Y-114530000D01*
G36*
X113040000Y-114530000D02*
G01*
X112710000Y-114770000D01*
X112710000Y-114290000D01*
X113040000Y-114530000D01*
G37*
%TO.C,C1*%
X117340000Y-113465580D02*
X117340000Y-113184420D01*
X118360000Y-113465580D02*
X118360000Y-113184420D01*
%TO.C,R5*%
X108012742Y-108477500D02*
X108487258Y-108477500D01*
X108012742Y-109522500D02*
X108487258Y-109522500D01*
%TO.C,R2*%
X114477500Y-116812258D02*
X114477500Y-116337742D01*
X115522500Y-116812258D02*
X115522500Y-116337742D01*
%TO.C,JP3*%
X150150000Y-111000000D02*
X154250000Y-111000000D01*
X150150000Y-113000000D02*
X150150000Y-111000000D01*
X154250000Y-111000000D02*
X154250000Y-113000000D01*
X154250000Y-113000000D02*
X150150000Y-113000000D01*
%TO.C,RN1*%
X119820000Y-118750000D02*
X119820000Y-119250000D01*
X122180000Y-118750000D02*
X122180000Y-119250000D01*
%TO.C,R3*%
X113477500Y-110362258D02*
X113477500Y-109887742D01*
X114522500Y-110362258D02*
X114522500Y-109887742D01*
%TO.C,RN5*%
X140820000Y-118750000D02*
X140820000Y-119250000D01*
X143180000Y-118750000D02*
X143180000Y-119250000D01*
%TO.C,D2*%
X123940000Y-116910000D02*
X123940000Y-115500000D01*
X126260000Y-116900000D02*
X126260000Y-115500000D01*
X123990000Y-117280000D02*
X123660000Y-117520000D01*
X123660000Y-117040000D01*
X123990000Y-117280000D01*
G36*
X123990000Y-117280000D02*
G01*
X123660000Y-117520000D01*
X123660000Y-117040000D01*
X123990000Y-117280000D01*
G37*
%TO.C,C4*%
X111109420Y-106990000D02*
X111390580Y-106990000D01*
X111109420Y-108010000D02*
X111390580Y-108010000D01*
D13*
%TO.C,J3*%
X97750000Y-112500000D02*
X97750000Y-117500000D01*
X97750000Y-112500000D02*
X99750000Y-112500000D01*
X97750000Y-117500000D02*
X99750000Y-117500000D01*
X99750000Y-111750000D02*
X99750000Y-118250000D01*
X100719000Y-111698000D02*
X99750000Y-111698000D01*
X100719000Y-118302000D02*
X99750000Y-118302000D01*
X104119000Y-118302000D02*
X102981000Y-118302000D01*
X107919000Y-111698000D02*
X102981000Y-111698000D01*
X109619000Y-118302000D02*
X106381000Y-118302000D01*
X112323000Y-112802000D02*
X112323000Y-118175000D01*
X112323000Y-118175000D02*
X112323000Y-118302000D01*
X112323000Y-118302000D02*
X111881000Y-118302000D01*
D12*
%TO.C,C3*%
X115840000Y-113184420D02*
X115840000Y-113465580D01*
X116860000Y-113184420D02*
X116860000Y-113465580D01*
%TO.C,D6*%
X140290000Y-116910000D02*
X140290000Y-115500000D01*
X142610000Y-116900000D02*
X142610000Y-115500000D01*
X140340000Y-117280000D02*
X140010000Y-117520000D01*
X140010000Y-117040000D01*
X140340000Y-117280000D01*
G36*
X140340000Y-117280000D02*
G01*
X140010000Y-117520000D01*
X140010000Y-117040000D01*
X140340000Y-117280000D01*
G37*
%TO.C,D9*%
X152190000Y-116910000D02*
X152190000Y-115500000D01*
X154510000Y-116900000D02*
X154510000Y-115500000D01*
X152240000Y-117280000D02*
X151910000Y-117520000D01*
X151910000Y-117040000D01*
X152240000Y-117280000D01*
G36*
X152240000Y-117280000D02*
G01*
X151910000Y-117520000D01*
X151910000Y-117040000D01*
X152240000Y-117280000D01*
G37*
%TO.C,JP1*%
X116250000Y-109600000D02*
X119050000Y-109600000D01*
X116250000Y-111600000D02*
X116250000Y-109600000D01*
X119050000Y-109600000D02*
X119050000Y-111600000D01*
X119050000Y-111600000D02*
X116250000Y-111600000D01*
%TO.C,C2*%
X114390580Y-118340000D02*
X114109420Y-118340000D01*
X114390580Y-119360000D02*
X114109420Y-119360000D01*
%TO.C,D4*%
X132340000Y-116910000D02*
X132340000Y-115500000D01*
X134660000Y-116900000D02*
X134660000Y-115500000D01*
X132390000Y-117280000D02*
X132060000Y-117520000D01*
X132060000Y-117040000D01*
X132390000Y-117280000D01*
G36*
X132390000Y-117280000D02*
G01*
X132060000Y-117520000D01*
X132060000Y-117040000D01*
X132390000Y-117280000D01*
G37*
%TO.C,D1*%
X119690000Y-116910000D02*
X119690000Y-115500000D01*
X122010000Y-116900000D02*
X122010000Y-115500000D01*
X119740000Y-117280000D02*
X119410000Y-117520000D01*
X119410000Y-117040000D01*
X119740000Y-117280000D01*
G36*
X119740000Y-117280000D02*
G01*
X119410000Y-117520000D01*
X119410000Y-117040000D01*
X119740000Y-117280000D01*
G37*
%TO.C,RN6*%
X146320000Y-118750000D02*
X146320000Y-119250000D01*
X148680000Y-118750000D02*
X148680000Y-119250000D01*
%TO.C,J4*%
X100670000Y-109580000D02*
X100670000Y-108250000D01*
X102000000Y-109580000D02*
X100670000Y-109580000D01*
X103270000Y-106920000D02*
X105870000Y-106920000D01*
X103270000Y-109580000D02*
X103270000Y-106920000D01*
X103270000Y-109580000D02*
X105870000Y-109580000D01*
X105870000Y-109580000D02*
X105870000Y-106920000D01*
%TO.C,D3*%
X128290000Y-116910000D02*
X128290000Y-115500000D01*
X130610000Y-116900000D02*
X130610000Y-115500000D01*
X128340000Y-117280000D02*
X128010000Y-117520000D01*
X128010000Y-117040000D01*
X128340000Y-117280000D01*
G36*
X128340000Y-117280000D02*
G01*
X128010000Y-117520000D01*
X128010000Y-117040000D01*
X128340000Y-117280000D01*
G37*
%TO.C,J6*%
X155900000Y-113450000D02*
X155900000Y-114050000D01*
X155900000Y-114050000D02*
X156500000Y-113750000D01*
X156390000Y-111140000D02*
X164810000Y-111140000D01*
X156390000Y-112360000D02*
X156390000Y-111140000D01*
X156390000Y-117640000D02*
X158590000Y-117640000D01*
X156390000Y-118860000D02*
X156390000Y-117640000D01*
X156500000Y-113750000D02*
X155900000Y-113450000D01*
X158590000Y-112360000D02*
X156390000Y-112360000D01*
X158590000Y-112360000D02*
X158590000Y-111140000D01*
X158590000Y-114920000D02*
X158590000Y-115080000D01*
X158590000Y-117640000D02*
X158590000Y-118860000D01*
X159590000Y-112360000D02*
X159590000Y-117640000D01*
X159590000Y-113430000D02*
X163010000Y-113430000D01*
X159590000Y-113750000D02*
X159590000Y-113430000D01*
X159590000Y-114070000D02*
X159590000Y-113750000D01*
X159590000Y-115930000D02*
X163010000Y-115930000D01*
X159590000Y-116250000D02*
X159590000Y-115930000D01*
X159590000Y-116570000D02*
X159590000Y-116250000D01*
X163010000Y-113430000D02*
X163090000Y-113750000D01*
X163010000Y-114070000D02*
X159590000Y-114070000D01*
X163010000Y-115930000D02*
X163090000Y-116250000D01*
X163010000Y-116570000D02*
X159590000Y-116570000D01*
X163090000Y-113750000D02*
X163010000Y-114070000D01*
X163090000Y-116250000D02*
X163010000Y-116570000D01*
X163590000Y-111140000D02*
X163590000Y-112360000D01*
X163590000Y-112360000D02*
X158590000Y-112360000D01*
X163590000Y-117640000D02*
X158590000Y-117640000D01*
X163590000Y-118860000D02*
X163590000Y-117640000D01*
X164810000Y-111140000D02*
X164810000Y-118860000D01*
X164810000Y-118860000D02*
X156390000Y-118860000D01*
%TO.C,RN2*%
X124820000Y-118750000D02*
X124820000Y-119250000D01*
X127180000Y-118750000D02*
X127180000Y-119250000D01*
%TO.C,U1*%
X115940000Y-117137500D02*
X115940000Y-116337500D01*
X115940000Y-117137500D02*
X115940000Y-117937500D01*
X119060000Y-117137500D02*
X119060000Y-116337500D01*
X119060000Y-117137500D02*
X119060000Y-117937500D01*
X115990000Y-118437500D02*
X115660000Y-118677500D01*
X115660000Y-118197500D01*
X115990000Y-118437500D01*
G36*
X115990000Y-118437500D02*
G01*
X115660000Y-118677500D01*
X115660000Y-118197500D01*
X115990000Y-118437500D01*
G37*
%TO.C,J1*%
X107140000Y-120920000D02*
X158200000Y-120920000D01*
X107140000Y-130040000D02*
X107140000Y-120920000D01*
X108440000Y-122230000D02*
X156900000Y-122230000D01*
X108440000Y-128730000D02*
X108440000Y-122230000D01*
X111850000Y-131430000D02*
X112850000Y-131430000D01*
X112350000Y-130430000D02*
X111850000Y-131430000D01*
X112850000Y-131430000D02*
X112350000Y-130430000D01*
X130620000Y-128730000D02*
X108440000Y-128730000D01*
X130620000Y-130040000D02*
X130620000Y-128730000D01*
X134720000Y-128730000D02*
X134720000Y-128730000D01*
X134720000Y-128730000D02*
X134720000Y-130040000D01*
X156900000Y-122230000D02*
X156900000Y-128730000D01*
X156900000Y-128730000D02*
X134720000Y-128730000D01*
X158200000Y-120920000D02*
X158200000Y-130040000D01*
X158200000Y-130040000D02*
X107140000Y-130040000D01*
%TO.C,R4*%
X111487258Y-108477500D02*
X111012742Y-108477500D01*
X111487258Y-109522500D02*
X111012742Y-109522500D01*
%TO.C,D5*%
X136290000Y-116910000D02*
X136290000Y-115500000D01*
X138610000Y-116900000D02*
X138610000Y-115500000D01*
X136340000Y-117280000D02*
X136010000Y-117520000D01*
X136010000Y-117040000D01*
X136340000Y-117280000D01*
G36*
X136340000Y-117280000D02*
G01*
X136010000Y-117520000D01*
X136010000Y-117040000D01*
X136340000Y-117280000D01*
G37*
%TO.C,R1*%
X112977500Y-116812258D02*
X112977500Y-116337742D01*
X114022500Y-116812258D02*
X114022500Y-116337742D01*
%TO.C,RN4*%
X135820000Y-118750000D02*
X135820000Y-119250000D01*
X138180000Y-118750000D02*
X138180000Y-119250000D01*
%TD*%
%LPC*%
D14*
%TO.C,D7*%
X144800000Y-117150000D03*
X145450000Y-117150000D03*
X146100000Y-117150000D03*
X146100000Y-115250000D03*
X145450000Y-115250000D03*
X144800000Y-115250000D03*
%TD*%
D15*
%TO.C,RN3*%
X130500000Y-119500000D03*
D16*
X131000000Y-119500000D03*
X131500000Y-119500000D03*
D15*
X132000000Y-119500000D03*
X132000000Y-118500000D03*
D16*
X131500000Y-118500000D03*
X131000000Y-118500000D03*
D15*
X130500000Y-118500000D03*
%TD*%
D17*
%TO.C,J5*%
X124500000Y-108750000D03*
D18*
X127040000Y-108750000D03*
X129580000Y-108750000D03*
%TD*%
D19*
%TO.C,JP2*%
X117000000Y-108100000D03*
X118300000Y-108100000D03*
%TD*%
D14*
%TO.C,D8*%
X148800000Y-117150000D03*
X149450000Y-117150000D03*
X150100000Y-117150000D03*
X150100000Y-115250000D03*
X149450000Y-115250000D03*
X148800000Y-115250000D03*
%TD*%
D20*
%TO.C,C5*%
X109025000Y-107500000D03*
X107475000Y-107500000D03*
%TD*%
D14*
%TO.C,U2*%
X113500000Y-114400000D03*
X114150000Y-114400000D03*
X114800000Y-114400000D03*
X114800000Y-112500000D03*
X114150000Y-112500000D03*
X113500000Y-112500000D03*
%TD*%
D21*
%TO.C,C1*%
X117850000Y-114100000D03*
X117850000Y-112550000D03*
%TD*%
D22*
%TO.C,R5*%
X107425000Y-109000000D03*
X109075000Y-109000000D03*
%TD*%
D23*
%TO.C,R2*%
X115000000Y-117400000D03*
X115000000Y-115750000D03*
%TD*%
D19*
%TO.C,JP3*%
X150900000Y-112000000D03*
X152200000Y-112000000D03*
X153500000Y-112000000D03*
%TD*%
D15*
%TO.C,RN1*%
X120250000Y-119500000D03*
D16*
X120750000Y-119500000D03*
X121250000Y-119500000D03*
D15*
X121750000Y-119500000D03*
X121750000Y-118500000D03*
D16*
X121250000Y-118500000D03*
X120750000Y-118500000D03*
D15*
X120250000Y-118500000D03*
%TD*%
D23*
%TO.C,R3*%
X114000000Y-110950000D03*
X114000000Y-109300000D03*
%TD*%
D15*
%TO.C,RN5*%
X141250000Y-119500000D03*
D16*
X141750000Y-119500000D03*
X142250000Y-119500000D03*
D15*
X142750000Y-119500000D03*
X142750000Y-118500000D03*
D16*
X142250000Y-118500000D03*
X141750000Y-118500000D03*
D15*
X141250000Y-118500000D03*
%TD*%
D14*
%TO.C,D2*%
X124450000Y-117150000D03*
X125100000Y-117150000D03*
X125750000Y-117150000D03*
X125750000Y-115250000D03*
X125100000Y-115250000D03*
X124450000Y-115250000D03*
%TD*%
D24*
%TO.C,C4*%
X110475000Y-107500000D03*
X112025000Y-107500000D03*
%TD*%
D25*
%TO.C,J3*%
X101850000Y-118500000D03*
X105250000Y-118500000D03*
X110750000Y-118500000D03*
X101850000Y-111500000D03*
X109050000Y-111500000D03*
X111250000Y-111500000D03*
%TD*%
D26*
%TO.C,C3*%
X116350000Y-112550000D03*
X116350000Y-114100000D03*
%TD*%
D14*
%TO.C,D6*%
X140800000Y-117150000D03*
X141450000Y-117150000D03*
X142100000Y-117150000D03*
X142100000Y-115250000D03*
X141450000Y-115250000D03*
X140800000Y-115250000D03*
%TD*%
%TO.C,D9*%
X152700000Y-117150000D03*
X153350000Y-117150000D03*
X154000000Y-117150000D03*
X154000000Y-115250000D03*
X153350000Y-115250000D03*
X152700000Y-115250000D03*
%TD*%
D19*
%TO.C,JP1*%
X118300000Y-110600000D03*
X117000000Y-110600000D03*
%TD*%
D20*
%TO.C,C2*%
X115025000Y-118850000D03*
X113475000Y-118850000D03*
%TD*%
D14*
%TO.C,D4*%
X132850000Y-117150000D03*
X133500000Y-117150000D03*
X134150000Y-117150000D03*
X134150000Y-115250000D03*
X133500000Y-115250000D03*
X132850000Y-115250000D03*
%TD*%
%TO.C,D1*%
X120200000Y-117150000D03*
X120850000Y-117150000D03*
X121500000Y-117150000D03*
X121500000Y-115250000D03*
X120850000Y-115250000D03*
X120200000Y-115250000D03*
%TD*%
D15*
%TO.C,RN6*%
X146750000Y-119500000D03*
D16*
X147250000Y-119500000D03*
X147750000Y-119500000D03*
D15*
X148250000Y-119500000D03*
X148250000Y-118500000D03*
D16*
X147750000Y-118500000D03*
X147250000Y-118500000D03*
D15*
X146750000Y-118500000D03*
%TD*%
D17*
%TO.C,J4*%
X102000000Y-108250000D03*
D18*
X104540000Y-108250000D03*
%TD*%
D14*
%TO.C,D3*%
X128800000Y-117150000D03*
X129450000Y-117150000D03*
X130100000Y-117150000D03*
X130100000Y-115250000D03*
X129450000Y-115250000D03*
X128800000Y-115250000D03*
%TD*%
D27*
%TO.C,J6*%
X158000000Y-113750000D03*
D28*
X158000000Y-116250000D03*
%TD*%
D15*
%TO.C,RN2*%
X125250000Y-119500000D03*
D16*
X125750000Y-119500000D03*
X126250000Y-119500000D03*
D15*
X126750000Y-119500000D03*
X126750000Y-118500000D03*
D16*
X126250000Y-118500000D03*
X125750000Y-118500000D03*
D15*
X125250000Y-118500000D03*
%TD*%
D29*
%TO.C,U1*%
X116550000Y-118275000D03*
X118450000Y-118275000D03*
X117500000Y-116000000D03*
%TD*%
D30*
%TO.C,J1*%
X112350000Y-126750000D03*
D31*
X112350000Y-124210000D03*
X114890000Y-126750000D03*
X114890000Y-124210000D03*
X117430000Y-126750000D03*
X117430000Y-124210000D03*
X119970000Y-126750000D03*
X119970000Y-124210000D03*
X122510000Y-126750000D03*
X122510000Y-124210000D03*
X125050000Y-126750000D03*
X125050000Y-124210000D03*
X127590000Y-126750000D03*
X127590000Y-124210000D03*
X130130000Y-126750000D03*
X130130000Y-124210000D03*
X132670000Y-126750000D03*
X132670000Y-124210000D03*
X135210000Y-126750000D03*
X135210000Y-124210000D03*
X137750000Y-126750000D03*
X137750000Y-124210000D03*
X140290000Y-126750000D03*
X140290000Y-124210000D03*
X142830000Y-126750000D03*
X142830000Y-124210000D03*
X145370000Y-126750000D03*
X145370000Y-124210000D03*
X147910000Y-126750000D03*
X147910000Y-124210000D03*
X150450000Y-126750000D03*
X150450000Y-124210000D03*
X152990000Y-126750000D03*
X152990000Y-124210000D03*
%TD*%
D32*
%TO.C,R4*%
X112075000Y-109000000D03*
X110425000Y-109000000D03*
%TD*%
D14*
%TO.C,D5*%
X136800000Y-117150000D03*
X137450000Y-117150000D03*
X138100000Y-117150000D03*
X138100000Y-115250000D03*
X137450000Y-115250000D03*
X136800000Y-115250000D03*
%TD*%
D23*
%TO.C,R1*%
X113500000Y-117400000D03*
X113500000Y-115750000D03*
%TD*%
D15*
%TO.C,RN4*%
X136250000Y-119500000D03*
D16*
X136750000Y-119500000D03*
X137250000Y-119500000D03*
D15*
X137750000Y-119500000D03*
X137750000Y-118500000D03*
D16*
X137250000Y-118500000D03*
X136750000Y-118500000D03*
D15*
X136250000Y-118500000D03*
%TD*%
D17*
%TO.C,J2*%
X108418680Y-104800000D03*
D18*
X108418680Y-102260000D03*
X110958680Y-104800000D03*
X110958680Y-102260000D03*
X113498680Y-104800000D03*
X113498680Y-102260000D03*
X116038680Y-104800000D03*
X116038680Y-102260000D03*
X118578680Y-104800000D03*
X118578680Y-102260000D03*
X121118680Y-104800000D03*
X121118680Y-102260000D03*
X123658680Y-104800000D03*
X123658680Y-102260000D03*
X126198680Y-104800000D03*
X126198680Y-102260000D03*
X128738680Y-104800000D03*
X128738680Y-102260000D03*
X131278680Y-104800000D03*
X131278680Y-102260000D03*
X133818680Y-104800000D03*
X133818680Y-102260000D03*
X136358680Y-104800000D03*
X136358680Y-102260000D03*
X138898680Y-104800000D03*
X138898680Y-102260000D03*
X141438680Y-104800000D03*
X141438680Y-102260000D03*
X143978680Y-104800000D03*
X143978680Y-102260000D03*
X146518680Y-104800000D03*
X146518680Y-102260000D03*
X149058680Y-104800000D03*
X149058680Y-102260000D03*
X151598680Y-104800000D03*
X151598680Y-102260000D03*
X154138680Y-104800000D03*
X154138680Y-102260000D03*
X156678680Y-104800000D03*
X156678680Y-102260000D03*
%TD*%
%LPD*%
M02*
