%TF.GenerationSoftware,KiCad,Pcbnew,8.0.8-8.0.8-0~ubuntu24.04.1*%
%TF.CreationDate,2025-02-12T19:28:21+01:00*%
%TF.ProjectId,Acorn_1Mhz_bus_PiZero_interface,41636f72-6e5f-4314-9d68-7a5f6275735f,rev?*%
%TF.SameCoordinates,Original*%
%TF.FileFunction,Copper,L4,Bot*%
%TF.FilePolarity,Positive*%
%FSLAX46Y46*%
G04 Gerber Fmt 4.6, Leading zero omitted, Abs format (unit mm)*
G04 Created by KiCad (PCBNEW 8.0.8-8.0.8-0~ubuntu24.04.1) date 2025-02-12 19:28:21*
%MOMM*%
%LPD*%
G01*
G04 APERTURE LIST*
G04 Aperture macros list*
%AMRoundRect*
0 Rectangle with rounded corners*
0 $1 Rounding radius*
0 $2 $3 $4 $5 $6 $7 $8 $9 X,Y pos of 4 corners*
0 Add a 4 corners polygon primitive as box body*
4,1,4,$2,$3,$4,$5,$6,$7,$8,$9,$2,$3,0*
0 Add four circle primitives for the rounded corners*
1,1,$1+$1,$2,$3*
1,1,$1+$1,$4,$5*
1,1,$1+$1,$6,$7*
1,1,$1+$1,$8,$9*
0 Add four rect primitives between the rounded corners*
20,1,$1+$1,$2,$3,$4,$5,0*
20,1,$1+$1,$4,$5,$6,$7,0*
20,1,$1+$1,$6,$7,$8,$9,0*
20,1,$1+$1,$8,$9,$2,$3,0*%
G04 Aperture macros list end*
%TA.AperFunction,ComponentPad*%
%ADD10R,1.700000X1.700000*%
%TD*%
%TA.AperFunction,ComponentPad*%
%ADD11O,1.700000X1.700000*%
%TD*%
%TA.AperFunction,ComponentPad*%
%ADD12RoundRect,0.250000X-0.750000X0.600000X-0.750000X-0.600000X0.750000X-0.600000X0.750000X0.600000X0*%
%TD*%
%TA.AperFunction,ComponentPad*%
%ADD13O,2.000000X1.700000*%
%TD*%
%TA.AperFunction,ComponentPad*%
%ADD14RoundRect,0.250000X0.600000X-0.600000X0.600000X0.600000X-0.600000X0.600000X-0.600000X-0.600000X0*%
%TD*%
%TA.AperFunction,ComponentPad*%
%ADD15C,1.700000*%
%TD*%
%TA.AperFunction,SMDPad,CuDef*%
%ADD16R,1.000000X1.000000*%
%TD*%
%TA.AperFunction,ViaPad*%
%ADD17C,0.600000*%
%TD*%
%TA.AperFunction,Conductor*%
%ADD18C,0.200000*%
%TD*%
G04 APERTURE END LIST*
D10*
%TO.P,J5,1,Pin_1*%
%TO.N,GND*%
X124500000Y-108750000D03*
D11*
%TO.P,J5,2,Pin_2*%
%TO.N,TxD*%
X127040000Y-108750000D03*
%TO.P,J5,3,Pin_3*%
%TO.N,RxD*%
X129580000Y-108750000D03*
%TD*%
D10*
%TO.P,J4,1,Pin_1*%
%TO.N,GND*%
X102000000Y-108250000D03*
D11*
%TO.P,J4,2,Pin_2*%
%TO.N,Net-(J4-Pin_2)*%
X104540000Y-108250000D03*
%TD*%
D12*
%TO.P,J6,1,Pin_1*%
%TO.N,+5V*%
X158000000Y-113750000D03*
D13*
%TO.P,J6,2,Pin_2*%
%TO.N,GND*%
X158000000Y-116250000D03*
%TD*%
D14*
%TO.P,J1,1,Pin_1*%
%TO.N,GND*%
X112350000Y-126750000D03*
D15*
%TO.P,J1,2,Pin_2*%
%TO.N,R{slash}~{W}*%
X112350000Y-124210000D03*
%TO.P,J1,3,Pin_3*%
%TO.N,GND*%
X114890000Y-126750000D03*
%TO.P,J1,4,Pin_4*%
%TO.N,1MHz*%
X114890000Y-124210000D03*
%TO.P,J1,5,Pin_5*%
%TO.N,GND*%
X117430000Y-126750000D03*
%TO.P,J1,6,Pin_6*%
%TO.N,~{NMI}*%
X117430000Y-124210000D03*
%TO.P,J1,7,Pin_7*%
%TO.N,GND*%
X119970000Y-126750000D03*
%TO.P,J1,8,Pin_8*%
%TO.N,~{IRQ}*%
X119970000Y-124210000D03*
%TO.P,J1,9,Pin_9*%
%TO.N,GND*%
X122510000Y-126750000D03*
%TO.P,J1,10,Pin_10*%
%TO.N,~{PCFC}*%
X122510000Y-124210000D03*
%TO.P,J1,11,Pin_11*%
%TO.N,GND*%
X125050000Y-126750000D03*
%TO.P,J1,12,Pin_12*%
%TO.N,~{PCFD}*%
X125050000Y-124210000D03*
%TO.P,J1,13,Pin_13*%
%TO.N,GND*%
X127590000Y-126750000D03*
%TO.P,J1,14,Pin_14*%
%TO.N,~{RST}*%
X127590000Y-124210000D03*
%TO.P,J1,15,Pin_15*%
%TO.N,GND*%
X130130000Y-126750000D03*
%TO.P,J1,16,Pin_16*%
%TO.N,BBC_Audio*%
X130130000Y-124210000D03*
%TO.P,J1,17,Pin_17*%
%TO.N,GND*%
X132670000Y-126750000D03*
%TO.P,J1,18,Pin_18*%
%TO.N,D0*%
X132670000Y-124210000D03*
%TO.P,J1,19,Pin_19*%
%TO.N,D1*%
X135210000Y-126750000D03*
%TO.P,J1,20,Pin_20*%
%TO.N,D2*%
X135210000Y-124210000D03*
%TO.P,J1,21,Pin_21*%
%TO.N,D3*%
X137750000Y-126750000D03*
%TO.P,J1,22,Pin_22*%
%TO.N,D4*%
X137750000Y-124210000D03*
%TO.P,J1,23,Pin_23*%
%TO.N,D5*%
X140290000Y-126750000D03*
%TO.P,J1,24,Pin_24*%
%TO.N,D6*%
X140290000Y-124210000D03*
%TO.P,J1,25,Pin_25*%
%TO.N,D7*%
X142830000Y-126750000D03*
%TO.P,J1,26,Pin_26*%
%TO.N,GND*%
X142830000Y-124210000D03*
%TO.P,J1,27,Pin_27*%
%TO.N,A0*%
X145370000Y-126750000D03*
%TO.P,J1,28,Pin_28*%
%TO.N,A1*%
X145370000Y-124210000D03*
%TO.P,J1,29,Pin_29*%
%TO.N,A2*%
X147910000Y-126750000D03*
%TO.P,J1,30,Pin_30*%
%TO.N,A3*%
X147910000Y-124210000D03*
%TO.P,J1,31,Pin_31*%
%TO.N,A4*%
X150450000Y-126750000D03*
%TO.P,J1,32,Pin_32*%
%TO.N,A5*%
X150450000Y-124210000D03*
%TO.P,J1,33,Pin_33*%
%TO.N,A6*%
X152990000Y-126750000D03*
%TO.P,J1,34,Pin_34*%
%TO.N,A7*%
X152990000Y-124210000D03*
%TD*%
D16*
%TO.P,TP2,1,1*%
%TO.N,ID_SD*%
X139750000Y-109000000D03*
%TD*%
%TO.P,TP1,1,1*%
%TO.N,ID_SC*%
X142750000Y-109000000D03*
%TD*%
D10*
%TO.P,J2,1,3V3*%
%TO.N,+3V3*%
X108418680Y-104800000D03*
D11*
%TO.P,J2,2,5V*%
%TO.N,+5V*%
X108418680Y-102260000D03*
%TO.P,J2,3,SDA_I2C1/GPIO02*%
%TO.N,GPIO_2*%
X110958680Y-104800000D03*
%TO.P,J2,4,5V*%
%TO.N,+5V*%
X110958680Y-102260000D03*
%TO.P,J2,5,SCL_I2C1/GPIO03*%
%TO.N,GPIO_3*%
X113498680Y-104800000D03*
%TO.P,J2,6,GND*%
%TO.N,GND*%
X113498680Y-102260000D03*
%TO.P,J2,7,GPCLK0/GPIO04*%
%TO.N,GPIO_4*%
X116038680Y-104800000D03*
%TO.P,J2,8,GPIO14/UART_TXD*%
%TO.N,TxD*%
X116038680Y-102260000D03*
%TO.P,J2,9,GND*%
%TO.N,GND*%
X118578680Y-104800000D03*
%TO.P,J2,10,GPIO15/UART_RXD*%
%TO.N,RxD*%
X118578680Y-102260000D03*
%TO.P,J2,11,GPIO17/SPI1_~{CE1}*%
%TO.N,GPIO_17*%
X121118680Y-104800000D03*
%TO.P,J2,12,GPIO18/SPI1_~{CE0}/PCM_CLK/PWM0*%
%TO.N,GPIO_18*%
X121118680Y-102260000D03*
%TO.P,J2,13,GPIO27/SDIO_DAT3*%
%TO.N,GPIO_27*%
X123658680Y-104800000D03*
%TO.P,J2,14,GND*%
%TO.N,GND*%
X123658680Y-102260000D03*
%TO.P,J2,15,GPIO22/SDIO_CLK*%
%TO.N,GPIO_22*%
X126198680Y-104800000D03*
%TO.P,J2,16,GPIO23/SDIO_CMD*%
%TO.N,GPIO_23*%
X126198680Y-102260000D03*
%TO.P,J2,17,3V3*%
%TO.N,+3V3*%
X128738680Y-104800000D03*
%TO.P,J2,18,GPIO24/SDIO_DAT0*%
%TO.N,GPIO_24*%
X128738680Y-102260000D03*
%TO.P,J2,19,MOSI_SPI0/GPIO10*%
%TO.N,GPIO_10*%
X131278680Y-104800000D03*
%TO.P,J2,20,GND*%
%TO.N,GND*%
X131278680Y-102260000D03*
%TO.P,J2,21,MISO_SPI0/GPIO09*%
%TO.N,GPIO_9*%
X133818680Y-104800000D03*
%TO.P,J2,22,GPIO25/SDIO_DAT1*%
%TO.N,GPIO_25*%
X133818680Y-102260000D03*
%TO.P,J2,23,SCLK_SPI0/GPIO11*%
%TO.N,GPIO_11*%
X136358680Y-104800000D03*
%TO.P,J2,24,~{CE0}_SPI0/GPIO08*%
%TO.N,GPIO_8*%
X136358680Y-102260000D03*
%TO.P,J2,25,GND*%
%TO.N,GND*%
X138898680Y-104800000D03*
%TO.P,J2,26,~{CE1}_SPI0/GPIO07*%
%TO.N,GPIO_7*%
X138898680Y-102260000D03*
%TO.P,J2,27,ID_SD_I2C0/GPIO00*%
%TO.N,ID_SD*%
X141438680Y-104800000D03*
%TO.P,J2,28,ID_SC_I2C0/GPIO01*%
%TO.N,ID_SC*%
X141438680Y-102260000D03*
%TO.P,J2,29,GPCLK1/GPIO05*%
%TO.N,GPIO_5*%
X143978680Y-104800000D03*
%TO.P,J2,30,GND*%
%TO.N,GND*%
X143978680Y-102260000D03*
%TO.P,J2,31,GPCLK2/GPIO06*%
%TO.N,GPIO_6*%
X146518680Y-104800000D03*
%TO.P,J2,32,GPIO12/PWM0*%
%TO.N,GPIO_12*%
X146518680Y-102260000D03*
%TO.P,J2,33,GPIO13/PWM1*%
%TO.N,GPIO_13*%
X149058680Y-104800000D03*
%TO.P,J2,34,GND*%
%TO.N,GND*%
X149058680Y-102260000D03*
%TO.P,J2,35,GPIO19/SPI1_MISO/PCM_FS*%
%TO.N,GPIO_19*%
X151598680Y-104800000D03*
%TO.P,J2,36,GPIO16/SPI1_~{CE2}*%
%TO.N,GPIO_16*%
X151598680Y-102260000D03*
%TO.P,J2,37,GPIO26/SDIO_DAT2*%
%TO.N,GPIO_26*%
X154138680Y-104800000D03*
%TO.P,J2,38,GPIO20/SPI1_MOSI/PCM_DIN/PWM1*%
%TO.N,GPIO_20*%
X154138680Y-102260000D03*
%TO.P,J2,39,GND*%
%TO.N,GND*%
X156678680Y-104800000D03*
%TO.P,J2,40,GPIO21/SPI1_SCLK/PCM_DOUT*%
%TO.N,GPIO_21*%
X156678680Y-102260000D03*
%TD*%
D17*
%TO.N,GPIO_13*%
X112500000Y-117500000D03*
%TO.N,+3.3VDAC*%
X114200000Y-113500000D03*
X115400000Y-113500000D03*
%TO.N,Net-(C4-Pad1)*%
X109750000Y-106750000D03*
X114500000Y-109750000D03*
%TO.N,GPIO_10*%
X122750000Y-110750000D03*
%TO.N,GPIO_11*%
X136358680Y-107500000D03*
%TO.N,GPIO_12*%
X129750000Y-112250000D03*
%TO.N,GPIO_24*%
X126250000Y-112850000D03*
%TO.N,GPIO_25*%
X128750000Y-112850000D03*
%TO.N,GPIO_26*%
X128548527Y-113900000D03*
%TO.N,GPIO_2*%
X129000000Y-116250000D03*
%TO.N,GPIO_3*%
X130000000Y-116250000D03*
%TO.N,GPIO_4*%
X132750000Y-116250000D03*
%TO.N,GPIO_5*%
X145918680Y-108929847D03*
X138900000Y-111100000D03*
%TO.N,GPIO_6*%
X135077604Y-117094961D03*
X146500000Y-112650000D03*
%TO.N,GPIO_7*%
X138000000Y-111100000D03*
X138250000Y-107500000D03*
X135750000Y-116500000D03*
%TO.N,GPIO_8*%
X137748680Y-106850000D03*
%TO.N,GPIO_17*%
X142752537Y-113252537D03*
X137633709Y-111811217D03*
%TO.N,GPIO_18*%
X143352537Y-115481217D03*
X135750000Y-113250000D03*
X124500000Y-111500000D03*
X120000000Y-108250000D03*
%TO.N,GPIO_22*%
X143000000Y-111750000D03*
X147500000Y-117000000D03*
%TO.N,GPIO_23*%
X147750000Y-107000000D03*
X147636765Y-116136765D03*
%TO.N,Net-(D1A-K)*%
X149592187Y-114582370D03*
X129750000Y-114500000D03*
X125250000Y-114500000D03*
X137750000Y-114500000D03*
X140900000Y-116000000D03*
X144900000Y-116000000D03*
X121000000Y-114500000D03*
X133750000Y-114500000D03*
%TO.N,GND*%
X134000000Y-108250000D03*
X111500000Y-114000000D03*
X140250000Y-120000000D03*
X149250000Y-107250000D03*
X129250000Y-119000000D03*
X120750000Y-112500000D03*
X135000000Y-119750000D03*
X115750000Y-115750000D03*
X133750000Y-112250000D03*
X141250000Y-107250000D03*
X112000000Y-106500000D03*
X113500000Y-119750000D03*
X124250000Y-119000000D03*
X145250000Y-119750000D03*
X102250000Y-118500000D03*
X153500000Y-107250000D03*
X143750000Y-107250000D03*
%TO.N,+5V*%
X116550003Y-115750000D03*
%TO.N,+3V3*%
X152250000Y-110750000D03*
%TO.N,Net-(JP1-A)*%
X119500000Y-116850000D03*
X118149999Y-117000000D03*
%TD*%
D18*
%TO.N,GPIO_13*%
X155288680Y-104323654D02*
X155288680Y-119711320D01*
X155288680Y-119711320D02*
X154000000Y-121000000D01*
X150208680Y-103650000D02*
X154615026Y-103650000D01*
X115598529Y-121000000D02*
X112500000Y-117901471D01*
X154000000Y-121000000D02*
X115598529Y-121000000D01*
X149058680Y-104800000D02*
X150208680Y-103650000D01*
X112500000Y-117901471D02*
X112500000Y-117500000D01*
X154615026Y-103650000D02*
X155288680Y-104323654D01*
%TO.N,Net-(C4-Pad1)*%
X114500000Y-109750000D02*
X114648680Y-109601320D01*
X109750000Y-104382334D02*
X109750000Y-106750000D01*
X114648680Y-104323654D02*
X113975026Y-103650000D01*
X114648680Y-109601320D02*
X114648680Y-104323654D01*
X110482334Y-103650000D02*
X109750000Y-104382334D01*
X113975026Y-103650000D02*
X110482334Y-103650000D01*
%TO.N,GPIO_10*%
X131278680Y-110471320D02*
X131278680Y-104800000D01*
X131000000Y-110750000D02*
X131278680Y-110471320D01*
X122750000Y-110750000D02*
X131000000Y-110750000D01*
%TO.N,GPIO_11*%
X136358680Y-107500000D02*
X136358680Y-104800000D01*
%TO.N,GPIO_12*%
X143550000Y-109800000D02*
X143500000Y-109800000D01*
X145250000Y-103528680D02*
X145250000Y-108100000D01*
X132131372Y-112250000D02*
X129750000Y-112250000D01*
X134281370Y-110100000D02*
X133065686Y-111315684D01*
X133065686Y-111315684D02*
X133065686Y-111315686D01*
X146518680Y-102260000D02*
X145250000Y-103528680D01*
X133065686Y-111315686D02*
X132131372Y-112250000D01*
X143200000Y-110100000D02*
X134281370Y-110100000D01*
X145250000Y-108100000D02*
X143550000Y-109800000D01*
X143500000Y-109800000D02*
X143200000Y-110100000D01*
%TO.N,GPIO_24*%
X131605026Y-103500000D02*
X132428680Y-104323654D01*
X132074265Y-111175735D02*
X129346297Y-111175735D01*
X129978680Y-103500000D02*
X131605026Y-103500000D01*
X127672032Y-112850000D02*
X126250000Y-112850000D01*
X128738680Y-102260000D02*
X129978680Y-103500000D01*
X129346297Y-111175735D02*
X127672032Y-112850000D01*
X132428680Y-110821320D02*
X132074265Y-111175735D01*
X132428680Y-104323654D02*
X132428680Y-110821320D01*
%TO.N,GPIO_25*%
X129575735Y-111575735D02*
X132239951Y-111575735D01*
X132239951Y-111575735D02*
X132828680Y-110987006D01*
X132828680Y-110987006D02*
X132828680Y-107640000D01*
X128750000Y-112850000D02*
X128750000Y-112401471D01*
X132828680Y-107640000D02*
X134968680Y-105500000D01*
X128750000Y-112401471D02*
X129450735Y-111700735D01*
X134968680Y-105500000D02*
X134968680Y-103410000D01*
X134968680Y-103410000D02*
X133818680Y-102260000D01*
X129450735Y-111700735D02*
X129575735Y-111575735D01*
%TO.N,GPIO_26*%
X134447056Y-110500000D02*
X133348528Y-111598528D01*
X152688680Y-106250000D02*
X146000000Y-106250000D01*
X133348528Y-111598528D02*
X131947057Y-113000000D01*
X154138680Y-104800000D02*
X152688680Y-106250000D01*
X145750000Y-106500000D02*
X145750000Y-108250000D01*
X131947057Y-113000000D02*
X129448527Y-113000000D01*
X143500000Y-110500000D02*
X134447056Y-110500000D01*
X129448527Y-113000000D02*
X128548527Y-113900000D01*
X146000000Y-106250000D02*
X145750000Y-106500000D01*
X145750000Y-108250000D02*
X143500000Y-110500000D01*
%TO.N,GPIO_2*%
X129000000Y-116250000D02*
X118998529Y-116250000D01*
X110958680Y-104800000D02*
X110958680Y-108210152D01*
X110958680Y-108210152D02*
X114624264Y-111875736D01*
X118998529Y-116250000D02*
X114624264Y-111875736D01*
%TO.N,GPIO_3*%
X113498680Y-109998680D02*
X119150000Y-115650000D01*
X119150000Y-115650000D02*
X129400000Y-115650000D01*
X129400000Y-115650000D02*
X130000000Y-116250000D01*
X113498680Y-104800000D02*
X113498680Y-109998680D01*
%TO.N,GPIO_4*%
X131600000Y-115100000D02*
X132750000Y-116250000D01*
X116038680Y-111972994D02*
X119165686Y-115100000D01*
X119165686Y-115100000D02*
X131600000Y-115100000D01*
X116038680Y-104800000D02*
X116038680Y-111972994D01*
%TO.N,GPIO_5*%
X145918680Y-108929847D02*
X145174263Y-109674263D01*
X143748526Y-111100000D02*
X138900000Y-111100000D01*
X145174263Y-109674263D02*
X143748526Y-111100000D01*
%TO.N,GPIO_6*%
X135500000Y-112500000D02*
X141100000Y-112500000D01*
X135077604Y-117094961D02*
X135077604Y-112922396D01*
X135077604Y-112922396D02*
X135500000Y-112500000D01*
X146500000Y-112650000D02*
X144500000Y-112650000D01*
X144500000Y-112650000D02*
X143250000Y-113900000D01*
X143250000Y-113900000D02*
X142500000Y-113900000D01*
X141100000Y-112500000D02*
X142500000Y-113900000D01*
%TO.N,GPIO_7*%
X134477604Y-111772396D02*
X134477604Y-117477604D01*
X134694961Y-117694961D02*
X135326133Y-117694961D01*
X140048680Y-103410000D02*
X138898680Y-102260000D01*
X138250000Y-107250000D02*
X140048680Y-105451320D01*
X135750000Y-117271094D02*
X135750000Y-116500000D01*
X138250000Y-107500000D02*
X138250000Y-107250000D01*
X134477604Y-117477604D02*
X134694961Y-117694961D01*
X135150000Y-111100000D02*
X134477604Y-111772396D01*
X140048680Y-105451320D02*
X140048680Y-103410000D01*
X138000000Y-111100000D02*
X135150000Y-111100000D01*
X135326133Y-117694961D02*
X135750000Y-117271094D01*
%TO.N,GPIO_8*%
X137748680Y-103650000D02*
X136358680Y-102260000D01*
X137748680Y-106850000D02*
X137748680Y-103650000D01*
%TO.N,GPIO_17*%
X142752537Y-113252537D02*
X141311217Y-111811217D01*
X141311217Y-111811217D02*
X137633709Y-111811217D01*
%TO.N,GPIO_18*%
X124500000Y-111500000D02*
X122651471Y-111500000D01*
X120000000Y-108848529D02*
X120000000Y-108250000D01*
X141121320Y-113250000D02*
X135750000Y-113250000D01*
X143352537Y-115481217D02*
X141121320Y-113250000D01*
X122651471Y-111500000D02*
X120000000Y-108848529D01*
%TO.N,GPIO_22*%
X147500000Y-117000000D02*
X147036765Y-116536765D01*
X147036765Y-112961764D02*
X147236765Y-112761764D01*
X146448529Y-111750000D02*
X143000000Y-111750000D01*
X147036765Y-116536765D02*
X147036765Y-112961764D01*
X147236765Y-112761764D02*
X147236765Y-112538236D01*
X147236765Y-112538236D02*
X146448529Y-111750000D01*
%TO.N,GPIO_23*%
X147636765Y-116136765D02*
X147636765Y-107113235D01*
X147636765Y-107113235D02*
X147750000Y-107000000D01*
%TO.N,Net-(D1A-K)*%
X144900000Y-116000000D02*
X144750000Y-116150000D01*
X149500000Y-118250000D02*
X149500000Y-114674557D01*
X140900000Y-118900000D02*
X141000000Y-119000000D01*
X145750000Y-119000000D02*
X148750000Y-119000000D01*
X134000000Y-119000000D02*
X137750000Y-119000000D01*
X141750000Y-119000000D02*
X144750000Y-119000000D01*
X148750000Y-119000000D02*
X149500000Y-118250000D01*
X133750000Y-118750000D02*
X134000000Y-119000000D01*
X149509817Y-114500000D02*
X149592187Y-114582370D01*
X121000000Y-114500000D02*
X125250000Y-114500000D01*
X144750000Y-116150000D02*
X144750000Y-119000000D01*
X149500000Y-114674557D02*
X149592187Y-114582370D01*
X144750000Y-119000000D02*
X145750000Y-119000000D01*
X141000000Y-119000000D02*
X141750000Y-119000000D01*
X129750000Y-114500000D02*
X133750000Y-114500000D01*
X137750000Y-114500000D02*
X137750000Y-119000000D01*
X140900000Y-116000000D02*
X140900000Y-118900000D01*
X133750000Y-114500000D02*
X133750000Y-118750000D01*
X125250000Y-114500000D02*
X129750000Y-114500000D01*
X137750000Y-119000000D02*
X141000000Y-119000000D01*
%TO.N,ID_SC*%
X142750000Y-109000000D02*
X142750000Y-103571320D01*
X142750000Y-103571320D02*
X141438680Y-102260000D01*
%TO.N,TxD*%
X127040000Y-108750000D02*
X127040000Y-106890000D01*
X117428680Y-105428680D02*
X117428680Y-103650000D01*
X117428680Y-103650000D02*
X116038680Y-102260000D01*
X126500000Y-106350000D02*
X118350000Y-106350000D01*
X127040000Y-106890000D02*
X126500000Y-106350000D01*
X118350000Y-106350000D02*
X117428680Y-105428680D01*
%TO.N,ID_SD*%
X139750000Y-106488680D02*
X141438680Y-104800000D01*
X139750000Y-109000000D02*
X139750000Y-106488680D01*
%TO.N,RxD*%
X129000000Y-106000000D02*
X120728680Y-106000000D01*
X120728680Y-106000000D02*
X119728680Y-105000000D01*
X118578680Y-102260000D02*
X119728680Y-103410000D01*
X129580000Y-108750000D02*
X129580000Y-106580000D01*
X129580000Y-106580000D02*
X129000000Y-106000000D01*
X119728680Y-103410000D02*
X119728680Y-105000000D01*
%TO.N,Net-(JP1-A)*%
X119350000Y-117000000D02*
X119500000Y-116850000D01*
X118149999Y-117000000D02*
X119350000Y-117000000D01*
%TD*%
%TA.AperFunction,Conductor*%
%TO.N,GND*%
G36*
X113704855Y-124876546D02*
G01*
X113721575Y-124895842D01*
X113851500Y-125081395D01*
X113851505Y-125081401D01*
X114018599Y-125248495D01*
X114175591Y-125358422D01*
X114204595Y-125378731D01*
X114248219Y-125433308D01*
X114255412Y-125502807D01*
X114223890Y-125565161D01*
X114204594Y-125581881D01*
X114128627Y-125635073D01*
X114128626Y-125635073D01*
X114760591Y-126267037D01*
X114697007Y-126284075D01*
X114582993Y-126349901D01*
X114489901Y-126442993D01*
X114424075Y-126557007D01*
X114407037Y-126620590D01*
X113770841Y-125984394D01*
X113718295Y-125973834D01*
X113668112Y-125925219D01*
X113658282Y-125903077D01*
X113634358Y-125830880D01*
X113634356Y-125830875D01*
X113542315Y-125681654D01*
X113418345Y-125557684D01*
X113269124Y-125465643D01*
X113269117Y-125465640D01*
X113260283Y-125462713D01*
X113202839Y-125422939D01*
X113176018Y-125358422D01*
X113188335Y-125289647D01*
X113217682Y-125252432D01*
X113217573Y-125252323D01*
X113218495Y-125251400D01*
X113219588Y-125250015D01*
X113221385Y-125248505D01*
X113221401Y-125248495D01*
X113388495Y-125081401D01*
X113518425Y-124895842D01*
X113573002Y-124852217D01*
X113642500Y-124845023D01*
X113704855Y-124876546D01*
G37*
%TD.AperFunction*%
%TA.AperFunction,Conductor*%
G36*
X116244855Y-124876546D02*
G01*
X116261575Y-124895842D01*
X116391500Y-125081395D01*
X116391505Y-125081401D01*
X116558599Y-125248495D01*
X116715591Y-125358422D01*
X116744595Y-125378731D01*
X116788219Y-125433308D01*
X116795412Y-125502807D01*
X116763890Y-125565161D01*
X116744594Y-125581881D01*
X116668627Y-125635073D01*
X116668626Y-125635073D01*
X117300591Y-126267037D01*
X117237007Y-126284075D01*
X117122993Y-126349901D01*
X117029901Y-126442993D01*
X116964075Y-126557007D01*
X116947037Y-126620590D01*
X116315073Y-125988626D01*
X116315073Y-125988627D01*
X116261575Y-126065031D01*
X116206999Y-126108656D01*
X116137500Y-126115850D01*
X116075145Y-126084327D01*
X116058425Y-126065032D01*
X116004925Y-125988626D01*
X115372962Y-126620590D01*
X115355925Y-126557007D01*
X115290099Y-126442993D01*
X115197007Y-126349901D01*
X115082993Y-126284075D01*
X115019409Y-126267037D01*
X115651372Y-125635073D01*
X115651372Y-125635072D01*
X115575405Y-125581879D01*
X115531780Y-125527302D01*
X115524588Y-125457804D01*
X115556110Y-125395449D01*
X115575406Y-125378730D01*
X115604409Y-125358422D01*
X115761401Y-125248495D01*
X115928495Y-125081401D01*
X116058425Y-124895842D01*
X116113002Y-124852217D01*
X116182500Y-124845023D01*
X116244855Y-124876546D01*
G37*
%TD.AperFunction*%
%TA.AperFunction,Conductor*%
G36*
X118784855Y-124876546D02*
G01*
X118801575Y-124895842D01*
X118931500Y-125081395D01*
X118931505Y-125081401D01*
X119098599Y-125248495D01*
X119255591Y-125358422D01*
X119284595Y-125378731D01*
X119328219Y-125433308D01*
X119335412Y-125502807D01*
X119303890Y-125565161D01*
X119284594Y-125581881D01*
X119208627Y-125635073D01*
X119208626Y-125635073D01*
X119840591Y-126267037D01*
X119777007Y-126284075D01*
X119662993Y-126349901D01*
X119569901Y-126442993D01*
X119504075Y-126557007D01*
X119487037Y-126620590D01*
X118855073Y-125988626D01*
X118855073Y-125988627D01*
X118801575Y-126065031D01*
X118746999Y-126108656D01*
X118677500Y-126115850D01*
X118615145Y-126084327D01*
X118598425Y-126065032D01*
X118544925Y-125988626D01*
X117912962Y-126620590D01*
X117895925Y-126557007D01*
X117830099Y-126442993D01*
X117737007Y-126349901D01*
X117622993Y-126284075D01*
X117559409Y-126267037D01*
X118191372Y-125635073D01*
X118191372Y-125635072D01*
X118115405Y-125581879D01*
X118071780Y-125527302D01*
X118064588Y-125457804D01*
X118096110Y-125395449D01*
X118115406Y-125378730D01*
X118144409Y-125358422D01*
X118301401Y-125248495D01*
X118468495Y-125081401D01*
X118598425Y-124895842D01*
X118653002Y-124852217D01*
X118722500Y-124845023D01*
X118784855Y-124876546D01*
G37*
%TD.AperFunction*%
%TA.AperFunction,Conductor*%
G36*
X121324855Y-124876546D02*
G01*
X121341575Y-124895842D01*
X121471500Y-125081395D01*
X121471505Y-125081401D01*
X121638599Y-125248495D01*
X121795591Y-125358422D01*
X121824595Y-125378731D01*
X121868219Y-125433308D01*
X121875412Y-125502807D01*
X121843890Y-125565161D01*
X121824594Y-125581881D01*
X121748627Y-125635073D01*
X121748626Y-125635073D01*
X122380591Y-126267037D01*
X122317007Y-126284075D01*
X122202993Y-126349901D01*
X122109901Y-126442993D01*
X122044075Y-126557007D01*
X122027037Y-126620590D01*
X121395073Y-125988626D01*
X121395073Y-125988627D01*
X121341575Y-126065031D01*
X121286999Y-126108656D01*
X121217500Y-126115850D01*
X121155145Y-126084327D01*
X121138425Y-126065032D01*
X121084925Y-125988626D01*
X120452962Y-126620590D01*
X120435925Y-126557007D01*
X120370099Y-126442993D01*
X120277007Y-126349901D01*
X120162993Y-126284075D01*
X120099409Y-126267037D01*
X120731372Y-125635073D01*
X120731372Y-125635072D01*
X120655405Y-125581879D01*
X120611780Y-125527302D01*
X120604588Y-125457804D01*
X120636110Y-125395449D01*
X120655406Y-125378730D01*
X120684409Y-125358422D01*
X120841401Y-125248495D01*
X121008495Y-125081401D01*
X121138425Y-124895842D01*
X121193002Y-124852217D01*
X121262500Y-124845023D01*
X121324855Y-124876546D01*
G37*
%TD.AperFunction*%
%TA.AperFunction,Conductor*%
G36*
X123864855Y-124876546D02*
G01*
X123881575Y-124895842D01*
X124011500Y-125081395D01*
X124011505Y-125081401D01*
X124178599Y-125248495D01*
X124335591Y-125358422D01*
X124364595Y-125378731D01*
X124408219Y-125433308D01*
X124415412Y-125502807D01*
X124383890Y-125565161D01*
X124364594Y-125581881D01*
X124288627Y-125635073D01*
X124288626Y-125635073D01*
X124920591Y-126267037D01*
X124857007Y-126284075D01*
X124742993Y-126349901D01*
X124649901Y-126442993D01*
X124584075Y-126557007D01*
X124567037Y-126620590D01*
X123935073Y-125988626D01*
X123935073Y-125988627D01*
X123881575Y-126065031D01*
X123826999Y-126108656D01*
X123757500Y-126115850D01*
X123695145Y-126084327D01*
X123678425Y-126065032D01*
X123624925Y-125988626D01*
X122992962Y-126620590D01*
X122975925Y-126557007D01*
X122910099Y-126442993D01*
X122817007Y-126349901D01*
X122702993Y-126284075D01*
X122639409Y-126267037D01*
X123271372Y-125635073D01*
X123271372Y-125635072D01*
X123195405Y-125581879D01*
X123151780Y-125527302D01*
X123144588Y-125457804D01*
X123176110Y-125395449D01*
X123195406Y-125378730D01*
X123224409Y-125358422D01*
X123381401Y-125248495D01*
X123548495Y-125081401D01*
X123678425Y-124895842D01*
X123733002Y-124852217D01*
X123802500Y-124845023D01*
X123864855Y-124876546D01*
G37*
%TD.AperFunction*%
%TA.AperFunction,Conductor*%
G36*
X126404855Y-124876546D02*
G01*
X126421575Y-124895842D01*
X126551500Y-125081395D01*
X126551505Y-125081401D01*
X126718599Y-125248495D01*
X126875591Y-125358422D01*
X126904595Y-125378731D01*
X126948219Y-125433308D01*
X126955412Y-125502807D01*
X126923890Y-125565161D01*
X126904594Y-125581881D01*
X126828627Y-125635073D01*
X126828626Y-125635073D01*
X127460591Y-126267037D01*
X127397007Y-126284075D01*
X127282993Y-126349901D01*
X127189901Y-126442993D01*
X127124075Y-126557007D01*
X127107037Y-126620590D01*
X126475073Y-125988626D01*
X126475073Y-125988627D01*
X126421575Y-126065031D01*
X126366999Y-126108656D01*
X126297500Y-126115850D01*
X126235145Y-126084327D01*
X126218425Y-126065032D01*
X126164925Y-125988626D01*
X125532962Y-126620590D01*
X125515925Y-126557007D01*
X125450099Y-126442993D01*
X125357007Y-126349901D01*
X125242993Y-126284075D01*
X125179409Y-126267037D01*
X125811372Y-125635073D01*
X125811372Y-125635072D01*
X125735405Y-125581879D01*
X125691780Y-125527302D01*
X125684588Y-125457804D01*
X125716110Y-125395449D01*
X125735406Y-125378730D01*
X125764409Y-125358422D01*
X125921401Y-125248495D01*
X126088495Y-125081401D01*
X126218425Y-124895842D01*
X126273002Y-124852217D01*
X126342500Y-124845023D01*
X126404855Y-124876546D01*
G37*
%TD.AperFunction*%
%TA.AperFunction,Conductor*%
G36*
X128944855Y-124876546D02*
G01*
X128961575Y-124895842D01*
X129091500Y-125081395D01*
X129091505Y-125081401D01*
X129258599Y-125248495D01*
X129415591Y-125358422D01*
X129444595Y-125378731D01*
X129488219Y-125433308D01*
X129495412Y-125502807D01*
X129463890Y-125565161D01*
X129444594Y-125581881D01*
X129368627Y-125635073D01*
X129368626Y-125635073D01*
X130000591Y-126267037D01*
X129937007Y-126284075D01*
X129822993Y-126349901D01*
X129729901Y-126442993D01*
X129664075Y-126557007D01*
X129647037Y-126620590D01*
X129015073Y-125988626D01*
X129015073Y-125988627D01*
X128961575Y-126065031D01*
X128906999Y-126108656D01*
X128837500Y-126115850D01*
X128775145Y-126084327D01*
X128758425Y-126065032D01*
X128704925Y-125988626D01*
X128072962Y-126620590D01*
X128055925Y-126557007D01*
X127990099Y-126442993D01*
X127897007Y-126349901D01*
X127782993Y-126284075D01*
X127719409Y-126267037D01*
X128351372Y-125635073D01*
X128351372Y-125635072D01*
X128275405Y-125581879D01*
X128231780Y-125527302D01*
X128224588Y-125457804D01*
X128256110Y-125395449D01*
X128275406Y-125378730D01*
X128304409Y-125358422D01*
X128461401Y-125248495D01*
X128628495Y-125081401D01*
X128758425Y-124895842D01*
X128813002Y-124852217D01*
X128882500Y-124845023D01*
X128944855Y-124876546D01*
G37*
%TD.AperFunction*%
%TA.AperFunction,Conductor*%
G36*
X131484855Y-124876546D02*
G01*
X131501575Y-124895842D01*
X131631500Y-125081395D01*
X131631505Y-125081401D01*
X131798599Y-125248495D01*
X131955591Y-125358422D01*
X131984595Y-125378731D01*
X132028219Y-125433308D01*
X132035412Y-125502807D01*
X132003890Y-125565161D01*
X131984594Y-125581881D01*
X131908627Y-125635073D01*
X131908626Y-125635073D01*
X132540591Y-126267037D01*
X132477007Y-126284075D01*
X132362993Y-126349901D01*
X132269901Y-126442993D01*
X132204075Y-126557007D01*
X132187037Y-126620590D01*
X131555073Y-125988626D01*
X131555073Y-125988627D01*
X131501575Y-126065031D01*
X131446999Y-126108656D01*
X131377500Y-126115850D01*
X131315145Y-126084327D01*
X131298425Y-126065032D01*
X131244925Y-125988626D01*
X130612962Y-126620590D01*
X130595925Y-126557007D01*
X130530099Y-126442993D01*
X130437007Y-126349901D01*
X130322993Y-126284075D01*
X130259409Y-126267037D01*
X130891372Y-125635073D01*
X130891372Y-125635072D01*
X130815405Y-125581879D01*
X130771780Y-125527302D01*
X130764588Y-125457804D01*
X130796110Y-125395449D01*
X130815406Y-125378730D01*
X130844409Y-125358422D01*
X131001401Y-125248495D01*
X131168495Y-125081401D01*
X131298425Y-124895842D01*
X131353002Y-124852217D01*
X131422500Y-124845023D01*
X131484855Y-124876546D01*
G37*
%TD.AperFunction*%
%TA.AperFunction,Conductor*%
G36*
X134024855Y-124876546D02*
G01*
X134041575Y-124895842D01*
X134171501Y-125081396D01*
X134171506Y-125081402D01*
X134338597Y-125248493D01*
X134338603Y-125248498D01*
X134524158Y-125378425D01*
X134567783Y-125433002D01*
X134574977Y-125502500D01*
X134543454Y-125564855D01*
X134524158Y-125581575D01*
X134338597Y-125711505D01*
X134171508Y-125878594D01*
X134041269Y-126064595D01*
X133986692Y-126108219D01*
X133917193Y-126115412D01*
X133854839Y-126083890D01*
X133838119Y-126064595D01*
X133784925Y-125988626D01*
X133152962Y-126620590D01*
X133135925Y-126557007D01*
X133070099Y-126442993D01*
X132977007Y-126349901D01*
X132862993Y-126284075D01*
X132799409Y-126267037D01*
X133431372Y-125635073D01*
X133431372Y-125635072D01*
X133355405Y-125581879D01*
X133311780Y-125527302D01*
X133304588Y-125457804D01*
X133336110Y-125395449D01*
X133355406Y-125378730D01*
X133384409Y-125358422D01*
X133541401Y-125248495D01*
X133708495Y-125081401D01*
X133838425Y-124895842D01*
X133893002Y-124852217D01*
X133962500Y-124845023D01*
X134024855Y-124876546D01*
G37*
%TD.AperFunction*%
%TA.AperFunction,Conductor*%
G36*
X142364075Y-124402993D02*
G01*
X142429901Y-124517007D01*
X142522993Y-124610099D01*
X142637007Y-124675925D01*
X142700591Y-124692962D01*
X142068627Y-125324925D01*
X142144595Y-125378119D01*
X142188219Y-125432696D01*
X142195412Y-125502195D01*
X142163890Y-125564549D01*
X142144595Y-125581269D01*
X141958594Y-125711508D01*
X141791505Y-125878597D01*
X141661575Y-126064158D01*
X141606998Y-126107783D01*
X141537500Y-126114977D01*
X141475145Y-126083454D01*
X141458425Y-126064158D01*
X141328494Y-125878597D01*
X141161402Y-125711506D01*
X141161396Y-125711501D01*
X140975842Y-125581575D01*
X140932217Y-125526998D01*
X140925023Y-125457500D01*
X140956546Y-125395145D01*
X140975842Y-125378425D01*
X141052248Y-125324925D01*
X141161401Y-125248495D01*
X141328495Y-125081401D01*
X141458730Y-124895405D01*
X141513307Y-124851781D01*
X141582805Y-124844587D01*
X141645160Y-124876110D01*
X141661879Y-124895405D01*
X141715072Y-124971372D01*
X141715073Y-124971372D01*
X142347037Y-124339408D01*
X142364075Y-124402993D01*
G37*
%TD.AperFunction*%
%TA.AperFunction,Conductor*%
G36*
X143944925Y-124971371D02*
G01*
X143998120Y-124895404D01*
X144052697Y-124851780D01*
X144122196Y-124844588D01*
X144184550Y-124876111D01*
X144201268Y-124895404D01*
X144331505Y-125081401D01*
X144331506Y-125081402D01*
X144498597Y-125248493D01*
X144498603Y-125248498D01*
X144684158Y-125378425D01*
X144727783Y-125433002D01*
X144734977Y-125502500D01*
X144703454Y-125564855D01*
X144684158Y-125581575D01*
X144498597Y-125711505D01*
X144331505Y-125878597D01*
X144201575Y-126064158D01*
X144146998Y-126107783D01*
X144077500Y-126114977D01*
X144015145Y-126083454D01*
X143998425Y-126064158D01*
X143868494Y-125878597D01*
X143701402Y-125711506D01*
X143701401Y-125711505D01*
X143515405Y-125581269D01*
X143471781Y-125526692D01*
X143464588Y-125457193D01*
X143496110Y-125394839D01*
X143515404Y-125378120D01*
X143591371Y-125324925D01*
X142959408Y-124692962D01*
X143022993Y-124675925D01*
X143137007Y-124610099D01*
X143230099Y-124517007D01*
X143295925Y-124402993D01*
X143312962Y-124339408D01*
X143944925Y-124971371D01*
G37*
%TD.AperFunction*%
%TA.AperFunction,Conductor*%
G36*
X107250000Y-101000000D02*
G01*
X107250000Y-101543197D01*
X107238382Y-101595602D01*
X107144778Y-101796335D01*
X107144774Y-101796344D01*
X107083618Y-102024586D01*
X107083616Y-102024596D01*
X107063021Y-102259999D01*
X107063021Y-102260000D01*
X107083616Y-102495403D01*
X107083618Y-102495413D01*
X107144774Y-102723655D01*
X107144776Y-102723659D01*
X107144777Y-102723663D01*
X107238382Y-102924398D01*
X107250000Y-102976803D01*
X107250000Y-103502226D01*
X107230315Y-103569265D01*
X107213681Y-103589907D01*
X107211132Y-103592455D01*
X107124886Y-103707664D01*
X107124882Y-103707671D01*
X107074588Y-103842517D01*
X107068181Y-103902116D01*
X107068180Y-103902135D01*
X107068180Y-105697870D01*
X107068181Y-105697876D01*
X107074588Y-105757483D01*
X107124882Y-105892328D01*
X107124886Y-105892335D01*
X107211132Y-106007544D01*
X107213681Y-106010093D01*
X107215407Y-106013255D01*
X107216448Y-106014645D01*
X107216248Y-106014794D01*
X107247166Y-106071416D01*
X107250000Y-106097774D01*
X107250000Y-106250000D01*
X108899862Y-106258167D01*
X108966801Y-106278183D01*
X109012294Y-106331212D01*
X109021895Y-106400419D01*
X109016288Y-106423119D01*
X108964632Y-106570742D01*
X108964630Y-106570750D01*
X108944435Y-106749996D01*
X108944435Y-106750003D01*
X108964630Y-106929249D01*
X108964631Y-106929254D01*
X109024211Y-107099523D01*
X109094575Y-107211506D01*
X109120184Y-107252262D01*
X109247738Y-107379816D01*
X109338080Y-107436582D01*
X109382721Y-107464632D01*
X109400478Y-107475789D01*
X109547154Y-107527113D01*
X109570745Y-107535368D01*
X109570750Y-107535369D01*
X109749996Y-107555565D01*
X109750000Y-107555565D01*
X109750004Y-107555565D01*
X109929249Y-107535369D01*
X109929252Y-107535368D01*
X109929255Y-107535368D01*
X110099522Y-107475789D01*
X110117282Y-107464630D01*
X110130610Y-107456254D01*
X110168207Y-107432630D01*
X110235444Y-107413630D01*
X110302279Y-107433997D01*
X110347493Y-107487265D01*
X110358180Y-107537624D01*
X110358180Y-108123482D01*
X110358179Y-108123500D01*
X110358179Y-108289206D01*
X110358178Y-108289206D01*
X110358179Y-108289209D01*
X110395703Y-108429249D01*
X110399104Y-108441939D01*
X110414563Y-108468714D01*
X110414564Y-108468716D01*
X110478157Y-108578864D01*
X110478161Y-108578869D01*
X110597029Y-108697737D01*
X110597035Y-108697742D01*
X114262613Y-112363321D01*
X114262619Y-112363326D01*
X114393145Y-112493852D01*
X114426630Y-112555175D01*
X114421646Y-112624867D01*
X114379774Y-112680800D01*
X114314310Y-112705217D01*
X114291581Y-112704753D01*
X114200004Y-112694435D01*
X114199996Y-112694435D01*
X114020750Y-112714630D01*
X114020745Y-112714631D01*
X113850476Y-112774211D01*
X113697737Y-112870184D01*
X113570184Y-112997737D01*
X113474211Y-113150476D01*
X113414631Y-113320745D01*
X113414630Y-113320750D01*
X113394435Y-113499996D01*
X113394435Y-113500003D01*
X113414630Y-113679249D01*
X113414631Y-113679254D01*
X113474211Y-113849523D01*
X113551946Y-113973236D01*
X113570184Y-114002262D01*
X113697738Y-114129816D01*
X113850478Y-114225789D01*
X114020745Y-114285368D01*
X114020750Y-114285369D01*
X114199996Y-114305565D01*
X114200000Y-114305565D01*
X114200004Y-114305565D01*
X114379249Y-114285369D01*
X114379252Y-114285368D01*
X114379255Y-114285368D01*
X114549522Y-114225789D01*
X114702262Y-114129816D01*
X114712319Y-114119759D01*
X114773642Y-114086274D01*
X114843334Y-114091258D01*
X114887681Y-114119759D01*
X114897738Y-114129816D01*
X115050478Y-114225789D01*
X115220745Y-114285368D01*
X115220750Y-114285369D01*
X115399996Y-114305565D01*
X115400000Y-114305565D01*
X115400004Y-114305565D01*
X115579249Y-114285369D01*
X115579252Y-114285368D01*
X115579255Y-114285368D01*
X115749522Y-114225789D01*
X115896432Y-114133478D01*
X115963668Y-114114479D01*
X116030504Y-114134847D01*
X116050085Y-114150792D01*
X116632047Y-114732754D01*
X116665532Y-114794077D01*
X116660548Y-114863769D01*
X116618676Y-114919702D01*
X116556822Y-114942772D01*
X116556922Y-114943655D01*
X116553388Y-114944053D01*
X116553212Y-114944119D01*
X116552614Y-114944140D01*
X116370753Y-114964630D01*
X116370748Y-114964631D01*
X116200479Y-115024211D01*
X116047740Y-115120184D01*
X115920187Y-115247737D01*
X115824214Y-115400476D01*
X115764634Y-115570745D01*
X115764633Y-115570750D01*
X115744438Y-115749996D01*
X115744438Y-115750003D01*
X115764633Y-115929249D01*
X115764634Y-115929254D01*
X115824214Y-116099523D01*
X115877404Y-116184174D01*
X115920187Y-116252262D01*
X116047741Y-116379816D01*
X116126413Y-116429249D01*
X116148286Y-116442993D01*
X116200481Y-116475789D01*
X116313606Y-116515373D01*
X116370748Y-116535368D01*
X116370753Y-116535369D01*
X116549999Y-116555565D01*
X116550003Y-116555565D01*
X116550007Y-116555565D01*
X116729252Y-116535369D01*
X116729255Y-116535368D01*
X116729258Y-116535368D01*
X116899525Y-116475789D01*
X117052265Y-116379816D01*
X117179819Y-116252262D01*
X117275792Y-116099522D01*
X117335371Y-115929255D01*
X117336341Y-115920648D01*
X117356348Y-115743081D01*
X117359161Y-115743398D01*
X117375253Y-115688598D01*
X117428057Y-115642843D01*
X117497215Y-115632899D01*
X117560771Y-115661924D01*
X117567249Y-115667956D01*
X117937266Y-116037973D01*
X117970751Y-116099296D01*
X117965767Y-116168988D01*
X117923895Y-116224921D01*
X117890540Y-116242695D01*
X117800479Y-116274209D01*
X117647736Y-116370184D01*
X117520183Y-116497737D01*
X117424210Y-116650476D01*
X117364630Y-116820745D01*
X117364629Y-116820750D01*
X117344434Y-116999996D01*
X117344434Y-117000003D01*
X117364629Y-117179249D01*
X117364630Y-117179254D01*
X117424210Y-117349523D01*
X117436270Y-117368716D01*
X117520183Y-117502262D01*
X117647737Y-117629816D01*
X117800477Y-117725789D01*
X117903442Y-117761818D01*
X117970744Y-117785368D01*
X117970749Y-117785369D01*
X118149995Y-117805565D01*
X118149999Y-117805565D01*
X118150003Y-117805565D01*
X118329248Y-117785369D01*
X118329251Y-117785368D01*
X118329254Y-117785368D01*
X118499521Y-117725789D01*
X118652261Y-117629816D01*
X118652266Y-117629810D01*
X118655096Y-117627555D01*
X118657274Y-117626665D01*
X118658157Y-117626111D01*
X118658254Y-117626265D01*
X118719782Y-117601145D01*
X118732411Y-117600500D01*
X119200028Y-117600500D01*
X119240983Y-117607458D01*
X119320745Y-117635368D01*
X119320750Y-117635369D01*
X119499996Y-117655565D01*
X119500000Y-117655565D01*
X119500004Y-117655565D01*
X119679249Y-117635369D01*
X119679252Y-117635368D01*
X119679255Y-117635368D01*
X119849522Y-117575789D01*
X120002262Y-117479816D01*
X120129816Y-117352262D01*
X120225789Y-117199522D01*
X120285368Y-117029255D01*
X120288410Y-117002263D01*
X120293102Y-116960617D01*
X120320168Y-116896203D01*
X120377763Y-116856648D01*
X120416322Y-116850500D01*
X128417588Y-116850500D01*
X128484627Y-116870185D01*
X128494903Y-116877555D01*
X128497736Y-116879814D01*
X128497738Y-116879816D01*
X128650478Y-116975789D01*
X128769067Y-117017285D01*
X128820745Y-117035368D01*
X128820750Y-117035369D01*
X128999996Y-117055565D01*
X129000000Y-117055565D01*
X129000004Y-117055565D01*
X129179249Y-117035369D01*
X129179252Y-117035368D01*
X129179255Y-117035368D01*
X129349522Y-116975789D01*
X129434027Y-116922691D01*
X129501264Y-116903690D01*
X129565973Y-116922691D01*
X129650475Y-116975788D01*
X129820745Y-117035368D01*
X129820750Y-117035369D01*
X129999996Y-117055565D01*
X130000000Y-117055565D01*
X130000004Y-117055565D01*
X130179249Y-117035369D01*
X130179252Y-117035368D01*
X130179255Y-117035368D01*
X130349522Y-116975789D01*
X130502262Y-116879816D01*
X130629816Y-116752262D01*
X130725789Y-116599522D01*
X130785368Y-116429255D01*
X130785369Y-116429249D01*
X130805565Y-116250003D01*
X130805565Y-116249996D01*
X130785369Y-116070750D01*
X130785368Y-116070745D01*
X130725788Y-115900475D01*
X130719503Y-115890473D01*
X130700502Y-115823236D01*
X130720869Y-115756401D01*
X130774137Y-115711186D01*
X130824496Y-115700500D01*
X131299903Y-115700500D01*
X131366942Y-115720185D01*
X131387584Y-115736819D01*
X131919298Y-116268533D01*
X131952783Y-116329856D01*
X131954837Y-116342330D01*
X131964630Y-116429249D01*
X132024210Y-116599521D01*
X132083849Y-116694435D01*
X132120184Y-116752262D01*
X132247738Y-116879816D01*
X132400478Y-116975789D01*
X132519067Y-117017285D01*
X132570745Y-117035368D01*
X132570750Y-117035369D01*
X132749996Y-117055565D01*
X132750000Y-117055565D01*
X132750004Y-117055565D01*
X132929249Y-117035369D01*
X132929250Y-117035368D01*
X132929255Y-117035368D01*
X132984545Y-117016020D01*
X133054322Y-117012458D01*
X133114950Y-117047186D01*
X133147178Y-117109179D01*
X133149500Y-117133062D01*
X133149500Y-118663330D01*
X133149499Y-118663348D01*
X133149499Y-118829054D01*
X133149498Y-118829054D01*
X133190423Y-118981785D01*
X133219358Y-119031900D01*
X133219359Y-119031904D01*
X133219360Y-119031904D01*
X133269479Y-119118714D01*
X133269481Y-119118717D01*
X133388349Y-119237585D01*
X133388355Y-119237590D01*
X133515139Y-119364374D01*
X133515149Y-119364385D01*
X133519479Y-119368715D01*
X133519480Y-119368716D01*
X133631284Y-119480520D01*
X133631286Y-119480521D01*
X133631290Y-119480524D01*
X133768209Y-119559573D01*
X133768216Y-119559577D01*
X133880019Y-119589534D01*
X133920942Y-119600500D01*
X133920943Y-119600500D01*
X137670943Y-119600500D01*
X140920942Y-119600500D01*
X140920943Y-119600500D01*
X141670943Y-119600500D01*
X144670943Y-119600500D01*
X145670943Y-119600500D01*
X148663331Y-119600500D01*
X148663347Y-119600501D01*
X148670943Y-119600501D01*
X148829054Y-119600501D01*
X148829057Y-119600501D01*
X148981785Y-119559577D01*
X149031904Y-119530639D01*
X149118716Y-119480520D01*
X149230520Y-119368716D01*
X149230520Y-119368714D01*
X149240728Y-119358507D01*
X149240730Y-119358504D01*
X149858506Y-118740728D01*
X149858511Y-118740724D01*
X149868714Y-118730520D01*
X149868716Y-118730520D01*
X149980520Y-118618716D01*
X150030998Y-118531284D01*
X150059577Y-118481785D01*
X150100500Y-118329057D01*
X150100500Y-118170943D01*
X150100500Y-115257497D01*
X150120185Y-115190458D01*
X150136819Y-115169816D01*
X150174942Y-115131693D01*
X150222003Y-115084632D01*
X150317976Y-114931892D01*
X150377555Y-114761625D01*
X150377556Y-114761619D01*
X150397752Y-114582373D01*
X150397752Y-114582366D01*
X150377556Y-114403120D01*
X150377555Y-114403115D01*
X150336354Y-114285369D01*
X150317976Y-114232848D01*
X150222003Y-114080108D01*
X150094449Y-113952554D01*
X150047397Y-113922989D01*
X149941710Y-113856581D01*
X149771441Y-113797001D01*
X149771436Y-113797000D01*
X149592191Y-113776805D01*
X149592183Y-113776805D01*
X149412937Y-113797000D01*
X149412932Y-113797001D01*
X149242663Y-113856581D01*
X149089924Y-113952554D01*
X148962371Y-114080107D01*
X148866398Y-114232846D01*
X148806818Y-114403115D01*
X148806817Y-114403120D01*
X148786622Y-114582366D01*
X148786622Y-114582373D01*
X148806817Y-114761619D01*
X148806818Y-114761624D01*
X148866397Y-114931891D01*
X148867728Y-114934009D01*
X148880493Y-114954324D01*
X148899500Y-115020297D01*
X148899500Y-117949903D01*
X148879815Y-118016942D01*
X148863181Y-118037584D01*
X148537584Y-118363181D01*
X148476261Y-118396666D01*
X148449903Y-118399500D01*
X145474500Y-118399500D01*
X145407461Y-118379815D01*
X145361706Y-118327011D01*
X145350500Y-118275500D01*
X145350500Y-116730809D01*
X145370185Y-116663770D01*
X145397191Y-116633859D01*
X145402252Y-116629821D01*
X145402262Y-116629816D01*
X145529816Y-116502262D01*
X145625789Y-116349522D01*
X145685368Y-116179255D01*
X145688611Y-116150478D01*
X145705565Y-116000000D01*
X145705565Y-115999996D01*
X145685369Y-115820750D01*
X145685368Y-115820745D01*
X145654312Y-115731993D01*
X145625789Y-115650478D01*
X145614743Y-115632899D01*
X145577450Y-115573547D01*
X145529816Y-115497738D01*
X145402262Y-115370184D01*
X145309951Y-115312181D01*
X145249523Y-115274211D01*
X145079254Y-115214631D01*
X145079249Y-115214630D01*
X144900004Y-115194435D01*
X144899996Y-115194435D01*
X144720750Y-115214630D01*
X144720745Y-115214631D01*
X144550476Y-115274211D01*
X144397737Y-115370184D01*
X144353195Y-115414726D01*
X144291872Y-115448210D01*
X144222180Y-115443225D01*
X144166247Y-115401353D01*
X144142295Y-115340928D01*
X144137905Y-115301962D01*
X144078326Y-115131695D01*
X144058923Y-115100816D01*
X144019735Y-115038448D01*
X143982353Y-114978955D01*
X143854799Y-114851401D01*
X143802686Y-114818656D01*
X143702058Y-114755427D01*
X143531786Y-114695847D01*
X143521734Y-114694715D01*
X143457320Y-114667648D01*
X143417765Y-114610053D01*
X143415628Y-114540216D01*
X143451586Y-114480310D01*
X143475535Y-114465010D01*
X143474745Y-114463642D01*
X143492179Y-114453575D01*
X143531904Y-114430639D01*
X143618716Y-114380520D01*
X143730520Y-114268716D01*
X143730520Y-114268714D01*
X143740728Y-114258507D01*
X143740729Y-114258504D01*
X144712416Y-113286819D01*
X144773739Y-113253334D01*
X144800097Y-113250500D01*
X145917588Y-113250500D01*
X145984627Y-113270185D01*
X145994903Y-113277555D01*
X145997736Y-113279814D01*
X145997738Y-113279816D01*
X146150478Y-113375789D01*
X146320745Y-113435368D01*
X146326144Y-113435976D01*
X146390559Y-113463041D01*
X146430116Y-113520634D01*
X146436265Y-113559197D01*
X146436265Y-116450095D01*
X146436264Y-116450113D01*
X146436264Y-116615819D01*
X146436263Y-116615819D01*
X146442482Y-116639027D01*
X146477188Y-116768550D01*
X146497957Y-116804523D01*
X146556242Y-116905477D01*
X146556246Y-116905482D01*
X146669298Y-117018534D01*
X146702783Y-117079857D01*
X146704837Y-117092331D01*
X146714630Y-117179249D01*
X146774210Y-117349521D01*
X146786271Y-117368716D01*
X146870184Y-117502262D01*
X146997738Y-117629816D01*
X147150478Y-117725789D01*
X147253443Y-117761818D01*
X147320745Y-117785368D01*
X147320750Y-117785369D01*
X147499996Y-117805565D01*
X147500000Y-117805565D01*
X147500004Y-117805565D01*
X147679249Y-117785369D01*
X147679252Y-117785368D01*
X147679255Y-117785368D01*
X147849522Y-117725789D01*
X148002262Y-117629816D01*
X148129816Y-117502262D01*
X148225789Y-117349522D01*
X148285368Y-117179255D01*
X148285369Y-117179249D01*
X148305565Y-117000003D01*
X148305565Y-116999996D01*
X148285369Y-116820753D01*
X148285368Y-116820751D01*
X148285368Y-116820745D01*
X148257528Y-116741186D01*
X148253967Y-116671408D01*
X148269576Y-116634260D01*
X148269828Y-116633859D01*
X148362554Y-116486287D01*
X148422133Y-116316020D01*
X148423941Y-116299972D01*
X148442330Y-116136768D01*
X148442330Y-116136761D01*
X148422134Y-115957515D01*
X148422133Y-115957510D01*
X148402177Y-115900478D01*
X148362554Y-115787243D01*
X148360563Y-115784075D01*
X148327837Y-115731991D01*
X148266581Y-115634503D01*
X148266579Y-115634501D01*
X148266578Y-115634499D01*
X148264315Y-115631661D01*
X148263424Y-115629480D01*
X148262876Y-115628607D01*
X148263029Y-115628510D01*
X148237909Y-115566974D01*
X148237265Y-115554352D01*
X148237265Y-110749996D01*
X151444435Y-110749996D01*
X151444435Y-110750003D01*
X151464630Y-110929249D01*
X151464631Y-110929254D01*
X151524211Y-111099523D01*
X151599152Y-111218790D01*
X151620184Y-111252262D01*
X151747738Y-111379816D01*
X151900478Y-111475789D01*
X151969672Y-111500001D01*
X152070745Y-111535368D01*
X152070750Y-111535369D01*
X152249996Y-111555565D01*
X152250000Y-111555565D01*
X152250004Y-111555565D01*
X152429249Y-111535369D01*
X152429252Y-111535368D01*
X152429255Y-111535368D01*
X152599522Y-111475789D01*
X152752262Y-111379816D01*
X152879816Y-111252262D01*
X152975789Y-111099522D01*
X153035368Y-110929255D01*
X153037276Y-110912321D01*
X153055565Y-110750003D01*
X153055565Y-110749996D01*
X153035369Y-110570750D01*
X153035368Y-110570745D01*
X153002141Y-110475789D01*
X152975789Y-110400478D01*
X152962807Y-110379818D01*
X152936582Y-110338080D01*
X152879816Y-110247738D01*
X152752262Y-110120184D01*
X152718879Y-110099208D01*
X152599523Y-110024211D01*
X152429254Y-109964631D01*
X152429249Y-109964630D01*
X152250004Y-109944435D01*
X152249996Y-109944435D01*
X152070750Y-109964630D01*
X152070745Y-109964631D01*
X151900476Y-110024211D01*
X151747737Y-110120184D01*
X151620184Y-110247737D01*
X151524211Y-110400476D01*
X151464631Y-110570745D01*
X151464630Y-110570750D01*
X151444435Y-110749996D01*
X148237265Y-110749996D01*
X148237265Y-107696175D01*
X148256950Y-107629136D01*
X148273584Y-107608494D01*
X148326513Y-107555565D01*
X148379816Y-107502262D01*
X148475789Y-107349522D01*
X148535368Y-107179255D01*
X148535369Y-107179249D01*
X148555565Y-107000003D01*
X148555565Y-107000001D01*
X148554256Y-106988386D01*
X148566309Y-106919564D01*
X148613657Y-106868184D01*
X148677476Y-106850500D01*
X152602011Y-106850500D01*
X152602027Y-106850501D01*
X152609623Y-106850501D01*
X152767734Y-106850501D01*
X152767737Y-106850501D01*
X152920465Y-106809577D01*
X152981720Y-106774211D01*
X153057396Y-106730520D01*
X153169200Y-106618716D01*
X153169200Y-106618714D01*
X153179406Y-106608509D01*
X153179410Y-106608504D01*
X153273322Y-106514592D01*
X153334645Y-106481107D01*
X153361613Y-106478275D01*
X154564796Y-106484231D01*
X154631735Y-106504247D01*
X154677228Y-106557277D01*
X154688180Y-106608229D01*
X154688180Y-119411222D01*
X154668495Y-119478261D01*
X154651861Y-119498903D01*
X153787584Y-120363181D01*
X153726261Y-120396666D01*
X153699903Y-120399500D01*
X115898627Y-120399500D01*
X115831588Y-120379815D01*
X115810946Y-120363181D01*
X113299415Y-117851651D01*
X113265930Y-117790328D01*
X113270054Y-117723016D01*
X113285368Y-117679255D01*
X113290313Y-117635368D01*
X113305565Y-117500003D01*
X113305565Y-117499996D01*
X113285369Y-117320750D01*
X113285368Y-117320745D01*
X113240331Y-117192037D01*
X113225789Y-117150478D01*
X113129816Y-116997738D01*
X113002262Y-116870184D01*
X112969379Y-116849522D01*
X112849523Y-116774211D01*
X112679254Y-116714631D01*
X112679249Y-116714630D01*
X112500004Y-116694435D01*
X112499996Y-116694435D01*
X112320750Y-116714630D01*
X112320745Y-116714631D01*
X112150476Y-116774211D01*
X111997737Y-116870184D01*
X111870184Y-116997737D01*
X111774211Y-117150476D01*
X111714631Y-117320745D01*
X111714630Y-117320750D01*
X111694435Y-117499996D01*
X111694435Y-117500003D01*
X111714630Y-117679249D01*
X111714631Y-117679254D01*
X111774211Y-117849523D01*
X111870184Y-118002262D01*
X111894689Y-118026767D01*
X111926782Y-118082352D01*
X111940422Y-118133254D01*
X111940423Y-118133257D01*
X111949800Y-118149497D01*
X111949801Y-118149499D01*
X112019477Y-118270183D01*
X112019481Y-118270188D01*
X112138349Y-118389056D01*
X112138354Y-118389060D01*
X115229813Y-121480520D01*
X115229815Y-121480521D01*
X115229819Y-121480524D01*
X115366738Y-121559573D01*
X115366745Y-121559577D01*
X115519472Y-121600501D01*
X115519474Y-121600501D01*
X115685183Y-121600501D01*
X115685199Y-121600500D01*
X153913331Y-121600500D01*
X153913347Y-121600501D01*
X153920943Y-121600501D01*
X154079054Y-121600501D01*
X154079057Y-121600501D01*
X154231785Y-121559577D01*
X154281904Y-121530639D01*
X154368716Y-121480520D01*
X154480520Y-121368716D01*
X154480520Y-121368714D01*
X154490728Y-121358507D01*
X154490729Y-121358504D01*
X155769200Y-120080036D01*
X155848257Y-119943104D01*
X155889181Y-119790377D01*
X155889181Y-119632262D01*
X155889181Y-119624667D01*
X155889180Y-119624649D01*
X155889180Y-113099983D01*
X156499500Y-113099983D01*
X156499500Y-114400001D01*
X156499501Y-114400018D01*
X156510000Y-114502796D01*
X156510001Y-114502799D01*
X156565185Y-114669331D01*
X156565187Y-114669336D01*
X156571305Y-114679255D01*
X156657288Y-114818656D01*
X156781344Y-114942712D01*
X156887449Y-115008158D01*
X156936558Y-115038448D01*
X156983283Y-115090396D01*
X156994506Y-115159358D01*
X156966663Y-115223441D01*
X156959144Y-115231668D01*
X156820271Y-115370541D01*
X156695379Y-115542442D01*
X156598904Y-115731782D01*
X156533242Y-115933870D01*
X156533242Y-115933873D01*
X156522769Y-116000000D01*
X157566988Y-116000000D01*
X157534075Y-116057007D01*
X157500000Y-116184174D01*
X157500000Y-116315826D01*
X157534075Y-116442993D01*
X157566988Y-116500000D01*
X156522769Y-116500000D01*
X156533242Y-116566126D01*
X156533242Y-116566129D01*
X156598904Y-116768217D01*
X156695379Y-116957557D01*
X156820272Y-117129459D01*
X156820276Y-117129464D01*
X156970535Y-117279723D01*
X156970540Y-117279727D01*
X157142442Y-117404620D01*
X157331782Y-117501095D01*
X157533870Y-117566757D01*
X157743754Y-117600000D01*
X157750000Y-117600000D01*
X157750000Y-116683012D01*
X157807007Y-116715925D01*
X157934174Y-116750000D01*
X158065826Y-116750000D01*
X158192993Y-116715925D01*
X158250000Y-116683012D01*
X158250000Y-117600000D01*
X158256246Y-117600000D01*
X158466127Y-117566757D01*
X158466130Y-117566757D01*
X158668217Y-117501095D01*
X158857557Y-117404620D01*
X159029459Y-117279727D01*
X159029464Y-117279723D01*
X159179723Y-117129464D01*
X159179727Y-117129459D01*
X159304620Y-116957557D01*
X159401095Y-116768217D01*
X159466757Y-116566129D01*
X159466757Y-116566126D01*
X159477231Y-116500000D01*
X158433012Y-116500000D01*
X158465925Y-116442993D01*
X158500000Y-116315826D01*
X158500000Y-116184174D01*
X158465925Y-116057007D01*
X158433012Y-116000000D01*
X159477231Y-116000000D01*
X159466757Y-115933873D01*
X159466757Y-115933870D01*
X159401095Y-115731782D01*
X159304620Y-115542442D01*
X159179727Y-115370540D01*
X159179723Y-115370535D01*
X159040856Y-115231668D01*
X159007371Y-115170345D01*
X159012355Y-115100653D01*
X159054227Y-115044720D01*
X159063441Y-115038448D01*
X159069331Y-115034814D01*
X159069334Y-115034814D01*
X159218656Y-114942712D01*
X159342712Y-114818656D01*
X159434814Y-114669334D01*
X159489999Y-114502797D01*
X159500500Y-114400009D01*
X159500499Y-113099992D01*
X159489999Y-112997203D01*
X159434814Y-112830666D01*
X159342712Y-112681344D01*
X159218656Y-112557288D01*
X159090933Y-112478508D01*
X159069336Y-112465187D01*
X159069331Y-112465185D01*
X159067862Y-112464698D01*
X158902797Y-112410001D01*
X158902795Y-112410000D01*
X158800010Y-112399500D01*
X157199998Y-112399500D01*
X157199981Y-112399501D01*
X157097203Y-112410000D01*
X157097200Y-112410001D01*
X156930668Y-112465185D01*
X156930663Y-112465187D01*
X156781342Y-112557289D01*
X156657289Y-112681342D01*
X156565187Y-112830663D01*
X156565185Y-112830668D01*
X156558779Y-112850000D01*
X156510001Y-112997203D01*
X156510001Y-112997204D01*
X156510000Y-112997204D01*
X156499500Y-113099983D01*
X155889180Y-113099983D01*
X155889180Y-106615402D01*
X155908865Y-106548363D01*
X155961669Y-106502608D01*
X156013789Y-106491404D01*
X157750000Y-106500000D01*
X157750000Y-103372070D01*
X159903180Y-103372070D01*
X159903180Y-103627929D01*
X159943206Y-103880640D01*
X160022268Y-104123972D01*
X160022269Y-104123975D01*
X160138430Y-104351950D01*
X160288812Y-104558935D01*
X160288816Y-104558940D01*
X160469739Y-104739863D01*
X160469744Y-104739867D01*
X160650287Y-104871038D01*
X160676733Y-104890252D01*
X160825760Y-104966185D01*
X160904704Y-105006410D01*
X160904707Y-105006411D01*
X161026373Y-105045942D01*
X161148041Y-105085474D01*
X161400750Y-105125500D01*
X161400751Y-105125500D01*
X161656609Y-105125500D01*
X161656610Y-105125500D01*
X161909319Y-105085474D01*
X162152655Y-105006410D01*
X162380627Y-104890252D01*
X162587622Y-104739862D01*
X162768542Y-104558942D01*
X162918932Y-104351947D01*
X163035090Y-104123975D01*
X163114154Y-103880639D01*
X163154180Y-103627930D01*
X163154180Y-103372070D01*
X163114154Y-103119361D01*
X163074050Y-102995932D01*
X163035091Y-102876027D01*
X163035090Y-102876024D01*
X162994865Y-102797080D01*
X162918932Y-102648053D01*
X162808033Y-102495413D01*
X162768547Y-102441064D01*
X162768543Y-102441059D01*
X162587620Y-102260136D01*
X162587615Y-102260132D01*
X162380630Y-102109750D01*
X162380629Y-102109749D01*
X162380627Y-102109748D01*
X162307590Y-102072533D01*
X162152655Y-101993589D01*
X162152652Y-101993588D01*
X161909320Y-101914526D01*
X161782964Y-101894513D01*
X161656610Y-101874500D01*
X161400750Y-101874500D01*
X161316513Y-101887842D01*
X161148039Y-101914526D01*
X160904707Y-101993588D01*
X160904704Y-101993589D01*
X160676729Y-102109750D01*
X160469744Y-102260132D01*
X160469739Y-102260136D01*
X160288816Y-102441059D01*
X160288812Y-102441064D01*
X160138430Y-102648049D01*
X160022269Y-102876024D01*
X160022268Y-102876027D01*
X159943206Y-103119359D01*
X159903180Y-103372070D01*
X157750000Y-103372070D01*
X157750000Y-103123619D01*
X157769685Y-103056580D01*
X157772410Y-103052516D01*
X157852715Y-102937830D01*
X157952583Y-102723663D01*
X158013743Y-102495408D01*
X158034339Y-102260000D01*
X158013743Y-102024592D01*
X157962140Y-101832003D01*
X157952585Y-101796344D01*
X157952584Y-101796343D01*
X157952583Y-101796337D01*
X157852715Y-101582171D01*
X157825425Y-101543197D01*
X157772425Y-101467504D01*
X157750098Y-101401298D01*
X157750000Y-101396381D01*
X157750000Y-101000000D01*
X157750000Y-100500500D01*
X161462788Y-100500500D01*
X161962787Y-100500500D01*
X161962791Y-100500501D01*
X162024933Y-100500500D01*
X162032419Y-100500725D01*
X162322483Y-100518269D01*
X162337341Y-100520073D01*
X162619489Y-100571778D01*
X162633999Y-100575353D01*
X162907865Y-100660691D01*
X162921862Y-100666000D01*
X163183426Y-100783719D01*
X163196685Y-100790678D01*
X163442150Y-100939066D01*
X163454473Y-100947572D01*
X163680262Y-101124464D01*
X163691470Y-101134393D01*
X163894295Y-101337216D01*
X163904220Y-101348419D01*
X164024180Y-101501536D01*
X164081119Y-101574212D01*
X164089623Y-101586532D01*
X164238013Y-101831999D01*
X164238016Y-101832003D01*
X164244973Y-101845259D01*
X164276148Y-101914526D01*
X164362694Y-102106822D01*
X164367999Y-102120810D01*
X164411416Y-102260138D01*
X164453335Y-102394661D01*
X164456918Y-102409199D01*
X164508623Y-102691338D01*
X164510428Y-102706203D01*
X164527954Y-102995932D01*
X164528180Y-103003419D01*
X164528180Y-126996249D01*
X164527954Y-127003736D01*
X164510408Y-127293793D01*
X164508603Y-127308658D01*
X164456900Y-127590792D01*
X164453316Y-127605331D01*
X164367983Y-127879173D01*
X164362677Y-127893166D01*
X164244955Y-128154732D01*
X164238000Y-128167984D01*
X164089608Y-128413453D01*
X164081102Y-128425776D01*
X163904210Y-128651561D01*
X163894280Y-128662770D01*
X163691457Y-128865591D01*
X163680249Y-128875520D01*
X163454459Y-129052414D01*
X163442135Y-129060920D01*
X163196679Y-129209301D01*
X163183421Y-129216260D01*
X162921857Y-129333979D01*
X162907856Y-129339289D01*
X162634008Y-129424622D01*
X162619469Y-129428205D01*
X162337343Y-129479905D01*
X162322478Y-129481710D01*
X162032087Y-129499273D01*
X162024601Y-129499499D01*
X161955197Y-129499499D01*
X161955181Y-129499500D01*
X103032435Y-129499500D01*
X103024947Y-129499274D01*
X103024930Y-129499273D01*
X103021345Y-129499056D01*
X102734888Y-129481726D01*
X102720024Y-129479921D01*
X102437891Y-129428217D01*
X102423352Y-129424633D01*
X102149513Y-129339300D01*
X102135512Y-129333990D01*
X101873953Y-129216270D01*
X101860694Y-129209311D01*
X101860677Y-129209301D01*
X101737964Y-129135117D01*
X101615234Y-129060923D01*
X101602912Y-129052418D01*
X101377124Y-128875524D01*
X101365916Y-128865594D01*
X101163094Y-128662771D01*
X101153172Y-128651572D01*
X101033214Y-128498456D01*
X100976274Y-128425777D01*
X100967768Y-128413454D01*
X100819381Y-128167991D01*
X100812422Y-128154732D01*
X100787789Y-128099999D01*
X100694701Y-127893163D01*
X100689393Y-127879165D01*
X100604062Y-127605329D01*
X100600478Y-127590790D01*
X100594640Y-127558935D01*
X100548775Y-127308657D01*
X100546971Y-127293794D01*
X100542124Y-127213663D01*
X100529405Y-127003399D01*
X100529180Y-126995925D01*
X100529180Y-126372070D01*
X101903180Y-126372070D01*
X101903180Y-126627929D01*
X101943206Y-126880640D01*
X102022268Y-127123972D01*
X102022269Y-127123975D01*
X102086483Y-127250000D01*
X102108797Y-127293794D01*
X102138430Y-127351950D01*
X102288812Y-127558935D01*
X102288816Y-127558940D01*
X102469739Y-127739863D01*
X102469744Y-127739867D01*
X102577761Y-127818345D01*
X102676733Y-127890252D01*
X102825760Y-127966185D01*
X102904704Y-128006410D01*
X102904707Y-128006411D01*
X102990721Y-128034358D01*
X103148041Y-128085474D01*
X103400750Y-128125500D01*
X103400751Y-128125500D01*
X103656609Y-128125500D01*
X103656610Y-128125500D01*
X103909319Y-128085474D01*
X104152655Y-128006410D01*
X104380627Y-127890252D01*
X104587622Y-127739862D01*
X104768542Y-127558942D01*
X104918932Y-127351947D01*
X105035090Y-127123975D01*
X105114154Y-126880639D01*
X105154180Y-126627930D01*
X105154180Y-126372070D01*
X105114154Y-126119361D01*
X105043880Y-125903077D01*
X105035091Y-125876027D01*
X105035090Y-125876024D01*
X104951264Y-125711508D01*
X104918932Y-125648053D01*
X104899718Y-125621607D01*
X104768547Y-125441064D01*
X104768543Y-125441059D01*
X104587620Y-125260136D01*
X104587615Y-125260132D01*
X104380630Y-125109750D01*
X104380629Y-125109749D01*
X104380627Y-125109748D01*
X104307590Y-125072533D01*
X104152655Y-124993589D01*
X104152652Y-124993588D01*
X103909320Y-124914526D01*
X103782964Y-124894513D01*
X103656610Y-124874500D01*
X103400750Y-124874500D01*
X103316589Y-124887830D01*
X103148039Y-124914526D01*
X102904707Y-124993588D01*
X102904704Y-124993589D01*
X102676729Y-125109750D01*
X102469744Y-125260132D01*
X102469739Y-125260136D01*
X102288816Y-125441059D01*
X102288812Y-125441064D01*
X102138430Y-125648049D01*
X102022269Y-125876024D01*
X102022268Y-125876027D01*
X101943206Y-126119359D01*
X101903180Y-126372070D01*
X100529180Y-126372070D01*
X100529180Y-124209999D01*
X110994341Y-124209999D01*
X110994341Y-124210000D01*
X111014936Y-124445403D01*
X111014938Y-124445413D01*
X111076094Y-124673655D01*
X111076096Y-124673659D01*
X111076097Y-124673663D01*
X111155801Y-124844588D01*
X111175965Y-124887830D01*
X111175967Y-124887834D01*
X111250018Y-124993589D01*
X111311504Y-125081400D01*
X111311506Y-125081402D01*
X111478597Y-125248493D01*
X111480419Y-125250022D01*
X111481001Y-125250897D01*
X111482427Y-125252323D01*
X111482140Y-125252609D01*
X111519119Y-125308195D01*
X111520224Y-125378056D01*
X111483384Y-125437424D01*
X111439719Y-125462712D01*
X111430883Y-125465640D01*
X111430875Y-125465643D01*
X111281654Y-125557684D01*
X111157684Y-125681654D01*
X111065643Y-125830875D01*
X111065641Y-125830880D01*
X111010494Y-125997302D01*
X111010493Y-125997309D01*
X111000000Y-126100013D01*
X111000000Y-126500000D01*
X111916988Y-126500000D01*
X111884075Y-126557007D01*
X111850000Y-126684174D01*
X111850000Y-126815826D01*
X111884075Y-126942993D01*
X111916988Y-127000000D01*
X111000001Y-127000000D01*
X111000001Y-127399986D01*
X111010494Y-127502697D01*
X111065641Y-127669119D01*
X111065643Y-127669124D01*
X111157684Y-127818345D01*
X111281654Y-127942315D01*
X111430875Y-128034356D01*
X111430880Y-128034358D01*
X111597302Y-128089505D01*
X111597309Y-128089506D01*
X111700019Y-128099999D01*
X112099999Y-128099999D01*
X112100000Y-128099998D01*
X112100000Y-127183012D01*
X112157007Y-127215925D01*
X112284174Y-127250000D01*
X112415826Y-127250000D01*
X112542993Y-127215925D01*
X112600000Y-127183012D01*
X112600000Y-128099999D01*
X112999972Y-128099999D01*
X112999986Y-128099998D01*
X113102697Y-128089505D01*
X113269119Y-128034358D01*
X113269124Y-128034356D01*
X113418345Y-127942315D01*
X113542315Y-127818345D01*
X113634356Y-127669124D01*
X113634358Y-127669119D01*
X113658282Y-127596922D01*
X113698054Y-127539477D01*
X113762570Y-127512654D01*
X113773911Y-127512534D01*
X114407037Y-126879408D01*
X114424075Y-126942993D01*
X114489901Y-127057007D01*
X114582993Y-127150099D01*
X114697007Y-127215925D01*
X114760591Y-127232962D01*
X114128626Y-127864926D01*
X114212417Y-127923598D01*
X114212421Y-127923600D01*
X114426507Y-128023429D01*
X114426516Y-128023433D01*
X114654673Y-128084567D01*
X114654684Y-128084569D01*
X114889998Y-128105157D01*
X114890002Y-128105157D01*
X115125315Y-128084569D01*
X115125326Y-128084567D01*
X115353483Y-128023433D01*
X115353492Y-128023429D01*
X115567580Y-127923599D01*
X115651371Y-127864925D01*
X115019408Y-127232962D01*
X115082993Y-127215925D01*
X115197007Y-127150099D01*
X115290099Y-127057007D01*
X115355925Y-126942993D01*
X115372962Y-126879408D01*
X116004925Y-127511371D01*
X116058426Y-127434968D01*
X116113004Y-127391344D01*
X116182502Y-127384152D01*
X116244856Y-127415675D01*
X116261575Y-127434969D01*
X116315073Y-127511372D01*
X116947037Y-126879408D01*
X116964075Y-126942993D01*
X117029901Y-127057007D01*
X117122993Y-127150099D01*
X117237007Y-127215925D01*
X117300591Y-127232962D01*
X116668626Y-127864926D01*
X116752417Y-127923598D01*
X116752421Y-127923600D01*
X116966507Y-128023429D01*
X116966516Y-128023433D01*
X117194673Y-128084567D01*
X117194684Y-128084569D01*
X117429998Y-128105157D01*
X117430002Y-128105157D01*
X117665315Y-128084569D01*
X117665326Y-128084567D01*
X117893483Y-128023433D01*
X117893492Y-128023429D01*
X118107580Y-127923599D01*
X118191371Y-127864925D01*
X117559408Y-127232962D01*
X117622993Y-127215925D01*
X117737007Y-127150099D01*
X117830099Y-127057007D01*
X117895925Y-126942993D01*
X117912962Y-126879408D01*
X118544925Y-127511371D01*
X118598426Y-127434968D01*
X118653004Y-127391344D01*
X118722502Y-127384152D01*
X118784856Y-127415675D01*
X118801575Y-127434969D01*
X118855073Y-127511372D01*
X119487037Y-126879408D01*
X119504075Y-126942993D01*
X119569901Y-127057007D01*
X119662993Y-127150099D01*
X119777007Y-127215925D01*
X119840591Y-127232962D01*
X119208626Y-127864926D01*
X119292417Y-127923598D01*
X119292421Y-127923600D01*
X119506507Y-128023429D01*
X119506516Y-128023433D01*
X119734673Y-128084567D01*
X119734684Y-128084569D01*
X119969998Y-128105157D01*
X119970002Y-128105157D01*
X120205315Y-128084569D01*
X120205326Y-128084567D01*
X120433483Y-128023433D01*
X120433492Y-128023429D01*
X120647580Y-127923599D01*
X120731371Y-127864925D01*
X120099408Y-127232962D01*
X120162993Y-127215925D01*
X120277007Y-127150099D01*
X120370099Y-127057007D01*
X120435925Y-126942993D01*
X120452962Y-126879408D01*
X121084925Y-127511371D01*
X121138426Y-127434968D01*
X121193004Y-127391344D01*
X121262502Y-127384152D01*
X121324856Y-127415675D01*
X121341575Y-127434969D01*
X121395073Y-127511372D01*
X122027037Y-126879408D01*
X122044075Y-126942993D01*
X122109901Y-127057007D01*
X122202993Y-127150099D01*
X122317007Y-127215925D01*
X122380591Y-127232962D01*
X121748626Y-127864926D01*
X121832417Y-127923598D01*
X121832421Y-127923600D01*
X122046507Y-128023429D01*
X122046516Y-128023433D01*
X122274673Y-128084567D01*
X122274684Y-128084569D01*
X122509998Y-128105157D01*
X122510002Y-128105157D01*
X122745315Y-128084569D01*
X122745326Y-128084567D01*
X122973483Y-128023433D01*
X122973492Y-128023429D01*
X123187580Y-127923599D01*
X123271371Y-127864925D01*
X122639408Y-127232962D01*
X122702993Y-127215925D01*
X122817007Y-127150099D01*
X122910099Y-127057007D01*
X122975925Y-126942993D01*
X122992962Y-126879408D01*
X123624925Y-127511371D01*
X123678426Y-127434968D01*
X123733004Y-127391344D01*
X123802502Y-127384152D01*
X123864856Y-127415675D01*
X123881575Y-127434969D01*
X123935073Y-127511372D01*
X124567037Y-126879408D01*
X124584075Y-126942993D01*
X124649901Y-127057007D01*
X124742993Y-127150099D01*
X124857007Y-127215925D01*
X124920591Y-127232962D01*
X124288626Y-127864926D01*
X124372417Y-127923598D01*
X124372421Y-127923600D01*
X124586507Y-128023429D01*
X124586516Y-128023433D01*
X124814673Y-128084567D01*
X124814684Y-128084569D01*
X125049998Y-128105157D01*
X125050002Y-128105157D01*
X125285315Y-128084569D01*
X125285326Y-128084567D01*
X125513483Y-128023433D01*
X125513492Y-128023429D01*
X125727580Y-127923599D01*
X125811371Y-127864925D01*
X125179408Y-127232962D01*
X125242993Y-127215925D01*
X125357007Y-127150099D01*
X125450099Y-127057007D01*
X125515925Y-126942993D01*
X125532962Y-126879408D01*
X126164925Y-127511371D01*
X126218426Y-127434968D01*
X126273004Y-127391344D01*
X126342502Y-127384152D01*
X126404856Y-127415675D01*
X126421575Y-127434969D01*
X126475073Y-127511372D01*
X127107037Y-126879408D01*
X127124075Y-126942993D01*
X127189901Y-127057007D01*
X127282993Y-127150099D01*
X127397007Y-127215925D01*
X127460591Y-127232962D01*
X126828626Y-127864926D01*
X126912417Y-127923598D01*
X126912421Y-127923600D01*
X127126507Y-128023429D01*
X127126516Y-128023433D01*
X127354673Y-128084567D01*
X127354684Y-128084569D01*
X127589998Y-128105157D01*
X127590002Y-128105157D01*
X127825315Y-128084569D01*
X127825326Y-128084567D01*
X128053483Y-128023433D01*
X128053492Y-128023429D01*
X128267580Y-127923599D01*
X128351371Y-127864925D01*
X127719408Y-127232962D01*
X127782993Y-127215925D01*
X127897007Y-127150099D01*
X127990099Y-127057007D01*
X128055925Y-126942993D01*
X128072962Y-126879408D01*
X128704925Y-127511371D01*
X128758426Y-127434968D01*
X128813004Y-127391344D01*
X128882502Y-127384152D01*
X128944856Y-127415675D01*
X128961575Y-127434969D01*
X129015073Y-127511372D01*
X129647037Y-126879408D01*
X129664075Y-126942993D01*
X129729901Y-127057007D01*
X129822993Y-127150099D01*
X129937007Y-127215925D01*
X130000591Y-127232962D01*
X129368626Y-127864926D01*
X129452417Y-127923598D01*
X129452421Y-127923600D01*
X129666507Y-128023429D01*
X129666516Y-128023433D01*
X129894673Y-128084567D01*
X129894684Y-128084569D01*
X130129998Y-128105157D01*
X130130002Y-128105157D01*
X130365315Y-128084569D01*
X130365326Y-128084567D01*
X130593483Y-128023433D01*
X130593492Y-128023429D01*
X130807580Y-127923599D01*
X130891371Y-127864925D01*
X130259408Y-127232962D01*
X130322993Y-127215925D01*
X130437007Y-127150099D01*
X130530099Y-127057007D01*
X130595925Y-126942993D01*
X130612962Y-126879408D01*
X131244925Y-127511371D01*
X131298426Y-127434968D01*
X131353004Y-127391344D01*
X131422502Y-127384152D01*
X131484856Y-127415675D01*
X131501575Y-127434969D01*
X131555073Y-127511372D01*
X132187037Y-126879408D01*
X132204075Y-126942993D01*
X132269901Y-127057007D01*
X132362993Y-127150099D01*
X132477007Y-127215925D01*
X132540591Y-127232962D01*
X131908626Y-127864926D01*
X131992417Y-127923598D01*
X131992421Y-127923600D01*
X132206507Y-128023429D01*
X132206516Y-128023433D01*
X132434673Y-128084567D01*
X132434684Y-128084569D01*
X132669998Y-128105157D01*
X132670002Y-128105157D01*
X132905315Y-128084569D01*
X132905326Y-128084567D01*
X133133483Y-128023433D01*
X133133492Y-128023429D01*
X133347580Y-127923599D01*
X133431371Y-127864925D01*
X132799408Y-127232962D01*
X132862993Y-127215925D01*
X132977007Y-127150099D01*
X133070099Y-127057007D01*
X133135925Y-126942993D01*
X133152962Y-126879408D01*
X133784925Y-127511371D01*
X133838120Y-127435404D01*
X133892697Y-127391780D01*
X133962196Y-127384588D01*
X134024550Y-127416111D01*
X134041268Y-127435404D01*
X134171505Y-127621401D01*
X134338599Y-127788495D01*
X134428685Y-127851574D01*
X134532165Y-127924032D01*
X134532167Y-127924033D01*
X134532170Y-127924035D01*
X134746337Y-128023903D01*
X134746343Y-128023904D01*
X134746344Y-128023905D01*
X134785356Y-128034358D01*
X134974592Y-128085063D01*
X135162918Y-128101539D01*
X135209999Y-128105659D01*
X135210000Y-128105659D01*
X135210001Y-128105659D01*
X135249234Y-128102226D01*
X135445408Y-128085063D01*
X135673663Y-128023903D01*
X135887830Y-127924035D01*
X136081401Y-127788495D01*
X136248495Y-127621401D01*
X136378425Y-127435842D01*
X136433002Y-127392217D01*
X136502500Y-127385023D01*
X136564855Y-127416546D01*
X136581575Y-127435842D01*
X136711500Y-127621395D01*
X136711505Y-127621401D01*
X136878599Y-127788495D01*
X136968685Y-127851574D01*
X137072165Y-127924032D01*
X137072167Y-127924033D01*
X137072170Y-127924035D01*
X137286337Y-128023903D01*
X137286343Y-128023904D01*
X137286344Y-128023905D01*
X137325356Y-128034358D01*
X137514592Y-128085063D01*
X137702918Y-128101539D01*
X137749999Y-128105659D01*
X137750000Y-128105659D01*
X137750001Y-128105659D01*
X137789234Y-128102226D01*
X137985408Y-128085063D01*
X138213663Y-128023903D01*
X138427830Y-127924035D01*
X138621401Y-127788495D01*
X138788495Y-127621401D01*
X138918425Y-127435842D01*
X138973002Y-127392217D01*
X139042500Y-127385023D01*
X139104855Y-127416546D01*
X139121575Y-127435842D01*
X139251500Y-127621395D01*
X139251505Y-127621401D01*
X139418599Y-127788495D01*
X139508685Y-127851574D01*
X139612165Y-127924032D01*
X139612167Y-127924033D01*
X139612170Y-127924035D01*
X139826337Y-128023903D01*
X139826343Y-128023904D01*
X139826344Y-128023905D01*
X139865356Y-128034358D01*
X140054592Y-128085063D01*
X140242918Y-128101539D01*
X140289999Y-128105659D01*
X140290000Y-128105659D01*
X140290001Y-128105659D01*
X140329234Y-128102226D01*
X140525408Y-128085063D01*
X140753663Y-128023903D01*
X140967830Y-127924035D01*
X141161401Y-127788495D01*
X141328495Y-127621401D01*
X141458425Y-127435842D01*
X141513002Y-127392217D01*
X141582500Y-127385023D01*
X141644855Y-127416546D01*
X141661575Y-127435842D01*
X141791500Y-127621395D01*
X141791505Y-127621401D01*
X141958599Y-127788495D01*
X142048685Y-127851574D01*
X142152165Y-127924032D01*
X142152167Y-127924033D01*
X142152170Y-127924035D01*
X142366337Y-128023903D01*
X142366343Y-128023904D01*
X142366344Y-128023905D01*
X142405356Y-128034358D01*
X142594592Y-128085063D01*
X142782918Y-128101539D01*
X142829999Y-128105659D01*
X142830000Y-128105659D01*
X142830001Y-128105659D01*
X142869234Y-128102226D01*
X143065408Y-128085063D01*
X143293663Y-128023903D01*
X143507830Y-127924035D01*
X143701401Y-127788495D01*
X143868495Y-127621401D01*
X143998425Y-127435842D01*
X144053002Y-127392217D01*
X144122500Y-127385023D01*
X144184855Y-127416546D01*
X144201575Y-127435842D01*
X144331500Y-127621395D01*
X144331505Y-127621401D01*
X144498599Y-127788495D01*
X144588685Y-127851574D01*
X144692165Y-127924032D01*
X144692167Y-127924033D01*
X144692170Y-127924035D01*
X144906337Y-128023903D01*
X144906343Y-128023904D01*
X144906344Y-128023905D01*
X144945356Y-128034358D01*
X145134592Y-128085063D01*
X145322918Y-128101539D01*
X145369999Y-128105659D01*
X145370000Y-128105659D01*
X145370001Y-128105659D01*
X145409234Y-128102226D01*
X145605408Y-128085063D01*
X145833663Y-128023903D01*
X146047830Y-127924035D01*
X146241401Y-127788495D01*
X146408495Y-127621401D01*
X146538425Y-127435842D01*
X146593002Y-127392217D01*
X146662500Y-127385023D01*
X146724855Y-127416546D01*
X146741575Y-127435842D01*
X146871500Y-127621395D01*
X146871505Y-127621401D01*
X147038599Y-127788495D01*
X147128685Y-127851574D01*
X147232165Y-127924032D01*
X147232167Y-127924033D01*
X147232170Y-127924035D01*
X147446337Y-128023903D01*
X147446343Y-128023904D01*
X147446344Y-128023905D01*
X147485356Y-128034358D01*
X147674592Y-128085063D01*
X147862918Y-128101539D01*
X147909999Y-128105659D01*
X147910000Y-128105659D01*
X147910001Y-128105659D01*
X147949234Y-128102226D01*
X148145408Y-128085063D01*
X148373663Y-128023903D01*
X148587830Y-127924035D01*
X148781401Y-127788495D01*
X148948495Y-127621401D01*
X149078425Y-127435842D01*
X149133002Y-127392217D01*
X149202500Y-127385023D01*
X149264855Y-127416546D01*
X149281575Y-127435842D01*
X149411500Y-127621395D01*
X149411505Y-127621401D01*
X149578599Y-127788495D01*
X149668685Y-127851574D01*
X149772165Y-127924032D01*
X149772167Y-127924033D01*
X149772170Y-127924035D01*
X149986337Y-128023903D01*
X149986343Y-128023904D01*
X149986344Y-128023905D01*
X150025356Y-128034358D01*
X150214592Y-128085063D01*
X150402918Y-128101539D01*
X150449999Y-128105659D01*
X150450000Y-128105659D01*
X150450001Y-128105659D01*
X150489234Y-128102226D01*
X150685408Y-128085063D01*
X150913663Y-128023903D01*
X151127830Y-127924035D01*
X151321401Y-127788495D01*
X151488495Y-127621401D01*
X151618425Y-127435842D01*
X151673002Y-127392217D01*
X151742500Y-127385023D01*
X151804855Y-127416546D01*
X151821575Y-127435842D01*
X151951500Y-127621395D01*
X151951505Y-127621401D01*
X152118599Y-127788495D01*
X152208685Y-127851574D01*
X152312165Y-127924032D01*
X152312167Y-127924033D01*
X152312170Y-127924035D01*
X152526337Y-128023903D01*
X152526343Y-128023904D01*
X152526344Y-128023905D01*
X152565356Y-128034358D01*
X152754592Y-128085063D01*
X152942918Y-128101539D01*
X152989999Y-128105659D01*
X152990000Y-128105659D01*
X152990001Y-128105659D01*
X153029234Y-128102226D01*
X153225408Y-128085063D01*
X153453663Y-128023903D01*
X153667830Y-127924035D01*
X153861401Y-127788495D01*
X154028495Y-127621401D01*
X154164035Y-127427830D01*
X154263903Y-127213663D01*
X154325063Y-126985408D01*
X154345659Y-126750000D01*
X154325063Y-126514592D01*
X154286875Y-126372070D01*
X159903180Y-126372070D01*
X159903180Y-126627929D01*
X159943206Y-126880640D01*
X160022268Y-127123972D01*
X160022269Y-127123975D01*
X160086483Y-127250000D01*
X160108797Y-127293794D01*
X160138430Y-127351950D01*
X160288812Y-127558935D01*
X160288816Y-127558940D01*
X160469739Y-127739863D01*
X160469744Y-127739867D01*
X160577761Y-127818345D01*
X160676733Y-127890252D01*
X160825760Y-127966185D01*
X160904704Y-128006410D01*
X160904707Y-128006411D01*
X160990721Y-128034358D01*
X161148041Y-128085474D01*
X161400750Y-128125500D01*
X161400751Y-128125500D01*
X161656609Y-128125500D01*
X161656610Y-128125500D01*
X161909319Y-128085474D01*
X162152655Y-128006410D01*
X162380627Y-127890252D01*
X162587622Y-127739862D01*
X162768542Y-127558942D01*
X162918932Y-127351947D01*
X163035090Y-127123975D01*
X163114154Y-126880639D01*
X163154180Y-126627930D01*
X163154180Y-126372070D01*
X163114154Y-126119361D01*
X163043880Y-125903077D01*
X163035091Y-125876027D01*
X163035090Y-125876024D01*
X162951264Y-125711508D01*
X162918932Y-125648053D01*
X162899718Y-125621607D01*
X162768547Y-125441064D01*
X162768543Y-125441059D01*
X162587620Y-125260136D01*
X162587615Y-125260132D01*
X162380630Y-125109750D01*
X162380629Y-125109749D01*
X162380627Y-125109748D01*
X162307590Y-125072533D01*
X162152655Y-124993589D01*
X162152652Y-124993588D01*
X161909320Y-124914526D01*
X161782964Y-124894513D01*
X161656610Y-124874500D01*
X161400750Y-124874500D01*
X161316589Y-124887830D01*
X161148039Y-124914526D01*
X160904707Y-124993588D01*
X160904704Y-124993589D01*
X160676729Y-125109750D01*
X160469744Y-125260132D01*
X160469739Y-125260136D01*
X160288816Y-125441059D01*
X160288812Y-125441064D01*
X160138430Y-125648049D01*
X160022269Y-125876024D01*
X160022268Y-125876027D01*
X159943206Y-126119359D01*
X159903180Y-126372070D01*
X154286875Y-126372070D01*
X154263903Y-126286337D01*
X154164035Y-126072171D01*
X154159037Y-126065032D01*
X154028494Y-125878597D01*
X153861402Y-125711506D01*
X153861396Y-125711501D01*
X153675842Y-125581575D01*
X153632217Y-125526998D01*
X153625023Y-125457500D01*
X153656546Y-125395145D01*
X153675842Y-125378425D01*
X153752248Y-125324925D01*
X153861401Y-125248495D01*
X154028495Y-125081401D01*
X154164035Y-124887830D01*
X154263903Y-124673663D01*
X154325063Y-124445408D01*
X154345659Y-124210000D01*
X154325063Y-123974592D01*
X154263903Y-123746337D01*
X154164035Y-123532171D01*
X154158731Y-123524595D01*
X154028494Y-123338597D01*
X153861402Y-123171506D01*
X153861395Y-123171501D01*
X153667834Y-123035967D01*
X153667830Y-123035965D01*
X153667828Y-123035964D01*
X153453663Y-122936097D01*
X153453659Y-122936096D01*
X153453655Y-122936094D01*
X153225413Y-122874938D01*
X153225403Y-122874936D01*
X152990001Y-122854341D01*
X152989999Y-122854341D01*
X152754596Y-122874936D01*
X152754586Y-122874938D01*
X152526344Y-122936094D01*
X152526335Y-122936098D01*
X152312171Y-123035964D01*
X152312169Y-123035965D01*
X152118597Y-123171505D01*
X151951505Y-123338597D01*
X151821575Y-123524158D01*
X151766998Y-123567783D01*
X151697500Y-123574977D01*
X151635145Y-123543454D01*
X151618425Y-123524158D01*
X151488494Y-123338597D01*
X151321402Y-123171506D01*
X151321395Y-123171501D01*
X151127834Y-123035967D01*
X151127830Y-123035965D01*
X151127828Y-123035964D01*
X150913663Y-122936097D01*
X150913659Y-122936096D01*
X150913655Y-122936094D01*
X150685413Y-122874938D01*
X150685403Y-122874936D01*
X150450001Y-122854341D01*
X150449999Y-122854341D01*
X150214596Y-122874936D01*
X150214586Y-122874938D01*
X149986344Y-122936094D01*
X149986335Y-122936098D01*
X149772171Y-123035964D01*
X149772169Y-123035965D01*
X149578597Y-123171505D01*
X149411505Y-123338597D01*
X149281575Y-123524158D01*
X149226998Y-123567783D01*
X149157500Y-123574977D01*
X149095145Y-123543454D01*
X149078425Y-123524158D01*
X148948494Y-123338597D01*
X148781402Y-123171506D01*
X148781395Y-123171501D01*
X148587834Y-123035967D01*
X148587830Y-123035965D01*
X148587828Y-123035964D01*
X148373663Y-122936097D01*
X148373659Y-122936096D01*
X148373655Y-122936094D01*
X148145413Y-122874938D01*
X148145403Y-122874936D01*
X147910001Y-122854341D01*
X147909999Y-122854341D01*
X147674596Y-122874936D01*
X147674586Y-122874938D01*
X147446344Y-122936094D01*
X147446335Y-122936098D01*
X147232171Y-123035964D01*
X147232169Y-123035965D01*
X147038597Y-123171505D01*
X146871505Y-123338597D01*
X146741575Y-123524158D01*
X146686998Y-123567783D01*
X146617500Y-123574977D01*
X146555145Y-123543454D01*
X146538425Y-123524158D01*
X146408494Y-123338597D01*
X146241402Y-123171506D01*
X146241395Y-123171501D01*
X146047834Y-123035967D01*
X146047830Y-123035965D01*
X146047828Y-123035964D01*
X145833663Y-122936097D01*
X145833659Y-122936096D01*
X145833655Y-122936094D01*
X145605413Y-122874938D01*
X145605403Y-122874936D01*
X145370001Y-122854341D01*
X145369999Y-122854341D01*
X145134596Y-122874936D01*
X145134586Y-122874938D01*
X144906344Y-122936094D01*
X144906335Y-122936098D01*
X144692171Y-123035964D01*
X144692169Y-123035965D01*
X144498597Y-123171505D01*
X144331508Y-123338594D01*
X144201269Y-123524595D01*
X144146692Y-123568219D01*
X144077193Y-123575412D01*
X144014839Y-123543890D01*
X143998119Y-123524595D01*
X143944925Y-123448626D01*
X143312962Y-124080590D01*
X143295925Y-124017007D01*
X143230099Y-123902993D01*
X143137007Y-123809901D01*
X143022993Y-123744075D01*
X142959409Y-123727037D01*
X143591372Y-123095073D01*
X143507576Y-123036398D01*
X143293492Y-122936570D01*
X143293483Y-122936566D01*
X143065326Y-122875432D01*
X143065315Y-122875430D01*
X142830002Y-122854843D01*
X142829998Y-122854843D01*
X142594684Y-122875430D01*
X142594673Y-122875432D01*
X142366516Y-122936566D01*
X142366507Y-122936570D01*
X142152423Y-123036399D01*
X142152421Y-123036400D01*
X142068627Y-123095073D01*
X142068626Y-123095073D01*
X142700591Y-123727037D01*
X142637007Y-123744075D01*
X142522993Y-123809901D01*
X142429901Y-123902993D01*
X142364075Y-124017007D01*
X142347037Y-124080590D01*
X141715073Y-123448626D01*
X141715072Y-123448627D01*
X141661880Y-123524595D01*
X141607303Y-123568220D01*
X141537805Y-123575414D01*
X141475450Y-123543891D01*
X141458730Y-123524595D01*
X141328494Y-123338597D01*
X141161402Y-123171506D01*
X141161395Y-123171501D01*
X140967834Y-123035967D01*
X140967830Y-123035965D01*
X140967828Y-123035964D01*
X140753663Y-122936097D01*
X140753659Y-122936096D01*
X140753655Y-122936094D01*
X140525413Y-122874938D01*
X140525403Y-122874936D01*
X140290001Y-122854341D01*
X140289999Y-122854341D01*
X140054596Y-122874936D01*
X140054586Y-122874938D01*
X139826344Y-122936094D01*
X139826335Y-122936098D01*
X139612171Y-123035964D01*
X139612169Y-123035965D01*
X139418597Y-123171505D01*
X139251505Y-123338597D01*
X139121575Y-123524158D01*
X139066998Y-123567783D01*
X138997500Y-123574977D01*
X138935145Y-123543454D01*
X138918425Y-123524158D01*
X138788494Y-123338597D01*
X138621402Y-123171506D01*
X138621395Y-123171501D01*
X138427834Y-123035967D01*
X138427830Y-123035965D01*
X138427828Y-123035964D01*
X138213663Y-122936097D01*
X138213659Y-122936096D01*
X138213655Y-122936094D01*
X137985413Y-122874938D01*
X137985403Y-122874936D01*
X137750001Y-122854341D01*
X137749999Y-122854341D01*
X137514596Y-122874936D01*
X137514586Y-122874938D01*
X137286344Y-122936094D01*
X137286335Y-122936098D01*
X137072171Y-123035964D01*
X137072169Y-123035965D01*
X136878597Y-123171505D01*
X136711505Y-123338597D01*
X136581575Y-123524158D01*
X136526998Y-123567783D01*
X136457500Y-123574977D01*
X136395145Y-123543454D01*
X136378425Y-123524158D01*
X136248494Y-123338597D01*
X136081402Y-123171506D01*
X136081395Y-123171501D01*
X135887834Y-123035967D01*
X135887830Y-123035965D01*
X135887828Y-123035964D01*
X135673663Y-122936097D01*
X135673659Y-122936096D01*
X135673655Y-122936094D01*
X135445413Y-122874938D01*
X135445403Y-122874936D01*
X135210001Y-122854341D01*
X135209999Y-122854341D01*
X134974596Y-122874936D01*
X134974586Y-122874938D01*
X134746344Y-122936094D01*
X134746335Y-122936098D01*
X134532171Y-123035964D01*
X134532169Y-123035965D01*
X134338597Y-123171505D01*
X134171505Y-123338597D01*
X134041575Y-123524158D01*
X133986998Y-123567783D01*
X133917500Y-123574977D01*
X133855145Y-123543454D01*
X133838425Y-123524158D01*
X133708494Y-123338597D01*
X133541402Y-123171506D01*
X133541395Y-123171501D01*
X133347834Y-123035967D01*
X133347830Y-123035965D01*
X133347828Y-123035964D01*
X133133663Y-122936097D01*
X133133659Y-122936096D01*
X133133655Y-122936094D01*
X132905413Y-122874938D01*
X132905403Y-122874936D01*
X132670001Y-122854341D01*
X132669999Y-122854341D01*
X132434596Y-122874936D01*
X132434586Y-122874938D01*
X132206344Y-122936094D01*
X132206335Y-122936098D01*
X131992171Y-123035964D01*
X131992169Y-123035965D01*
X131798597Y-123171505D01*
X131631505Y-123338597D01*
X131501575Y-123524158D01*
X131446998Y-123567783D01*
X131377500Y-123574977D01*
X131315145Y-123543454D01*
X131298425Y-123524158D01*
X131168494Y-123338597D01*
X131001402Y-123171506D01*
X131001395Y-123171501D01*
X130807834Y-123035967D01*
X130807830Y-123035965D01*
X130807828Y-123035964D01*
X130593663Y-122936097D01*
X130593659Y-122936096D01*
X130593655Y-122936094D01*
X130365413Y-122874938D01*
X130365403Y-122874936D01*
X130130001Y-122854341D01*
X130129999Y-122854341D01*
X129894596Y-122874936D01*
X129894586Y-122874938D01*
X129666344Y-122936094D01*
X129666335Y-122936098D01*
X129452171Y-123035964D01*
X129452169Y-123035965D01*
X129258597Y-123171505D01*
X129091505Y-123338597D01*
X128961575Y-123524158D01*
X128906998Y-123567783D01*
X128837500Y-123574977D01*
X128775145Y-123543454D01*
X128758425Y-123524158D01*
X128628494Y-123338597D01*
X128461402Y-123171506D01*
X128461395Y-123171501D01*
X128267834Y-123035967D01*
X128267830Y-123035965D01*
X128267828Y-123035964D01*
X128053663Y-122936097D01*
X128053659Y-122936096D01*
X128053655Y-122936094D01*
X127825413Y-122874938D01*
X127825403Y-122874936D01*
X127590001Y-122854341D01*
X127589999Y-122854341D01*
X127354596Y-122874936D01*
X127354586Y-122874938D01*
X127126344Y-122936094D01*
X127126335Y-122936098D01*
X126912171Y-123035964D01*
X126912169Y-123035965D01*
X126718597Y-123171505D01*
X126551505Y-123338597D01*
X126421575Y-123524158D01*
X126366998Y-123567783D01*
X126297500Y-123574977D01*
X126235145Y-123543454D01*
X126218425Y-123524158D01*
X126088494Y-123338597D01*
X125921402Y-123171506D01*
X125921395Y-123171501D01*
X125727834Y-123035967D01*
X125727830Y-123035965D01*
X125727828Y-123035964D01*
X125513663Y-122936097D01*
X125513659Y-122936096D01*
X125513655Y-122936094D01*
X125285413Y-122874938D01*
X125285403Y-122874936D01*
X125050001Y-122854341D01*
X125049999Y-122854341D01*
X124814596Y-122874936D01*
X124814586Y-122874938D01*
X124586344Y-122936094D01*
X124586335Y-122936098D01*
X124372171Y-123035964D01*
X124372169Y-123035965D01*
X124178597Y-123171505D01*
X124011505Y-123338597D01*
X123881575Y-123524158D01*
X123826998Y-123567783D01*
X123757500Y-123574977D01*
X123695145Y-123543454D01*
X123678425Y-123524158D01*
X123548494Y-123338597D01*
X123381402Y-123171506D01*
X123381395Y-123171501D01*
X123187834Y-123035967D01*
X123187830Y-123035965D01*
X123187828Y-123035964D01*
X122973663Y-122936097D01*
X122973659Y-122936096D01*
X122973655Y-122936094D01*
X122745413Y-122874938D01*
X122745403Y-122874936D01*
X122510001Y-122854341D01*
X122509999Y-122854341D01*
X122274596Y-122874936D01*
X122274586Y-122874938D01*
X122046344Y-122936094D01*
X122046335Y-122936098D01*
X121832171Y-123035964D01*
X121832169Y-123035965D01*
X121638597Y-123171505D01*
X121471505Y-123338597D01*
X121341575Y-123524158D01*
X121286998Y-123567783D01*
X121217500Y-123574977D01*
X121155145Y-123543454D01*
X121138425Y-123524158D01*
X121008494Y-123338597D01*
X120841402Y-123171506D01*
X120841395Y-123171501D01*
X120647834Y-123035967D01*
X120647830Y-123035965D01*
X120647828Y-123035964D01*
X120433663Y-122936097D01*
X120433659Y-122936096D01*
X120433655Y-122936094D01*
X120205413Y-122874938D01*
X120205403Y-122874936D01*
X119970001Y-122854341D01*
X119969999Y-122854341D01*
X119734596Y-122874936D01*
X119734586Y-122874938D01*
X119506344Y-122936094D01*
X119506335Y-122936098D01*
X119292171Y-123035964D01*
X119292169Y-123035965D01*
X119098597Y-123171505D01*
X118931505Y-123338597D01*
X118801575Y-123524158D01*
X118746998Y-123567783D01*
X118677500Y-123574977D01*
X118615145Y-123543454D01*
X118598425Y-123524158D01*
X118468494Y-123338597D01*
X118301402Y-123171506D01*
X118301395Y-123171501D01*
X118107834Y-123035967D01*
X118107830Y-123035965D01*
X118107828Y-123035964D01*
X117893663Y-122936097D01*
X117893659Y-122936096D01*
X117893655Y-122936094D01*
X117665413Y-122874938D01*
X117665403Y-122874936D01*
X117430001Y-122854341D01*
X117429999Y-122854341D01*
X117194596Y-122874936D01*
X117194586Y-122874938D01*
X116966344Y-122936094D01*
X116966335Y-122936098D01*
X116752171Y-123035964D01*
X116752169Y-123035965D01*
X116558597Y-123171505D01*
X116391505Y-123338597D01*
X116261575Y-123524158D01*
X116206998Y-123567783D01*
X116137500Y-123574977D01*
X116075145Y-123543454D01*
X116058425Y-123524158D01*
X115928494Y-123338597D01*
X115761402Y-123171506D01*
X115761395Y-123171501D01*
X115567834Y-123035967D01*
X115567830Y-123035965D01*
X115567828Y-123035964D01*
X115353663Y-122936097D01*
X115353659Y-122936096D01*
X115353655Y-122936094D01*
X115125413Y-122874938D01*
X115125403Y-122874936D01*
X114890001Y-122854341D01*
X114889999Y-122854341D01*
X114654596Y-122874936D01*
X114654586Y-122874938D01*
X114426344Y-122936094D01*
X114426335Y-122936098D01*
X114212171Y-123035964D01*
X114212169Y-123035965D01*
X114018597Y-123171505D01*
X113851505Y-123338597D01*
X113721575Y-123524158D01*
X113666998Y-123567783D01*
X113597500Y-123574977D01*
X113535145Y-123543454D01*
X113518425Y-123524158D01*
X113388494Y-123338597D01*
X113221402Y-123171506D01*
X113221395Y-123171501D01*
X113027834Y-123035967D01*
X113027830Y-123035965D01*
X113027828Y-123035964D01*
X112813663Y-122936097D01*
X112813659Y-122936096D01*
X112813655Y-122936094D01*
X112585413Y-122874938D01*
X112585403Y-122874936D01*
X112350001Y-122854341D01*
X112349999Y-122854341D01*
X112114596Y-122874936D01*
X112114586Y-122874938D01*
X111886344Y-122936094D01*
X111886335Y-122936098D01*
X111672171Y-123035964D01*
X111672169Y-123035965D01*
X111478597Y-123171505D01*
X111311505Y-123338597D01*
X111175965Y-123532169D01*
X111175964Y-123532171D01*
X111076098Y-123746335D01*
X111076094Y-123746344D01*
X111014938Y-123974586D01*
X111014936Y-123974596D01*
X110994341Y-124209999D01*
X100529180Y-124209999D01*
X100529180Y-114934009D01*
X101148825Y-114934009D01*
X101148825Y-115065990D01*
X101165213Y-115190458D01*
X101169270Y-115221274D01*
X101199999Y-115335957D01*
X101203423Y-115348735D01*
X101203428Y-115348751D01*
X101263357Y-115493433D01*
X101263364Y-115493447D01*
X101267003Y-115499750D01*
X101329345Y-115607729D01*
X101329350Y-115607735D01*
X101329351Y-115607737D01*
X101424694Y-115731991D01*
X101424700Y-115731998D01*
X101518001Y-115825299D01*
X101518008Y-115825305D01*
X101525090Y-115830739D01*
X101642271Y-115920655D01*
X101756555Y-115986637D01*
X101756560Y-115986639D01*
X101756566Y-115986642D01*
X101901248Y-116046571D01*
X101901254Y-116046572D01*
X101901264Y-116046577D01*
X102028726Y-116080730D01*
X102184017Y-116101175D01*
X102184024Y-116101175D01*
X102315976Y-116101175D01*
X102315983Y-116101175D01*
X102471274Y-116080730D01*
X102598736Y-116046577D01*
X102598748Y-116046571D01*
X102598751Y-116046571D01*
X102743433Y-115986642D01*
X102743433Y-115986641D01*
X102743445Y-115986637D01*
X102857729Y-115920655D01*
X102981993Y-115825304D01*
X103075304Y-115731993D01*
X103170655Y-115607729D01*
X103236637Y-115493445D01*
X103241702Y-115481217D01*
X103296571Y-115348751D01*
X103296571Y-115348748D01*
X103296577Y-115348736D01*
X103330730Y-115221274D01*
X103351175Y-115065983D01*
X103351175Y-114934017D01*
X103351174Y-114934009D01*
X108148825Y-114934009D01*
X108148825Y-115065990D01*
X108165213Y-115190458D01*
X108169270Y-115221274D01*
X108199999Y-115335957D01*
X108203423Y-115348735D01*
X108203428Y-115348751D01*
X108263357Y-115493433D01*
X108263364Y-115493447D01*
X108267003Y-115499750D01*
X108329345Y-115607729D01*
X108329350Y-115607735D01*
X108329351Y-115607737D01*
X108424694Y-115731991D01*
X108424700Y-115731998D01*
X108518001Y-115825299D01*
X108518008Y-115825305D01*
X108525090Y-115830739D01*
X108642271Y-115920655D01*
X108756555Y-115986637D01*
X108756560Y-115986639D01*
X108756566Y-115986642D01*
X108901248Y-116046571D01*
X108901254Y-116046572D01*
X108901264Y-116046577D01*
X109028726Y-116080730D01*
X109184017Y-116101175D01*
X109184024Y-116101175D01*
X109315976Y-116101175D01*
X109315983Y-116101175D01*
X109471274Y-116080730D01*
X109598736Y-116046577D01*
X109598748Y-116046571D01*
X109598751Y-116046571D01*
X109743433Y-115986642D01*
X109743433Y-115986641D01*
X109743445Y-115986637D01*
X109857729Y-115920655D01*
X109981993Y-115825304D01*
X110075304Y-115731993D01*
X110170655Y-115607729D01*
X110236637Y-115493445D01*
X110241702Y-115481217D01*
X110296571Y-115348751D01*
X110296571Y-115348748D01*
X110296577Y-115348736D01*
X110330730Y-115221274D01*
X110351175Y-115065983D01*
X110351175Y-114934017D01*
X110330730Y-114778726D01*
X110296577Y-114651264D01*
X110296572Y-114651254D01*
X110296571Y-114651248D01*
X110236642Y-114506566D01*
X110236639Y-114506560D01*
X110236637Y-114506555D01*
X110170655Y-114392271D01*
X110104123Y-114305565D01*
X110075305Y-114268008D01*
X110075299Y-114268001D01*
X109981998Y-114174700D01*
X109981991Y-114174694D01*
X109857737Y-114079351D01*
X109857735Y-114079350D01*
X109857729Y-114079345D01*
X109790401Y-114040473D01*
X109743447Y-114013364D01*
X109743433Y-114013357D01*
X109598751Y-113953428D01*
X109598739Y-113953424D01*
X109598736Y-113953423D01*
X109471274Y-113919270D01*
X109445317Y-113915852D01*
X109315990Y-113898825D01*
X109315983Y-113898825D01*
X109184017Y-113898825D01*
X109184009Y-113898825D01*
X109036206Y-113918285D01*
X109028726Y-113919270D01*
X108904507Y-113952554D01*
X108901264Y-113953423D01*
X108901248Y-113953428D01*
X108756566Y-114013357D01*
X108756552Y-114013364D01*
X108642277Y-114079341D01*
X108642262Y-114079351D01*
X108518008Y-114174694D01*
X108518001Y-114174700D01*
X108424700Y-114268001D01*
X108424694Y-114268008D01*
X108329351Y-114392262D01*
X108329341Y-114392277D01*
X108263364Y-114506552D01*
X108263357Y-114506566D01*
X108203428Y-114651248D01*
X108203423Y-114651264D01*
X108173853Y-114761624D01*
X108169271Y-114778723D01*
X108169269Y-114778734D01*
X108148825Y-114934009D01*
X103351174Y-114934009D01*
X103330730Y-114778726D01*
X103296577Y-114651264D01*
X103296572Y-114651254D01*
X103296571Y-114651248D01*
X103236642Y-114506566D01*
X103236639Y-114506560D01*
X103236637Y-114506555D01*
X103170655Y-114392271D01*
X103104123Y-114305565D01*
X103075305Y-114268008D01*
X103075299Y-114268001D01*
X102981998Y-114174700D01*
X102981991Y-114174694D01*
X102857737Y-114079351D01*
X102857735Y-114079350D01*
X102857729Y-114079345D01*
X102790401Y-114040473D01*
X102743447Y-114013364D01*
X102743433Y-114013357D01*
X102598751Y-113953428D01*
X102598739Y-113953424D01*
X102598736Y-113953423D01*
X102471274Y-113919270D01*
X102445317Y-113915852D01*
X102315990Y-113898825D01*
X102315983Y-113898825D01*
X102184017Y-113898825D01*
X102184009Y-113898825D01*
X102036206Y-113918285D01*
X102028726Y-113919270D01*
X101904507Y-113952554D01*
X101901264Y-113953423D01*
X101901248Y-113953428D01*
X101756566Y-114013357D01*
X101756552Y-114013364D01*
X101642277Y-114079341D01*
X101642262Y-114079351D01*
X101518008Y-114174694D01*
X101518001Y-114174700D01*
X101424700Y-114268001D01*
X101424694Y-114268008D01*
X101329351Y-114392262D01*
X101329341Y-114392277D01*
X101263364Y-114506552D01*
X101263357Y-114506566D01*
X101203428Y-114651248D01*
X101203423Y-114651264D01*
X101173853Y-114761624D01*
X101169271Y-114778723D01*
X101169269Y-114778734D01*
X101148825Y-114934009D01*
X100529180Y-114934009D01*
X100529180Y-109477580D01*
X100548865Y-109410541D01*
X100601669Y-109364786D01*
X100670827Y-109354842D01*
X100734383Y-109383867D01*
X100752447Y-109403269D01*
X100792813Y-109457190D01*
X100907906Y-109543350D01*
X100907913Y-109543354D01*
X101042620Y-109593596D01*
X101042627Y-109593598D01*
X101102155Y-109599999D01*
X101102172Y-109600000D01*
X101750000Y-109600000D01*
X101750000Y-108683012D01*
X101807007Y-108715925D01*
X101934174Y-108750000D01*
X102065826Y-108750000D01*
X102192993Y-108715925D01*
X102250000Y-108683012D01*
X102250000Y-109600000D01*
X102897828Y-109600000D01*
X102897844Y-109599999D01*
X102957372Y-109593598D01*
X102957379Y-109593596D01*
X103092086Y-109543354D01*
X103092093Y-109543350D01*
X103207187Y-109457190D01*
X103207190Y-109457187D01*
X103293350Y-109342093D01*
X103293354Y-109342086D01*
X103342422Y-109210529D01*
X103384293Y-109154595D01*
X103449757Y-109130178D01*
X103518030Y-109145030D01*
X103546285Y-109166181D01*
X103668599Y-109288495D01*
X103736606Y-109336114D01*
X103862165Y-109424032D01*
X103862167Y-109424033D01*
X103862170Y-109424035D01*
X104076337Y-109523903D01*
X104304592Y-109585063D01*
X104475319Y-109600000D01*
X104539999Y-109605659D01*
X104540000Y-109605659D01*
X104540001Y-109605659D01*
X104604681Y-109600000D01*
X104775408Y-109585063D01*
X105003663Y-109523903D01*
X105217830Y-109424035D01*
X105411401Y-109288495D01*
X105578495Y-109121401D01*
X105714035Y-108927830D01*
X105813903Y-108713663D01*
X105875063Y-108485408D01*
X105895659Y-108250000D01*
X105875063Y-108014592D01*
X105815587Y-107792620D01*
X105813905Y-107786344D01*
X105813904Y-107786343D01*
X105813903Y-107786337D01*
X105714035Y-107572171D01*
X105702408Y-107555565D01*
X105578494Y-107378597D01*
X105411402Y-107211506D01*
X105411395Y-107211501D01*
X105217834Y-107075967D01*
X105217830Y-107075965D01*
X105146727Y-107042809D01*
X105003663Y-106976097D01*
X105003659Y-106976096D01*
X105003655Y-106976094D01*
X104775413Y-106914938D01*
X104775403Y-106914936D01*
X104540001Y-106894341D01*
X104539999Y-106894341D01*
X104304596Y-106914936D01*
X104304586Y-106914938D01*
X104076344Y-106976094D01*
X104076335Y-106976098D01*
X103862171Y-107075964D01*
X103862169Y-107075965D01*
X103668600Y-107211503D01*
X103546284Y-107333819D01*
X103484961Y-107367303D01*
X103415269Y-107362319D01*
X103359336Y-107320447D01*
X103342421Y-107289470D01*
X103293354Y-107157913D01*
X103293350Y-107157906D01*
X103207190Y-107042812D01*
X103207187Y-107042809D01*
X103092093Y-106956649D01*
X103092086Y-106956645D01*
X102957379Y-106906403D01*
X102957372Y-106906401D01*
X102897844Y-106900000D01*
X102250000Y-106900000D01*
X102250000Y-107816988D01*
X102192993Y-107784075D01*
X102065826Y-107750000D01*
X101934174Y-107750000D01*
X101807007Y-107784075D01*
X101750000Y-107816988D01*
X101750000Y-106900000D01*
X101102155Y-106900000D01*
X101042627Y-106906401D01*
X101042620Y-106906403D01*
X100907913Y-106956645D01*
X100907906Y-106956649D01*
X100792812Y-107042809D01*
X100752446Y-107096731D01*
X100696512Y-107138601D01*
X100626820Y-107143585D01*
X100565497Y-107110099D01*
X100532013Y-107048775D01*
X100529180Y-107022419D01*
X100529180Y-103372070D01*
X101903180Y-103372070D01*
X101903180Y-103627929D01*
X101943206Y-103880640D01*
X102022268Y-104123972D01*
X102022269Y-104123975D01*
X102138430Y-104351950D01*
X102288812Y-104558935D01*
X102288816Y-104558940D01*
X102469739Y-104739863D01*
X102469744Y-104739867D01*
X102650287Y-104871038D01*
X102676733Y-104890252D01*
X102825760Y-104966185D01*
X102904704Y-105006410D01*
X102904707Y-105006411D01*
X103026373Y-105045942D01*
X103148041Y-105085474D01*
X103400750Y-105125500D01*
X103400751Y-105125500D01*
X103656609Y-105125500D01*
X103656610Y-105125500D01*
X103909319Y-105085474D01*
X104152655Y-105006410D01*
X104380627Y-104890252D01*
X104587622Y-104739862D01*
X104768542Y-104558942D01*
X104918932Y-104351947D01*
X105035090Y-104123975D01*
X105114154Y-103880639D01*
X105154180Y-103627930D01*
X105154180Y-103372070D01*
X105114154Y-103119361D01*
X105074050Y-102995932D01*
X105035091Y-102876027D01*
X105035090Y-102876024D01*
X104994865Y-102797080D01*
X104918932Y-102648053D01*
X104808033Y-102495413D01*
X104768547Y-102441064D01*
X104768543Y-102441059D01*
X104587620Y-102260136D01*
X104587615Y-102260132D01*
X104380630Y-102109750D01*
X104380629Y-102109749D01*
X104380627Y-102109748D01*
X104307590Y-102072533D01*
X104152655Y-101993589D01*
X104152652Y-101993588D01*
X103909320Y-101914526D01*
X103782964Y-101894513D01*
X103656610Y-101874500D01*
X103400750Y-101874500D01*
X103316513Y-101887842D01*
X103148039Y-101914526D01*
X102904707Y-101993588D01*
X102904704Y-101993589D01*
X102676729Y-102109750D01*
X102469744Y-102260132D01*
X102469739Y-102260136D01*
X102288816Y-102441059D01*
X102288812Y-102441064D01*
X102138430Y-102648049D01*
X102022269Y-102876024D01*
X102022268Y-102876027D01*
X101943206Y-103119359D01*
X101903180Y-103372070D01*
X100529180Y-103372070D01*
X100529180Y-103003750D01*
X100529406Y-102996263D01*
X100532784Y-102940423D01*
X100546951Y-102706199D01*
X100548756Y-102691338D01*
X100556689Y-102648053D01*
X100600460Y-102409195D01*
X100604044Y-102394661D01*
X100645963Y-102260138D01*
X100689376Y-102120818D01*
X100694678Y-102106838D01*
X100812408Y-101845251D01*
X100819362Y-101832003D01*
X100967753Y-101586531D01*
X100976258Y-101574212D01*
X101153153Y-101348419D01*
X101163078Y-101337216D01*
X101365907Y-101134385D01*
X101377097Y-101124471D01*
X101602904Y-100947561D01*
X101615212Y-100939066D01*
X101860697Y-100790663D01*
X101873938Y-100783714D01*
X102135517Y-100665986D01*
X102149494Y-100660685D01*
X102423354Y-100575345D01*
X102437880Y-100571764D01*
X102720026Y-100520057D01*
X102734882Y-100518253D01*
X103024616Y-100500725D01*
X103032104Y-100500500D01*
X103094575Y-100500500D01*
X107250000Y-100500500D01*
X107250000Y-101000000D01*
G37*
%TD.AperFunction*%
%TA.AperFunction,Conductor*%
G36*
X117400265Y-106300248D02*
G01*
X117467204Y-106320264D01*
X117487330Y-106336565D01*
X117865139Y-106714374D01*
X117865149Y-106714385D01*
X117869479Y-106718715D01*
X117869480Y-106718716D01*
X117981284Y-106830520D01*
X118047442Y-106868716D01*
X118118215Y-106909577D01*
X118270942Y-106950500D01*
X118270943Y-106950500D01*
X126199903Y-106950500D01*
X126266942Y-106970185D01*
X126287584Y-106986819D01*
X126403181Y-107102416D01*
X126436666Y-107163739D01*
X126439500Y-107190097D01*
X126439500Y-107460908D01*
X126419815Y-107527947D01*
X126367914Y-107573286D01*
X126362173Y-107575963D01*
X126362169Y-107575965D01*
X126168600Y-107711503D01*
X126046284Y-107833819D01*
X125984961Y-107867303D01*
X125915269Y-107862319D01*
X125859336Y-107820447D01*
X125842421Y-107789470D01*
X125793354Y-107657913D01*
X125793350Y-107657906D01*
X125707190Y-107542812D01*
X125707187Y-107542809D01*
X125592093Y-107456649D01*
X125592086Y-107456645D01*
X125457379Y-107406403D01*
X125457372Y-107406401D01*
X125397844Y-107400000D01*
X124750000Y-107400000D01*
X124750000Y-108316988D01*
X124692993Y-108284075D01*
X124565826Y-108250000D01*
X124434174Y-108250000D01*
X124307007Y-108284075D01*
X124250000Y-108316988D01*
X124250000Y-107400000D01*
X123602155Y-107400000D01*
X123542627Y-107406401D01*
X123542620Y-107406403D01*
X123407913Y-107456645D01*
X123407906Y-107456649D01*
X123292812Y-107542809D01*
X123292809Y-107542812D01*
X123206649Y-107657906D01*
X123206645Y-107657913D01*
X123156403Y-107792620D01*
X123156401Y-107792627D01*
X123150000Y-107852155D01*
X123150000Y-108500000D01*
X124066988Y-108500000D01*
X124034075Y-108557007D01*
X124000000Y-108684174D01*
X124000000Y-108815826D01*
X124034075Y-108942993D01*
X124066988Y-109000000D01*
X123150000Y-109000000D01*
X123150000Y-109647844D01*
X123156401Y-109707372D01*
X123156403Y-109707379D01*
X123208468Y-109846973D01*
X123213452Y-109916665D01*
X123179967Y-109977988D01*
X123118644Y-110011472D01*
X123051332Y-110007348D01*
X122929257Y-109964632D01*
X122929249Y-109964630D01*
X122750004Y-109944435D01*
X122749996Y-109944435D01*
X122570750Y-109964630D01*
X122570745Y-109964631D01*
X122400476Y-110024211D01*
X122253567Y-110116521D01*
X122186330Y-110135521D01*
X122119495Y-110115153D01*
X122099914Y-110099208D01*
X120747189Y-108746483D01*
X120713704Y-108685160D01*
X120718688Y-108615468D01*
X120723152Y-108604996D01*
X120725782Y-108599531D01*
X120725789Y-108599522D01*
X120763035Y-108493077D01*
X120785366Y-108429262D01*
X120785369Y-108429249D01*
X120805565Y-108250003D01*
X120805565Y-108249996D01*
X120785369Y-108070750D01*
X120785368Y-108070745D01*
X120755101Y-107984248D01*
X120725789Y-107900478D01*
X120718410Y-107888735D01*
X120662593Y-107799902D01*
X120629816Y-107747738D01*
X120502262Y-107620184D01*
X120349523Y-107524211D01*
X120179254Y-107464631D01*
X120179249Y-107464630D01*
X120000004Y-107444435D01*
X119999996Y-107444435D01*
X119820750Y-107464630D01*
X119820745Y-107464631D01*
X119650476Y-107524211D01*
X119497737Y-107620184D01*
X119370184Y-107747737D01*
X119274211Y-107900476D01*
X119214631Y-108070745D01*
X119214630Y-108070750D01*
X119194435Y-108249996D01*
X119194435Y-108250003D01*
X119214630Y-108429249D01*
X119214631Y-108429254D01*
X119274211Y-108599523D01*
X119370182Y-108752259D01*
X119372441Y-108755091D01*
X119373330Y-108757268D01*
X119373889Y-108758158D01*
X119373733Y-108758255D01*
X119398854Y-108819776D01*
X119399499Y-108832410D01*
X119399499Y-108927583D01*
X119399498Y-108927583D01*
X119434177Y-109057007D01*
X119440423Y-109080314D01*
X119464145Y-109121401D01*
X119515603Y-109210529D01*
X119519479Y-109217243D01*
X119519481Y-109217246D01*
X119638349Y-109336114D01*
X119638355Y-109336119D01*
X122166610Y-111864374D01*
X122166620Y-111864385D01*
X122170950Y-111868715D01*
X122170951Y-111868716D01*
X122282755Y-111980520D01*
X122350238Y-112019481D01*
X122419686Y-112059577D01*
X122572413Y-112100500D01*
X122572414Y-112100500D01*
X123917588Y-112100500D01*
X123984627Y-112120185D01*
X123994903Y-112127555D01*
X123997736Y-112129814D01*
X123997738Y-112129816D01*
X124111270Y-112201152D01*
X124141557Y-112220184D01*
X124150478Y-112225789D01*
X124320745Y-112285368D01*
X124320750Y-112285369D01*
X124499996Y-112305565D01*
X124500000Y-112305565D01*
X124500004Y-112305565D01*
X124679249Y-112285369D01*
X124679252Y-112285368D01*
X124679255Y-112285368D01*
X124849522Y-112225789D01*
X125002262Y-112129816D01*
X125129816Y-112002262D01*
X125225789Y-111849522D01*
X125285368Y-111679255D01*
X125285369Y-111679249D01*
X125305565Y-111500003D01*
X125305565Y-111500001D01*
X125304256Y-111488386D01*
X125316309Y-111419564D01*
X125363657Y-111368184D01*
X125427476Y-111350500D01*
X128022935Y-111350500D01*
X128089974Y-111370185D01*
X128135729Y-111422989D01*
X128145673Y-111492147D01*
X128116648Y-111555703D01*
X128110616Y-111562181D01*
X127459616Y-112213181D01*
X127398293Y-112246666D01*
X127371935Y-112249500D01*
X126832412Y-112249500D01*
X126765373Y-112229815D01*
X126755097Y-112222445D01*
X126752263Y-112220185D01*
X126752262Y-112220184D01*
X126695496Y-112184515D01*
X126599523Y-112124211D01*
X126429254Y-112064631D01*
X126429249Y-112064630D01*
X126250004Y-112044435D01*
X126249996Y-112044435D01*
X126070750Y-112064630D01*
X126070745Y-112064631D01*
X125900476Y-112124211D01*
X125747737Y-112220184D01*
X125620184Y-112347737D01*
X125524211Y-112500476D01*
X125464631Y-112670745D01*
X125464630Y-112670750D01*
X125444435Y-112849996D01*
X125444435Y-112850003D01*
X125464630Y-113029249D01*
X125464631Y-113029254D01*
X125524211Y-113199523D01*
X125600384Y-113320750D01*
X125620184Y-113352262D01*
X125747738Y-113479816D01*
X125900478Y-113575789D01*
X126013837Y-113615455D01*
X126070745Y-113635368D01*
X126070750Y-113635369D01*
X126220840Y-113652280D01*
X126247366Y-113663426D01*
X126258108Y-113656523D01*
X126279160Y-113652280D01*
X126429249Y-113635369D01*
X126429252Y-113635368D01*
X126429255Y-113635368D01*
X126599522Y-113575789D01*
X126752262Y-113479816D01*
X126752267Y-113479810D01*
X126755097Y-113477555D01*
X126757275Y-113476665D01*
X126758158Y-113476111D01*
X126758255Y-113476265D01*
X126819783Y-113451145D01*
X126832412Y-113450500D01*
X127585363Y-113450500D01*
X127585379Y-113450501D01*
X127682960Y-113450501D01*
X127749999Y-113470186D01*
X127795754Y-113522990D01*
X127805698Y-113592148D01*
X127800003Y-113615450D01*
X127785631Y-113656523D01*
X127763157Y-113720750D01*
X127755425Y-113789383D01*
X127728359Y-113853797D01*
X127670764Y-113893352D01*
X127632205Y-113899500D01*
X126293043Y-113899500D01*
X126250101Y-113886890D01*
X126228351Y-113897640D01*
X126206957Y-113899500D01*
X125832412Y-113899500D01*
X125765373Y-113879815D01*
X125755097Y-113872445D01*
X125752263Y-113870185D01*
X125752262Y-113870184D01*
X125635794Y-113797002D01*
X125599523Y-113774211D01*
X125429254Y-113714631D01*
X125429249Y-113714630D01*
X125250004Y-113694435D01*
X125249996Y-113694435D01*
X125070750Y-113714630D01*
X125070745Y-113714631D01*
X124900476Y-113774211D01*
X124747736Y-113870185D01*
X124744903Y-113872445D01*
X124742724Y-113873334D01*
X124741842Y-113873889D01*
X124741744Y-113873734D01*
X124680217Y-113898855D01*
X124667588Y-113899500D01*
X121582412Y-113899500D01*
X121515373Y-113879815D01*
X121505097Y-113872445D01*
X121502263Y-113870185D01*
X121502262Y-113870184D01*
X121385794Y-113797002D01*
X121349523Y-113774211D01*
X121179254Y-113714631D01*
X121179249Y-113714630D01*
X121000004Y-113694435D01*
X120999996Y-113694435D01*
X120820750Y-113714630D01*
X120820745Y-113714631D01*
X120650476Y-113774211D01*
X120497737Y-113870184D01*
X120370184Y-113997737D01*
X120274210Y-114150478D01*
X120214630Y-114320750D01*
X120206898Y-114389383D01*
X120179832Y-114453797D01*
X120122237Y-114493352D01*
X120083678Y-114499500D01*
X119465783Y-114499500D01*
X119398744Y-114479815D01*
X119378102Y-114463181D01*
X116675499Y-111760578D01*
X116642014Y-111699255D01*
X116639180Y-111672897D01*
X116639180Y-106421095D01*
X116658865Y-106354056D01*
X116711669Y-106308301D01*
X116763789Y-106297097D01*
X117400265Y-106300248D01*
G37*
%TD.AperFunction*%
%TA.AperFunction,Conductor*%
G36*
X133796438Y-112102367D02*
G01*
X133852371Y-112144239D01*
X133876788Y-112209703D01*
X133877104Y-112218549D01*
X133877104Y-113570435D01*
X133857419Y-113637474D01*
X133804615Y-113683229D01*
X133756913Y-113693606D01*
X133756919Y-113693655D01*
X133756442Y-113693708D01*
X133753104Y-113694435D01*
X133749996Y-113694435D01*
X133570750Y-113714630D01*
X133570745Y-113714631D01*
X133400476Y-113774211D01*
X133247736Y-113870185D01*
X133244903Y-113872445D01*
X133242724Y-113873334D01*
X133241842Y-113873889D01*
X133241744Y-113873734D01*
X133180217Y-113898855D01*
X133167588Y-113899500D01*
X130332412Y-113899500D01*
X130265373Y-113879815D01*
X130255097Y-113872445D01*
X130252263Y-113870185D01*
X130252262Y-113870184D01*
X130187503Y-113829493D01*
X130141213Y-113777159D01*
X130130565Y-113708106D01*
X130158940Y-113644257D01*
X130217330Y-113605885D01*
X130253476Y-113600500D01*
X131860388Y-113600500D01*
X131860404Y-113600501D01*
X131868000Y-113600501D01*
X132026113Y-113600501D01*
X132026115Y-113600501D01*
X132178842Y-113559577D01*
X132245068Y-113521341D01*
X132315773Y-113480520D01*
X132427577Y-113368716D01*
X132427577Y-113368714D01*
X132437781Y-113358511D01*
X132437785Y-113358506D01*
X133665423Y-112130868D01*
X133726746Y-112097383D01*
X133796438Y-112102367D01*
G37*
%TD.AperFunction*%
%TA.AperFunction,Conductor*%
G36*
X135634796Y-106390518D02*
G01*
X135701735Y-106410534D01*
X135747228Y-106463563D01*
X135758180Y-106514516D01*
X135758180Y-106917587D01*
X135738495Y-106984626D01*
X135731130Y-106994896D01*
X135728866Y-106997734D01*
X135632891Y-107150476D01*
X135573311Y-107320745D01*
X135573310Y-107320750D01*
X135553115Y-107499996D01*
X135553115Y-107500003D01*
X135573310Y-107679249D01*
X135573311Y-107679254D01*
X135632891Y-107849523D01*
X135717545Y-107984248D01*
X135728864Y-108002262D01*
X135856418Y-108129816D01*
X136009158Y-108225789D01*
X136078358Y-108250003D01*
X136179425Y-108285368D01*
X136179430Y-108285369D01*
X136358676Y-108305565D01*
X136358680Y-108305565D01*
X136358684Y-108305565D01*
X136537929Y-108285369D01*
X136537932Y-108285368D01*
X136537935Y-108285368D01*
X136708202Y-108225789D01*
X136860942Y-108129816D01*
X136988496Y-108002262D01*
X137084469Y-107849522D01*
X137144048Y-107679255D01*
X137149706Y-107629034D01*
X137176771Y-107564623D01*
X137234365Y-107525067D01*
X137304202Y-107522928D01*
X137338898Y-107537926D01*
X137405054Y-107579495D01*
X137403583Y-107581834D01*
X137446153Y-107620243D01*
X137463734Y-107671292D01*
X137464630Y-107679249D01*
X137524210Y-107849521D01*
X137608865Y-107984248D01*
X137620184Y-108002262D01*
X137747738Y-108129816D01*
X137900478Y-108225789D01*
X137969678Y-108250003D01*
X138070745Y-108285368D01*
X138070750Y-108285369D01*
X138249996Y-108305565D01*
X138250000Y-108305565D01*
X138250004Y-108305565D01*
X138429249Y-108285369D01*
X138429251Y-108285368D01*
X138429255Y-108285368D01*
X138429258Y-108285366D01*
X138429262Y-108285366D01*
X138601384Y-108225138D01*
X138671163Y-108221576D01*
X138731790Y-108256304D01*
X138764018Y-108318298D01*
X138758522Y-108385509D01*
X138755909Y-108392515D01*
X138755908Y-108392516D01*
X138750595Y-108441939D01*
X138749500Y-108452127D01*
X138749500Y-108943039D01*
X138749501Y-109375500D01*
X138729817Y-109442539D01*
X138677013Y-109488294D01*
X138625501Y-109499500D01*
X134368040Y-109499500D01*
X134368024Y-109499499D01*
X134360428Y-109499499D01*
X134202313Y-109499499D01*
X134049585Y-109540423D01*
X133946395Y-109600000D01*
X133912651Y-109619482D01*
X133640861Y-109891273D01*
X133579538Y-109924758D01*
X133509846Y-109919774D01*
X133453913Y-109877902D01*
X133429496Y-109812438D01*
X133429180Y-109803592D01*
X133429180Y-107940096D01*
X133448865Y-107873057D01*
X133465494Y-107852420D01*
X134894307Y-106423606D01*
X134955630Y-106390122D01*
X134982601Y-106387290D01*
X135634796Y-106390518D01*
G37*
%TD.AperFunction*%
%TA.AperFunction,Conductor*%
G36*
X142026117Y-106422158D02*
G01*
X142093055Y-106442174D01*
X142138548Y-106495204D01*
X142149500Y-106546156D01*
X142149500Y-107917209D01*
X142129815Y-107984248D01*
X142077011Y-108030003D01*
X142068833Y-108033391D01*
X142007671Y-108056202D01*
X142007664Y-108056206D01*
X141892455Y-108142452D01*
X141892452Y-108142455D01*
X141806206Y-108257664D01*
X141806202Y-108257671D01*
X141755908Y-108392517D01*
X141750595Y-108441939D01*
X141749500Y-108452127D01*
X141749500Y-108943039D01*
X141749501Y-109375500D01*
X141729817Y-109442539D01*
X141677013Y-109488294D01*
X141625501Y-109499500D01*
X140874500Y-109499500D01*
X140807461Y-109479815D01*
X140761706Y-109427011D01*
X140750500Y-109375500D01*
X140750499Y-108452129D01*
X140750498Y-108452123D01*
X140750497Y-108452116D01*
X140744091Y-108392517D01*
X140744090Y-108392515D01*
X140693797Y-108257671D01*
X140693793Y-108257664D01*
X140607547Y-108142455D01*
X140607544Y-108142452D01*
X140492335Y-108056206D01*
X140492328Y-108056202D01*
X140431167Y-108033391D01*
X140375233Y-107991520D01*
X140350816Y-107926056D01*
X140350500Y-107917209D01*
X140350500Y-106788777D01*
X140370185Y-106721738D01*
X140386819Y-106701096D01*
X140497650Y-106590265D01*
X140635885Y-106452029D01*
X140697207Y-106418545D01*
X140724172Y-106415713D01*
X142026117Y-106422158D01*
G37*
%TD.AperFunction*%
%TA.AperFunction,Conductor*%
G36*
X112774795Y-106277350D02*
G01*
X112841735Y-106297366D01*
X112887228Y-106350396D01*
X112898180Y-106401348D01*
X112898180Y-109001054D01*
X112878495Y-109068093D01*
X112825691Y-109113848D01*
X112756533Y-109123792D01*
X112692977Y-109094767D01*
X112686499Y-109088735D01*
X111595499Y-107997735D01*
X111562014Y-107936412D01*
X111559180Y-107910054D01*
X111559180Y-106395946D01*
X111578865Y-106328907D01*
X111631669Y-106283152D01*
X111683787Y-106271949D01*
X112774795Y-106277350D01*
G37*
%TD.AperFunction*%
%TA.AperFunction,Conductor*%
G36*
X144526114Y-106434535D02*
G01*
X144593055Y-106454551D01*
X144638548Y-106507581D01*
X144649500Y-106558533D01*
X144649500Y-107799902D01*
X144629815Y-107866941D01*
X144613181Y-107887583D01*
X143962180Y-108538584D01*
X143900857Y-108572069D01*
X143831165Y-108567085D01*
X143775232Y-108525213D01*
X143750815Y-108459749D01*
X143750630Y-108454589D01*
X143750499Y-108452135D01*
X143750499Y-108452128D01*
X143744091Y-108392517D01*
X143744090Y-108392515D01*
X143693797Y-108257671D01*
X143693793Y-108257664D01*
X143607547Y-108142455D01*
X143607544Y-108142452D01*
X143492335Y-108056206D01*
X143492328Y-108056202D01*
X143431167Y-108033391D01*
X143375233Y-107991520D01*
X143350816Y-107926056D01*
X143350500Y-107917209D01*
X143350500Y-106553329D01*
X143370185Y-106486290D01*
X143422989Y-106440535D01*
X143475108Y-106429332D01*
X144526114Y-106434535D01*
G37*
%TD.AperFunction*%
%TD*%
%TA.AperFunction,Conductor*%
%TO.N,GND*%
G36*
X157750000Y-101000000D02*
G01*
X157199648Y-101000000D01*
X157147246Y-100988383D01*
X157142343Y-100986097D01*
X157142340Y-100986096D01*
X157142335Y-100986094D01*
X156914093Y-100924938D01*
X156914083Y-100924936D01*
X156678681Y-100904341D01*
X156678679Y-100904341D01*
X156443276Y-100924936D01*
X156443266Y-100924938D01*
X156215024Y-100986094D01*
X156215019Y-100986096D01*
X156215017Y-100986097D01*
X156210113Y-100988383D01*
X156157712Y-101000000D01*
X154659648Y-101000000D01*
X154607246Y-100988383D01*
X154602343Y-100986097D01*
X154602340Y-100986096D01*
X154602335Y-100986094D01*
X154374093Y-100924938D01*
X154374083Y-100924936D01*
X154138681Y-100904341D01*
X154138679Y-100904341D01*
X153903276Y-100924936D01*
X153903266Y-100924938D01*
X153675024Y-100986094D01*
X153675019Y-100986096D01*
X153675017Y-100986097D01*
X153670113Y-100988383D01*
X153617712Y-101000000D01*
X152119648Y-101000000D01*
X152067246Y-100988383D01*
X152062343Y-100986097D01*
X152062340Y-100986096D01*
X152062335Y-100986094D01*
X151834093Y-100924938D01*
X151834083Y-100924936D01*
X151598681Y-100904341D01*
X151598679Y-100904341D01*
X151363276Y-100924936D01*
X151363266Y-100924938D01*
X151135024Y-100986094D01*
X151135019Y-100986096D01*
X151135017Y-100986097D01*
X151130113Y-100988383D01*
X151077712Y-101000000D01*
X147039648Y-101000000D01*
X146987246Y-100988383D01*
X146982343Y-100986097D01*
X146982340Y-100986096D01*
X146982335Y-100986094D01*
X146754093Y-100924938D01*
X146754083Y-100924936D01*
X146518681Y-100904341D01*
X146518679Y-100904341D01*
X146283276Y-100924936D01*
X146283266Y-100924938D01*
X146055024Y-100986094D01*
X146055019Y-100986096D01*
X146055017Y-100986097D01*
X146050113Y-100988383D01*
X145997712Y-101000000D01*
X141959648Y-101000000D01*
X141907246Y-100988383D01*
X141902343Y-100986097D01*
X141902340Y-100986096D01*
X141902335Y-100986094D01*
X141674093Y-100924938D01*
X141674083Y-100924936D01*
X141438681Y-100904341D01*
X141438679Y-100904341D01*
X141203276Y-100924936D01*
X141203266Y-100924938D01*
X140975024Y-100986094D01*
X140975019Y-100986096D01*
X140975017Y-100986097D01*
X140970113Y-100988383D01*
X140917712Y-101000000D01*
X139419648Y-101000000D01*
X139367246Y-100988383D01*
X139362343Y-100986097D01*
X139362340Y-100986096D01*
X139362335Y-100986094D01*
X139134093Y-100924938D01*
X139134083Y-100924936D01*
X138898681Y-100904341D01*
X138898679Y-100904341D01*
X138663276Y-100924936D01*
X138663266Y-100924938D01*
X138435024Y-100986094D01*
X138435019Y-100986096D01*
X138435017Y-100986097D01*
X138430113Y-100988383D01*
X138377712Y-101000000D01*
X136879648Y-101000000D01*
X136827246Y-100988383D01*
X136822343Y-100986097D01*
X136822340Y-100986096D01*
X136822335Y-100986094D01*
X136594093Y-100924938D01*
X136594083Y-100924936D01*
X136358681Y-100904341D01*
X136358679Y-100904341D01*
X136123276Y-100924936D01*
X136123266Y-100924938D01*
X135895024Y-100986094D01*
X135895019Y-100986096D01*
X135895017Y-100986097D01*
X135890113Y-100988383D01*
X135837712Y-101000000D01*
X134339648Y-101000000D01*
X134287246Y-100988383D01*
X134282343Y-100986097D01*
X134282340Y-100986096D01*
X134282335Y-100986094D01*
X134054093Y-100924938D01*
X134054083Y-100924936D01*
X133818681Y-100904341D01*
X133818679Y-100904341D01*
X133583276Y-100924936D01*
X133583266Y-100924938D01*
X133355024Y-100986094D01*
X133355019Y-100986096D01*
X133355017Y-100986097D01*
X133350113Y-100988383D01*
X133297712Y-101000000D01*
X129259648Y-101000000D01*
X129207246Y-100988383D01*
X129202343Y-100986097D01*
X129202340Y-100986096D01*
X129202335Y-100986094D01*
X128974093Y-100924938D01*
X128974083Y-100924936D01*
X128738681Y-100904341D01*
X128738679Y-100904341D01*
X128503276Y-100924936D01*
X128503266Y-100924938D01*
X128275024Y-100986094D01*
X128275019Y-100986096D01*
X128275017Y-100986097D01*
X128270113Y-100988383D01*
X128217712Y-101000000D01*
X126719648Y-101000000D01*
X126667246Y-100988383D01*
X126662343Y-100986097D01*
X126662340Y-100986096D01*
X126662335Y-100986094D01*
X126434093Y-100924938D01*
X126434083Y-100924936D01*
X126198681Y-100904341D01*
X126198679Y-100904341D01*
X125963276Y-100924936D01*
X125963266Y-100924938D01*
X125735024Y-100986094D01*
X125735019Y-100986096D01*
X125735017Y-100986097D01*
X125730113Y-100988383D01*
X125677712Y-101000000D01*
X121639648Y-101000000D01*
X121587246Y-100988383D01*
X121582343Y-100986097D01*
X121582340Y-100986096D01*
X121582335Y-100986094D01*
X121354093Y-100924938D01*
X121354083Y-100924936D01*
X121118681Y-100904341D01*
X121118679Y-100904341D01*
X120883276Y-100924936D01*
X120883266Y-100924938D01*
X120655024Y-100986094D01*
X120655019Y-100986096D01*
X120655017Y-100986097D01*
X120650113Y-100988383D01*
X120597712Y-101000000D01*
X119099648Y-101000000D01*
X119047246Y-100988383D01*
X119042343Y-100986097D01*
X119042340Y-100986096D01*
X119042335Y-100986094D01*
X118814093Y-100924938D01*
X118814083Y-100924936D01*
X118578681Y-100904341D01*
X118578679Y-100904341D01*
X118343276Y-100924936D01*
X118343266Y-100924938D01*
X118115024Y-100986094D01*
X118115019Y-100986096D01*
X118115017Y-100986097D01*
X118110113Y-100988383D01*
X118057712Y-101000000D01*
X116559648Y-101000000D01*
X116507246Y-100988383D01*
X116502343Y-100986097D01*
X116502340Y-100986096D01*
X116502335Y-100986094D01*
X116274093Y-100924938D01*
X116274083Y-100924936D01*
X116038681Y-100904341D01*
X116038679Y-100904341D01*
X115803276Y-100924936D01*
X115803266Y-100924938D01*
X115575024Y-100986094D01*
X115575019Y-100986096D01*
X115575017Y-100986097D01*
X115570113Y-100988383D01*
X115517712Y-101000000D01*
X111479648Y-101000000D01*
X111427246Y-100988383D01*
X111422343Y-100986097D01*
X111422340Y-100986096D01*
X111422335Y-100986094D01*
X111194093Y-100924938D01*
X111194083Y-100924936D01*
X110958681Y-100904341D01*
X110958679Y-100904341D01*
X110723276Y-100924936D01*
X110723266Y-100924938D01*
X110495024Y-100986094D01*
X110495019Y-100986096D01*
X110495017Y-100986097D01*
X110490113Y-100988383D01*
X110437712Y-101000000D01*
X108939648Y-101000000D01*
X108887246Y-100988383D01*
X108882343Y-100986097D01*
X108882340Y-100986096D01*
X108882335Y-100986094D01*
X108654093Y-100924938D01*
X108654083Y-100924936D01*
X108418681Y-100904341D01*
X108418679Y-100904341D01*
X108183276Y-100924936D01*
X108183266Y-100924938D01*
X107955024Y-100986094D01*
X107955019Y-100986096D01*
X107955017Y-100986097D01*
X107950113Y-100988383D01*
X107897712Y-101000000D01*
X107250000Y-101000000D01*
X107250000Y-100500500D01*
X157750000Y-100500500D01*
X157750000Y-101000000D01*
G37*
%TD.AperFunction*%
%TD*%
M02*
