%TF.GenerationSoftware,KiCad,Pcbnew,8.0.8-8.0.8-0~ubuntu24.04.1*%
%TF.CreationDate,2025-02-13T10:07:34+01:00*%
%TF.ProjectId,Acorn_1Mhz_bus_PiZero_interface,41636f72-6e5f-4314-9d68-7a5f6275735f,rev?*%
%TF.SameCoordinates,Original*%
%TF.FileFunction,Legend,Bot*%
%TF.FilePolarity,Positive*%
%FSLAX46Y46*%
G04 Gerber Fmt 4.6, Leading zero omitted, Abs format (unit mm)*
G04 Created by KiCad (PCBNEW 8.0.8-8.0.8-0~ubuntu24.04.1) date 2025-02-13 10:07:34*
%MOMM*%
%LPD*%
G01*
G04 APERTURE LIST*
G04 Aperture macros list*
%AMRoundRect*
0 Rectangle with rounded corners*
0 $1 Rounding radius*
0 $2 $3 $4 $5 $6 $7 $8 $9 X,Y pos of 4 corners*
0 Add a 4 corners polygon primitive as box body*
4,1,4,$2,$3,$4,$5,$6,$7,$8,$9,$2,$3,0*
0 Add four circle primitives for the rounded corners*
1,1,$1+$1,$2,$3*
1,1,$1+$1,$4,$5*
1,1,$1+$1,$6,$7*
1,1,$1+$1,$8,$9*
0 Add four rect primitives between the rounded corners*
20,1,$1+$1,$2,$3,$4,$5,0*
20,1,$1+$1,$4,$5,$6,$7,0*
20,1,$1+$1,$6,$7,$8,$9,0*
20,1,$1+$1,$8,$9,$2,$3,0*%
G04 Aperture macros list end*
%ADD10C,0.100000*%
%ADD11C,0.150000*%
%ADD12C,0.120000*%
%ADD13R,1.700000X1.700000*%
%ADD14O,1.700000X1.700000*%
%ADD15RoundRect,0.250000X-0.750000X0.600000X-0.750000X-0.600000X0.750000X-0.600000X0.750000X0.600000X0*%
%ADD16O,2.000000X1.700000*%
%ADD17RoundRect,0.250000X0.600000X-0.600000X0.600000X0.600000X-0.600000X0.600000X-0.600000X-0.600000X0*%
%ADD18C,1.700000*%
%ADD19R,1.000000X1.000000*%
G04 APERTURE END LIST*
D10*
X146660401Y-118173539D02*
X146708020Y-118125920D01*
X146708020Y-118125920D02*
X146803258Y-117983063D01*
X146803258Y-117983063D02*
X146850877Y-117887825D01*
X146850877Y-117887825D02*
X146898496Y-117744968D01*
X146898496Y-117744968D02*
X146946115Y-117506872D01*
X146946115Y-117506872D02*
X146946115Y-117316396D01*
X146946115Y-117316396D02*
X146898496Y-117078301D01*
X146898496Y-117078301D02*
X146850877Y-116935444D01*
X146850877Y-116935444D02*
X146803258Y-116840206D01*
X146803258Y-116840206D02*
X146708020Y-116697348D01*
X146708020Y-116697348D02*
X146660401Y-116649729D01*
X145850877Y-117744968D02*
X145946115Y-117792587D01*
X145946115Y-117792587D02*
X146136591Y-117792587D01*
X146136591Y-117792587D02*
X146231829Y-117744968D01*
X146231829Y-117744968D02*
X146279448Y-117697348D01*
X146279448Y-117697348D02*
X146327067Y-117602110D01*
X146327067Y-117602110D02*
X146327067Y-117316396D01*
X146327067Y-117316396D02*
X146279448Y-117221158D01*
X146279448Y-117221158D02*
X146231829Y-117173539D01*
X146231829Y-117173539D02*
X146136591Y-117125920D01*
X146136591Y-117125920D02*
X145946115Y-117125920D01*
X145946115Y-117125920D02*
X145850877Y-117173539D01*
X145517543Y-118173539D02*
X145469924Y-118125920D01*
X145469924Y-118125920D02*
X145374686Y-117983063D01*
X145374686Y-117983063D02*
X145327067Y-117887825D01*
X145327067Y-117887825D02*
X145279448Y-117744968D01*
X145279448Y-117744968D02*
X145231829Y-117506872D01*
X145231829Y-117506872D02*
X145231829Y-117316396D01*
X145231829Y-117316396D02*
X145279448Y-117078301D01*
X145279448Y-117078301D02*
X145327067Y-116935444D01*
X145327067Y-116935444D02*
X145374686Y-116840206D01*
X145374686Y-116840206D02*
X145469924Y-116697348D01*
X145469924Y-116697348D02*
X145517543Y-116649729D01*
X144041352Y-116887825D02*
X143993733Y-116840206D01*
X143993733Y-116840206D02*
X143898495Y-116792587D01*
X143898495Y-116792587D02*
X143660400Y-116792587D01*
X143660400Y-116792587D02*
X143565162Y-116840206D01*
X143565162Y-116840206D02*
X143517543Y-116887825D01*
X143517543Y-116887825D02*
X143469924Y-116983063D01*
X143469924Y-116983063D02*
X143469924Y-117078301D01*
X143469924Y-117078301D02*
X143517543Y-117221158D01*
X143517543Y-117221158D02*
X144088971Y-117792587D01*
X144088971Y-117792587D02*
X143469924Y-117792587D01*
X142850876Y-116792587D02*
X142755638Y-116792587D01*
X142755638Y-116792587D02*
X142660400Y-116840206D01*
X142660400Y-116840206D02*
X142612781Y-116887825D01*
X142612781Y-116887825D02*
X142565162Y-116983063D01*
X142565162Y-116983063D02*
X142517543Y-117173539D01*
X142517543Y-117173539D02*
X142517543Y-117411634D01*
X142517543Y-117411634D02*
X142565162Y-117602110D01*
X142565162Y-117602110D02*
X142612781Y-117697348D01*
X142612781Y-117697348D02*
X142660400Y-117744968D01*
X142660400Y-117744968D02*
X142755638Y-117792587D01*
X142755638Y-117792587D02*
X142850876Y-117792587D01*
X142850876Y-117792587D02*
X142946114Y-117744968D01*
X142946114Y-117744968D02*
X142993733Y-117697348D01*
X142993733Y-117697348D02*
X143041352Y-117602110D01*
X143041352Y-117602110D02*
X143088971Y-117411634D01*
X143088971Y-117411634D02*
X143088971Y-117173539D01*
X143088971Y-117173539D02*
X143041352Y-116983063D01*
X143041352Y-116983063D02*
X142993733Y-116887825D01*
X142993733Y-116887825D02*
X142946114Y-116840206D01*
X142946114Y-116840206D02*
X142850876Y-116792587D01*
X142136590Y-116887825D02*
X142088971Y-116840206D01*
X142088971Y-116840206D02*
X141993733Y-116792587D01*
X141993733Y-116792587D02*
X141755638Y-116792587D01*
X141755638Y-116792587D02*
X141660400Y-116840206D01*
X141660400Y-116840206D02*
X141612781Y-116887825D01*
X141612781Y-116887825D02*
X141565162Y-116983063D01*
X141565162Y-116983063D02*
X141565162Y-117078301D01*
X141565162Y-117078301D02*
X141612781Y-117221158D01*
X141612781Y-117221158D02*
X142184209Y-117792587D01*
X142184209Y-117792587D02*
X141565162Y-117792587D01*
X140660400Y-116792587D02*
X141136590Y-116792587D01*
X141136590Y-116792587D02*
X141184209Y-117268777D01*
X141184209Y-117268777D02*
X141136590Y-117221158D01*
X141136590Y-117221158D02*
X141041352Y-117173539D01*
X141041352Y-117173539D02*
X140803257Y-117173539D01*
X140803257Y-117173539D02*
X140708019Y-117221158D01*
X140708019Y-117221158D02*
X140660400Y-117268777D01*
X140660400Y-117268777D02*
X140612781Y-117364015D01*
X140612781Y-117364015D02*
X140612781Y-117602110D01*
X140612781Y-117602110D02*
X140660400Y-117697348D01*
X140660400Y-117697348D02*
X140708019Y-117744968D01*
X140708019Y-117744968D02*
X140803257Y-117792587D01*
X140803257Y-117792587D02*
X141041352Y-117792587D01*
X141041352Y-117792587D02*
X141136590Y-117744968D01*
X141136590Y-117744968D02*
X141184209Y-117697348D01*
X139469923Y-117744968D02*
X139327066Y-117792587D01*
X139327066Y-117792587D02*
X139088971Y-117792587D01*
X139088971Y-117792587D02*
X138993733Y-117744968D01*
X138993733Y-117744968D02*
X138946114Y-117697348D01*
X138946114Y-117697348D02*
X138898495Y-117602110D01*
X138898495Y-117602110D02*
X138898495Y-117506872D01*
X138898495Y-117506872D02*
X138946114Y-117411634D01*
X138946114Y-117411634D02*
X138993733Y-117364015D01*
X138993733Y-117364015D02*
X139088971Y-117316396D01*
X139088971Y-117316396D02*
X139279447Y-117268777D01*
X139279447Y-117268777D02*
X139374685Y-117221158D01*
X139374685Y-117221158D02*
X139422304Y-117173539D01*
X139422304Y-117173539D02*
X139469923Y-117078301D01*
X139469923Y-117078301D02*
X139469923Y-116983063D01*
X139469923Y-116983063D02*
X139422304Y-116887825D01*
X139422304Y-116887825D02*
X139374685Y-116840206D01*
X139374685Y-116840206D02*
X139279447Y-116792587D01*
X139279447Y-116792587D02*
X139041352Y-116792587D01*
X139041352Y-116792587D02*
X138898495Y-116840206D01*
X138469923Y-117792587D02*
X138469923Y-117125920D01*
X138469923Y-116792587D02*
X138517542Y-116840206D01*
X138517542Y-116840206D02*
X138469923Y-116887825D01*
X138469923Y-116887825D02*
X138422304Y-116840206D01*
X138422304Y-116840206D02*
X138469923Y-116792587D01*
X138469923Y-116792587D02*
X138469923Y-116887825D01*
X137993733Y-117792587D02*
X137993733Y-117125920D01*
X137993733Y-117221158D02*
X137946114Y-117173539D01*
X137946114Y-117173539D02*
X137850876Y-117125920D01*
X137850876Y-117125920D02*
X137708019Y-117125920D01*
X137708019Y-117125920D02*
X137612781Y-117173539D01*
X137612781Y-117173539D02*
X137565162Y-117268777D01*
X137565162Y-117268777D02*
X137565162Y-117792587D01*
X137565162Y-117268777D02*
X137517543Y-117173539D01*
X137517543Y-117173539D02*
X137422305Y-117125920D01*
X137422305Y-117125920D02*
X137279448Y-117125920D01*
X137279448Y-117125920D02*
X137184209Y-117173539D01*
X137184209Y-117173539D02*
X137136590Y-117268777D01*
X137136590Y-117268777D02*
X137136590Y-117792587D01*
X136517543Y-117792587D02*
X136612781Y-117744968D01*
X136612781Y-117744968D02*
X136660400Y-117697348D01*
X136660400Y-117697348D02*
X136708019Y-117602110D01*
X136708019Y-117602110D02*
X136708019Y-117316396D01*
X136708019Y-117316396D02*
X136660400Y-117221158D01*
X136660400Y-117221158D02*
X136612781Y-117173539D01*
X136612781Y-117173539D02*
X136517543Y-117125920D01*
X136517543Y-117125920D02*
X136374686Y-117125920D01*
X136374686Y-117125920D02*
X136279448Y-117173539D01*
X136279448Y-117173539D02*
X136231829Y-117221158D01*
X136231829Y-117221158D02*
X136184210Y-117316396D01*
X136184210Y-117316396D02*
X136184210Y-117602110D01*
X136184210Y-117602110D02*
X136231829Y-117697348D01*
X136231829Y-117697348D02*
X136279448Y-117744968D01*
X136279448Y-117744968D02*
X136374686Y-117792587D01*
X136374686Y-117792587D02*
X136517543Y-117792587D01*
X135755638Y-117125920D02*
X135755638Y-117792587D01*
X135755638Y-117221158D02*
X135708019Y-117173539D01*
X135708019Y-117173539D02*
X135612781Y-117125920D01*
X135612781Y-117125920D02*
X135469924Y-117125920D01*
X135469924Y-117125920D02*
X135374686Y-117173539D01*
X135374686Y-117173539D02*
X135327067Y-117268777D01*
X135327067Y-117268777D02*
X135327067Y-117792587D01*
X134088971Y-117792587D02*
X134088971Y-116792587D01*
X133612781Y-117125920D02*
X133612781Y-117792587D01*
X133612781Y-117221158D02*
X133565162Y-117173539D01*
X133565162Y-117173539D02*
X133469924Y-117125920D01*
X133469924Y-117125920D02*
X133327067Y-117125920D01*
X133327067Y-117125920D02*
X133231829Y-117173539D01*
X133231829Y-117173539D02*
X133184210Y-117268777D01*
X133184210Y-117268777D02*
X133184210Y-117792587D01*
X132708019Y-117125920D02*
X132708019Y-117792587D01*
X132708019Y-117221158D02*
X132660400Y-117173539D01*
X132660400Y-117173539D02*
X132565162Y-117125920D01*
X132565162Y-117125920D02*
X132422305Y-117125920D01*
X132422305Y-117125920D02*
X132327067Y-117173539D01*
X132327067Y-117173539D02*
X132279448Y-117268777D01*
X132279448Y-117268777D02*
X132279448Y-117792587D01*
X131850876Y-117744968D02*
X131755638Y-117792587D01*
X131755638Y-117792587D02*
X131565162Y-117792587D01*
X131565162Y-117792587D02*
X131469924Y-117744968D01*
X131469924Y-117744968D02*
X131422305Y-117649729D01*
X131422305Y-117649729D02*
X131422305Y-117602110D01*
X131422305Y-117602110D02*
X131469924Y-117506872D01*
X131469924Y-117506872D02*
X131565162Y-117459253D01*
X131565162Y-117459253D02*
X131708019Y-117459253D01*
X131708019Y-117459253D02*
X131803257Y-117411634D01*
X131803257Y-117411634D02*
X131850876Y-117316396D01*
X131850876Y-117316396D02*
X131850876Y-117268777D01*
X131850876Y-117268777D02*
X131803257Y-117173539D01*
X131803257Y-117173539D02*
X131708019Y-117125920D01*
X131708019Y-117125920D02*
X131565162Y-117125920D01*
X131565162Y-117125920D02*
X131469924Y-117173539D01*
X146660401Y-119783483D02*
X146708020Y-119735864D01*
X146708020Y-119735864D02*
X146803258Y-119593007D01*
X146803258Y-119593007D02*
X146850877Y-119497769D01*
X146850877Y-119497769D02*
X146898496Y-119354912D01*
X146898496Y-119354912D02*
X146946115Y-119116816D01*
X146946115Y-119116816D02*
X146946115Y-118926340D01*
X146946115Y-118926340D02*
X146898496Y-118688245D01*
X146898496Y-118688245D02*
X146850877Y-118545388D01*
X146850877Y-118545388D02*
X146803258Y-118450150D01*
X146803258Y-118450150D02*
X146708020Y-118307292D01*
X146708020Y-118307292D02*
X146660401Y-118259673D01*
X145850877Y-119354912D02*
X145946115Y-119402531D01*
X145946115Y-119402531D02*
X146136591Y-119402531D01*
X146136591Y-119402531D02*
X146231829Y-119354912D01*
X146231829Y-119354912D02*
X146279448Y-119307292D01*
X146279448Y-119307292D02*
X146327067Y-119212054D01*
X146327067Y-119212054D02*
X146327067Y-118926340D01*
X146327067Y-118926340D02*
X146279448Y-118831102D01*
X146279448Y-118831102D02*
X146231829Y-118783483D01*
X146231829Y-118783483D02*
X146136591Y-118735864D01*
X146136591Y-118735864D02*
X145946115Y-118735864D01*
X145946115Y-118735864D02*
X145850877Y-118783483D01*
X145517543Y-119783483D02*
X145469924Y-119735864D01*
X145469924Y-119735864D02*
X145374686Y-119593007D01*
X145374686Y-119593007D02*
X145327067Y-119497769D01*
X145327067Y-119497769D02*
X145279448Y-119354912D01*
X145279448Y-119354912D02*
X145231829Y-119116816D01*
X145231829Y-119116816D02*
X145231829Y-118926340D01*
X145231829Y-118926340D02*
X145279448Y-118688245D01*
X145279448Y-118688245D02*
X145327067Y-118545388D01*
X145327067Y-118545388D02*
X145374686Y-118450150D01*
X145374686Y-118450150D02*
X145469924Y-118307292D01*
X145469924Y-118307292D02*
X145517543Y-118259673D01*
X144041352Y-118497769D02*
X143993733Y-118450150D01*
X143993733Y-118450150D02*
X143898495Y-118402531D01*
X143898495Y-118402531D02*
X143660400Y-118402531D01*
X143660400Y-118402531D02*
X143565162Y-118450150D01*
X143565162Y-118450150D02*
X143517543Y-118497769D01*
X143517543Y-118497769D02*
X143469924Y-118593007D01*
X143469924Y-118593007D02*
X143469924Y-118688245D01*
X143469924Y-118688245D02*
X143517543Y-118831102D01*
X143517543Y-118831102D02*
X144088971Y-119402531D01*
X144088971Y-119402531D02*
X143469924Y-119402531D01*
X142850876Y-118402531D02*
X142755638Y-118402531D01*
X142755638Y-118402531D02*
X142660400Y-118450150D01*
X142660400Y-118450150D02*
X142612781Y-118497769D01*
X142612781Y-118497769D02*
X142565162Y-118593007D01*
X142565162Y-118593007D02*
X142517543Y-118783483D01*
X142517543Y-118783483D02*
X142517543Y-119021578D01*
X142517543Y-119021578D02*
X142565162Y-119212054D01*
X142565162Y-119212054D02*
X142612781Y-119307292D01*
X142612781Y-119307292D02*
X142660400Y-119354912D01*
X142660400Y-119354912D02*
X142755638Y-119402531D01*
X142755638Y-119402531D02*
X142850876Y-119402531D01*
X142850876Y-119402531D02*
X142946114Y-119354912D01*
X142946114Y-119354912D02*
X142993733Y-119307292D01*
X142993733Y-119307292D02*
X143041352Y-119212054D01*
X143041352Y-119212054D02*
X143088971Y-119021578D01*
X143088971Y-119021578D02*
X143088971Y-118783483D01*
X143088971Y-118783483D02*
X143041352Y-118593007D01*
X143041352Y-118593007D02*
X142993733Y-118497769D01*
X142993733Y-118497769D02*
X142946114Y-118450150D01*
X142946114Y-118450150D02*
X142850876Y-118402531D01*
X141565162Y-119402531D02*
X142136590Y-119402531D01*
X141850876Y-119402531D02*
X141850876Y-118402531D01*
X141850876Y-118402531D02*
X141946114Y-118545388D01*
X141946114Y-118545388D02*
X142041352Y-118640626D01*
X142041352Y-118640626D02*
X142136590Y-118688245D01*
X141088971Y-119402531D02*
X140898495Y-119402531D01*
X140898495Y-119402531D02*
X140803257Y-119354912D01*
X140803257Y-119354912D02*
X140755638Y-119307292D01*
X140755638Y-119307292D02*
X140660400Y-119164435D01*
X140660400Y-119164435D02*
X140612781Y-118973959D01*
X140612781Y-118973959D02*
X140612781Y-118593007D01*
X140612781Y-118593007D02*
X140660400Y-118497769D01*
X140660400Y-118497769D02*
X140708019Y-118450150D01*
X140708019Y-118450150D02*
X140803257Y-118402531D01*
X140803257Y-118402531D02*
X140993733Y-118402531D01*
X140993733Y-118402531D02*
X141088971Y-118450150D01*
X141088971Y-118450150D02*
X141136590Y-118497769D01*
X141136590Y-118497769D02*
X141184209Y-118593007D01*
X141184209Y-118593007D02*
X141184209Y-118831102D01*
X141184209Y-118831102D02*
X141136590Y-118926340D01*
X141136590Y-118926340D02*
X141088971Y-118973959D01*
X141088971Y-118973959D02*
X140993733Y-119021578D01*
X140993733Y-119021578D02*
X140803257Y-119021578D01*
X140803257Y-119021578D02*
X140708019Y-118973959D01*
X140708019Y-118973959D02*
X140660400Y-118926340D01*
X140660400Y-118926340D02*
X140612781Y-118831102D01*
X140184209Y-119021578D02*
X139422305Y-119021578D01*
X138993733Y-118497769D02*
X138946114Y-118450150D01*
X138946114Y-118450150D02*
X138850876Y-118402531D01*
X138850876Y-118402531D02*
X138612781Y-118402531D01*
X138612781Y-118402531D02*
X138517543Y-118450150D01*
X138517543Y-118450150D02*
X138469924Y-118497769D01*
X138469924Y-118497769D02*
X138422305Y-118593007D01*
X138422305Y-118593007D02*
X138422305Y-118688245D01*
X138422305Y-118688245D02*
X138469924Y-118831102D01*
X138469924Y-118831102D02*
X139041352Y-119402531D01*
X139041352Y-119402531D02*
X138422305Y-119402531D01*
X137803257Y-118402531D02*
X137708019Y-118402531D01*
X137708019Y-118402531D02*
X137612781Y-118450150D01*
X137612781Y-118450150D02*
X137565162Y-118497769D01*
X137565162Y-118497769D02*
X137517543Y-118593007D01*
X137517543Y-118593007D02*
X137469924Y-118783483D01*
X137469924Y-118783483D02*
X137469924Y-119021578D01*
X137469924Y-119021578D02*
X137517543Y-119212054D01*
X137517543Y-119212054D02*
X137565162Y-119307292D01*
X137565162Y-119307292D02*
X137612781Y-119354912D01*
X137612781Y-119354912D02*
X137708019Y-119402531D01*
X137708019Y-119402531D02*
X137803257Y-119402531D01*
X137803257Y-119402531D02*
X137898495Y-119354912D01*
X137898495Y-119354912D02*
X137946114Y-119307292D01*
X137946114Y-119307292D02*
X137993733Y-119212054D01*
X137993733Y-119212054D02*
X138041352Y-119021578D01*
X138041352Y-119021578D02*
X138041352Y-118783483D01*
X138041352Y-118783483D02*
X137993733Y-118593007D01*
X137993733Y-118593007D02*
X137946114Y-118497769D01*
X137946114Y-118497769D02*
X137898495Y-118450150D01*
X137898495Y-118450150D02*
X137803257Y-118402531D01*
X137088971Y-118497769D02*
X137041352Y-118450150D01*
X137041352Y-118450150D02*
X136946114Y-118402531D01*
X136946114Y-118402531D02*
X136708019Y-118402531D01*
X136708019Y-118402531D02*
X136612781Y-118450150D01*
X136612781Y-118450150D02*
X136565162Y-118497769D01*
X136565162Y-118497769D02*
X136517543Y-118593007D01*
X136517543Y-118593007D02*
X136517543Y-118688245D01*
X136517543Y-118688245D02*
X136565162Y-118831102D01*
X136565162Y-118831102D02*
X137136590Y-119402531D01*
X137136590Y-119402531D02*
X136517543Y-119402531D01*
X135612781Y-118402531D02*
X136088971Y-118402531D01*
X136088971Y-118402531D02*
X136136590Y-118878721D01*
X136136590Y-118878721D02*
X136088971Y-118831102D01*
X136088971Y-118831102D02*
X135993733Y-118783483D01*
X135993733Y-118783483D02*
X135755638Y-118783483D01*
X135755638Y-118783483D02*
X135660400Y-118831102D01*
X135660400Y-118831102D02*
X135612781Y-118878721D01*
X135612781Y-118878721D02*
X135565162Y-118973959D01*
X135565162Y-118973959D02*
X135565162Y-119212054D01*
X135565162Y-119212054D02*
X135612781Y-119307292D01*
X135612781Y-119307292D02*
X135660400Y-119354912D01*
X135660400Y-119354912D02*
X135755638Y-119402531D01*
X135755638Y-119402531D02*
X135993733Y-119402531D01*
X135993733Y-119402531D02*
X136088971Y-119354912D01*
X136088971Y-119354912D02*
X136136590Y-119307292D01*
X134374685Y-119402531D02*
X134374685Y-118402531D01*
X134374685Y-118402531D02*
X134136590Y-118402531D01*
X134136590Y-118402531D02*
X133993733Y-118450150D01*
X133993733Y-118450150D02*
X133898495Y-118545388D01*
X133898495Y-118545388D02*
X133850876Y-118640626D01*
X133850876Y-118640626D02*
X133803257Y-118831102D01*
X133803257Y-118831102D02*
X133803257Y-118973959D01*
X133803257Y-118973959D02*
X133850876Y-119164435D01*
X133850876Y-119164435D02*
X133898495Y-119259673D01*
X133898495Y-119259673D02*
X133993733Y-119354912D01*
X133993733Y-119354912D02*
X134136590Y-119402531D01*
X134136590Y-119402531D02*
X134374685Y-119402531D01*
X133231828Y-119402531D02*
X133327066Y-119354912D01*
X133327066Y-119354912D02*
X133374685Y-119307292D01*
X133374685Y-119307292D02*
X133422304Y-119212054D01*
X133422304Y-119212054D02*
X133422304Y-118926340D01*
X133422304Y-118926340D02*
X133374685Y-118831102D01*
X133374685Y-118831102D02*
X133327066Y-118783483D01*
X133327066Y-118783483D02*
X133231828Y-118735864D01*
X133231828Y-118735864D02*
X133088971Y-118735864D01*
X133088971Y-118735864D02*
X132993733Y-118783483D01*
X132993733Y-118783483D02*
X132946114Y-118831102D01*
X132946114Y-118831102D02*
X132898495Y-118926340D01*
X132898495Y-118926340D02*
X132898495Y-119212054D01*
X132898495Y-119212054D02*
X132946114Y-119307292D01*
X132946114Y-119307292D02*
X132993733Y-119354912D01*
X132993733Y-119354912D02*
X133088971Y-119402531D01*
X133088971Y-119402531D02*
X133231828Y-119402531D01*
X132469923Y-119402531D02*
X132469923Y-118735864D01*
X132469923Y-118831102D02*
X132422304Y-118783483D01*
X132422304Y-118783483D02*
X132327066Y-118735864D01*
X132327066Y-118735864D02*
X132184209Y-118735864D01*
X132184209Y-118735864D02*
X132088971Y-118783483D01*
X132088971Y-118783483D02*
X132041352Y-118878721D01*
X132041352Y-118878721D02*
X132041352Y-119402531D01*
X132041352Y-118878721D02*
X131993733Y-118783483D01*
X131993733Y-118783483D02*
X131898495Y-118735864D01*
X131898495Y-118735864D02*
X131755638Y-118735864D01*
X131755638Y-118735864D02*
X131660399Y-118783483D01*
X131660399Y-118783483D02*
X131612780Y-118878721D01*
X131612780Y-118878721D02*
X131612780Y-119402531D01*
X131136590Y-119402531D02*
X131136590Y-118735864D01*
X131136590Y-118402531D02*
X131184209Y-118450150D01*
X131184209Y-118450150D02*
X131136590Y-118497769D01*
X131136590Y-118497769D02*
X131088971Y-118450150D01*
X131088971Y-118450150D02*
X131136590Y-118402531D01*
X131136590Y-118402531D02*
X131136590Y-118497769D01*
X130660400Y-118735864D02*
X130660400Y-119402531D01*
X130660400Y-118831102D02*
X130612781Y-118783483D01*
X130612781Y-118783483D02*
X130517543Y-118735864D01*
X130517543Y-118735864D02*
X130374686Y-118735864D01*
X130374686Y-118735864D02*
X130279448Y-118783483D01*
X130279448Y-118783483D02*
X130231829Y-118878721D01*
X130231829Y-118878721D02*
X130231829Y-119402531D01*
X129755638Y-119402531D02*
X129755638Y-118735864D01*
X129755638Y-118402531D02*
X129803257Y-118450150D01*
X129803257Y-118450150D02*
X129755638Y-118497769D01*
X129755638Y-118497769D02*
X129708019Y-118450150D01*
X129708019Y-118450150D02*
X129755638Y-118402531D01*
X129755638Y-118402531D02*
X129755638Y-118497769D01*
X128850877Y-119354912D02*
X128946115Y-119402531D01*
X128946115Y-119402531D02*
X129136591Y-119402531D01*
X129136591Y-119402531D02*
X129231829Y-119354912D01*
X129231829Y-119354912D02*
X129279448Y-119307292D01*
X129279448Y-119307292D02*
X129327067Y-119212054D01*
X129327067Y-119212054D02*
X129327067Y-118926340D01*
X129327067Y-118926340D02*
X129279448Y-118831102D01*
X129279448Y-118831102D02*
X129231829Y-118783483D01*
X129231829Y-118783483D02*
X129136591Y-118735864D01*
X129136591Y-118735864D02*
X128946115Y-118735864D01*
X128946115Y-118735864D02*
X128850877Y-118783483D01*
X127660400Y-119402531D02*
X127660400Y-118402531D01*
X127660400Y-118402531D02*
X127279448Y-118402531D01*
X127279448Y-118402531D02*
X127184210Y-118450150D01*
X127184210Y-118450150D02*
X127136591Y-118497769D01*
X127136591Y-118497769D02*
X127088972Y-118593007D01*
X127088972Y-118593007D02*
X127088972Y-118735864D01*
X127088972Y-118735864D02*
X127136591Y-118831102D01*
X127136591Y-118831102D02*
X127184210Y-118878721D01*
X127184210Y-118878721D02*
X127279448Y-118926340D01*
X127279448Y-118926340D02*
X127660400Y-118926340D01*
X126517543Y-119402531D02*
X126612781Y-119354912D01*
X126612781Y-119354912D02*
X126660400Y-119259673D01*
X126660400Y-119259673D02*
X126660400Y-118402531D01*
X125708019Y-118735864D02*
X125708019Y-119402531D01*
X126136590Y-118735864D02*
X126136590Y-119259673D01*
X126136590Y-119259673D02*
X126088971Y-119354912D01*
X126088971Y-119354912D02*
X125993733Y-119402531D01*
X125993733Y-119402531D02*
X125850876Y-119402531D01*
X125850876Y-119402531D02*
X125755638Y-119354912D01*
X125755638Y-119354912D02*
X125708019Y-119307292D01*
X125231828Y-118735864D02*
X125231828Y-119402531D01*
X125231828Y-118831102D02*
X125184209Y-118783483D01*
X125184209Y-118783483D02*
X125088971Y-118735864D01*
X125088971Y-118735864D02*
X124946114Y-118735864D01*
X124946114Y-118735864D02*
X124850876Y-118783483D01*
X124850876Y-118783483D02*
X124803257Y-118878721D01*
X124803257Y-118878721D02*
X124803257Y-119402531D01*
X124327066Y-119402531D02*
X124327066Y-118402531D01*
X124231828Y-119021578D02*
X123946114Y-119402531D01*
X123946114Y-118735864D02*
X124327066Y-119116816D01*
X123136590Y-119354912D02*
X123231828Y-119402531D01*
X123231828Y-119402531D02*
X123422304Y-119402531D01*
X123422304Y-119402531D02*
X123517542Y-119354912D01*
X123517542Y-119354912D02*
X123565161Y-119259673D01*
X123565161Y-119259673D02*
X123565161Y-118878721D01*
X123565161Y-118878721D02*
X123517542Y-118783483D01*
X123517542Y-118783483D02*
X123422304Y-118735864D01*
X123422304Y-118735864D02*
X123231828Y-118735864D01*
X123231828Y-118735864D02*
X123136590Y-118783483D01*
X123136590Y-118783483D02*
X123088971Y-118878721D01*
X123088971Y-118878721D02*
X123088971Y-118973959D01*
X123088971Y-118973959D02*
X123565161Y-119069197D01*
X122803256Y-118735864D02*
X122422304Y-118735864D01*
X122660399Y-118402531D02*
X122660399Y-119259673D01*
X122660399Y-119259673D02*
X122612780Y-119354912D01*
X122612780Y-119354912D02*
X122517542Y-119402531D01*
X122517542Y-119402531D02*
X122422304Y-119402531D01*
X122231827Y-118735864D02*
X121850875Y-118735864D01*
X122088970Y-118402531D02*
X122088970Y-119259673D01*
X122088970Y-119259673D02*
X122041351Y-119354912D01*
X122041351Y-119354912D02*
X121946113Y-119402531D01*
X121946113Y-119402531D02*
X121850875Y-119402531D01*
X146946115Y-121012475D02*
X146946115Y-120012475D01*
X146517544Y-121012475D02*
X146517544Y-120488665D01*
X146517544Y-120488665D02*
X146565163Y-120393427D01*
X146565163Y-120393427D02*
X146660401Y-120345808D01*
X146660401Y-120345808D02*
X146803258Y-120345808D01*
X146803258Y-120345808D02*
X146898496Y-120393427D01*
X146898496Y-120393427D02*
X146946115Y-120441046D01*
X146184210Y-120345808D02*
X145803258Y-120345808D01*
X146041353Y-120012475D02*
X146041353Y-120869617D01*
X146041353Y-120869617D02*
X145993734Y-120964856D01*
X145993734Y-120964856D02*
X145898496Y-121012475D01*
X145898496Y-121012475D02*
X145803258Y-121012475D01*
X145612781Y-120345808D02*
X145231829Y-120345808D01*
X145469924Y-120012475D02*
X145469924Y-120869617D01*
X145469924Y-120869617D02*
X145422305Y-120964856D01*
X145422305Y-120964856D02*
X145327067Y-121012475D01*
X145327067Y-121012475D02*
X145231829Y-121012475D01*
X144898495Y-120345808D02*
X144898495Y-121345808D01*
X144898495Y-120393427D02*
X144803257Y-120345808D01*
X144803257Y-120345808D02*
X144612781Y-120345808D01*
X144612781Y-120345808D02*
X144517543Y-120393427D01*
X144517543Y-120393427D02*
X144469924Y-120441046D01*
X144469924Y-120441046D02*
X144422305Y-120536284D01*
X144422305Y-120536284D02*
X144422305Y-120821998D01*
X144422305Y-120821998D02*
X144469924Y-120917236D01*
X144469924Y-120917236D02*
X144517543Y-120964856D01*
X144517543Y-120964856D02*
X144612781Y-121012475D01*
X144612781Y-121012475D02*
X144803257Y-121012475D01*
X144803257Y-121012475D02*
X144898495Y-120964856D01*
X144041352Y-120964856D02*
X143946114Y-121012475D01*
X143946114Y-121012475D02*
X143755638Y-121012475D01*
X143755638Y-121012475D02*
X143660400Y-120964856D01*
X143660400Y-120964856D02*
X143612781Y-120869617D01*
X143612781Y-120869617D02*
X143612781Y-120821998D01*
X143612781Y-120821998D02*
X143660400Y-120726760D01*
X143660400Y-120726760D02*
X143755638Y-120679141D01*
X143755638Y-120679141D02*
X143898495Y-120679141D01*
X143898495Y-120679141D02*
X143993733Y-120631522D01*
X143993733Y-120631522D02*
X144041352Y-120536284D01*
X144041352Y-120536284D02*
X144041352Y-120488665D01*
X144041352Y-120488665D02*
X143993733Y-120393427D01*
X143993733Y-120393427D02*
X143898495Y-120345808D01*
X143898495Y-120345808D02*
X143755638Y-120345808D01*
X143755638Y-120345808D02*
X143660400Y-120393427D01*
X143184209Y-120917236D02*
X143136590Y-120964856D01*
X143136590Y-120964856D02*
X143184209Y-121012475D01*
X143184209Y-121012475D02*
X143231828Y-120964856D01*
X143231828Y-120964856D02*
X143184209Y-120917236D01*
X143184209Y-120917236D02*
X143184209Y-121012475D01*
X143184209Y-120393427D02*
X143136590Y-120441046D01*
X143136590Y-120441046D02*
X143184209Y-120488665D01*
X143184209Y-120488665D02*
X143231828Y-120441046D01*
X143231828Y-120441046D02*
X143184209Y-120393427D01*
X143184209Y-120393427D02*
X143184209Y-120488665D01*
X141993734Y-119964856D02*
X142850876Y-121250570D01*
X140946115Y-119964856D02*
X141803257Y-121250570D01*
X140708019Y-120345808D02*
X140517543Y-121012475D01*
X140517543Y-121012475D02*
X140327067Y-120536284D01*
X140327067Y-120536284D02*
X140136591Y-121012475D01*
X140136591Y-121012475D02*
X139946115Y-120345808D01*
X139660400Y-120345808D02*
X139469924Y-121012475D01*
X139469924Y-121012475D02*
X139279448Y-120536284D01*
X139279448Y-120536284D02*
X139088972Y-121012475D01*
X139088972Y-121012475D02*
X138898496Y-120345808D01*
X138612781Y-120345808D02*
X138422305Y-121012475D01*
X138422305Y-121012475D02*
X138231829Y-120536284D01*
X138231829Y-120536284D02*
X138041353Y-121012475D01*
X138041353Y-121012475D02*
X137850877Y-120345808D01*
X137469924Y-120917236D02*
X137422305Y-120964856D01*
X137422305Y-120964856D02*
X137469924Y-121012475D01*
X137469924Y-121012475D02*
X137517543Y-120964856D01*
X137517543Y-120964856D02*
X137469924Y-120917236D01*
X137469924Y-120917236D02*
X137469924Y-121012475D01*
X136565163Y-121012475D02*
X136565163Y-120012475D01*
X136565163Y-120964856D02*
X136660401Y-121012475D01*
X136660401Y-121012475D02*
X136850877Y-121012475D01*
X136850877Y-121012475D02*
X136946115Y-120964856D01*
X136946115Y-120964856D02*
X136993734Y-120917236D01*
X136993734Y-120917236D02*
X137041353Y-120821998D01*
X137041353Y-120821998D02*
X137041353Y-120536284D01*
X137041353Y-120536284D02*
X136993734Y-120441046D01*
X136993734Y-120441046D02*
X136946115Y-120393427D01*
X136946115Y-120393427D02*
X136850877Y-120345808D01*
X136850877Y-120345808D02*
X136660401Y-120345808D01*
X136660401Y-120345808D02*
X136565163Y-120393427D01*
X135946115Y-121012475D02*
X136041353Y-120964856D01*
X136041353Y-120964856D02*
X136088972Y-120917236D01*
X136088972Y-120917236D02*
X136136591Y-120821998D01*
X136136591Y-120821998D02*
X136136591Y-120536284D01*
X136136591Y-120536284D02*
X136088972Y-120441046D01*
X136088972Y-120441046D02*
X136041353Y-120393427D01*
X136041353Y-120393427D02*
X135946115Y-120345808D01*
X135946115Y-120345808D02*
X135803258Y-120345808D01*
X135803258Y-120345808D02*
X135708020Y-120393427D01*
X135708020Y-120393427D02*
X135660401Y-120441046D01*
X135660401Y-120441046D02*
X135612782Y-120536284D01*
X135612782Y-120536284D02*
X135612782Y-120821998D01*
X135612782Y-120821998D02*
X135660401Y-120917236D01*
X135660401Y-120917236D02*
X135708020Y-120964856D01*
X135708020Y-120964856D02*
X135803258Y-121012475D01*
X135803258Y-121012475D02*
X135946115Y-121012475D01*
X135184210Y-121012475D02*
X135184210Y-120345808D01*
X135184210Y-120441046D02*
X135136591Y-120393427D01*
X135136591Y-120393427D02*
X135041353Y-120345808D01*
X135041353Y-120345808D02*
X134898496Y-120345808D01*
X134898496Y-120345808D02*
X134803258Y-120393427D01*
X134803258Y-120393427D02*
X134755639Y-120488665D01*
X134755639Y-120488665D02*
X134755639Y-121012475D01*
X134755639Y-120488665D02*
X134708020Y-120393427D01*
X134708020Y-120393427D02*
X134612782Y-120345808D01*
X134612782Y-120345808D02*
X134469925Y-120345808D01*
X134469925Y-120345808D02*
X134374686Y-120393427D01*
X134374686Y-120393427D02*
X134327067Y-120488665D01*
X134327067Y-120488665D02*
X134327067Y-121012475D01*
X133469925Y-120964856D02*
X133565163Y-121012475D01*
X133565163Y-121012475D02*
X133755639Y-121012475D01*
X133755639Y-121012475D02*
X133850877Y-120964856D01*
X133850877Y-120964856D02*
X133898496Y-120869617D01*
X133898496Y-120869617D02*
X133898496Y-120488665D01*
X133898496Y-120488665D02*
X133850877Y-120393427D01*
X133850877Y-120393427D02*
X133755639Y-120345808D01*
X133755639Y-120345808D02*
X133565163Y-120345808D01*
X133565163Y-120345808D02*
X133469925Y-120393427D01*
X133469925Y-120393427D02*
X133422306Y-120488665D01*
X133422306Y-120488665D02*
X133422306Y-120583903D01*
X133422306Y-120583903D02*
X133898496Y-120679141D01*
X133041353Y-120964856D02*
X132946115Y-121012475D01*
X132946115Y-121012475D02*
X132755639Y-121012475D01*
X132755639Y-121012475D02*
X132660401Y-120964856D01*
X132660401Y-120964856D02*
X132612782Y-120869617D01*
X132612782Y-120869617D02*
X132612782Y-120821998D01*
X132612782Y-120821998D02*
X132660401Y-120726760D01*
X132660401Y-120726760D02*
X132755639Y-120679141D01*
X132755639Y-120679141D02*
X132898496Y-120679141D01*
X132898496Y-120679141D02*
X132993734Y-120631522D01*
X132993734Y-120631522D02*
X133041353Y-120536284D01*
X133041353Y-120536284D02*
X133041353Y-120488665D01*
X133041353Y-120488665D02*
X132993734Y-120393427D01*
X132993734Y-120393427D02*
X132898496Y-120345808D01*
X132898496Y-120345808D02*
X132755639Y-120345808D01*
X132755639Y-120345808D02*
X132660401Y-120393427D01*
X131755639Y-121012475D02*
X131755639Y-120012475D01*
X131755639Y-120964856D02*
X131850877Y-121012475D01*
X131850877Y-121012475D02*
X132041353Y-121012475D01*
X132041353Y-121012475D02*
X132136591Y-120964856D01*
X132136591Y-120964856D02*
X132184210Y-120917236D01*
X132184210Y-120917236D02*
X132231829Y-120821998D01*
X132231829Y-120821998D02*
X132231829Y-120536284D01*
X132231829Y-120536284D02*
X132184210Y-120441046D01*
X132184210Y-120441046D02*
X132136591Y-120393427D01*
X132136591Y-120393427D02*
X132041353Y-120345808D01*
X132041353Y-120345808D02*
X131850877Y-120345808D01*
X131850877Y-120345808D02*
X131755639Y-120393427D01*
X130850877Y-121012475D02*
X130850877Y-120488665D01*
X130850877Y-120488665D02*
X130898496Y-120393427D01*
X130898496Y-120393427D02*
X130993734Y-120345808D01*
X130993734Y-120345808D02*
X131184210Y-120345808D01*
X131184210Y-120345808D02*
X131279448Y-120393427D01*
X130850877Y-120964856D02*
X130946115Y-121012475D01*
X130946115Y-121012475D02*
X131184210Y-121012475D01*
X131184210Y-121012475D02*
X131279448Y-120964856D01*
X131279448Y-120964856D02*
X131327067Y-120869617D01*
X131327067Y-120869617D02*
X131327067Y-120774379D01*
X131327067Y-120774379D02*
X131279448Y-120679141D01*
X131279448Y-120679141D02*
X131184210Y-120631522D01*
X131184210Y-120631522D02*
X130946115Y-120631522D01*
X130946115Y-120631522D02*
X130850877Y-120583903D01*
X130469924Y-120345808D02*
X130231829Y-121012475D01*
X129993734Y-120345808D02*
X130231829Y-121012475D01*
X130231829Y-121012475D02*
X130327067Y-121250570D01*
X130327067Y-121250570D02*
X130374686Y-121298189D01*
X130374686Y-121298189D02*
X130469924Y-121345808D01*
X129469924Y-120441046D02*
X129565162Y-120393427D01*
X129565162Y-120393427D02*
X129612781Y-120345808D01*
X129612781Y-120345808D02*
X129660400Y-120250570D01*
X129660400Y-120250570D02*
X129660400Y-120202951D01*
X129660400Y-120202951D02*
X129612781Y-120107713D01*
X129612781Y-120107713D02*
X129565162Y-120060094D01*
X129565162Y-120060094D02*
X129469924Y-120012475D01*
X129469924Y-120012475D02*
X129279448Y-120012475D01*
X129279448Y-120012475D02*
X129184210Y-120060094D01*
X129184210Y-120060094D02*
X129136591Y-120107713D01*
X129136591Y-120107713D02*
X129088972Y-120202951D01*
X129088972Y-120202951D02*
X129088972Y-120250570D01*
X129088972Y-120250570D02*
X129136591Y-120345808D01*
X129136591Y-120345808D02*
X129184210Y-120393427D01*
X129184210Y-120393427D02*
X129279448Y-120441046D01*
X129279448Y-120441046D02*
X129469924Y-120441046D01*
X129469924Y-120441046D02*
X129565162Y-120488665D01*
X129565162Y-120488665D02*
X129612781Y-120536284D01*
X129612781Y-120536284D02*
X129660400Y-120631522D01*
X129660400Y-120631522D02*
X129660400Y-120821998D01*
X129660400Y-120821998D02*
X129612781Y-120917236D01*
X129612781Y-120917236D02*
X129565162Y-120964856D01*
X129565162Y-120964856D02*
X129469924Y-121012475D01*
X129469924Y-121012475D02*
X129279448Y-121012475D01*
X129279448Y-121012475D02*
X129184210Y-120964856D01*
X129184210Y-120964856D02*
X129136591Y-120917236D01*
X129136591Y-120917236D02*
X129088972Y-120821998D01*
X129088972Y-120821998D02*
X129088972Y-120631522D01*
X129088972Y-120631522D02*
X129136591Y-120536284D01*
X129136591Y-120536284D02*
X129184210Y-120488665D01*
X129184210Y-120488665D02*
X129279448Y-120441046D01*
X128231829Y-120012475D02*
X128422305Y-120012475D01*
X128422305Y-120012475D02*
X128517543Y-120060094D01*
X128517543Y-120060094D02*
X128565162Y-120107713D01*
X128565162Y-120107713D02*
X128660400Y-120250570D01*
X128660400Y-120250570D02*
X128708019Y-120441046D01*
X128708019Y-120441046D02*
X128708019Y-120821998D01*
X128708019Y-120821998D02*
X128660400Y-120917236D01*
X128660400Y-120917236D02*
X128612781Y-120964856D01*
X128612781Y-120964856D02*
X128517543Y-121012475D01*
X128517543Y-121012475D02*
X128327067Y-121012475D01*
X128327067Y-121012475D02*
X128231829Y-120964856D01*
X128231829Y-120964856D02*
X128184210Y-120917236D01*
X128184210Y-120917236D02*
X128136591Y-120821998D01*
X128136591Y-120821998D02*
X128136591Y-120583903D01*
X128136591Y-120583903D02*
X128184210Y-120488665D01*
X128184210Y-120488665D02*
X128231829Y-120441046D01*
X128231829Y-120441046D02*
X128327067Y-120393427D01*
X128327067Y-120393427D02*
X128517543Y-120393427D01*
X128517543Y-120393427D02*
X128612781Y-120441046D01*
X128612781Y-120441046D02*
X128660400Y-120488665D01*
X128660400Y-120488665D02*
X128708019Y-120583903D01*
X127708019Y-120917236D02*
X127660400Y-120964856D01*
X127660400Y-120964856D02*
X127708019Y-121012475D01*
X127708019Y-121012475D02*
X127755638Y-120964856D01*
X127755638Y-120964856D02*
X127708019Y-120917236D01*
X127708019Y-120917236D02*
X127708019Y-121012475D01*
X126803258Y-120964856D02*
X126898496Y-121012475D01*
X126898496Y-121012475D02*
X127088972Y-121012475D01*
X127088972Y-121012475D02*
X127184210Y-120964856D01*
X127184210Y-120964856D02*
X127231829Y-120917236D01*
X127231829Y-120917236D02*
X127279448Y-120821998D01*
X127279448Y-120821998D02*
X127279448Y-120536284D01*
X127279448Y-120536284D02*
X127231829Y-120441046D01*
X127231829Y-120441046D02*
X127184210Y-120393427D01*
X127184210Y-120393427D02*
X127088972Y-120345808D01*
X127088972Y-120345808D02*
X126898496Y-120345808D01*
X126898496Y-120345808D02*
X126803258Y-120393427D01*
X126231829Y-121012475D02*
X126327067Y-120964856D01*
X126327067Y-120964856D02*
X126374686Y-120917236D01*
X126374686Y-120917236D02*
X126422305Y-120821998D01*
X126422305Y-120821998D02*
X126422305Y-120536284D01*
X126422305Y-120536284D02*
X126374686Y-120441046D01*
X126374686Y-120441046D02*
X126327067Y-120393427D01*
X126327067Y-120393427D02*
X126231829Y-120345808D01*
X126231829Y-120345808D02*
X126088972Y-120345808D01*
X126088972Y-120345808D02*
X125993734Y-120393427D01*
X125993734Y-120393427D02*
X125946115Y-120441046D01*
X125946115Y-120441046D02*
X125898496Y-120536284D01*
X125898496Y-120536284D02*
X125898496Y-120821998D01*
X125898496Y-120821998D02*
X125946115Y-120917236D01*
X125946115Y-120917236D02*
X125993734Y-120964856D01*
X125993734Y-120964856D02*
X126088972Y-121012475D01*
X126088972Y-121012475D02*
X126231829Y-121012475D01*
X125469924Y-121012475D02*
X125469924Y-120345808D01*
X125469924Y-120441046D02*
X125422305Y-120393427D01*
X125422305Y-120393427D02*
X125327067Y-120345808D01*
X125327067Y-120345808D02*
X125184210Y-120345808D01*
X125184210Y-120345808D02*
X125088972Y-120393427D01*
X125088972Y-120393427D02*
X125041353Y-120488665D01*
X125041353Y-120488665D02*
X125041353Y-121012475D01*
X125041353Y-120488665D02*
X124993734Y-120393427D01*
X124993734Y-120393427D02*
X124898496Y-120345808D01*
X124898496Y-120345808D02*
X124755639Y-120345808D01*
X124755639Y-120345808D02*
X124660400Y-120393427D01*
X124660400Y-120393427D02*
X124612781Y-120488665D01*
X124612781Y-120488665D02*
X124612781Y-121012475D01*
X146374687Y-122527180D02*
X146422306Y-122574800D01*
X146422306Y-122574800D02*
X146565163Y-122622419D01*
X146565163Y-122622419D02*
X146660401Y-122622419D01*
X146660401Y-122622419D02*
X146803258Y-122574800D01*
X146803258Y-122574800D02*
X146898496Y-122479561D01*
X146898496Y-122479561D02*
X146946115Y-122384323D01*
X146946115Y-122384323D02*
X146993734Y-122193847D01*
X146993734Y-122193847D02*
X146993734Y-122050990D01*
X146993734Y-122050990D02*
X146946115Y-121860514D01*
X146946115Y-121860514D02*
X146898496Y-121765276D01*
X146898496Y-121765276D02*
X146803258Y-121670038D01*
X146803258Y-121670038D02*
X146660401Y-121622419D01*
X146660401Y-121622419D02*
X146565163Y-121622419D01*
X146565163Y-121622419D02*
X146422306Y-121670038D01*
X146422306Y-121670038D02*
X146374687Y-121717657D01*
X145374687Y-122527180D02*
X145422306Y-122574800D01*
X145422306Y-122574800D02*
X145565163Y-122622419D01*
X145565163Y-122622419D02*
X145660401Y-122622419D01*
X145660401Y-122622419D02*
X145803258Y-122574800D01*
X145803258Y-122574800D02*
X145898496Y-122479561D01*
X145898496Y-122479561D02*
X145946115Y-122384323D01*
X145946115Y-122384323D02*
X145993734Y-122193847D01*
X145993734Y-122193847D02*
X145993734Y-122050990D01*
X145993734Y-122050990D02*
X145946115Y-121860514D01*
X145946115Y-121860514D02*
X145898496Y-121765276D01*
X145898496Y-121765276D02*
X145803258Y-121670038D01*
X145803258Y-121670038D02*
X145660401Y-121622419D01*
X145660401Y-121622419D02*
X145565163Y-121622419D01*
X145565163Y-121622419D02*
X145422306Y-121670038D01*
X145422306Y-121670038D02*
X145374687Y-121717657D01*
X143850877Y-122098609D02*
X143708020Y-122146228D01*
X143708020Y-122146228D02*
X143660401Y-122193847D01*
X143660401Y-122193847D02*
X143612782Y-122289085D01*
X143612782Y-122289085D02*
X143612782Y-122431942D01*
X143612782Y-122431942D02*
X143660401Y-122527180D01*
X143660401Y-122527180D02*
X143708020Y-122574800D01*
X143708020Y-122574800D02*
X143803258Y-122622419D01*
X143803258Y-122622419D02*
X144184210Y-122622419D01*
X144184210Y-122622419D02*
X144184210Y-121622419D01*
X144184210Y-121622419D02*
X143850877Y-121622419D01*
X143850877Y-121622419D02*
X143755639Y-121670038D01*
X143755639Y-121670038D02*
X143708020Y-121717657D01*
X143708020Y-121717657D02*
X143660401Y-121812895D01*
X143660401Y-121812895D02*
X143660401Y-121908133D01*
X143660401Y-121908133D02*
X143708020Y-122003371D01*
X143708020Y-122003371D02*
X143755639Y-122050990D01*
X143755639Y-122050990D02*
X143850877Y-122098609D01*
X143850877Y-122098609D02*
X144184210Y-122098609D01*
X142993734Y-122146228D02*
X142993734Y-122622419D01*
X143327067Y-121622419D02*
X142993734Y-122146228D01*
X142993734Y-122146228D02*
X142660401Y-121622419D01*
X142327067Y-122241466D02*
X141565163Y-122241466D01*
X141136591Y-122574800D02*
X140993734Y-122622419D01*
X140993734Y-122622419D02*
X140755639Y-122622419D01*
X140755639Y-122622419D02*
X140660401Y-122574800D01*
X140660401Y-122574800D02*
X140612782Y-122527180D01*
X140612782Y-122527180D02*
X140565163Y-122431942D01*
X140565163Y-122431942D02*
X140565163Y-122336704D01*
X140565163Y-122336704D02*
X140612782Y-122241466D01*
X140612782Y-122241466D02*
X140660401Y-122193847D01*
X140660401Y-122193847D02*
X140755639Y-122146228D01*
X140755639Y-122146228D02*
X140946115Y-122098609D01*
X140946115Y-122098609D02*
X141041353Y-122050990D01*
X141041353Y-122050990D02*
X141088972Y-122003371D01*
X141088972Y-122003371D02*
X141136591Y-121908133D01*
X141136591Y-121908133D02*
X141136591Y-121812895D01*
X141136591Y-121812895D02*
X141088972Y-121717657D01*
X141088972Y-121717657D02*
X141041353Y-121670038D01*
X141041353Y-121670038D02*
X140946115Y-121622419D01*
X140946115Y-121622419D02*
X140708020Y-121622419D01*
X140708020Y-121622419D02*
X140565163Y-121670038D01*
X140184210Y-122336704D02*
X139708020Y-122336704D01*
X140279448Y-122622419D02*
X139946115Y-121622419D01*
X139946115Y-121622419D02*
X139612782Y-122622419D01*
X138088972Y-121955752D02*
X138088972Y-122622419D01*
X138327067Y-121574800D02*
X138565162Y-122289085D01*
X138565162Y-122289085D02*
X137946115Y-122289085D01*
X137565162Y-122527180D02*
X137517543Y-122574800D01*
X137517543Y-122574800D02*
X137565162Y-122622419D01*
X137565162Y-122622419D02*
X137612781Y-122574800D01*
X137612781Y-122574800D02*
X137565162Y-122527180D01*
X137565162Y-122527180D02*
X137565162Y-122622419D01*
X136898496Y-121622419D02*
X136803258Y-121622419D01*
X136803258Y-121622419D02*
X136708020Y-121670038D01*
X136708020Y-121670038D02*
X136660401Y-121717657D01*
X136660401Y-121717657D02*
X136612782Y-121812895D01*
X136612782Y-121812895D02*
X136565163Y-122003371D01*
X136565163Y-122003371D02*
X136565163Y-122241466D01*
X136565163Y-122241466D02*
X136612782Y-122431942D01*
X136612782Y-122431942D02*
X136660401Y-122527180D01*
X136660401Y-122527180D02*
X136708020Y-122574800D01*
X136708020Y-122574800D02*
X136803258Y-122622419D01*
X136803258Y-122622419D02*
X136898496Y-122622419D01*
X136898496Y-122622419D02*
X136993734Y-122574800D01*
X136993734Y-122574800D02*
X137041353Y-122527180D01*
X137041353Y-122527180D02*
X137088972Y-122431942D01*
X137088972Y-122431942D02*
X137136591Y-122241466D01*
X137136591Y-122241466D02*
X137136591Y-122003371D01*
X137136591Y-122003371D02*
X137088972Y-121812895D01*
X137088972Y-121812895D02*
X137041353Y-121717657D01*
X137041353Y-121717657D02*
X136993734Y-121670038D01*
X136993734Y-121670038D02*
X136898496Y-121622419D01*
X135374686Y-122241466D02*
X134612782Y-122241466D01*
X133184210Y-121622419D02*
X132993734Y-121622419D01*
X132993734Y-121622419D02*
X132898496Y-121670038D01*
X132898496Y-121670038D02*
X132803258Y-121765276D01*
X132803258Y-121765276D02*
X132755639Y-121955752D01*
X132755639Y-121955752D02*
X132755639Y-122289085D01*
X132755639Y-122289085D02*
X132803258Y-122479561D01*
X132803258Y-122479561D02*
X132898496Y-122574800D01*
X132898496Y-122574800D02*
X132993734Y-122622419D01*
X132993734Y-122622419D02*
X133184210Y-122622419D01*
X133184210Y-122622419D02*
X133279448Y-122574800D01*
X133279448Y-122574800D02*
X133374686Y-122479561D01*
X133374686Y-122479561D02*
X133422305Y-122289085D01*
X133422305Y-122289085D02*
X133422305Y-121955752D01*
X133422305Y-121955752D02*
X133374686Y-121765276D01*
X133374686Y-121765276D02*
X133279448Y-121670038D01*
X133279448Y-121670038D02*
X133184210Y-121622419D01*
X132327067Y-121955752D02*
X132327067Y-122955752D01*
X132327067Y-122003371D02*
X132231829Y-121955752D01*
X132231829Y-121955752D02*
X132041353Y-121955752D01*
X132041353Y-121955752D02*
X131946115Y-122003371D01*
X131946115Y-122003371D02*
X131898496Y-122050990D01*
X131898496Y-122050990D02*
X131850877Y-122146228D01*
X131850877Y-122146228D02*
X131850877Y-122431942D01*
X131850877Y-122431942D02*
X131898496Y-122527180D01*
X131898496Y-122527180D02*
X131946115Y-122574800D01*
X131946115Y-122574800D02*
X132041353Y-122622419D01*
X132041353Y-122622419D02*
X132231829Y-122622419D01*
X132231829Y-122622419D02*
X132327067Y-122574800D01*
X131041353Y-122574800D02*
X131136591Y-122622419D01*
X131136591Y-122622419D02*
X131327067Y-122622419D01*
X131327067Y-122622419D02*
X131422305Y-122574800D01*
X131422305Y-122574800D02*
X131469924Y-122479561D01*
X131469924Y-122479561D02*
X131469924Y-122098609D01*
X131469924Y-122098609D02*
X131422305Y-122003371D01*
X131422305Y-122003371D02*
X131327067Y-121955752D01*
X131327067Y-121955752D02*
X131136591Y-121955752D01*
X131136591Y-121955752D02*
X131041353Y-122003371D01*
X131041353Y-122003371D02*
X130993734Y-122098609D01*
X130993734Y-122098609D02*
X130993734Y-122193847D01*
X130993734Y-122193847D02*
X131469924Y-122289085D01*
X130565162Y-121955752D02*
X130565162Y-122622419D01*
X130565162Y-122050990D02*
X130517543Y-122003371D01*
X130517543Y-122003371D02*
X130422305Y-121955752D01*
X130422305Y-121955752D02*
X130279448Y-121955752D01*
X130279448Y-121955752D02*
X130184210Y-122003371D01*
X130184210Y-122003371D02*
X130136591Y-122098609D01*
X130136591Y-122098609D02*
X130136591Y-122622419D01*
X128898495Y-122622419D02*
X128898495Y-121622419D01*
X128898495Y-122098609D02*
X128327067Y-122098609D01*
X128327067Y-122622419D02*
X128327067Y-121622419D01*
X127422305Y-122622419D02*
X127422305Y-122098609D01*
X127422305Y-122098609D02*
X127469924Y-122003371D01*
X127469924Y-122003371D02*
X127565162Y-121955752D01*
X127565162Y-121955752D02*
X127755638Y-121955752D01*
X127755638Y-121955752D02*
X127850876Y-122003371D01*
X127422305Y-122574800D02*
X127517543Y-122622419D01*
X127517543Y-122622419D02*
X127755638Y-122622419D01*
X127755638Y-122622419D02*
X127850876Y-122574800D01*
X127850876Y-122574800D02*
X127898495Y-122479561D01*
X127898495Y-122479561D02*
X127898495Y-122384323D01*
X127898495Y-122384323D02*
X127850876Y-122289085D01*
X127850876Y-122289085D02*
X127755638Y-122241466D01*
X127755638Y-122241466D02*
X127517543Y-122241466D01*
X127517543Y-122241466D02*
X127422305Y-122193847D01*
X126946114Y-122622419D02*
X126946114Y-121955752D01*
X126946114Y-122146228D02*
X126898495Y-122050990D01*
X126898495Y-122050990D02*
X126850876Y-122003371D01*
X126850876Y-122003371D02*
X126755638Y-121955752D01*
X126755638Y-121955752D02*
X126660400Y-121955752D01*
X125898495Y-122622419D02*
X125898495Y-121622419D01*
X125898495Y-122574800D02*
X125993733Y-122622419D01*
X125993733Y-122622419D02*
X126184209Y-122622419D01*
X126184209Y-122622419D02*
X126279447Y-122574800D01*
X126279447Y-122574800D02*
X126327066Y-122527180D01*
X126327066Y-122527180D02*
X126374685Y-122431942D01*
X126374685Y-122431942D02*
X126374685Y-122146228D01*
X126374685Y-122146228D02*
X126327066Y-122050990D01*
X126327066Y-122050990D02*
X126279447Y-122003371D01*
X126279447Y-122003371D02*
X126184209Y-121955752D01*
X126184209Y-121955752D02*
X125993733Y-121955752D01*
X125993733Y-121955752D02*
X125898495Y-122003371D01*
X125517542Y-121955752D02*
X125327066Y-122622419D01*
X125327066Y-122622419D02*
X125136590Y-122146228D01*
X125136590Y-122146228D02*
X124946114Y-122622419D01*
X124946114Y-122622419D02*
X124755638Y-121955752D01*
X123946114Y-122622419D02*
X123946114Y-122098609D01*
X123946114Y-122098609D02*
X123993733Y-122003371D01*
X123993733Y-122003371D02*
X124088971Y-121955752D01*
X124088971Y-121955752D02*
X124279447Y-121955752D01*
X124279447Y-121955752D02*
X124374685Y-122003371D01*
X123946114Y-122574800D02*
X124041352Y-122622419D01*
X124041352Y-122622419D02*
X124279447Y-122622419D01*
X124279447Y-122622419D02*
X124374685Y-122574800D01*
X124374685Y-122574800D02*
X124422304Y-122479561D01*
X124422304Y-122479561D02*
X124422304Y-122384323D01*
X124422304Y-122384323D02*
X124374685Y-122289085D01*
X124374685Y-122289085D02*
X124279447Y-122241466D01*
X124279447Y-122241466D02*
X124041352Y-122241466D01*
X124041352Y-122241466D02*
X123946114Y-122193847D01*
X123469923Y-122622419D02*
X123469923Y-121955752D01*
X123469923Y-122146228D02*
X123422304Y-122050990D01*
X123422304Y-122050990D02*
X123374685Y-122003371D01*
X123374685Y-122003371D02*
X123279447Y-121955752D01*
X123279447Y-121955752D02*
X123184209Y-121955752D01*
X122469923Y-122574800D02*
X122565161Y-122622419D01*
X122565161Y-122622419D02*
X122755637Y-122622419D01*
X122755637Y-122622419D02*
X122850875Y-122574800D01*
X122850875Y-122574800D02*
X122898494Y-122479561D01*
X122898494Y-122479561D02*
X122898494Y-122098609D01*
X122898494Y-122098609D02*
X122850875Y-122003371D01*
X122850875Y-122003371D02*
X122755637Y-121955752D01*
X122755637Y-121955752D02*
X122565161Y-121955752D01*
X122565161Y-121955752D02*
X122469923Y-122003371D01*
X122469923Y-122003371D02*
X122422304Y-122098609D01*
X122422304Y-122098609D02*
X122422304Y-122193847D01*
X122422304Y-122193847D02*
X122898494Y-122289085D01*
X138243734Y-109396895D02*
X138243734Y-108596895D01*
X137862782Y-109396895D02*
X137862782Y-108596895D01*
X137862782Y-108596895D02*
X137672306Y-108596895D01*
X137672306Y-108596895D02*
X137558020Y-108634990D01*
X137558020Y-108634990D02*
X137481830Y-108711180D01*
X137481830Y-108711180D02*
X137443735Y-108787371D01*
X137443735Y-108787371D02*
X137405639Y-108939752D01*
X137405639Y-108939752D02*
X137405639Y-109054038D01*
X137405639Y-109054038D02*
X137443735Y-109206419D01*
X137443735Y-109206419D02*
X137481830Y-109282609D01*
X137481830Y-109282609D02*
X137558020Y-109358800D01*
X137558020Y-109358800D02*
X137672306Y-109396895D01*
X137672306Y-109396895D02*
X137862782Y-109396895D01*
X137253259Y-109473085D02*
X136643735Y-109473085D01*
X136491354Y-109358800D02*
X136377068Y-109396895D01*
X136377068Y-109396895D02*
X136186592Y-109396895D01*
X136186592Y-109396895D02*
X136110401Y-109358800D01*
X136110401Y-109358800D02*
X136072306Y-109320704D01*
X136072306Y-109320704D02*
X136034211Y-109244514D01*
X136034211Y-109244514D02*
X136034211Y-109168323D01*
X136034211Y-109168323D02*
X136072306Y-109092133D01*
X136072306Y-109092133D02*
X136110401Y-109054038D01*
X136110401Y-109054038D02*
X136186592Y-109015942D01*
X136186592Y-109015942D02*
X136338973Y-108977847D01*
X136338973Y-108977847D02*
X136415163Y-108939752D01*
X136415163Y-108939752D02*
X136453258Y-108901657D01*
X136453258Y-108901657D02*
X136491354Y-108825466D01*
X136491354Y-108825466D02*
X136491354Y-108749276D01*
X136491354Y-108749276D02*
X136453258Y-108673085D01*
X136453258Y-108673085D02*
X136415163Y-108634990D01*
X136415163Y-108634990D02*
X136338973Y-108596895D01*
X136338973Y-108596895D02*
X136148496Y-108596895D01*
X136148496Y-108596895D02*
X136034211Y-108634990D01*
X135691353Y-109396895D02*
X135691353Y-108596895D01*
X135691353Y-108596895D02*
X135500877Y-108596895D01*
X135500877Y-108596895D02*
X135386591Y-108634990D01*
X135386591Y-108634990D02*
X135310401Y-108711180D01*
X135310401Y-108711180D02*
X135272306Y-108787371D01*
X135272306Y-108787371D02*
X135234210Y-108939752D01*
X135234210Y-108939752D02*
X135234210Y-109054038D01*
X135234210Y-109054038D02*
X135272306Y-109206419D01*
X135272306Y-109206419D02*
X135310401Y-109282609D01*
X135310401Y-109282609D02*
X135386591Y-109358800D01*
X135386591Y-109358800D02*
X135500877Y-109396895D01*
X135500877Y-109396895D02*
X135691353Y-109396895D01*
X146993734Y-109396895D02*
X146993734Y-108596895D01*
X146612782Y-109396895D02*
X146612782Y-108596895D01*
X146612782Y-108596895D02*
X146422306Y-108596895D01*
X146422306Y-108596895D02*
X146308020Y-108634990D01*
X146308020Y-108634990D02*
X146231830Y-108711180D01*
X146231830Y-108711180D02*
X146193735Y-108787371D01*
X146193735Y-108787371D02*
X146155639Y-108939752D01*
X146155639Y-108939752D02*
X146155639Y-109054038D01*
X146155639Y-109054038D02*
X146193735Y-109206419D01*
X146193735Y-109206419D02*
X146231830Y-109282609D01*
X146231830Y-109282609D02*
X146308020Y-109358800D01*
X146308020Y-109358800D02*
X146422306Y-109396895D01*
X146422306Y-109396895D02*
X146612782Y-109396895D01*
X146003259Y-109473085D02*
X145393735Y-109473085D01*
X145241354Y-109358800D02*
X145127068Y-109396895D01*
X145127068Y-109396895D02*
X144936592Y-109396895D01*
X144936592Y-109396895D02*
X144860401Y-109358800D01*
X144860401Y-109358800D02*
X144822306Y-109320704D01*
X144822306Y-109320704D02*
X144784211Y-109244514D01*
X144784211Y-109244514D02*
X144784211Y-109168323D01*
X144784211Y-109168323D02*
X144822306Y-109092133D01*
X144822306Y-109092133D02*
X144860401Y-109054038D01*
X144860401Y-109054038D02*
X144936592Y-109015942D01*
X144936592Y-109015942D02*
X145088973Y-108977847D01*
X145088973Y-108977847D02*
X145165163Y-108939752D01*
X145165163Y-108939752D02*
X145203258Y-108901657D01*
X145203258Y-108901657D02*
X145241354Y-108825466D01*
X145241354Y-108825466D02*
X145241354Y-108749276D01*
X145241354Y-108749276D02*
X145203258Y-108673085D01*
X145203258Y-108673085D02*
X145165163Y-108634990D01*
X145165163Y-108634990D02*
X145088973Y-108596895D01*
X145088973Y-108596895D02*
X144898496Y-108596895D01*
X144898496Y-108596895D02*
X144784211Y-108634990D01*
X143984210Y-109320704D02*
X144022306Y-109358800D01*
X144022306Y-109358800D02*
X144136591Y-109396895D01*
X144136591Y-109396895D02*
X144212782Y-109396895D01*
X144212782Y-109396895D02*
X144327068Y-109358800D01*
X144327068Y-109358800D02*
X144403258Y-109282609D01*
X144403258Y-109282609D02*
X144441353Y-109206419D01*
X144441353Y-109206419D02*
X144479449Y-109054038D01*
X144479449Y-109054038D02*
X144479449Y-108939752D01*
X144479449Y-108939752D02*
X144441353Y-108787371D01*
X144441353Y-108787371D02*
X144403258Y-108711180D01*
X144403258Y-108711180D02*
X144327068Y-108634990D01*
X144327068Y-108634990D02*
X144212782Y-108596895D01*
X144212782Y-108596895D02*
X144136591Y-108596895D01*
X144136591Y-108596895D02*
X144022306Y-108634990D01*
X144022306Y-108634990D02*
X143984210Y-108673085D01*
D11*
X105103499Y-103196666D02*
X105817784Y-103196666D01*
X105817784Y-103196666D02*
X105960641Y-103149047D01*
X105960641Y-103149047D02*
X106055880Y-103053809D01*
X106055880Y-103053809D02*
X106103499Y-102910952D01*
X106103499Y-102910952D02*
X106103499Y-102815714D01*
X105198737Y-103625238D02*
X105151118Y-103672857D01*
X105151118Y-103672857D02*
X105103499Y-103768095D01*
X105103499Y-103768095D02*
X105103499Y-104006190D01*
X105103499Y-104006190D02*
X105151118Y-104101428D01*
X105151118Y-104101428D02*
X105198737Y-104149047D01*
X105198737Y-104149047D02*
X105293975Y-104196666D01*
X105293975Y-104196666D02*
X105389213Y-104196666D01*
X105389213Y-104196666D02*
X105532070Y-104149047D01*
X105532070Y-104149047D02*
X106103499Y-103577619D01*
X106103499Y-103577619D02*
X106103499Y-104196666D01*
D12*
%TO.C,TP2*%
X139050000Y-108300000D02*
X140450000Y-108300000D01*
X139050000Y-109700000D02*
X139050000Y-108300000D01*
X140450000Y-108300000D02*
X140450000Y-109700000D01*
X140450000Y-109700000D02*
X139050000Y-109700000D01*
%TO.C,TP1*%
X142050000Y-108300000D02*
X143450000Y-108300000D01*
X142050000Y-109700000D02*
X142050000Y-108300000D01*
X143450000Y-108300000D02*
X143450000Y-109700000D01*
X143450000Y-109700000D02*
X142050000Y-109700000D01*
%TO.C,J2*%
X107088680Y-103530000D02*
X107088680Y-100930000D01*
X107088680Y-106130000D02*
X107088680Y-104800000D01*
X108418680Y-106130000D02*
X107088680Y-106130000D01*
X109688680Y-103530000D02*
X107088680Y-103530000D01*
X109688680Y-106130000D02*
X109688680Y-103530000D01*
X158008680Y-100930000D02*
X107088680Y-100930000D01*
X158008680Y-106130000D02*
X109688680Y-106130000D01*
X158008680Y-106130000D02*
X158008680Y-100930000D01*
%TD*%
%LPC*%
D13*
%TO.C,J5*%
X124500000Y-108750000D03*
D14*
X127040000Y-108750000D03*
X129580000Y-108750000D03*
%TD*%
D13*
%TO.C,J4*%
X102000000Y-108250000D03*
D14*
X104540000Y-108250000D03*
%TD*%
D15*
%TO.C,J6*%
X158000000Y-113750000D03*
D16*
X158000000Y-116250000D03*
%TD*%
D17*
%TO.C,J1*%
X112350000Y-126750000D03*
D18*
X112350000Y-124210000D03*
X114890000Y-126750000D03*
X114890000Y-124210000D03*
X117430000Y-126750000D03*
X117430000Y-124210000D03*
X119970000Y-126750000D03*
X119970000Y-124210000D03*
X122510000Y-126750000D03*
X122510000Y-124210000D03*
X125050000Y-126750000D03*
X125050000Y-124210000D03*
X127590000Y-126750000D03*
X127590000Y-124210000D03*
X130130000Y-126750000D03*
X130130000Y-124210000D03*
X132670000Y-126750000D03*
X132670000Y-124210000D03*
X135210000Y-126750000D03*
X135210000Y-124210000D03*
X137750000Y-126750000D03*
X137750000Y-124210000D03*
X140290000Y-126750000D03*
X140290000Y-124210000D03*
X142830000Y-126750000D03*
X142830000Y-124210000D03*
X145370000Y-126750000D03*
X145370000Y-124210000D03*
X147910000Y-126750000D03*
X147910000Y-124210000D03*
X150450000Y-126750000D03*
X150450000Y-124210000D03*
X152990000Y-126750000D03*
X152990000Y-124210000D03*
%TD*%
D19*
%TO.C,TP2*%
X139750000Y-109000000D03*
%TD*%
%TO.C,TP1*%
X142750000Y-109000000D03*
%TD*%
D13*
%TO.C,J2*%
X108418680Y-104800000D03*
D14*
X108418680Y-102260000D03*
X110958680Y-104800000D03*
X110958680Y-102260000D03*
X113498680Y-104800000D03*
X113498680Y-102260000D03*
X116038680Y-104800000D03*
X116038680Y-102260000D03*
X118578680Y-104800000D03*
X118578680Y-102260000D03*
X121118680Y-104800000D03*
X121118680Y-102260000D03*
X123658680Y-104800000D03*
X123658680Y-102260000D03*
X126198680Y-104800000D03*
X126198680Y-102260000D03*
X128738680Y-104800000D03*
X128738680Y-102260000D03*
X131278680Y-104800000D03*
X131278680Y-102260000D03*
X133818680Y-104800000D03*
X133818680Y-102260000D03*
X136358680Y-104800000D03*
X136358680Y-102260000D03*
X138898680Y-104800000D03*
X138898680Y-102260000D03*
X141438680Y-104800000D03*
X141438680Y-102260000D03*
X143978680Y-104800000D03*
X143978680Y-102260000D03*
X146518680Y-104800000D03*
X146518680Y-102260000D03*
X149058680Y-104800000D03*
X149058680Y-102260000D03*
X151598680Y-104800000D03*
X151598680Y-102260000D03*
X154138680Y-104800000D03*
X154138680Y-102260000D03*
X156678680Y-104800000D03*
X156678680Y-102260000D03*
%TD*%
%LPD*%
M02*
