%TF.GenerationSoftware,KiCad,Pcbnew,8.0.8-8.0.8-0~ubuntu24.04.1*%
%TF.CreationDate,2025-02-12T19:28:21+01:00*%
%TF.ProjectId,Acorn_1Mhz_bus_PiZero_interface,41636f72-6e5f-4314-9d68-7a5f6275735f,rev?*%
%TF.SameCoordinates,Original*%
%TF.FileFunction,Copper,L1,Top*%
%TF.FilePolarity,Positive*%
%FSLAX46Y46*%
G04 Gerber Fmt 4.6, Leading zero omitted, Abs format (unit mm)*
G04 Created by KiCad (PCBNEW 8.0.8-8.0.8-0~ubuntu24.04.1) date 2025-02-12 19:28:21*
%MOMM*%
%LPD*%
G01*
G04 APERTURE LIST*
G04 Aperture macros list*
%AMRoundRect*
0 Rectangle with rounded corners*
0 $1 Rounding radius*
0 $2 $3 $4 $5 $6 $7 $8 $9 X,Y pos of 4 corners*
0 Add a 4 corners polygon primitive as box body*
4,1,4,$2,$3,$4,$5,$6,$7,$8,$9,$2,$3,0*
0 Add four circle primitives for the rounded corners*
1,1,$1+$1,$2,$3*
1,1,$1+$1,$4,$5*
1,1,$1+$1,$6,$7*
1,1,$1+$1,$8,$9*
0 Add four rect primitives between the rounded corners*
20,1,$1+$1,$2,$3,$4,$5,0*
20,1,$1+$1,$4,$5,$6,$7,0*
20,1,$1+$1,$6,$7,$8,$9,0*
20,1,$1+$1,$8,$9,$2,$3,0*%
G04 Aperture macros list end*
%TA.AperFunction,EtchedComponent*%
%ADD10C,0.000000*%
%TD*%
%TA.AperFunction,SMDPad,CuDef*%
%ADD11RoundRect,0.100000X0.100000X-0.225000X0.100000X0.225000X-0.100000X0.225000X-0.100000X-0.225000X0*%
%TD*%
%TA.AperFunction,SMDPad,CuDef*%
%ADD12R,0.400000X0.500000*%
%TD*%
%TA.AperFunction,SMDPad,CuDef*%
%ADD13R,0.300000X0.500000*%
%TD*%
%TA.AperFunction,ComponentPad*%
%ADD14R,1.700000X1.700000*%
%TD*%
%TA.AperFunction,ComponentPad*%
%ADD15O,1.700000X1.700000*%
%TD*%
%TA.AperFunction,SMDPad,CuDef*%
%ADD16R,1.000000X1.500000*%
%TD*%
%TA.AperFunction,SMDPad,CuDef*%
%ADD17RoundRect,0.225000X0.225000X0.250000X-0.225000X0.250000X-0.225000X-0.250000X0.225000X-0.250000X0*%
%TD*%
%TA.AperFunction,SMDPad,CuDef*%
%ADD18RoundRect,0.225000X0.250000X-0.225000X0.250000X0.225000X-0.250000X0.225000X-0.250000X-0.225000X0*%
%TD*%
%TA.AperFunction,SMDPad,CuDef*%
%ADD19RoundRect,0.200000X-0.200000X-0.275000X0.200000X-0.275000X0.200000X0.275000X-0.200000X0.275000X0*%
%TD*%
%TA.AperFunction,SMDPad,CuDef*%
%ADD20RoundRect,0.200000X0.275000X-0.200000X0.275000X0.200000X-0.275000X0.200000X-0.275000X-0.200000X0*%
%TD*%
%TA.AperFunction,SMDPad,CuDef*%
%ADD21RoundRect,0.225000X-0.225000X-0.250000X0.225000X-0.250000X0.225000X0.250000X-0.225000X0.250000X0*%
%TD*%
%TA.AperFunction,SMDPad,CuDef*%
%ADD22R,1.800000X2.300000*%
%TD*%
%TA.AperFunction,ComponentPad*%
%ADD23RoundRect,0.250000X-0.750000X0.600000X-0.750000X-0.600000X0.750000X-0.600000X0.750000X0.600000X0*%
%TD*%
%TA.AperFunction,ComponentPad*%
%ADD24O,2.000000X1.700000*%
%TD*%
%TA.AperFunction,SMDPad,CuDef*%
%ADD25RoundRect,0.150000X0.150000X-0.512500X0.150000X0.512500X-0.150000X0.512500X-0.150000X-0.512500X0*%
%TD*%
%TA.AperFunction,ComponentPad*%
%ADD26RoundRect,0.250000X0.600000X-0.600000X0.600000X0.600000X-0.600000X0.600000X-0.600000X-0.600000X0*%
%TD*%
%TA.AperFunction,ComponentPad*%
%ADD27C,1.700000*%
%TD*%
%TA.AperFunction,SMDPad,CuDef*%
%ADD28RoundRect,0.200000X0.200000X0.275000X-0.200000X0.275000X-0.200000X-0.275000X0.200000X-0.275000X0*%
%TD*%
%TA.AperFunction,ViaPad*%
%ADD29C,0.600000*%
%TD*%
%TA.AperFunction,Conductor*%
%ADD30C,0.200000*%
%TD*%
G04 APERTURE END LIST*
D10*
%TA.AperFunction,EtchedComponent*%
%TO.C,JP3*%
G36*
X151800000Y-112300000D02*
G01*
X151300000Y-112300000D01*
X151300000Y-111700000D01*
X151800000Y-111700000D01*
X151800000Y-112300000D01*
G37*
%TD.AperFunction*%
%TD*%
D11*
%TO.P,D7,1,A*%
%TO.N,GPIO_19*%
X144800000Y-117150000D03*
%TO.P,D7,2,A*%
%TO.N,GPIO_20*%
X145450000Y-117150000D03*
%TO.P,D7,3,A*%
%TO.N,GPIO_21*%
X146100000Y-117150000D03*
%TO.P,D7,4,K*%
%TO.N,Net-(D1A-K)*%
X146100000Y-115250000D03*
%TO.P,D7,5,K*%
X145450000Y-115250000D03*
%TO.P,D7,6,K*%
X144800000Y-115250000D03*
%TD*%
D12*
%TO.P,RN3,1,R1.1*%
%TO.N,D0*%
X130500000Y-119500000D03*
D13*
%TO.P,RN3,2,R2.1*%
%TO.N,D1*%
X131000000Y-119500000D03*
%TO.P,RN3,3,R3.1*%
%TO.N,D2*%
X131500000Y-119500000D03*
D12*
%TO.P,RN3,4,R4.1*%
%TO.N,D3*%
X132000000Y-119500000D03*
%TO.P,RN3,5,R4.2*%
%TO.N,GPIO_5*%
X132000000Y-118500000D03*
D13*
%TO.P,RN3,6,R3.2*%
%TO.N,GPIO_4*%
X131500000Y-118500000D03*
%TO.P,RN3,7,R2.2*%
%TO.N,GPIO_3*%
X131000000Y-118500000D03*
D12*
%TO.P,RN3,8,R1.2*%
%TO.N,GPIO_2*%
X130500000Y-118500000D03*
%TD*%
D14*
%TO.P,J5,1,Pin_1*%
%TO.N,GND*%
X124500000Y-108750000D03*
D15*
%TO.P,J5,2,Pin_2*%
%TO.N,TxD*%
X127040000Y-108750000D03*
%TO.P,J5,3,Pin_3*%
%TO.N,RxD*%
X129580000Y-108750000D03*
%TD*%
D16*
%TO.P,JP2,1,A*%
%TO.N,Net-(J4-Pin_2)*%
X117000000Y-108100000D03*
%TO.P,JP2,2,B*%
%TO.N,BBC_Audio*%
X118300000Y-108100000D03*
%TD*%
D11*
%TO.P,D8,1,A*%
%TO.N,GPIO_22*%
X148800000Y-117150000D03*
%TO.P,D8,2,A*%
%TO.N,GPIO_23*%
X149450000Y-117150000D03*
%TO.P,D8,3,A*%
%TO.N,unconnected-(D8C-A-Pad3)*%
X150100000Y-117150000D03*
%TO.P,D8,4,K*%
%TO.N,unconnected-(D8C-K-Pad4)*%
X150100000Y-115250000D03*
%TO.P,D8,5,K*%
%TO.N,Net-(D1A-K)*%
X149450000Y-115250000D03*
%TO.P,D8,6,K*%
X148800000Y-115250000D03*
%TD*%
D17*
%TO.P,C5,1*%
%TO.N,Net-(C4-Pad1)*%
X109025000Y-107500000D03*
%TO.P,C5,2*%
%TO.N,Net-(J4-Pin_2)*%
X107475000Y-107500000D03*
%TD*%
D11*
%TO.P,U2,1,A1*%
%TO.N,Net-(JP1-A)*%
X113500000Y-114400000D03*
%TO.P,U2,2,GND*%
%TO.N,GND*%
X114150000Y-114400000D03*
%TO.P,U2,3,A1*%
X114800000Y-114400000D03*
%TO.P,U2,4,Y2*%
X114800000Y-112500000D03*
%TO.P,U2,5,Vcc*%
%TO.N,+3.3VDAC*%
X114150000Y-112500000D03*
%TO.P,U2,6,Y1*%
%TO.N,Net-(JP1-B)*%
X113500000Y-112500000D03*
%TD*%
D18*
%TO.P,C1,1*%
%TO.N,+5V*%
X117850000Y-114100000D03*
%TO.P,C1,2*%
%TO.N,GND*%
X117850000Y-112550000D03*
%TD*%
D19*
%TO.P,R5,1*%
%TO.N,GND*%
X107425000Y-109000000D03*
%TO.P,R5,2*%
%TO.N,Net-(J4-Pin_2)*%
X109075000Y-109000000D03*
%TD*%
D20*
%TO.P,R2,1*%
%TO.N,Net-(JP1-A)*%
X115000000Y-117400000D03*
%TO.P,R2,2*%
%TO.N,GND*%
X115000000Y-115750000D03*
%TD*%
D16*
%TO.P,JP3,1,A*%
%TO.N,Net-(D1A-K)*%
X150900000Y-112000000D03*
%TO.P,JP3,2,C*%
%TO.N,+3V3*%
X152200000Y-112000000D03*
%TO.P,JP3,3,B*%
%TO.N,Net-(D9A-A)*%
X153500000Y-112000000D03*
%TD*%
D12*
%TO.P,RN1,1,R1.1*%
%TO.N,R{slash}~{W}*%
X120250000Y-119500000D03*
D13*
%TO.P,RN1,2,R2.1*%
%TO.N,1MHz*%
X120750000Y-119500000D03*
%TO.P,RN1,3,R3.1*%
%TO.N,~{NMI}*%
X121250000Y-119500000D03*
D12*
%TO.P,RN1,4,R4.1*%
%TO.N,~{IRQ}*%
X121750000Y-119500000D03*
%TO.P,RN1,5,R4.2*%
%TO.N,GPIO_12*%
X121750000Y-118500000D03*
D13*
%TO.P,RN1,6,R3.2*%
%TO.N,GPIO_11*%
X121250000Y-118500000D03*
%TO.P,RN1,7,R2.2*%
%TO.N,GPIO_27*%
X120750000Y-118500000D03*
D12*
%TO.P,RN1,8,R1.2*%
%TO.N,GPIO_10*%
X120250000Y-118500000D03*
%TD*%
D19*
%TO.P,R3,1*%
%TO.N,Net-(JP1-B)*%
X113300000Y-111050000D03*
%TO.P,R3,2*%
%TO.N,Net-(C4-Pad1)*%
X114950000Y-111050000D03*
%TD*%
D12*
%TO.P,RN5,1,R1.1*%
%TO.N,A0*%
X141250000Y-119500000D03*
D13*
%TO.P,RN5,2,R2.1*%
%TO.N,A1*%
X141750000Y-119500000D03*
%TO.P,RN5,3,R3.1*%
%TO.N,A2*%
X142250000Y-119500000D03*
D12*
%TO.P,RN5,4,R4.1*%
%TO.N,A3*%
X142750000Y-119500000D03*
%TO.P,RN5,5,R4.2*%
%TO.N,GPIO_19*%
X142750000Y-118500000D03*
D13*
%TO.P,RN5,6,R3.2*%
%TO.N,GPIO_18*%
X142250000Y-118500000D03*
%TO.P,RN5,7,R2.2*%
%TO.N,GPIO_17*%
X141750000Y-118500000D03*
D12*
%TO.P,RN5,8,R1.2*%
%TO.N,GPIO_16*%
X141250000Y-118500000D03*
%TD*%
D11*
%TO.P,D2,1,A*%
%TO.N,GPIO_12*%
X124450000Y-117150000D03*
%TO.P,D2,2,A*%
%TO.N,GPIO_24*%
X125100000Y-117150000D03*
%TO.P,D2,3,A*%
%TO.N,GPIO_25*%
X125750000Y-117150000D03*
%TO.P,D2,4,K*%
%TO.N,Net-(D1A-K)*%
X125750000Y-115250000D03*
%TO.P,D2,5,K*%
X125100000Y-115250000D03*
%TO.P,D2,6,K*%
X124450000Y-115250000D03*
%TD*%
D21*
%TO.P,C4,1*%
%TO.N,Net-(C4-Pad1)*%
X110475000Y-107500000D03*
%TO.P,C4,2*%
%TO.N,GND*%
X112025000Y-107500000D03*
%TD*%
D22*
%TO.P,J3,G*%
%TO.N,GND*%
X101850000Y-118500000D03*
%TO.P,J3,R*%
%TO.N,Net-(J4-Pin_2)*%
X105250000Y-118500000D03*
%TO.P,J3,RN*%
%TO.N,BBC_Audio*%
X110750000Y-118500000D03*
%TO.P,J3,S*%
%TO.N,GND*%
X101850000Y-111500000D03*
%TO.P,J3,T*%
%TO.N,Net-(J4-Pin_2)*%
X109050000Y-111500000D03*
%TO.P,J3,TN*%
%TO.N,BBC_Audio*%
X111250000Y-111500000D03*
%TD*%
D18*
%TO.P,C3,1*%
%TO.N,+3.3VDAC*%
X116350000Y-114100000D03*
%TO.P,C3,2*%
%TO.N,GND*%
X116350000Y-112550000D03*
%TD*%
D11*
%TO.P,D6,1,A*%
%TO.N,GPIO_16*%
X140800000Y-117150000D03*
%TO.P,D6,2,A*%
%TO.N,GPIO_17*%
X141450000Y-117150000D03*
%TO.P,D6,3,A*%
%TO.N,GPIO_18*%
X142100000Y-117150000D03*
%TO.P,D6,4,K*%
%TO.N,Net-(D1A-K)*%
X142100000Y-115250000D03*
%TO.P,D6,5,K*%
X141450000Y-115250000D03*
%TO.P,D6,6,K*%
X140800000Y-115250000D03*
%TD*%
%TO.P,D9,1,A*%
%TO.N,Net-(D9A-A)*%
X152700000Y-117150000D03*
%TO.P,D9,2,A*%
%TO.N,Net-(D9A-K)*%
X153350000Y-117150000D03*
%TO.P,D9,3,A*%
%TO.N,Net-(D9B-K)*%
X154000000Y-117150000D03*
%TO.P,D9,4,K*%
%TO.N,GND*%
X154000000Y-115250000D03*
%TO.P,D9,5,K*%
%TO.N,Net-(D9B-K)*%
X153350000Y-115250000D03*
%TO.P,D9,6,K*%
%TO.N,Net-(D9A-K)*%
X152700000Y-115250000D03*
%TD*%
D16*
%TO.P,JP1,1,A*%
%TO.N,Net-(JP1-A)*%
X118300000Y-110600000D03*
%TO.P,JP1,2,B*%
%TO.N,Net-(JP1-B)*%
X117000000Y-110600000D03*
%TD*%
D17*
%TO.P,C2,1*%
%TO.N,+3.3VDAC*%
X115025000Y-118850000D03*
%TO.P,C2,2*%
%TO.N,GND*%
X113475000Y-118850000D03*
%TD*%
D11*
%TO.P,D4,1,A*%
%TO.N,GPIO_4*%
X132850000Y-117150000D03*
%TO.P,D4,2,A*%
%TO.N,GPIO_5*%
X133500000Y-117150000D03*
%TO.P,D4,3,A*%
%TO.N,GPIO_6*%
X134150000Y-117150000D03*
%TO.P,D4,4,K*%
%TO.N,Net-(D1A-K)*%
X134150000Y-115250000D03*
%TO.P,D4,5,K*%
X133500000Y-115250000D03*
%TO.P,D4,6,K*%
X132850000Y-115250000D03*
%TD*%
%TO.P,D1,1,A*%
%TO.N,GPIO_10*%
X120200000Y-117150000D03*
%TO.P,D1,2,A*%
%TO.N,GPIO_27*%
X120850000Y-117150000D03*
%TO.P,D1,3,A*%
%TO.N,GPIO_11*%
X121500000Y-117150000D03*
%TO.P,D1,4,K*%
%TO.N,Net-(D1A-K)*%
X121500000Y-115250000D03*
%TO.P,D1,5,K*%
X120850000Y-115250000D03*
%TO.P,D1,6,K*%
X120200000Y-115250000D03*
%TD*%
D12*
%TO.P,RN6,1,R1.1*%
%TO.N,A4*%
X146750000Y-119500000D03*
D13*
%TO.P,RN6,2,R2.1*%
%TO.N,A5*%
X147250000Y-119500000D03*
%TO.P,RN6,3,R3.1*%
%TO.N,A6*%
X147750000Y-119500000D03*
D12*
%TO.P,RN6,4,R4.1*%
%TO.N,A7*%
X148250000Y-119500000D03*
%TO.P,RN6,5,R4.2*%
%TO.N,GPIO_23*%
X148250000Y-118500000D03*
D13*
%TO.P,RN6,6,R3.2*%
%TO.N,GPIO_22*%
X147750000Y-118500000D03*
%TO.P,RN6,7,R2.2*%
%TO.N,GPIO_21*%
X147250000Y-118500000D03*
D12*
%TO.P,RN6,8,R1.2*%
%TO.N,GPIO_20*%
X146750000Y-118500000D03*
%TD*%
D14*
%TO.P,J4,1,Pin_1*%
%TO.N,GND*%
X102000000Y-108250000D03*
D15*
%TO.P,J4,2,Pin_2*%
%TO.N,Net-(J4-Pin_2)*%
X104540000Y-108250000D03*
%TD*%
D11*
%TO.P,D3,1,A*%
%TO.N,GPIO_26*%
X128800000Y-117150000D03*
%TO.P,D3,2,A*%
%TO.N,GPIO_2*%
X129450000Y-117150000D03*
%TO.P,D3,3,A*%
%TO.N,GPIO_3*%
X130100000Y-117150000D03*
%TO.P,D3,4,K*%
%TO.N,Net-(D1A-K)*%
X130100000Y-115250000D03*
%TO.P,D3,5,K*%
X129450000Y-115250000D03*
%TO.P,D3,6,K*%
X128800000Y-115250000D03*
%TD*%
D23*
%TO.P,J6,1,Pin_1*%
%TO.N,+5V*%
X158000000Y-113750000D03*
D24*
%TO.P,J6,2,Pin_2*%
%TO.N,GND*%
X158000000Y-116250000D03*
%TD*%
D12*
%TO.P,RN2,1,R1.1*%
%TO.N,~{PCFC}*%
X125250000Y-119500000D03*
D13*
%TO.P,RN2,2,R2.1*%
%TO.N,~{PCFD}*%
X125750000Y-119500000D03*
%TO.P,RN2,3,R3.1*%
%TO.N,~{RST}*%
X126250000Y-119500000D03*
D12*
%TO.P,RN2,4,R4.1*%
%TO.N,unconnected-(RN2-R4.1-Pad4)*%
X126750000Y-119500000D03*
%TO.P,RN2,5,R4.2*%
%TO.N,unconnected-(RN2-R4.2-Pad5)*%
X126750000Y-118500000D03*
D13*
%TO.P,RN2,6,R3.2*%
%TO.N,GPIO_26*%
X126250000Y-118500000D03*
%TO.P,RN2,7,R2.2*%
%TO.N,GPIO_25*%
X125750000Y-118500000D03*
D12*
%TO.P,RN2,8,R1.2*%
%TO.N,GPIO_24*%
X125250000Y-118500000D03*
%TD*%
D25*
%TO.P,U1,1,GND*%
%TO.N,GND*%
X116550000Y-118275000D03*
%TO.P,U1,2,VO*%
%TO.N,+3.3VDAC*%
X118450000Y-118275000D03*
%TO.P,U1,3,VI*%
%TO.N,+5V*%
X117500000Y-116000000D03*
%TD*%
D26*
%TO.P,J1,1,Pin_1*%
%TO.N,GND*%
X112350000Y-126750000D03*
D27*
%TO.P,J1,2,Pin_2*%
%TO.N,R{slash}~{W}*%
X112350000Y-124210000D03*
%TO.P,J1,3,Pin_3*%
%TO.N,GND*%
X114890000Y-126750000D03*
%TO.P,J1,4,Pin_4*%
%TO.N,1MHz*%
X114890000Y-124210000D03*
%TO.P,J1,5,Pin_5*%
%TO.N,GND*%
X117430000Y-126750000D03*
%TO.P,J1,6,Pin_6*%
%TO.N,~{NMI}*%
X117430000Y-124210000D03*
%TO.P,J1,7,Pin_7*%
%TO.N,GND*%
X119970000Y-126750000D03*
%TO.P,J1,8,Pin_8*%
%TO.N,~{IRQ}*%
X119970000Y-124210000D03*
%TO.P,J1,9,Pin_9*%
%TO.N,GND*%
X122510000Y-126750000D03*
%TO.P,J1,10,Pin_10*%
%TO.N,~{PCFC}*%
X122510000Y-124210000D03*
%TO.P,J1,11,Pin_11*%
%TO.N,GND*%
X125050000Y-126750000D03*
%TO.P,J1,12,Pin_12*%
%TO.N,~{PCFD}*%
X125050000Y-124210000D03*
%TO.P,J1,13,Pin_13*%
%TO.N,GND*%
X127590000Y-126750000D03*
%TO.P,J1,14,Pin_14*%
%TO.N,~{RST}*%
X127590000Y-124210000D03*
%TO.P,J1,15,Pin_15*%
%TO.N,GND*%
X130130000Y-126750000D03*
%TO.P,J1,16,Pin_16*%
%TO.N,BBC_Audio*%
X130130000Y-124210000D03*
%TO.P,J1,17,Pin_17*%
%TO.N,GND*%
X132670000Y-126750000D03*
%TO.P,J1,18,Pin_18*%
%TO.N,D0*%
X132670000Y-124210000D03*
%TO.P,J1,19,Pin_19*%
%TO.N,D1*%
X135210000Y-126750000D03*
%TO.P,J1,20,Pin_20*%
%TO.N,D2*%
X135210000Y-124210000D03*
%TO.P,J1,21,Pin_21*%
%TO.N,D3*%
X137750000Y-126750000D03*
%TO.P,J1,22,Pin_22*%
%TO.N,D4*%
X137750000Y-124210000D03*
%TO.P,J1,23,Pin_23*%
%TO.N,D5*%
X140290000Y-126750000D03*
%TO.P,J1,24,Pin_24*%
%TO.N,D6*%
X140290000Y-124210000D03*
%TO.P,J1,25,Pin_25*%
%TO.N,D7*%
X142830000Y-126750000D03*
%TO.P,J1,26,Pin_26*%
%TO.N,GND*%
X142830000Y-124210000D03*
%TO.P,J1,27,Pin_27*%
%TO.N,A0*%
X145370000Y-126750000D03*
%TO.P,J1,28,Pin_28*%
%TO.N,A1*%
X145370000Y-124210000D03*
%TO.P,J1,29,Pin_29*%
%TO.N,A2*%
X147910000Y-126750000D03*
%TO.P,J1,30,Pin_30*%
%TO.N,A3*%
X147910000Y-124210000D03*
%TO.P,J1,31,Pin_31*%
%TO.N,A4*%
X150450000Y-126750000D03*
%TO.P,J1,32,Pin_32*%
%TO.N,A5*%
X150450000Y-124210000D03*
%TO.P,J1,33,Pin_33*%
%TO.N,A6*%
X152990000Y-126750000D03*
%TO.P,J1,34,Pin_34*%
%TO.N,A7*%
X152990000Y-124210000D03*
%TD*%
D28*
%TO.P,R4,1*%
%TO.N,GND*%
X112075000Y-109000000D03*
%TO.P,R4,2*%
%TO.N,Net-(C4-Pad1)*%
X110425000Y-109000000D03*
%TD*%
D11*
%TO.P,D5,1,A*%
%TO.N,GPIO_7*%
X136800000Y-117150000D03*
%TO.P,D5,2,A*%
%TO.N,GPIO_8*%
X137450000Y-117150000D03*
%TO.P,D5,3,A*%
%TO.N,GPIO_9*%
X138100000Y-117150000D03*
%TO.P,D5,4,K*%
%TO.N,Net-(D1A-K)*%
X138100000Y-115250000D03*
%TO.P,D5,5,K*%
X137450000Y-115250000D03*
%TO.P,D5,6,K*%
X136800000Y-115250000D03*
%TD*%
D20*
%TO.P,R1,1*%
%TO.N,GPIO_13*%
X113500000Y-117400000D03*
%TO.P,R1,2*%
%TO.N,Net-(JP1-A)*%
X113500000Y-115750000D03*
%TD*%
D12*
%TO.P,RN4,1,R1.1*%
%TO.N,D4*%
X136250000Y-119500000D03*
D13*
%TO.P,RN4,2,R2.1*%
%TO.N,D5*%
X136750000Y-119500000D03*
%TO.P,RN4,3,R3.1*%
%TO.N,D6*%
X137250000Y-119500000D03*
D12*
%TO.P,RN4,4,R4.1*%
%TO.N,D7*%
X137750000Y-119500000D03*
%TO.P,RN4,5,R4.2*%
%TO.N,GPIO_9*%
X137750000Y-118500000D03*
D13*
%TO.P,RN4,6,R3.2*%
%TO.N,GPIO_8*%
X137250000Y-118500000D03*
%TO.P,RN4,7,R2.2*%
%TO.N,GPIO_7*%
X136750000Y-118500000D03*
D12*
%TO.P,RN4,8,R1.2*%
%TO.N,GPIO_6*%
X136250000Y-118500000D03*
%TD*%
D14*
%TO.P,J2,1,3V3*%
%TO.N,+3V3*%
X108418680Y-104800000D03*
D15*
%TO.P,J2,2,5V*%
%TO.N,+5V*%
X108418680Y-102260000D03*
%TO.P,J2,3,SDA_I2C1/GPIO02*%
%TO.N,GPIO_2*%
X110958680Y-104800000D03*
%TO.P,J2,4,5V*%
%TO.N,+5V*%
X110958680Y-102260000D03*
%TO.P,J2,5,SCL_I2C1/GPIO03*%
%TO.N,GPIO_3*%
X113498680Y-104800000D03*
%TO.P,J2,6,GND*%
%TO.N,GND*%
X113498680Y-102260000D03*
%TO.P,J2,7,GPCLK0/GPIO04*%
%TO.N,GPIO_4*%
X116038680Y-104800000D03*
%TO.P,J2,8,GPIO14/UART_TXD*%
%TO.N,TxD*%
X116038680Y-102260000D03*
%TO.P,J2,9,GND*%
%TO.N,GND*%
X118578680Y-104800000D03*
%TO.P,J2,10,GPIO15/UART_RXD*%
%TO.N,RxD*%
X118578680Y-102260000D03*
%TO.P,J2,11,GPIO17/SPI1_~{CE1}*%
%TO.N,GPIO_17*%
X121118680Y-104800000D03*
%TO.P,J2,12,GPIO18/SPI1_~{CE0}/PCM_CLK/PWM0*%
%TO.N,GPIO_18*%
X121118680Y-102260000D03*
%TO.P,J2,13,GPIO27/SDIO_DAT3*%
%TO.N,GPIO_27*%
X123658680Y-104800000D03*
%TO.P,J2,14,GND*%
%TO.N,GND*%
X123658680Y-102260000D03*
%TO.P,J2,15,GPIO22/SDIO_CLK*%
%TO.N,GPIO_22*%
X126198680Y-104800000D03*
%TO.P,J2,16,GPIO23/SDIO_CMD*%
%TO.N,GPIO_23*%
X126198680Y-102260000D03*
%TO.P,J2,17,3V3*%
%TO.N,+3V3*%
X128738680Y-104800000D03*
%TO.P,J2,18,GPIO24/SDIO_DAT0*%
%TO.N,GPIO_24*%
X128738680Y-102260000D03*
%TO.P,J2,19,MOSI_SPI0/GPIO10*%
%TO.N,GPIO_10*%
X131278680Y-104800000D03*
%TO.P,J2,20,GND*%
%TO.N,GND*%
X131278680Y-102260000D03*
%TO.P,J2,21,MISO_SPI0/GPIO09*%
%TO.N,GPIO_9*%
X133818680Y-104800000D03*
%TO.P,J2,22,GPIO25/SDIO_DAT1*%
%TO.N,GPIO_25*%
X133818680Y-102260000D03*
%TO.P,J2,23,SCLK_SPI0/GPIO11*%
%TO.N,GPIO_11*%
X136358680Y-104800000D03*
%TO.P,J2,24,~{CE0}_SPI0/GPIO08*%
%TO.N,GPIO_8*%
X136358680Y-102260000D03*
%TO.P,J2,25,GND*%
%TO.N,GND*%
X138898680Y-104800000D03*
%TO.P,J2,26,~{CE1}_SPI0/GPIO07*%
%TO.N,GPIO_7*%
X138898680Y-102260000D03*
%TO.P,J2,27,ID_SD_I2C0/GPIO00*%
%TO.N,ID_SD*%
X141438680Y-104800000D03*
%TO.P,J2,28,ID_SC_I2C0/GPIO01*%
%TO.N,ID_SC*%
X141438680Y-102260000D03*
%TO.P,J2,29,GPCLK1/GPIO05*%
%TO.N,GPIO_5*%
X143978680Y-104800000D03*
%TO.P,J2,30,GND*%
%TO.N,GND*%
X143978680Y-102260000D03*
%TO.P,J2,31,GPCLK2/GPIO06*%
%TO.N,GPIO_6*%
X146518680Y-104800000D03*
%TO.P,J2,32,GPIO12/PWM0*%
%TO.N,GPIO_12*%
X146518680Y-102260000D03*
%TO.P,J2,33,GPIO13/PWM1*%
%TO.N,GPIO_13*%
X149058680Y-104800000D03*
%TO.P,J2,34,GND*%
%TO.N,GND*%
X149058680Y-102260000D03*
%TO.P,J2,35,GPIO19/SPI1_MISO/PCM_FS*%
%TO.N,GPIO_19*%
X151598680Y-104800000D03*
%TO.P,J2,36,GPIO16/SPI1_~{CE2}*%
%TO.N,GPIO_16*%
X151598680Y-102260000D03*
%TO.P,J2,37,GPIO26/SDIO_DAT2*%
%TO.N,GPIO_26*%
X154138680Y-104800000D03*
%TO.P,J2,38,GPIO20/SPI1_MOSI/PCM_DIN/PWM1*%
%TO.N,GPIO_20*%
X154138680Y-102260000D03*
%TO.P,J2,39,GND*%
%TO.N,GND*%
X156678680Y-104800000D03*
%TO.P,J2,40,GPIO21/SPI1_SCLK/PCM_DOUT*%
%TO.N,GPIO_21*%
X156678680Y-102260000D03*
%TD*%
D29*
%TO.N,GPIO_13*%
X112500000Y-117500000D03*
%TO.N,+3.3VDAC*%
X114200000Y-113500000D03*
X115400000Y-113500000D03*
%TO.N,Net-(C4-Pad1)*%
X109750000Y-106750000D03*
X114500000Y-109750000D03*
%TO.N,GPIO_10*%
X122750000Y-110750000D03*
%TO.N,GPIO_11*%
X136358680Y-107500000D03*
%TO.N,GPIO_12*%
X129750000Y-112250000D03*
%TO.N,GPIO_24*%
X126250000Y-112850000D03*
%TO.N,GPIO_25*%
X128750000Y-112850000D03*
%TO.N,GPIO_26*%
X128548527Y-113900000D03*
%TO.N,GPIO_2*%
X129000000Y-116250000D03*
%TO.N,GPIO_3*%
X130000000Y-116250000D03*
%TO.N,GPIO_4*%
X132750000Y-116250000D03*
%TO.N,GPIO_5*%
X145918680Y-108929847D03*
X138900000Y-111100000D03*
%TO.N,GPIO_6*%
X135077604Y-117094961D03*
X146500000Y-112650000D03*
%TO.N,GPIO_7*%
X138000000Y-111100000D03*
X138250000Y-107500000D03*
X135750000Y-116500000D03*
%TO.N,GPIO_8*%
X137748680Y-106850000D03*
%TO.N,GPIO_17*%
X142752537Y-113252537D03*
X137633709Y-111811217D03*
%TO.N,GPIO_18*%
X143352537Y-115481217D03*
X135750000Y-113250000D03*
X124500000Y-111500000D03*
X120000000Y-108250000D03*
%TO.N,GPIO_22*%
X143000000Y-111750000D03*
X147500000Y-117000000D03*
%TO.N,GPIO_23*%
X147750000Y-107000000D03*
X147636765Y-116136765D03*
%TO.N,Net-(D1A-K)*%
X149592187Y-114582370D03*
X129750000Y-114500000D03*
X125250000Y-114500000D03*
X137750000Y-114500000D03*
X140900000Y-116000000D03*
X144900000Y-116000000D03*
X121000000Y-114500000D03*
X133750000Y-114500000D03*
%TO.N,GND*%
X134000000Y-108250000D03*
X111500000Y-114000000D03*
X140250000Y-120000000D03*
X149250000Y-107250000D03*
X129250000Y-119000000D03*
X120750000Y-112500000D03*
X135000000Y-119750000D03*
X115750000Y-115750000D03*
X133750000Y-112250000D03*
X141250000Y-107250000D03*
X112000000Y-106500000D03*
X113500000Y-119750000D03*
X124250000Y-119000000D03*
X145250000Y-119750000D03*
X102250000Y-118500000D03*
X153500000Y-107250000D03*
X143750000Y-107250000D03*
%TO.N,+5V*%
X116550003Y-115750000D03*
%TO.N,+3V3*%
X152250000Y-110750000D03*
%TO.N,Net-(JP1-A)*%
X119500000Y-116850000D03*
X118149999Y-117000000D03*
%TD*%
D30*
%TO.N,GPIO_13*%
X112500000Y-117500000D02*
X113400000Y-117500000D01*
X113400000Y-117500000D02*
X113500000Y-117400000D01*
%TO.N,+3.3VDAC*%
X114200000Y-112550000D02*
X114150000Y-112500000D01*
X118749999Y-117975001D02*
X118749999Y-113776303D01*
X114200000Y-113500000D02*
X114200000Y-112550000D01*
X118450000Y-118275000D02*
X118749999Y-117975001D01*
X115025000Y-121025000D02*
X115250000Y-121250000D01*
X116000000Y-114100000D02*
X115400000Y-113500000D01*
X116750000Y-121250000D02*
X115250000Y-121250000D01*
X118749999Y-113776303D02*
X118273696Y-113300000D01*
X115025000Y-118850000D02*
X115025000Y-121025000D01*
X118450000Y-118275000D02*
X118450000Y-119550000D01*
X118450000Y-119550000D02*
X116750000Y-121250000D01*
X116350000Y-114100000D02*
X116000000Y-114100000D01*
X117150000Y-113300000D02*
X116350000Y-114100000D01*
X118273696Y-113300000D02*
X117150000Y-113300000D01*
%TO.N,Net-(C4-Pad1)*%
X109025000Y-107500000D02*
X110475000Y-107500000D01*
X110425000Y-109000000D02*
X110425000Y-107550000D01*
X114950000Y-110200000D02*
X114500000Y-109750000D01*
X110425000Y-107550000D02*
X110475000Y-107500000D01*
X114950000Y-111050000D02*
X114950000Y-110200000D01*
X109750000Y-106750000D02*
X109750000Y-106775000D01*
X109750000Y-106775000D02*
X110475000Y-107500000D01*
%TO.N,GPIO_10*%
X121025001Y-116000000D02*
X121643456Y-116000000D01*
X120250000Y-118500000D02*
X120250000Y-117200000D01*
X121643456Y-116000000D02*
X122000000Y-115643456D01*
X122000000Y-115643456D02*
X122000000Y-111500000D01*
X120250000Y-117200000D02*
X120200000Y-117150000D01*
X120200000Y-116825001D02*
X121025001Y-116000000D01*
X120200000Y-117150000D02*
X120200000Y-116825001D01*
X122000000Y-111500000D02*
X122750000Y-110750000D01*
%TO.N,GPIO_27*%
X121175001Y-116500000D02*
X121709141Y-116500000D01*
X122400000Y-111877818D02*
X123300000Y-110977818D01*
X122000000Y-109500000D02*
X122000000Y-106458680D01*
X123000000Y-109750000D02*
X122250000Y-109750000D01*
X120850000Y-116825001D02*
X121175001Y-116500000D01*
X123300000Y-110050000D02*
X123000000Y-109750000D01*
X122250000Y-109750000D02*
X122000000Y-109500000D01*
X122400000Y-115809141D02*
X122400000Y-111877818D01*
X120850000Y-117150000D02*
X120850000Y-116825001D01*
X120750000Y-117250000D02*
X120850000Y-117150000D01*
X122000000Y-106458680D02*
X123658680Y-104800000D01*
X123300000Y-110977818D02*
X123300000Y-110050000D01*
X120750000Y-118500000D02*
X120750000Y-117250000D01*
X121709141Y-116500000D02*
X122400000Y-115809141D01*
%TO.N,GPIO_11*%
X121500000Y-117150000D02*
X122000000Y-117150000D01*
X123000000Y-116150000D02*
X123000000Y-112500000D01*
X121250000Y-118500000D02*
X121250000Y-118000000D01*
X133608680Y-110250000D02*
X136358680Y-107500000D01*
X121500000Y-117750000D02*
X121500000Y-117150000D01*
X123750000Y-110500000D02*
X124000000Y-110250000D01*
X123000000Y-112500000D02*
X123750000Y-111750000D01*
X121250000Y-118000000D02*
X121500000Y-117750000D01*
X122000000Y-117150000D02*
X123000000Y-116150000D01*
X124000000Y-110250000D02*
X130000000Y-110250000D01*
X123750000Y-111750000D02*
X123750000Y-110500000D01*
X130000000Y-110250000D02*
X133608680Y-110250000D01*
%TO.N,GPIO_12*%
X124450000Y-117150000D02*
X124450000Y-116825001D01*
X123400000Y-116100000D02*
X123400000Y-113000000D01*
X123100000Y-118500000D02*
X124450000Y-117150000D01*
X124150000Y-112250000D02*
X129750000Y-112250000D01*
X121750000Y-118500000D02*
X123100000Y-118500000D01*
X123400000Y-113000000D02*
X124150000Y-112250000D01*
X124450000Y-117150000D02*
X123400000Y-116100000D01*
%TO.N,GPIO_24*%
X125100000Y-116825001D02*
X126250000Y-115675001D01*
X125250000Y-118500000D02*
X125250000Y-117300000D01*
X125250000Y-117300000D02*
X125100000Y-117150000D01*
X125100000Y-117150000D02*
X125100000Y-116825001D01*
X126250000Y-115675001D02*
X126250000Y-112850000D01*
%TO.N,GPIO_25*%
X125750000Y-118500000D02*
X125750000Y-117150000D01*
X125750000Y-117150000D02*
X127900000Y-115000000D01*
X127900000Y-113700000D02*
X128750000Y-112850000D01*
X127900000Y-115000000D02*
X127900000Y-113700000D01*
%TO.N,GPIO_26*%
X128300000Y-114148527D02*
X128548527Y-113900000D01*
X128300000Y-116650000D02*
X128300000Y-114148527D01*
X128300000Y-116650000D02*
X128800000Y-117150000D01*
X126250000Y-118500000D02*
X126250000Y-118050000D01*
X126250000Y-118050000D02*
X127150000Y-117150000D01*
X127150000Y-117150000D02*
X128800000Y-117150000D01*
%TO.N,GPIO_2*%
X129450000Y-117150000D02*
X129450000Y-116700000D01*
X129450000Y-117450000D02*
X129450000Y-117150000D01*
X129450000Y-116700000D02*
X129000000Y-116250000D01*
X130500000Y-118500000D02*
X129450000Y-117450000D01*
%TO.N,GPIO_3*%
X130100000Y-116350000D02*
X130000000Y-116250000D01*
X130100000Y-117150000D02*
X130100000Y-116350000D01*
X131000000Y-118500000D02*
X131000000Y-118050000D01*
X131000000Y-118050000D02*
X130100000Y-117150000D01*
%TO.N,GPIO_4*%
X132850000Y-116350000D02*
X132750000Y-116250000D01*
X131500000Y-118500000D02*
X131500000Y-118050000D01*
X131500000Y-118050000D02*
X132400000Y-117150000D01*
X132850000Y-117150000D02*
X132850000Y-116350000D01*
X132400000Y-117150000D02*
X132850000Y-117150000D01*
%TO.N,GPIO_5*%
X133500000Y-117400000D02*
X133500000Y-117150000D01*
X132400000Y-118500000D02*
X133500000Y-117400000D01*
X145918680Y-108929847D02*
X145918680Y-106740000D01*
X145918680Y-106740000D02*
X143978680Y-104800000D01*
X132000000Y-118500000D02*
X132400000Y-118500000D01*
X133500000Y-116825001D02*
X138900000Y-111425001D01*
X133500000Y-117150000D02*
X133500000Y-116825001D01*
X138800000Y-111000000D02*
X138900000Y-111100000D01*
X138900000Y-111425001D02*
X138900000Y-111100000D01*
%TO.N,GPIO_6*%
X135000000Y-117150000D02*
X134150000Y-117150000D01*
X146500000Y-112000000D02*
X146518680Y-111981320D01*
X136250000Y-118500000D02*
X135500000Y-118500000D01*
X146518680Y-111981320D02*
X146518680Y-104800000D01*
X146500000Y-112650000D02*
X146500000Y-112000000D01*
X135500000Y-118500000D02*
X134150000Y-117150000D01*
%TO.N,GPIO_7*%
X138000000Y-111100000D02*
X138000000Y-107750000D01*
X136400000Y-117150000D02*
X135750000Y-116500000D01*
X136800000Y-117150000D02*
X136400000Y-117150000D01*
X136750000Y-118500000D02*
X136750000Y-117200000D01*
X138000000Y-107750000D02*
X138250000Y-107500000D01*
X136750000Y-117200000D02*
X136800000Y-117150000D01*
%TO.N,GPIO_8*%
X139500000Y-107750000D02*
X138500000Y-106750000D01*
X139000000Y-116500000D02*
X137775001Y-116500000D01*
X138500000Y-106750000D02*
X137848680Y-106750000D01*
X137775001Y-116500000D02*
X137450000Y-116825001D01*
X139500000Y-116000000D02*
X139000000Y-116500000D01*
X137848680Y-106750000D02*
X137748680Y-106850000D01*
X137250000Y-118500000D02*
X137250000Y-117593456D01*
X137450000Y-117393456D02*
X137450000Y-117150000D01*
X139500000Y-116000000D02*
X139500000Y-107750000D01*
X137250000Y-117593456D02*
X137450000Y-117393456D01*
X137450000Y-116825001D02*
X137450000Y-117150000D01*
%TO.N,GPIO_9*%
X137750000Y-118500000D02*
X138100000Y-118150000D01*
X139900000Y-116850000D02*
X139900000Y-106900000D01*
X135268680Y-106250000D02*
X133818680Y-104800000D01*
X138100000Y-118150000D02*
X138100000Y-117150000D01*
X139600000Y-117150000D02*
X139900000Y-116850000D01*
X139250000Y-106250000D02*
X135268680Y-106250000D01*
X138100000Y-117150000D02*
X139600000Y-117150000D01*
X139900000Y-106900000D02*
X139250000Y-106250000D01*
%TO.N,GPIO_16*%
X144750000Y-113250000D02*
X147250000Y-113250000D01*
X148750000Y-110250000D02*
X150448680Y-108551320D01*
X148750000Y-111750000D02*
X148750000Y-110250000D01*
X150448680Y-103410000D02*
X151598680Y-102260000D01*
X150448680Y-108551320D02*
X150448680Y-103410000D01*
X144000000Y-112500000D02*
X144750000Y-113250000D01*
X140300000Y-114856544D02*
X142656544Y-112500000D01*
X140300000Y-116650000D02*
X140300000Y-114856544D01*
X140800000Y-117150000D02*
X140300000Y-116650000D01*
X140800000Y-118050000D02*
X140800000Y-117150000D01*
X142656544Y-112500000D02*
X144000000Y-112500000D01*
X147250000Y-113250000D02*
X148750000Y-111750000D01*
X141250000Y-118500000D02*
X140800000Y-118050000D01*
%TO.N,GPIO_17*%
X136457209Y-106750000D02*
X126522334Y-106750000D01*
X136958680Y-107251471D02*
X136457209Y-106750000D01*
X141750000Y-118500000D02*
X141750000Y-118000000D01*
X122268680Y-103650000D02*
X121118680Y-104800000D01*
X141450000Y-117150000D02*
X141450000Y-116906544D01*
X142752537Y-115604007D02*
X142752537Y-113252537D01*
X125048680Y-104563654D02*
X124135026Y-103650000D01*
X141750000Y-118000000D02*
X141450000Y-117700000D01*
X124135026Y-103650000D02*
X122268680Y-103650000D01*
X141450000Y-116906544D02*
X142752537Y-115604007D01*
X125048680Y-105276346D02*
X125048680Y-104563654D01*
X126522334Y-106750000D02*
X125048680Y-105276346D01*
X141450000Y-117700000D02*
X141450000Y-117150000D01*
X136958680Y-111136188D02*
X137633709Y-111811217D01*
X136958680Y-110250000D02*
X136958680Y-107251471D01*
X136958680Y-110250000D02*
X136958680Y-111136188D01*
%TO.N,GPIO_18*%
X119968680Y-103410000D02*
X121118680Y-102260000D01*
X119968680Y-107468680D02*
X119968680Y-103410000D01*
X142250000Y-117300000D02*
X142100000Y-117150000D01*
X129848529Y-111500000D02*
X124500000Y-111500000D01*
X131598529Y-113250000D02*
X129848529Y-111500000D01*
X120000000Y-107500000D02*
X119968680Y-107468680D01*
X120000000Y-108250000D02*
X120000000Y-107500000D01*
X135750000Y-113250000D02*
X131598529Y-113250000D01*
X142100000Y-117150000D02*
X143352537Y-115897463D01*
X143352537Y-115897463D02*
X143352537Y-115481217D01*
X142250000Y-118500000D02*
X142250000Y-117300000D01*
%TO.N,GPIO_19*%
X144300000Y-114856544D02*
X145439387Y-113717157D01*
X142750000Y-118500000D02*
X143450000Y-118500000D01*
X149250000Y-110500000D02*
X151598680Y-108151320D01*
X151598680Y-108151320D02*
X151598680Y-104800000D01*
X144800000Y-117150000D02*
X144300000Y-116650000D01*
X145439387Y-113717157D02*
X147967157Y-113717157D01*
X144300000Y-116650000D02*
X144300000Y-114856544D01*
X143450000Y-118500000D02*
X144800000Y-117150000D01*
X149250000Y-112434314D02*
X149250000Y-110500000D01*
X147967157Y-113717157D02*
X149250000Y-112434314D01*
%TO.N,GPIO_20*%
X146750000Y-118500000D02*
X146350000Y-118500000D01*
X149700000Y-110784314D02*
X150984314Y-109500000D01*
X145450000Y-116800000D02*
X149700000Y-112550000D01*
X145450000Y-117600000D02*
X145450000Y-117150000D01*
X152748680Y-108501320D02*
X152748680Y-103650000D01*
X151750000Y-109500000D02*
X152748680Y-108501320D01*
X146350000Y-118500000D02*
X145450000Y-117600000D01*
X152748680Y-103650000D02*
X154138680Y-102260000D01*
X145450000Y-117150000D02*
X145450000Y-116800000D01*
X150984314Y-109500000D02*
X151750000Y-109500000D01*
X149700000Y-112550000D02*
X149700000Y-110784314D01*
%TO.N,GPIO_21*%
X150100000Y-110950000D02*
X151050000Y-110000000D01*
X150100000Y-112825001D02*
X150100000Y-110950000D01*
X154250000Y-110000000D02*
X155288680Y-108961320D01*
X147250000Y-118500000D02*
X147250000Y-117950000D01*
X151050000Y-110000000D02*
X154250000Y-110000000D01*
X146100000Y-116825001D02*
X150100000Y-112825001D01*
X147250000Y-117950000D02*
X146450000Y-117150000D01*
X155288680Y-103650000D02*
X156678680Y-102260000D01*
X155288680Y-108961320D02*
X155288680Y-103650000D01*
X146450000Y-117150000D02*
X146100000Y-117150000D01*
X146100000Y-117150000D02*
X146100000Y-116825001D01*
%TO.N,GPIO_22*%
X127348680Y-103650000D02*
X126198680Y-104800000D01*
X147750000Y-118500000D02*
X147750000Y-117950000D01*
X148800000Y-117150000D02*
X147650000Y-117150000D01*
X148550000Y-117150000D02*
X148800000Y-117150000D01*
X147750000Y-117950000D02*
X148550000Y-117150000D01*
X147650000Y-117150000D02*
X147500000Y-117000000D01*
X143000000Y-111750000D02*
X142588680Y-111338680D01*
X142588680Y-104323654D02*
X141915026Y-103650000D01*
X142588680Y-111338680D02*
X142588680Y-104323654D01*
X141915026Y-103650000D02*
X127348680Y-103650000D01*
%TO.N,GPIO_23*%
X149450000Y-117150000D02*
X149450000Y-116825001D01*
X148761764Y-116136765D02*
X147636765Y-116136765D01*
X148650000Y-118500000D02*
X149450000Y-117700000D01*
X127348680Y-101110000D02*
X126198680Y-102260000D01*
X146995026Y-101110000D02*
X127348680Y-101110000D01*
X148250000Y-118500000D02*
X148650000Y-118500000D01*
X149450000Y-117700000D02*
X149450000Y-117150000D01*
X149450000Y-116825001D02*
X148761764Y-116136765D01*
X147750000Y-107000000D02*
X147750000Y-101864974D01*
X147750000Y-101864974D02*
X146995026Y-101110000D01*
%TO.N,Net-(J4-Pin_2)*%
X106725000Y-108250000D02*
X107475000Y-107500000D01*
X104540000Y-108250000D02*
X106725000Y-108250000D01*
X105250000Y-118500000D02*
X105250000Y-115300000D01*
X109075000Y-111475000D02*
X109050000Y-111500000D01*
X117000000Y-108100000D02*
X114448529Y-108100000D01*
X109075000Y-109000000D02*
X109075000Y-111475000D01*
X112166042Y-105817513D02*
X111567513Y-105817513D01*
X108975000Y-106000000D02*
X107475000Y-107500000D01*
X105250000Y-115300000D02*
X109050000Y-111500000D01*
X114448529Y-108100000D02*
X112166042Y-105817513D01*
X111385026Y-106000000D02*
X108975000Y-106000000D01*
X111567513Y-105817513D02*
X111385026Y-106000000D01*
X107575000Y-107500000D02*
X109075000Y-109000000D01*
X107475000Y-107500000D02*
X107575000Y-107500000D01*
%TO.N,Net-(D1A-K)*%
X144800000Y-115250000D02*
X146100000Y-115250000D01*
X137450000Y-115250000D02*
X137450000Y-114800000D01*
X124450000Y-115250000D02*
X125750000Y-115250000D01*
X150900000Y-113350000D02*
X150900000Y-112000000D01*
X149450000Y-114800000D02*
X150900000Y-113350000D01*
X129450000Y-114800000D02*
X129750000Y-114500000D01*
X144800000Y-115900000D02*
X144900000Y-116000000D01*
X133500000Y-114750000D02*
X133750000Y-114500000D01*
X133500000Y-115250000D02*
X133500000Y-114750000D01*
X132850000Y-115250000D02*
X134150000Y-115250000D01*
X129450000Y-115250000D02*
X129450000Y-114800000D01*
X137450000Y-114800000D02*
X137750000Y-114500000D01*
X140800000Y-115900000D02*
X140900000Y-116000000D01*
X149450000Y-115250000D02*
X149450000Y-114800000D01*
X140800000Y-115250000D02*
X142100000Y-115250000D01*
X120200000Y-115250000D02*
X121500000Y-115250000D01*
X148800000Y-115250000D02*
X149450000Y-115250000D01*
X128800000Y-115250000D02*
X130100000Y-115250000D01*
X120850000Y-114650000D02*
X121000000Y-114500000D01*
X125100000Y-114650000D02*
X125250000Y-114500000D01*
X120850000Y-115250000D02*
X120850000Y-114650000D01*
X136800000Y-115250000D02*
X138100000Y-115250000D01*
X125100000Y-115250000D02*
X125100000Y-114650000D01*
X140800000Y-115250000D02*
X140800000Y-115900000D01*
X144800000Y-115250000D02*
X144800000Y-115900000D01*
%TO.N,GND*%
X116400000Y-118125000D02*
X114200000Y-118125000D01*
X154000000Y-115250000D02*
X155000000Y-116250000D01*
X112025000Y-107500000D02*
X112025000Y-106525000D01*
X115000000Y-115750000D02*
X115750000Y-115750000D01*
X101850000Y-118500000D02*
X101050000Y-117700000D01*
X115000000Y-115750000D02*
X115000000Y-114600000D01*
X112075000Y-109000000D02*
X112075000Y-107550000D01*
X104925000Y-111500000D02*
X107425000Y-109000000D01*
X101050000Y-117700000D02*
X101050000Y-112300000D01*
X112075000Y-107550000D02*
X112025000Y-107500000D01*
X155000000Y-116250000D02*
X158000000Y-116250000D01*
X114800000Y-112500000D02*
X114800000Y-114400000D01*
X101850000Y-111500000D02*
X101850000Y-108400000D01*
X113500000Y-118875000D02*
X113475000Y-118850000D01*
X101850000Y-111500000D02*
X104925000Y-111500000D01*
X112025000Y-106525000D02*
X112000000Y-106500000D01*
X116550000Y-118275000D02*
X116400000Y-118125000D01*
X113500000Y-119750000D02*
X113500000Y-118875000D01*
X101850000Y-108400000D02*
X102000000Y-108250000D01*
X115000000Y-114600000D02*
X114800000Y-114400000D01*
X114150000Y-114400000D02*
X114800000Y-114400000D01*
X116300000Y-112500000D02*
X116350000Y-112550000D01*
X114200000Y-118125000D02*
X113475000Y-118850000D01*
X114800000Y-112500000D02*
X116300000Y-112500000D01*
X101850000Y-118500000D02*
X102250000Y-118500000D01*
X117850000Y-112550000D02*
X116350000Y-112550000D01*
X101050000Y-112300000D02*
X101850000Y-111500000D01*
%TO.N,+5V*%
X117250000Y-115750000D02*
X117500000Y-116000000D01*
X117850000Y-114100000D02*
X117850000Y-115650000D01*
X117850000Y-115650000D02*
X117500000Y-116000000D01*
X116550003Y-115750000D02*
X117250000Y-115750000D01*
%TO.N,+3V3*%
X152250000Y-111950000D02*
X152200000Y-112000000D01*
X152250000Y-110750000D02*
X152250000Y-111950000D01*
%TO.N,A3*%
X143200000Y-119500000D02*
X147910000Y-124210000D01*
X142750000Y-119500000D02*
X143200000Y-119500000D01*
%TO.N,D0*%
X130500000Y-121250000D02*
X132670000Y-123420000D01*
X132670000Y-123420000D02*
X132670000Y-124210000D01*
X130500000Y-119500000D02*
X130500000Y-121250000D01*
%TO.N,A0*%
X143980000Y-125360000D02*
X145370000Y-126750000D01*
X141250000Y-121003654D02*
X143980000Y-123733654D01*
X143980000Y-123733654D02*
X143980000Y-125360000D01*
X141250000Y-119500000D02*
X141250000Y-121003654D01*
%TO.N,A7*%
X151735000Y-122985000D02*
X151765000Y-122985000D01*
X152990000Y-124210000D02*
X151765000Y-122985000D01*
X148250000Y-119500000D02*
X151735000Y-122985000D01*
%TO.N,D1*%
X131000000Y-119500000D02*
X131000000Y-120913654D01*
X133820000Y-125360000D02*
X135210000Y-126750000D01*
X133820000Y-123733654D02*
X133820000Y-125360000D01*
X131000000Y-120913654D02*
X133820000Y-123733654D01*
%TO.N,~{PCFC}*%
X125250000Y-121470000D02*
X125250000Y-119500000D01*
X122510000Y-124210000D02*
X125250000Y-121470000D01*
%TO.N,D6*%
X137250000Y-121170000D02*
X137250000Y-119500000D01*
X140290000Y-124210000D02*
X137250000Y-121170000D01*
%TO.N,D4*%
X136250000Y-122710000D02*
X137750000Y-124210000D01*
X136250000Y-119500000D02*
X136250000Y-122710000D01*
%TO.N,R{slash}~{W}*%
X115534314Y-123000000D02*
X113560000Y-123000000D01*
X113560000Y-123000000D02*
X112350000Y-124210000D01*
X120250000Y-119500000D02*
X119034314Y-119500000D01*
X119034314Y-119500000D02*
X115534314Y-123000000D01*
%TO.N,~{NMI}*%
X121250000Y-120390000D02*
X117430000Y-124210000D01*
X121250000Y-119500000D02*
X121250000Y-120390000D01*
%TO.N,D7*%
X141680000Y-125600000D02*
X141680000Y-123430000D01*
X142830000Y-126750000D02*
X141680000Y-125600000D01*
X141680000Y-123430000D02*
X137750000Y-119500000D01*
%TO.N,~{IRQ}*%
X119970000Y-124210000D02*
X121750000Y-122430000D01*
X121750000Y-122430000D02*
X121750000Y-119500000D01*
%TO.N,D2*%
X131500000Y-119500000D02*
X131500000Y-120500000D01*
X131500000Y-120500000D02*
X135210000Y-124210000D01*
%TO.N,A1*%
X141750000Y-120590000D02*
X145370000Y-124210000D01*
X141750000Y-119500000D02*
X141750000Y-120590000D01*
%TO.N,A6*%
X151600000Y-125360000D02*
X152990000Y-126750000D01*
X147750000Y-119883654D02*
X151600000Y-123733654D01*
X151600000Y-123733654D02*
X151600000Y-125360000D01*
X147750000Y-119500000D02*
X147750000Y-119883654D01*
%TO.N,~{RST}*%
X127590000Y-124210000D02*
X126250000Y-122870000D01*
X126250000Y-122870000D02*
X126250000Y-119500000D01*
%TO.N,D5*%
X136750000Y-121500000D02*
X139140000Y-123890000D01*
X136750000Y-119500000D02*
X136750000Y-121500000D01*
X139140000Y-125600000D02*
X140290000Y-126750000D01*
X139140000Y-123890000D02*
X139140000Y-125600000D01*
%TO.N,A2*%
X147910000Y-126750000D02*
X146520000Y-125360000D01*
X146520000Y-125360000D02*
X146520000Y-123520000D01*
X146520000Y-123520000D02*
X143625000Y-120625000D01*
X142250000Y-119500000D02*
X142250000Y-120050000D01*
X142825000Y-120625000D02*
X143625000Y-120625000D01*
X142250000Y-120050000D02*
X142825000Y-120625000D01*
%TO.N,1MHz*%
X120750000Y-119950000D02*
X120650000Y-120050000D01*
X119050000Y-120050000D02*
X114890000Y-124210000D01*
X120750000Y-119500000D02*
X120750000Y-119950000D01*
X120650000Y-120050000D02*
X119050000Y-120050000D01*
%TO.N,A5*%
X147250000Y-119500000D02*
X147250000Y-120250000D01*
X150450000Y-123450000D02*
X150450000Y-124210000D01*
X147250000Y-120250000D02*
X150450000Y-123450000D01*
%TO.N,~{PCFD}*%
X125750000Y-123510000D02*
X125750000Y-119500000D01*
X125050000Y-124210000D02*
X125750000Y-123510000D01*
%TO.N,D3*%
X136360000Y-123460000D02*
X136360000Y-125360000D01*
X136360000Y-125360000D02*
X137750000Y-126750000D01*
X132000000Y-119500000D02*
X132400000Y-119500000D01*
X132400000Y-119500000D02*
X136360000Y-123460000D01*
%TO.N,A4*%
X146750000Y-119500000D02*
X146750000Y-120500000D01*
X149250000Y-123000000D02*
X149250000Y-125550000D01*
X146750000Y-120500000D02*
X149250000Y-123000000D01*
X149250000Y-125550000D02*
X150450000Y-126750000D01*
%TO.N,Net-(D9B-K)*%
X154000000Y-116906544D02*
X154000000Y-117150000D01*
X153350000Y-115250000D02*
X153350000Y-116256544D01*
X153350000Y-116256544D02*
X154000000Y-116906544D01*
%TO.N,Net-(D9A-K)*%
X152700000Y-116256544D02*
X153350000Y-116906544D01*
X153350000Y-116906544D02*
X153350000Y-117150000D01*
X152700000Y-115250000D02*
X152700000Y-116256544D01*
%TO.N,Net-(D9A-A)*%
X152200000Y-116650000D02*
X152200000Y-114300000D01*
X152700000Y-117150000D02*
X152200000Y-116650000D01*
X152200000Y-114300000D02*
X153500000Y-113000000D01*
X153500000Y-113000000D02*
X153500000Y-112000000D01*
%TO.N,BBC_Audio*%
X118182843Y-109167157D02*
X116132843Y-109167157D01*
X110750000Y-118500000D02*
X110750000Y-112000000D01*
X128740000Y-125600000D02*
X112113654Y-125600000D01*
X110750000Y-112000000D02*
X111250000Y-111500000D01*
X115715686Y-108750000D02*
X113750000Y-108750000D01*
X130130000Y-124210000D02*
X128740000Y-125600000D01*
X116132843Y-109167157D02*
X115715686Y-108750000D01*
X113750000Y-108750000D02*
X111250000Y-111250000D01*
X118300000Y-109050000D02*
X118182843Y-109167157D01*
X118300000Y-108100000D02*
X118300000Y-109050000D01*
X110750000Y-124236346D02*
X110750000Y-118500000D01*
X112113654Y-125600000D02*
X110750000Y-124236346D01*
X111250000Y-111250000D02*
X111250000Y-111500000D01*
%TO.N,Net-(JP1-B)*%
X113500000Y-112500000D02*
X113500000Y-111250000D01*
X114251471Y-109150000D02*
X113300000Y-110101471D01*
X113500000Y-111250000D02*
X113300000Y-111050000D01*
X115550000Y-109150000D02*
X114251471Y-109150000D01*
X117000000Y-110600000D02*
X115550000Y-109150000D01*
X113300000Y-110101471D02*
X113300000Y-111050000D01*
%TO.N,Net-(JP1-A)*%
X115000000Y-117400000D02*
X115087500Y-117312500D01*
X115000000Y-117250000D02*
X115000000Y-117400000D01*
X117837499Y-117312500D02*
X118149999Y-117000000D01*
X113500000Y-115750000D02*
X115000000Y-117250000D01*
X113500000Y-114400000D02*
X113500000Y-115750000D01*
X119500000Y-116850000D02*
X119500000Y-111800000D01*
X115087500Y-117312500D02*
X117837499Y-117312500D01*
X119500000Y-111800000D02*
X118300000Y-110600000D01*
%TD*%
%TA.AperFunction,Conductor*%
%TO.N,GND*%
G36*
X161962791Y-100500501D02*
G01*
X162024933Y-100500500D01*
X162032419Y-100500725D01*
X162322483Y-100518269D01*
X162337341Y-100520073D01*
X162619489Y-100571778D01*
X162633999Y-100575353D01*
X162907865Y-100660691D01*
X162921862Y-100666000D01*
X163183426Y-100783719D01*
X163196685Y-100790678D01*
X163442150Y-100939066D01*
X163454473Y-100947572D01*
X163680262Y-101124464D01*
X163691470Y-101134393D01*
X163894295Y-101337216D01*
X163904220Y-101348419D01*
X164024180Y-101501536D01*
X164081119Y-101574212D01*
X164089623Y-101586532D01*
X164238013Y-101831999D01*
X164238016Y-101832003D01*
X164244973Y-101845259D01*
X164276148Y-101914526D01*
X164362694Y-102106822D01*
X164367999Y-102120810D01*
X164411416Y-102260138D01*
X164453335Y-102394661D01*
X164456918Y-102409199D01*
X164508623Y-102691338D01*
X164510428Y-102706203D01*
X164527954Y-102995932D01*
X164528180Y-103003419D01*
X164528180Y-126996249D01*
X164527954Y-127003736D01*
X164510408Y-127293793D01*
X164508603Y-127308658D01*
X164456900Y-127590792D01*
X164453316Y-127605331D01*
X164367983Y-127879173D01*
X164362677Y-127893166D01*
X164244955Y-128154732D01*
X164238000Y-128167984D01*
X164089608Y-128413453D01*
X164081102Y-128425776D01*
X163904210Y-128651561D01*
X163894280Y-128662770D01*
X163691457Y-128865591D01*
X163680249Y-128875520D01*
X163454459Y-129052414D01*
X163442135Y-129060920D01*
X163196679Y-129209301D01*
X163183421Y-129216260D01*
X162921857Y-129333979D01*
X162907856Y-129339289D01*
X162634008Y-129424622D01*
X162619469Y-129428205D01*
X162337343Y-129479905D01*
X162322478Y-129481710D01*
X162032087Y-129499273D01*
X162024601Y-129499499D01*
X161955197Y-129499499D01*
X161955181Y-129499500D01*
X103032435Y-129499500D01*
X103024947Y-129499274D01*
X103024930Y-129499273D01*
X103021345Y-129499056D01*
X102734888Y-129481726D01*
X102720024Y-129479921D01*
X102437891Y-129428217D01*
X102423352Y-129424633D01*
X102149513Y-129339300D01*
X102135512Y-129333990D01*
X101873953Y-129216270D01*
X101860694Y-129209311D01*
X101860677Y-129209301D01*
X101737964Y-129135117D01*
X101615234Y-129060923D01*
X101602912Y-129052418D01*
X101377124Y-128875524D01*
X101365916Y-128865594D01*
X101163094Y-128662771D01*
X101153172Y-128651572D01*
X101033214Y-128498456D01*
X100976274Y-128425777D01*
X100967768Y-128413454D01*
X100819381Y-128167991D01*
X100812422Y-128154732D01*
X100787789Y-128099999D01*
X100694701Y-127893163D01*
X100689393Y-127879165D01*
X100604062Y-127605329D01*
X100600478Y-127590790D01*
X100594640Y-127558935D01*
X100548775Y-127308657D01*
X100546971Y-127293794D01*
X100542124Y-127213663D01*
X100529405Y-127003399D01*
X100529180Y-126995925D01*
X100529180Y-126372070D01*
X101903180Y-126372070D01*
X101903180Y-126627930D01*
X101908403Y-126660904D01*
X101943206Y-126880640D01*
X102022268Y-127123972D01*
X102022269Y-127123975D01*
X102086483Y-127250000D01*
X102108797Y-127293794D01*
X102138430Y-127351950D01*
X102288812Y-127558935D01*
X102288816Y-127558940D01*
X102469739Y-127739863D01*
X102469744Y-127739867D01*
X102577761Y-127818345D01*
X102676733Y-127890252D01*
X102825760Y-127966185D01*
X102904704Y-128006410D01*
X102904707Y-128006411D01*
X102990721Y-128034358D01*
X103148041Y-128085474D01*
X103400750Y-128125500D01*
X103400751Y-128125500D01*
X103656609Y-128125500D01*
X103656610Y-128125500D01*
X103909319Y-128085474D01*
X104152655Y-128006410D01*
X104380627Y-127890252D01*
X104587622Y-127739862D01*
X104768542Y-127558942D01*
X104918932Y-127351947D01*
X105035090Y-127123975D01*
X105114154Y-126880639D01*
X105154180Y-126627930D01*
X105154180Y-126372070D01*
X105114154Y-126119361D01*
X105065206Y-125968713D01*
X105035091Y-125876027D01*
X105035090Y-125876024D01*
X104960032Y-125728716D01*
X104918932Y-125648053D01*
X104878051Y-125591785D01*
X104768547Y-125441064D01*
X104768543Y-125441059D01*
X104587620Y-125260136D01*
X104587615Y-125260132D01*
X104380630Y-125109750D01*
X104380629Y-125109749D01*
X104380627Y-125109748D01*
X104307590Y-125072533D01*
X104152655Y-124993589D01*
X104152652Y-124993588D01*
X103909320Y-124914526D01*
X103782964Y-124894513D01*
X103656610Y-124874500D01*
X103400750Y-124874500D01*
X103316589Y-124887830D01*
X103148039Y-124914526D01*
X102904707Y-124993588D01*
X102904704Y-124993589D01*
X102676729Y-125109750D01*
X102469744Y-125260132D01*
X102469739Y-125260136D01*
X102288816Y-125441059D01*
X102288812Y-125441064D01*
X102138430Y-125648049D01*
X102022269Y-125876024D01*
X102022268Y-125876027D01*
X101943206Y-126119359D01*
X101930354Y-126200501D01*
X101903180Y-126372070D01*
X100529180Y-126372070D01*
X100529180Y-120204749D01*
X100548865Y-120137710D01*
X100601669Y-120091955D01*
X100670827Y-120082011D01*
X100699157Y-120091443D01*
X100699601Y-120090254D01*
X100842620Y-120143596D01*
X100842627Y-120143598D01*
X100902155Y-120149999D01*
X100902172Y-120150000D01*
X101600000Y-120150000D01*
X102100000Y-120150000D01*
X102797828Y-120150000D01*
X102797844Y-120149999D01*
X102857372Y-120143598D01*
X102857379Y-120143596D01*
X102992086Y-120093354D01*
X102992093Y-120093350D01*
X103107187Y-120007190D01*
X103107190Y-120007187D01*
X103193350Y-119892093D01*
X103193354Y-119892086D01*
X103243596Y-119757379D01*
X103243598Y-119757372D01*
X103249999Y-119697844D01*
X103250000Y-119697827D01*
X103250000Y-118750000D01*
X102100000Y-118750000D01*
X102100000Y-120150000D01*
X101600000Y-120150000D01*
X101600000Y-118250000D01*
X102100000Y-118250000D01*
X103250000Y-118250000D01*
X103250000Y-117302172D01*
X103249999Y-117302155D01*
X103243598Y-117242627D01*
X103243596Y-117242620D01*
X103193354Y-117107913D01*
X103193350Y-117107906D01*
X103107190Y-116992812D01*
X103107187Y-116992809D01*
X102992093Y-116906649D01*
X102992086Y-116906645D01*
X102857379Y-116856403D01*
X102857372Y-116856401D01*
X102797844Y-116850000D01*
X102100000Y-116850000D01*
X102100000Y-118250000D01*
X101600000Y-118250000D01*
X101600000Y-116850000D01*
X100902155Y-116850000D01*
X100842627Y-116856401D01*
X100842620Y-116856403D01*
X100699601Y-116909746D01*
X100698623Y-116907125D01*
X100644329Y-116918934D01*
X100578865Y-116894514D01*
X100536996Y-116838578D01*
X100529180Y-116795250D01*
X100529180Y-114934009D01*
X101148825Y-114934009D01*
X101148825Y-115065990D01*
X101161118Y-115159358D01*
X101169270Y-115221274D01*
X101203423Y-115348735D01*
X101203428Y-115348751D01*
X101263357Y-115493433D01*
X101263363Y-115493445D01*
X101329345Y-115607729D01*
X101329350Y-115607735D01*
X101329351Y-115607737D01*
X101424694Y-115731991D01*
X101424700Y-115731998D01*
X101518001Y-115825299D01*
X101518008Y-115825305D01*
X101606444Y-115893164D01*
X101642271Y-115920655D01*
X101756555Y-115986637D01*
X101756560Y-115986639D01*
X101756566Y-115986642D01*
X101901248Y-116046571D01*
X101901254Y-116046572D01*
X101901264Y-116046577D01*
X102028726Y-116080730D01*
X102184017Y-116101175D01*
X102184024Y-116101175D01*
X102315976Y-116101175D01*
X102315983Y-116101175D01*
X102471274Y-116080730D01*
X102598736Y-116046577D01*
X102598748Y-116046571D01*
X102598751Y-116046571D01*
X102743433Y-115986642D01*
X102743433Y-115986641D01*
X102743445Y-115986637D01*
X102857729Y-115920655D01*
X102981993Y-115825304D01*
X103075304Y-115731993D01*
X103170655Y-115607729D01*
X103236637Y-115493445D01*
X103279880Y-115389046D01*
X103296571Y-115348751D01*
X103296571Y-115348748D01*
X103296577Y-115348736D01*
X103330730Y-115221274D01*
X103351175Y-115065983D01*
X103351175Y-114934017D01*
X103330730Y-114778726D01*
X103296577Y-114651264D01*
X103296572Y-114651254D01*
X103296571Y-114651248D01*
X103236642Y-114506566D01*
X103236639Y-114506560D01*
X103236637Y-114506555D01*
X103170655Y-114392271D01*
X103113402Y-114317657D01*
X103075305Y-114268008D01*
X103075299Y-114268001D01*
X102981998Y-114174700D01*
X102981991Y-114174694D01*
X102857737Y-114079351D01*
X102857735Y-114079350D01*
X102857729Y-114079345D01*
X102775860Y-114032078D01*
X102743447Y-114013364D01*
X102743433Y-114013357D01*
X102598751Y-113953428D01*
X102598739Y-113953424D01*
X102598736Y-113953423D01*
X102471274Y-113919270D01*
X102441750Y-113915383D01*
X102315990Y-113898825D01*
X102315983Y-113898825D01*
X102184017Y-113898825D01*
X102184009Y-113898825D01*
X102036206Y-113918285D01*
X102028726Y-113919270D01*
X101983889Y-113931284D01*
X101901264Y-113953423D01*
X101901248Y-113953428D01*
X101756566Y-114013357D01*
X101756552Y-114013364D01*
X101642277Y-114079341D01*
X101642262Y-114079351D01*
X101518008Y-114174694D01*
X101518001Y-114174700D01*
X101424700Y-114268001D01*
X101424694Y-114268008D01*
X101329351Y-114392262D01*
X101329341Y-114392277D01*
X101263364Y-114506552D01*
X101263357Y-114506566D01*
X101203428Y-114651248D01*
X101203423Y-114651264D01*
X101169270Y-114778726D01*
X101168870Y-114781762D01*
X101148825Y-114934009D01*
X100529180Y-114934009D01*
X100529180Y-113204749D01*
X100548865Y-113137710D01*
X100601669Y-113091955D01*
X100670827Y-113082011D01*
X100699157Y-113091443D01*
X100699601Y-113090254D01*
X100842620Y-113143596D01*
X100842627Y-113143598D01*
X100902155Y-113149999D01*
X100902172Y-113150000D01*
X101600000Y-113150000D01*
X102100000Y-113150000D01*
X102797828Y-113150000D01*
X102797844Y-113149999D01*
X102857372Y-113143598D01*
X102857379Y-113143596D01*
X102992086Y-113093354D01*
X102992093Y-113093350D01*
X103107187Y-113007190D01*
X103107190Y-113007187D01*
X103193350Y-112892093D01*
X103193354Y-112892086D01*
X103243596Y-112757379D01*
X103243598Y-112757372D01*
X103249999Y-112697844D01*
X103250000Y-112697827D01*
X103250000Y-111750000D01*
X102100000Y-111750000D01*
X102100000Y-113150000D01*
X101600000Y-113150000D01*
X101600000Y-111250000D01*
X102100000Y-111250000D01*
X103250000Y-111250000D01*
X103250000Y-110302172D01*
X103249999Y-110302155D01*
X103243598Y-110242627D01*
X103243596Y-110242620D01*
X103193354Y-110107913D01*
X103193350Y-110107906D01*
X103107190Y-109992812D01*
X103107187Y-109992809D01*
X102992093Y-109906649D01*
X102992086Y-109906645D01*
X102857379Y-109856403D01*
X102857372Y-109856401D01*
X102797844Y-109850000D01*
X102100000Y-109850000D01*
X102100000Y-111250000D01*
X101600000Y-111250000D01*
X101600000Y-109850000D01*
X100902155Y-109850000D01*
X100842627Y-109856401D01*
X100842620Y-109856403D01*
X100699601Y-109909746D01*
X100698623Y-109907125D01*
X100644329Y-109918934D01*
X100578865Y-109894514D01*
X100536996Y-109838578D01*
X100529180Y-109795250D01*
X100529180Y-109477580D01*
X100548865Y-109410541D01*
X100601669Y-109364786D01*
X100670827Y-109354842D01*
X100734383Y-109383867D01*
X100752447Y-109403269D01*
X100792813Y-109457190D01*
X100907906Y-109543350D01*
X100907913Y-109543354D01*
X101042620Y-109593596D01*
X101042627Y-109593598D01*
X101102155Y-109599999D01*
X101102172Y-109600000D01*
X101750000Y-109600000D01*
X101750000Y-108683012D01*
X101807007Y-108715925D01*
X101934174Y-108750000D01*
X102065826Y-108750000D01*
X102192993Y-108715925D01*
X102250000Y-108683012D01*
X102250000Y-109600000D01*
X102897828Y-109600000D01*
X102897844Y-109599999D01*
X102957372Y-109593598D01*
X102957379Y-109593596D01*
X103092086Y-109543354D01*
X103092093Y-109543350D01*
X103207187Y-109457190D01*
X103207190Y-109457187D01*
X103293350Y-109342093D01*
X103293354Y-109342086D01*
X103342422Y-109210529D01*
X103384293Y-109154595D01*
X103449757Y-109130178D01*
X103518030Y-109145030D01*
X103546285Y-109166181D01*
X103668599Y-109288495D01*
X103727916Y-109330029D01*
X103862165Y-109424032D01*
X103862167Y-109424033D01*
X103862170Y-109424035D01*
X104076337Y-109523903D01*
X104304592Y-109585063D01*
X104475319Y-109600000D01*
X104539999Y-109605659D01*
X104540000Y-109605659D01*
X104540001Y-109605659D01*
X104604681Y-109600000D01*
X104775408Y-109585063D01*
X105003663Y-109523903D01*
X105217830Y-109424035D01*
X105349866Y-109331582D01*
X106525001Y-109331582D01*
X106531408Y-109402102D01*
X106531409Y-109402107D01*
X106581981Y-109564396D01*
X106669927Y-109709877D01*
X106790122Y-109830072D01*
X106935604Y-109918019D01*
X106935603Y-109918019D01*
X107097894Y-109968590D01*
X107097893Y-109968590D01*
X107168408Y-109974998D01*
X107168426Y-109974999D01*
X107174999Y-109974998D01*
X107175000Y-109974998D01*
X107175000Y-109250000D01*
X106525001Y-109250000D01*
X106525001Y-109331582D01*
X105349866Y-109331582D01*
X105411401Y-109288495D01*
X105578495Y-109121401D01*
X105714035Y-108927830D01*
X105716707Y-108922097D01*
X105762878Y-108869658D01*
X105829091Y-108850500D01*
X106638331Y-108850500D01*
X106638347Y-108850501D01*
X106645943Y-108850501D01*
X106804054Y-108850501D01*
X106804057Y-108850501D01*
X106956785Y-108809577D01*
X107006900Y-108780640D01*
X107006904Y-108780640D01*
X107006904Y-108780639D01*
X107031200Y-108766611D01*
X107093199Y-108750000D01*
X107301000Y-108750000D01*
X107368039Y-108769685D01*
X107413794Y-108822489D01*
X107425000Y-108874000D01*
X107425000Y-109000000D01*
X107551000Y-109000000D01*
X107618039Y-109019685D01*
X107663794Y-109072489D01*
X107675000Y-109124000D01*
X107675000Y-109974999D01*
X107677418Y-109977417D01*
X107710903Y-110038740D01*
X107705919Y-110108431D01*
X107655908Y-110242517D01*
X107649501Y-110302116D01*
X107649500Y-110302135D01*
X107649500Y-111999901D01*
X107629815Y-112066940D01*
X107613181Y-112087582D01*
X104881286Y-114819478D01*
X104769481Y-114931282D01*
X104769479Y-114931285D01*
X104762882Y-114942712D01*
X104725962Y-115006661D01*
X104720051Y-115016899D01*
X104720049Y-115016901D01*
X104690425Y-115068209D01*
X104690424Y-115068210D01*
X104681772Y-115100499D01*
X104649499Y-115220943D01*
X104649499Y-115220945D01*
X104649499Y-115389046D01*
X104649500Y-115389059D01*
X104649500Y-116725500D01*
X104629815Y-116792539D01*
X104577011Y-116838294D01*
X104525501Y-116849500D01*
X104302130Y-116849500D01*
X104302123Y-116849501D01*
X104242516Y-116855908D01*
X104107671Y-116906202D01*
X104107664Y-116906206D01*
X103992455Y-116992452D01*
X103992452Y-116992455D01*
X103906206Y-117107664D01*
X103906202Y-117107671D01*
X103855908Y-117242517D01*
X103849718Y-117300096D01*
X103849501Y-117302123D01*
X103849500Y-117302135D01*
X103849500Y-119697870D01*
X103849501Y-119697876D01*
X103855908Y-119757483D01*
X103906202Y-119892328D01*
X103906206Y-119892335D01*
X103992452Y-120007544D01*
X103992455Y-120007547D01*
X104107664Y-120093793D01*
X104107671Y-120093797D01*
X104242517Y-120144091D01*
X104242516Y-120144091D01*
X104249444Y-120144835D01*
X104302127Y-120150500D01*
X106197872Y-120150499D01*
X106257483Y-120144091D01*
X106392331Y-120093796D01*
X106507546Y-120007546D01*
X106593796Y-119892331D01*
X106644091Y-119757483D01*
X106650500Y-119697873D01*
X106650499Y-117302128D01*
X106644091Y-117242517D01*
X106642287Y-117237681D01*
X106593797Y-117107671D01*
X106593793Y-117107664D01*
X106507547Y-116992455D01*
X106507544Y-116992452D01*
X106392335Y-116906206D01*
X106392328Y-116906202D01*
X106257482Y-116855908D01*
X106257483Y-116855908D01*
X106197883Y-116849501D01*
X106197881Y-116849500D01*
X106197873Y-116849500D01*
X106197865Y-116849500D01*
X105974500Y-116849500D01*
X105907461Y-116829815D01*
X105861706Y-116777011D01*
X105850500Y-116725500D01*
X105850500Y-115600096D01*
X105870185Y-115533057D01*
X105886814Y-115512420D01*
X108212416Y-113186817D01*
X108273739Y-113153333D01*
X108300097Y-113150499D01*
X109997871Y-113150499D01*
X109997872Y-113150499D01*
X110012242Y-113148954D01*
X110081001Y-113161357D01*
X110132140Y-113208966D01*
X110149500Y-113272243D01*
X110149500Y-114051781D01*
X110129815Y-114118820D01*
X110077011Y-114164575D01*
X110007853Y-114174519D01*
X109950014Y-114150157D01*
X109857737Y-114079351D01*
X109857735Y-114079350D01*
X109857729Y-114079345D01*
X109775860Y-114032078D01*
X109743447Y-114013364D01*
X109743433Y-114013357D01*
X109598751Y-113953428D01*
X109598739Y-113953424D01*
X109598736Y-113953423D01*
X109471274Y-113919270D01*
X109441750Y-113915383D01*
X109315990Y-113898825D01*
X109315983Y-113898825D01*
X109184017Y-113898825D01*
X109184009Y-113898825D01*
X109036206Y-113918285D01*
X109028726Y-113919270D01*
X108983889Y-113931284D01*
X108901264Y-113953423D01*
X108901248Y-113953428D01*
X108756566Y-114013357D01*
X108756552Y-114013364D01*
X108642277Y-114079341D01*
X108642262Y-114079351D01*
X108518008Y-114174694D01*
X108518001Y-114174700D01*
X108424700Y-114268001D01*
X108424694Y-114268008D01*
X108329351Y-114392262D01*
X108329341Y-114392277D01*
X108263364Y-114506552D01*
X108263357Y-114506566D01*
X108203428Y-114651248D01*
X108203423Y-114651264D01*
X108169270Y-114778726D01*
X108168870Y-114781762D01*
X108148825Y-114934009D01*
X108148825Y-115065990D01*
X108161118Y-115159358D01*
X108169270Y-115221274D01*
X108203423Y-115348735D01*
X108203428Y-115348751D01*
X108263357Y-115493433D01*
X108263363Y-115493445D01*
X108329345Y-115607729D01*
X108329350Y-115607735D01*
X108329351Y-115607737D01*
X108424694Y-115731991D01*
X108424700Y-115731998D01*
X108518001Y-115825299D01*
X108518008Y-115825305D01*
X108606444Y-115893164D01*
X108642271Y-115920655D01*
X108756555Y-115986637D01*
X108756560Y-115986639D01*
X108756566Y-115986642D01*
X108901248Y-116046571D01*
X108901254Y-116046572D01*
X108901264Y-116046577D01*
X109028726Y-116080730D01*
X109184017Y-116101175D01*
X109184024Y-116101175D01*
X109315976Y-116101175D01*
X109315983Y-116101175D01*
X109471274Y-116080730D01*
X109598736Y-116046577D01*
X109598748Y-116046571D01*
X109598751Y-116046571D01*
X109743433Y-115986642D01*
X109743433Y-115986641D01*
X109743445Y-115986637D01*
X109857729Y-115920655D01*
X109950015Y-115849840D01*
X110015182Y-115824648D01*
X110083627Y-115838686D01*
X110133617Y-115887500D01*
X110149500Y-115948218D01*
X110149500Y-116725500D01*
X110129815Y-116792539D01*
X110077011Y-116838294D01*
X110025501Y-116849500D01*
X109802130Y-116849500D01*
X109802123Y-116849501D01*
X109742516Y-116855908D01*
X109607671Y-116906202D01*
X109607664Y-116906206D01*
X109492455Y-116992452D01*
X109492452Y-116992455D01*
X109406206Y-117107664D01*
X109406202Y-117107671D01*
X109355908Y-117242517D01*
X109349718Y-117300096D01*
X109349501Y-117302123D01*
X109349500Y-117302135D01*
X109349500Y-119697870D01*
X109349501Y-119697876D01*
X109355908Y-119757483D01*
X109406202Y-119892328D01*
X109406206Y-119892335D01*
X109492452Y-120007544D01*
X109492455Y-120007547D01*
X109607664Y-120093793D01*
X109607671Y-120093797D01*
X109644529Y-120107544D01*
X109742517Y-120144091D01*
X109802127Y-120150500D01*
X110025500Y-120150499D01*
X110092539Y-120170183D01*
X110138294Y-120222987D01*
X110149500Y-120274499D01*
X110149500Y-124149676D01*
X110149499Y-124149694D01*
X110149499Y-124315400D01*
X110149498Y-124315400D01*
X110149499Y-124315403D01*
X110190423Y-124468131D01*
X110190424Y-124468132D01*
X110203337Y-124490500D01*
X110203338Y-124490501D01*
X110269475Y-124605055D01*
X110269481Y-124605063D01*
X110388349Y-124723931D01*
X110388355Y-124723936D01*
X111164198Y-125499779D01*
X111197683Y-125561102D01*
X111192699Y-125630794D01*
X111164198Y-125675141D01*
X111157684Y-125681654D01*
X111065643Y-125830875D01*
X111065641Y-125830880D01*
X111010494Y-125997302D01*
X111010493Y-125997309D01*
X111000000Y-126100013D01*
X111000000Y-126500000D01*
X111916988Y-126500000D01*
X111884075Y-126557007D01*
X111850000Y-126684174D01*
X111850000Y-126815826D01*
X111884075Y-126942993D01*
X111916988Y-127000000D01*
X111000001Y-127000000D01*
X111000001Y-127399986D01*
X111010494Y-127502697D01*
X111065641Y-127669119D01*
X111065643Y-127669124D01*
X111157684Y-127818345D01*
X111281654Y-127942315D01*
X111430875Y-128034356D01*
X111430880Y-128034358D01*
X111597302Y-128089505D01*
X111597309Y-128089506D01*
X111700019Y-128099999D01*
X112099999Y-128099999D01*
X112100000Y-128099998D01*
X112100000Y-127183012D01*
X112157007Y-127215925D01*
X112284174Y-127250000D01*
X112415826Y-127250000D01*
X112542993Y-127215925D01*
X112600000Y-127183012D01*
X112600000Y-128099999D01*
X112999972Y-128099999D01*
X112999986Y-128099998D01*
X113102697Y-128089505D01*
X113269119Y-128034358D01*
X113269124Y-128034356D01*
X113418345Y-127942315D01*
X113542315Y-127818345D01*
X113634356Y-127669124D01*
X113634358Y-127669119D01*
X113658282Y-127596922D01*
X113698054Y-127539477D01*
X113762570Y-127512654D01*
X113773911Y-127512534D01*
X114407037Y-126879408D01*
X114424075Y-126942993D01*
X114489901Y-127057007D01*
X114582993Y-127150099D01*
X114697007Y-127215925D01*
X114760591Y-127232962D01*
X114128626Y-127864926D01*
X114212417Y-127923598D01*
X114212421Y-127923600D01*
X114426507Y-128023429D01*
X114426516Y-128023433D01*
X114654673Y-128084567D01*
X114654684Y-128084569D01*
X114889998Y-128105157D01*
X114890002Y-128105157D01*
X115125315Y-128084569D01*
X115125326Y-128084567D01*
X115353483Y-128023433D01*
X115353492Y-128023429D01*
X115567580Y-127923599D01*
X115651371Y-127864925D01*
X115019408Y-127232962D01*
X115082993Y-127215925D01*
X115197007Y-127150099D01*
X115290099Y-127057007D01*
X115355925Y-126942993D01*
X115372962Y-126879408D01*
X116004925Y-127511371D01*
X116058426Y-127434968D01*
X116113004Y-127391344D01*
X116182502Y-127384152D01*
X116244856Y-127415675D01*
X116261575Y-127434969D01*
X116315073Y-127511372D01*
X116947037Y-126879408D01*
X116964075Y-126942993D01*
X117029901Y-127057007D01*
X117122993Y-127150099D01*
X117237007Y-127215925D01*
X117300591Y-127232962D01*
X116668626Y-127864926D01*
X116752417Y-127923598D01*
X116752421Y-127923600D01*
X116966507Y-128023429D01*
X116966516Y-128023433D01*
X117194673Y-128084567D01*
X117194684Y-128084569D01*
X117429998Y-128105157D01*
X117430002Y-128105157D01*
X117665315Y-128084569D01*
X117665326Y-128084567D01*
X117893483Y-128023433D01*
X117893492Y-128023429D01*
X118107580Y-127923599D01*
X118191371Y-127864925D01*
X117559408Y-127232962D01*
X117622993Y-127215925D01*
X117737007Y-127150099D01*
X117830099Y-127057007D01*
X117895925Y-126942993D01*
X117912962Y-126879408D01*
X118544925Y-127511371D01*
X118598426Y-127434968D01*
X118653004Y-127391344D01*
X118722502Y-127384152D01*
X118784856Y-127415675D01*
X118801575Y-127434969D01*
X118855073Y-127511372D01*
X119487037Y-126879408D01*
X119504075Y-126942993D01*
X119569901Y-127057007D01*
X119662993Y-127150099D01*
X119777007Y-127215925D01*
X119840591Y-127232962D01*
X119208626Y-127864926D01*
X119292417Y-127923598D01*
X119292421Y-127923600D01*
X119506507Y-128023429D01*
X119506516Y-128023433D01*
X119734673Y-128084567D01*
X119734684Y-128084569D01*
X119969998Y-128105157D01*
X119970002Y-128105157D01*
X120205315Y-128084569D01*
X120205326Y-128084567D01*
X120433483Y-128023433D01*
X120433492Y-128023429D01*
X120647580Y-127923599D01*
X120731371Y-127864925D01*
X120099408Y-127232962D01*
X120162993Y-127215925D01*
X120277007Y-127150099D01*
X120370099Y-127057007D01*
X120435925Y-126942993D01*
X120452962Y-126879408D01*
X121084925Y-127511371D01*
X121138426Y-127434968D01*
X121193004Y-127391344D01*
X121262502Y-127384152D01*
X121324856Y-127415675D01*
X121341575Y-127434969D01*
X121395073Y-127511372D01*
X122027037Y-126879408D01*
X122044075Y-126942993D01*
X122109901Y-127057007D01*
X122202993Y-127150099D01*
X122317007Y-127215925D01*
X122380591Y-127232962D01*
X121748626Y-127864926D01*
X121832417Y-127923598D01*
X121832421Y-127923600D01*
X122046507Y-128023429D01*
X122046516Y-128023433D01*
X122274673Y-128084567D01*
X122274684Y-128084569D01*
X122509998Y-128105157D01*
X122510002Y-128105157D01*
X122745315Y-128084569D01*
X122745326Y-128084567D01*
X122973483Y-128023433D01*
X122973492Y-128023429D01*
X123187580Y-127923599D01*
X123271371Y-127864925D01*
X122639408Y-127232962D01*
X122702993Y-127215925D01*
X122817007Y-127150099D01*
X122910099Y-127057007D01*
X122975925Y-126942993D01*
X122992962Y-126879408D01*
X123624925Y-127511371D01*
X123678426Y-127434968D01*
X123733004Y-127391344D01*
X123802502Y-127384152D01*
X123864856Y-127415675D01*
X123881575Y-127434969D01*
X123935073Y-127511372D01*
X124567037Y-126879408D01*
X124584075Y-126942993D01*
X124649901Y-127057007D01*
X124742993Y-127150099D01*
X124857007Y-127215925D01*
X124920591Y-127232962D01*
X124288626Y-127864926D01*
X124372417Y-127923598D01*
X124372421Y-127923600D01*
X124586507Y-128023429D01*
X124586516Y-128023433D01*
X124814673Y-128084567D01*
X124814684Y-128084569D01*
X125049998Y-128105157D01*
X125050002Y-128105157D01*
X125285315Y-128084569D01*
X125285326Y-128084567D01*
X125513483Y-128023433D01*
X125513492Y-128023429D01*
X125727580Y-127923599D01*
X125811371Y-127864925D01*
X125179408Y-127232962D01*
X125242993Y-127215925D01*
X125357007Y-127150099D01*
X125450099Y-127057007D01*
X125515925Y-126942993D01*
X125532962Y-126879408D01*
X126164925Y-127511371D01*
X126218426Y-127434968D01*
X126273004Y-127391344D01*
X126342502Y-127384152D01*
X126404856Y-127415675D01*
X126421575Y-127434969D01*
X126475073Y-127511372D01*
X127107037Y-126879408D01*
X127124075Y-126942993D01*
X127189901Y-127057007D01*
X127282993Y-127150099D01*
X127397007Y-127215925D01*
X127460591Y-127232962D01*
X126828626Y-127864926D01*
X126912417Y-127923598D01*
X126912421Y-127923600D01*
X127126507Y-128023429D01*
X127126516Y-128023433D01*
X127354673Y-128084567D01*
X127354684Y-128084569D01*
X127589998Y-128105157D01*
X127590002Y-128105157D01*
X127825315Y-128084569D01*
X127825326Y-128084567D01*
X128053483Y-128023433D01*
X128053492Y-128023429D01*
X128267580Y-127923599D01*
X128351371Y-127864925D01*
X127719408Y-127232962D01*
X127782993Y-127215925D01*
X127897007Y-127150099D01*
X127990099Y-127057007D01*
X128055925Y-126942993D01*
X128072962Y-126879408D01*
X128704925Y-127511371D01*
X128758426Y-127434968D01*
X128813004Y-127391344D01*
X128882502Y-127384152D01*
X128944856Y-127415675D01*
X128961575Y-127434969D01*
X129015073Y-127511372D01*
X129647037Y-126879407D01*
X129664075Y-126942993D01*
X129729901Y-127057007D01*
X129822993Y-127150099D01*
X129937007Y-127215925D01*
X130000591Y-127232962D01*
X129368626Y-127864926D01*
X129452417Y-127923598D01*
X129452421Y-127923600D01*
X129666507Y-128023429D01*
X129666516Y-128023433D01*
X129894673Y-128084567D01*
X129894684Y-128084569D01*
X130129998Y-128105157D01*
X130130002Y-128105157D01*
X130365315Y-128084569D01*
X130365326Y-128084567D01*
X130593483Y-128023433D01*
X130593492Y-128023429D01*
X130807580Y-127923599D01*
X130891371Y-127864925D01*
X130259408Y-127232962D01*
X130322993Y-127215925D01*
X130437007Y-127150099D01*
X130530099Y-127057007D01*
X130595925Y-126942993D01*
X130612962Y-126879408D01*
X131244925Y-127511371D01*
X131298426Y-127434968D01*
X131353004Y-127391344D01*
X131422502Y-127384152D01*
X131484856Y-127415675D01*
X131501575Y-127434969D01*
X131555073Y-127511372D01*
X132187037Y-126879408D01*
X132204075Y-126942993D01*
X132269901Y-127057007D01*
X132362993Y-127150099D01*
X132477007Y-127215925D01*
X132540591Y-127232962D01*
X131908626Y-127864926D01*
X131992417Y-127923598D01*
X131992421Y-127923600D01*
X132206507Y-128023429D01*
X132206516Y-128023433D01*
X132434673Y-128084567D01*
X132434684Y-128084569D01*
X132669998Y-128105157D01*
X132670002Y-128105157D01*
X132905315Y-128084569D01*
X132905326Y-128084567D01*
X133133483Y-128023433D01*
X133133492Y-128023429D01*
X133347580Y-127923599D01*
X133431371Y-127864925D01*
X132799408Y-127232962D01*
X132862993Y-127215925D01*
X132977007Y-127150099D01*
X133070099Y-127057007D01*
X133135925Y-126942993D01*
X133152962Y-126879408D01*
X133784925Y-127511371D01*
X133838120Y-127435404D01*
X133892697Y-127391780D01*
X133962196Y-127384588D01*
X134024550Y-127416111D01*
X134041268Y-127435404D01*
X134171505Y-127621401D01*
X134338599Y-127788495D01*
X134428685Y-127851574D01*
X134532165Y-127924032D01*
X134532167Y-127924033D01*
X134532170Y-127924035D01*
X134746337Y-128023903D01*
X134746343Y-128023904D01*
X134746344Y-128023905D01*
X134785356Y-128034358D01*
X134974592Y-128085063D01*
X135162918Y-128101539D01*
X135209999Y-128105659D01*
X135210000Y-128105659D01*
X135210001Y-128105659D01*
X135249234Y-128102226D01*
X135445408Y-128085063D01*
X135673663Y-128023903D01*
X135887830Y-127924035D01*
X136081401Y-127788495D01*
X136248495Y-127621401D01*
X136378425Y-127435842D01*
X136433002Y-127392217D01*
X136502500Y-127385023D01*
X136564855Y-127416546D01*
X136581575Y-127435842D01*
X136711500Y-127621395D01*
X136711505Y-127621401D01*
X136878599Y-127788495D01*
X136968685Y-127851574D01*
X137072165Y-127924032D01*
X137072167Y-127924033D01*
X137072170Y-127924035D01*
X137286337Y-128023903D01*
X137286343Y-128023904D01*
X137286344Y-128023905D01*
X137325356Y-128034358D01*
X137514592Y-128085063D01*
X137702918Y-128101539D01*
X137749999Y-128105659D01*
X137750000Y-128105659D01*
X137750001Y-128105659D01*
X137789234Y-128102226D01*
X137985408Y-128085063D01*
X138213663Y-128023903D01*
X138427830Y-127924035D01*
X138621401Y-127788495D01*
X138788495Y-127621401D01*
X138918425Y-127435842D01*
X138973002Y-127392217D01*
X139042500Y-127385023D01*
X139104855Y-127416546D01*
X139121575Y-127435842D01*
X139251500Y-127621395D01*
X139251505Y-127621401D01*
X139418599Y-127788495D01*
X139508685Y-127851574D01*
X139612165Y-127924032D01*
X139612167Y-127924033D01*
X139612170Y-127924035D01*
X139826337Y-128023903D01*
X139826343Y-128023904D01*
X139826344Y-128023905D01*
X139865356Y-128034358D01*
X140054592Y-128085063D01*
X140242918Y-128101539D01*
X140289999Y-128105659D01*
X140290000Y-128105659D01*
X140290001Y-128105659D01*
X140329234Y-128102226D01*
X140525408Y-128085063D01*
X140753663Y-128023903D01*
X140967830Y-127924035D01*
X141161401Y-127788495D01*
X141328495Y-127621401D01*
X141458425Y-127435842D01*
X141513002Y-127392217D01*
X141582500Y-127385023D01*
X141644855Y-127416546D01*
X141661575Y-127435842D01*
X141791500Y-127621395D01*
X141791505Y-127621401D01*
X141958599Y-127788495D01*
X142048685Y-127851574D01*
X142152165Y-127924032D01*
X142152167Y-127924033D01*
X142152170Y-127924035D01*
X142366337Y-128023903D01*
X142366343Y-128023904D01*
X142366344Y-128023905D01*
X142405356Y-128034358D01*
X142594592Y-128085063D01*
X142782918Y-128101539D01*
X142829999Y-128105659D01*
X142830000Y-128105659D01*
X142830001Y-128105659D01*
X142869234Y-128102226D01*
X143065408Y-128085063D01*
X143293663Y-128023903D01*
X143507830Y-127924035D01*
X143701401Y-127788495D01*
X143868495Y-127621401D01*
X143998425Y-127435842D01*
X144053002Y-127392217D01*
X144122500Y-127385023D01*
X144184855Y-127416546D01*
X144201575Y-127435842D01*
X144331500Y-127621395D01*
X144331505Y-127621401D01*
X144498599Y-127788495D01*
X144588685Y-127851574D01*
X144692165Y-127924032D01*
X144692167Y-127924033D01*
X144692170Y-127924035D01*
X144906337Y-128023903D01*
X144906343Y-128023904D01*
X144906344Y-128023905D01*
X144945356Y-128034358D01*
X145134592Y-128085063D01*
X145322918Y-128101539D01*
X145369999Y-128105659D01*
X145370000Y-128105659D01*
X145370001Y-128105659D01*
X145409234Y-128102226D01*
X145605408Y-128085063D01*
X145833663Y-128023903D01*
X146047830Y-127924035D01*
X146241401Y-127788495D01*
X146408495Y-127621401D01*
X146538425Y-127435842D01*
X146593002Y-127392217D01*
X146662500Y-127385023D01*
X146724855Y-127416546D01*
X146741575Y-127435842D01*
X146871500Y-127621395D01*
X146871505Y-127621401D01*
X147038599Y-127788495D01*
X147128685Y-127851574D01*
X147232165Y-127924032D01*
X147232167Y-127924033D01*
X147232170Y-127924035D01*
X147446337Y-128023903D01*
X147446343Y-128023904D01*
X147446344Y-128023905D01*
X147485356Y-128034358D01*
X147674592Y-128085063D01*
X147862918Y-128101539D01*
X147909999Y-128105659D01*
X147910000Y-128105659D01*
X147910001Y-128105659D01*
X147949234Y-128102226D01*
X148145408Y-128085063D01*
X148373663Y-128023903D01*
X148587830Y-127924035D01*
X148781401Y-127788495D01*
X148948495Y-127621401D01*
X149078425Y-127435842D01*
X149133002Y-127392217D01*
X149202500Y-127385023D01*
X149264855Y-127416546D01*
X149281575Y-127435842D01*
X149411500Y-127621395D01*
X149411505Y-127621401D01*
X149578599Y-127788495D01*
X149668685Y-127851574D01*
X149772165Y-127924032D01*
X149772167Y-127924033D01*
X149772170Y-127924035D01*
X149986337Y-128023903D01*
X149986343Y-128023904D01*
X149986344Y-128023905D01*
X150025356Y-128034358D01*
X150214592Y-128085063D01*
X150402918Y-128101539D01*
X150449999Y-128105659D01*
X150450000Y-128105659D01*
X150450001Y-128105659D01*
X150489234Y-128102226D01*
X150685408Y-128085063D01*
X150913663Y-128023903D01*
X151127830Y-127924035D01*
X151321401Y-127788495D01*
X151488495Y-127621401D01*
X151618425Y-127435842D01*
X151673002Y-127392217D01*
X151742500Y-127385023D01*
X151804855Y-127416546D01*
X151821575Y-127435842D01*
X151951500Y-127621395D01*
X151951505Y-127621401D01*
X152118599Y-127788495D01*
X152208685Y-127851574D01*
X152312165Y-127924032D01*
X152312167Y-127924033D01*
X152312170Y-127924035D01*
X152526337Y-128023903D01*
X152526343Y-128023904D01*
X152526344Y-128023905D01*
X152565356Y-128034358D01*
X152754592Y-128085063D01*
X152942918Y-128101539D01*
X152989999Y-128105659D01*
X152990000Y-128105659D01*
X152990001Y-128105659D01*
X153029234Y-128102226D01*
X153225408Y-128085063D01*
X153453663Y-128023903D01*
X153667830Y-127924035D01*
X153861401Y-127788495D01*
X154028495Y-127621401D01*
X154164035Y-127427830D01*
X154263903Y-127213663D01*
X154325063Y-126985408D01*
X154345659Y-126750000D01*
X154325063Y-126514592D01*
X154286875Y-126372070D01*
X159903180Y-126372070D01*
X159903180Y-126627930D01*
X159908403Y-126660904D01*
X159943206Y-126880640D01*
X160022268Y-127123972D01*
X160022269Y-127123975D01*
X160086483Y-127250000D01*
X160108797Y-127293794D01*
X160138430Y-127351950D01*
X160288812Y-127558935D01*
X160288816Y-127558940D01*
X160469739Y-127739863D01*
X160469744Y-127739867D01*
X160577761Y-127818345D01*
X160676733Y-127890252D01*
X160825760Y-127966185D01*
X160904704Y-128006410D01*
X160904707Y-128006411D01*
X160990721Y-128034358D01*
X161148041Y-128085474D01*
X161400750Y-128125500D01*
X161400751Y-128125500D01*
X161656609Y-128125500D01*
X161656610Y-128125500D01*
X161909319Y-128085474D01*
X162152655Y-128006410D01*
X162380627Y-127890252D01*
X162587622Y-127739862D01*
X162768542Y-127558942D01*
X162918932Y-127351947D01*
X163035090Y-127123975D01*
X163114154Y-126880639D01*
X163154180Y-126627930D01*
X163154180Y-126372070D01*
X163114154Y-126119361D01*
X163065206Y-125968713D01*
X163035091Y-125876027D01*
X163035090Y-125876024D01*
X162960032Y-125728716D01*
X162918932Y-125648053D01*
X162878051Y-125591785D01*
X162768547Y-125441064D01*
X162768543Y-125441059D01*
X162587620Y-125260136D01*
X162587615Y-125260132D01*
X162380630Y-125109750D01*
X162380629Y-125109749D01*
X162380627Y-125109748D01*
X162307590Y-125072533D01*
X162152655Y-124993589D01*
X162152652Y-124993588D01*
X161909320Y-124914526D01*
X161782964Y-124894513D01*
X161656610Y-124874500D01*
X161400750Y-124874500D01*
X161316589Y-124887830D01*
X161148039Y-124914526D01*
X160904707Y-124993588D01*
X160904704Y-124993589D01*
X160676729Y-125109750D01*
X160469744Y-125260132D01*
X160469739Y-125260136D01*
X160288816Y-125441059D01*
X160288812Y-125441064D01*
X160138430Y-125648049D01*
X160022269Y-125876024D01*
X160022268Y-125876027D01*
X159943206Y-126119359D01*
X159930354Y-126200501D01*
X159903180Y-126372070D01*
X154286875Y-126372070D01*
X154263903Y-126286337D01*
X154164035Y-126072171D01*
X154159037Y-126065032D01*
X154028494Y-125878597D01*
X153861402Y-125711506D01*
X153861396Y-125711501D01*
X153675842Y-125581575D01*
X153632217Y-125526998D01*
X153625023Y-125457500D01*
X153656546Y-125395145D01*
X153675842Y-125378425D01*
X153815066Y-125280939D01*
X153861401Y-125248495D01*
X154028495Y-125081401D01*
X154164035Y-124887830D01*
X154263903Y-124673663D01*
X154325063Y-124445408D01*
X154345659Y-124210000D01*
X154325063Y-123974592D01*
X154263903Y-123746337D01*
X154164035Y-123532171D01*
X154158425Y-123524158D01*
X154028494Y-123338597D01*
X153861402Y-123171506D01*
X153861395Y-123171501D01*
X153667834Y-123035967D01*
X153667830Y-123035965D01*
X153640024Y-123022999D01*
X153453663Y-122936097D01*
X153453659Y-122936096D01*
X153453655Y-122936094D01*
X153225413Y-122874938D01*
X153225403Y-122874936D01*
X152990001Y-122854341D01*
X152989999Y-122854341D01*
X152754596Y-122874936D01*
X152754583Y-122874939D01*
X152626241Y-122909327D01*
X152556392Y-122907664D01*
X152506468Y-122877233D01*
X152252590Y-122623355D01*
X152252588Y-122623352D01*
X152133718Y-122504482D01*
X152133716Y-122504480D01*
X152076865Y-122471657D01*
X152051189Y-122451954D01*
X148986818Y-119387583D01*
X148953333Y-119326260D01*
X148950499Y-119299902D01*
X148950499Y-119202129D01*
X148950498Y-119202123D01*
X148950330Y-119200555D01*
X148944091Y-119142517D01*
X148944090Y-119142515D01*
X148944090Y-119142512D01*
X148942308Y-119134969D01*
X148943659Y-119134649D01*
X148939267Y-119073263D01*
X148972749Y-119011938D01*
X148998435Y-118992228D01*
X149018716Y-118980520D01*
X149130520Y-118868716D01*
X149130520Y-118868714D01*
X149140724Y-118858511D01*
X149140728Y-118858506D01*
X149818713Y-118180521D01*
X149818716Y-118180520D01*
X149930520Y-118068716D01*
X149948541Y-118037500D01*
X149999107Y-117989284D01*
X150055929Y-117975499D01*
X150239363Y-117975499D01*
X150356753Y-117960046D01*
X150356757Y-117960044D01*
X150356762Y-117960044D01*
X150502841Y-117899536D01*
X150628282Y-117803282D01*
X150724536Y-117677841D01*
X150785044Y-117531762D01*
X150800500Y-117414361D01*
X150800499Y-116885640D01*
X150800499Y-116885636D01*
X150785046Y-116768246D01*
X150785044Y-116768241D01*
X150785044Y-116768238D01*
X150724536Y-116622159D01*
X150628282Y-116496718D01*
X150502841Y-116400464D01*
X150502836Y-116400462D01*
X150356762Y-116339956D01*
X150356760Y-116339955D01*
X150239361Y-116324500D01*
X149960644Y-116324500D01*
X149878194Y-116335354D01*
X149809159Y-116324586D01*
X149774330Y-116300095D01*
X149745736Y-116271501D01*
X149712251Y-116210178D01*
X149717235Y-116140486D01*
X149759107Y-116084553D01*
X149824571Y-116060136D01*
X149849593Y-116060880D01*
X149960639Y-116075500D01*
X150239360Y-116075499D01*
X150239363Y-116075499D01*
X150356753Y-116060046D01*
X150356757Y-116060044D01*
X150356762Y-116060044D01*
X150502841Y-115999536D01*
X150628282Y-115903282D01*
X150724536Y-115777841D01*
X150785044Y-115631762D01*
X150800500Y-115514361D01*
X150800499Y-114985640D01*
X150800499Y-114985638D01*
X150800499Y-114985636D01*
X150785046Y-114868246D01*
X150785044Y-114868239D01*
X150785044Y-114868238D01*
X150724536Y-114722159D01*
X150724535Y-114722158D01*
X150724535Y-114722157D01*
X150639877Y-114611829D01*
X150614683Y-114546660D01*
X150628721Y-114478215D01*
X150650568Y-114448666D01*
X151380520Y-113718716D01*
X151459577Y-113581784D01*
X151500501Y-113429057D01*
X151500501Y-113372243D01*
X151520186Y-113305204D01*
X151572990Y-113259449D01*
X151637756Y-113248954D01*
X151652127Y-113250500D01*
X152100903Y-113250499D01*
X152167941Y-113270183D01*
X152213696Y-113322987D01*
X152223640Y-113392146D01*
X152194615Y-113455702D01*
X152188583Y-113462180D01*
X151831286Y-113819478D01*
X151719481Y-113931282D01*
X151719479Y-113931285D01*
X151692322Y-113978324D01*
X151692321Y-113978325D01*
X151640424Y-114068211D01*
X151640423Y-114068212D01*
X151618707Y-114149259D01*
X151599499Y-114220943D01*
X151599499Y-114220945D01*
X151599499Y-114389046D01*
X151599500Y-114389059D01*
X151599500Y-116563330D01*
X151599499Y-116563348D01*
X151599499Y-116729054D01*
X151599498Y-116729054D01*
X151599499Y-116729057D01*
X151640423Y-116881785D01*
X151640424Y-116881787D01*
X151640423Y-116881787D01*
X151656938Y-116910390D01*
X151656940Y-116910392D01*
X151656941Y-116910394D01*
X151694968Y-116976260D01*
X151719479Y-117018715D01*
X151963181Y-117262417D01*
X151996666Y-117323740D01*
X151999500Y-117350096D01*
X151999500Y-117414362D01*
X152014953Y-117531753D01*
X152014956Y-117531762D01*
X152071434Y-117668113D01*
X152075464Y-117677841D01*
X152171718Y-117803282D01*
X152297159Y-117899536D01*
X152443238Y-117960044D01*
X152560639Y-117975500D01*
X152839360Y-117975499D01*
X152839361Y-117975499D01*
X152851594Y-117973888D01*
X152956762Y-117960044D01*
X152977545Y-117951434D01*
X153047014Y-117943965D01*
X153072453Y-117951434D01*
X153093238Y-117960044D01*
X153210639Y-117975500D01*
X153489360Y-117975499D01*
X153489361Y-117975499D01*
X153501594Y-117973888D01*
X153606762Y-117960044D01*
X153627545Y-117951434D01*
X153697014Y-117943965D01*
X153722453Y-117951434D01*
X153743238Y-117960044D01*
X153860639Y-117975500D01*
X154139360Y-117975499D01*
X154139363Y-117975499D01*
X154256753Y-117960046D01*
X154256757Y-117960044D01*
X154256762Y-117960044D01*
X154402841Y-117899536D01*
X154528282Y-117803282D01*
X154624536Y-117677841D01*
X154685044Y-117531762D01*
X154700500Y-117414361D01*
X154700499Y-116885640D01*
X154700499Y-116885636D01*
X154685046Y-116768246D01*
X154685044Y-116768241D01*
X154685044Y-116768238D01*
X154624536Y-116622159D01*
X154528282Y-116496718D01*
X154528280Y-116496717D01*
X154528280Y-116496716D01*
X154440367Y-116429259D01*
X154402841Y-116400464D01*
X154402837Y-116400462D01*
X154402838Y-116400462D01*
X154323736Y-116367697D01*
X154283508Y-116340817D01*
X154207873Y-116265182D01*
X154174388Y-116203859D01*
X154179372Y-116134167D01*
X154221244Y-116078234D01*
X154249821Y-116064356D01*
X154249122Y-116062667D01*
X154402585Y-115999100D01*
X154527924Y-115902924D01*
X154624100Y-115777586D01*
X154684554Y-115631634D01*
X154684555Y-115631630D01*
X154699999Y-115514330D01*
X154700000Y-115514316D01*
X154700000Y-115450000D01*
X154174500Y-115450000D01*
X154107461Y-115430315D01*
X154061706Y-115377511D01*
X154050500Y-115326001D01*
X154050499Y-115174001D01*
X154070183Y-115106961D01*
X154122987Y-115061206D01*
X154174499Y-115050000D01*
X154699999Y-115050000D01*
X154699999Y-114985675D01*
X154684557Y-114868371D01*
X154684555Y-114868366D01*
X154624100Y-114722414D01*
X154527924Y-114597075D01*
X154402586Y-114500899D01*
X154256631Y-114440444D01*
X154200000Y-114432987D01*
X154200000Y-114650697D01*
X154180315Y-114717736D01*
X154127511Y-114763491D01*
X154058353Y-114773435D01*
X153994797Y-114744410D01*
X153977624Y-114726184D01*
X153971041Y-114717605D01*
X153878282Y-114596718D01*
X153878280Y-114596717D01*
X153878280Y-114596716D01*
X153848511Y-114573873D01*
X153807310Y-114517444D01*
X153800000Y-114475499D01*
X153800000Y-114432987D01*
X153743370Y-114440443D01*
X153723103Y-114448838D01*
X153653633Y-114456304D01*
X153628203Y-114448837D01*
X153606762Y-114439956D01*
X153606760Y-114439955D01*
X153489362Y-114424500D01*
X153224096Y-114424500D01*
X153157057Y-114404815D01*
X153111302Y-114352011D01*
X153101358Y-114282853D01*
X153130383Y-114219297D01*
X153136398Y-114212836D01*
X153980520Y-113368716D01*
X154017332Y-113304953D01*
X154067898Y-113256737D01*
X154100207Y-113247044D01*
X154099931Y-113245876D01*
X154107479Y-113244092D01*
X154107481Y-113244091D01*
X154107483Y-113244091D01*
X154242331Y-113193796D01*
X154357546Y-113107546D01*
X154363208Y-113099983D01*
X156499500Y-113099983D01*
X156499500Y-114400001D01*
X156499501Y-114400018D01*
X156510000Y-114502796D01*
X156510001Y-114502799D01*
X156565185Y-114669331D01*
X156565187Y-114669336D01*
X156584041Y-114699903D01*
X156657288Y-114818656D01*
X156781344Y-114942712D01*
X156885022Y-115006661D01*
X156936558Y-115038448D01*
X156983283Y-115090396D01*
X156994506Y-115159358D01*
X156966663Y-115223441D01*
X156959144Y-115231668D01*
X156820271Y-115370541D01*
X156695379Y-115542442D01*
X156598904Y-115731782D01*
X156533242Y-115933870D01*
X156533242Y-115933873D01*
X156522769Y-116000000D01*
X157566988Y-116000000D01*
X157534075Y-116057007D01*
X157500000Y-116184174D01*
X157500000Y-116315826D01*
X157534075Y-116442993D01*
X157566988Y-116500000D01*
X156522769Y-116500000D01*
X156533242Y-116566126D01*
X156533242Y-116566129D01*
X156598904Y-116768217D01*
X156695379Y-116957557D01*
X156820272Y-117129459D01*
X156820276Y-117129464D01*
X156970535Y-117279723D01*
X156970540Y-117279727D01*
X157142442Y-117404620D01*
X157331782Y-117501095D01*
X157533870Y-117566757D01*
X157743754Y-117600000D01*
X157750000Y-117600000D01*
X157750000Y-116683012D01*
X157807007Y-116715925D01*
X157934174Y-116750000D01*
X158065826Y-116750000D01*
X158192993Y-116715925D01*
X158250000Y-116683012D01*
X158250000Y-117600000D01*
X158256246Y-117600000D01*
X158466127Y-117566757D01*
X158466130Y-117566757D01*
X158668217Y-117501095D01*
X158857557Y-117404620D01*
X159029459Y-117279727D01*
X159029464Y-117279723D01*
X159179723Y-117129464D01*
X159179727Y-117129459D01*
X159304620Y-116957557D01*
X159401095Y-116768217D01*
X159466757Y-116566129D01*
X159466757Y-116566126D01*
X159477231Y-116500000D01*
X158433012Y-116500000D01*
X158465925Y-116442993D01*
X158500000Y-116315826D01*
X158500000Y-116184174D01*
X158465925Y-116057007D01*
X158433012Y-116000000D01*
X159477231Y-116000000D01*
X159466757Y-115933873D01*
X159466757Y-115933870D01*
X159401095Y-115731782D01*
X159304620Y-115542442D01*
X159179727Y-115370540D01*
X159179723Y-115370535D01*
X159040856Y-115231668D01*
X159007371Y-115170345D01*
X159012355Y-115100653D01*
X159054227Y-115044720D01*
X159063441Y-115038448D01*
X159069331Y-115034814D01*
X159069334Y-115034814D01*
X159218656Y-114942712D01*
X159342712Y-114818656D01*
X159434814Y-114669334D01*
X159489999Y-114502797D01*
X159500500Y-114400009D01*
X159500499Y-113099992D01*
X159493128Y-113027839D01*
X159489999Y-112997203D01*
X159489998Y-112997200D01*
X159482903Y-112975788D01*
X159434814Y-112830666D01*
X159342712Y-112681344D01*
X159218656Y-112557288D01*
X159069334Y-112465186D01*
X158902797Y-112410001D01*
X158902795Y-112410000D01*
X158800010Y-112399500D01*
X157199998Y-112399500D01*
X157199981Y-112399501D01*
X157097203Y-112410000D01*
X157097200Y-112410001D01*
X156930668Y-112465185D01*
X156930663Y-112465187D01*
X156781342Y-112557289D01*
X156657289Y-112681342D01*
X156565187Y-112830663D01*
X156565185Y-112830668D01*
X156537349Y-112914670D01*
X156510001Y-112997203D01*
X156510001Y-112997204D01*
X156510000Y-112997204D01*
X156499500Y-113099983D01*
X154363208Y-113099983D01*
X154443796Y-112992331D01*
X154494091Y-112857483D01*
X154500500Y-112797873D01*
X154500499Y-111202128D01*
X154494091Y-111142517D01*
X154489901Y-111131284D01*
X154443797Y-111007671D01*
X154443793Y-111007664D01*
X154386526Y-110931166D01*
X154357546Y-110892454D01*
X154265355Y-110823439D01*
X154223485Y-110767507D01*
X154218501Y-110697815D01*
X154251986Y-110636492D01*
X154313310Y-110603008D01*
X154323480Y-110601235D01*
X154329054Y-110600501D01*
X154329057Y-110600501D01*
X154481785Y-110559577D01*
X154495420Y-110551704D01*
X154532091Y-110530533D01*
X154532102Y-110530525D01*
X154532114Y-110530519D01*
X154618716Y-110480520D01*
X154730520Y-110368716D01*
X154730520Y-110368714D01*
X154740724Y-110358511D01*
X154740728Y-110358506D01*
X155647186Y-109452048D01*
X155647191Y-109452044D01*
X155657394Y-109441840D01*
X155657396Y-109441840D01*
X155769200Y-109330036D01*
X155848257Y-109193104D01*
X155883682Y-109060897D01*
X155889180Y-109040378D01*
X155889180Y-108882263D01*
X155889180Y-106365402D01*
X155908865Y-106298363D01*
X155961669Y-106252608D01*
X156013789Y-106241404D01*
X157750000Y-106250000D01*
X157750000Y-103372070D01*
X159903180Y-103372070D01*
X159903180Y-103627929D01*
X159943206Y-103880640D01*
X160022268Y-104123972D01*
X160022269Y-104123975D01*
X160086738Y-104250500D01*
X160130474Y-104336337D01*
X160138430Y-104351950D01*
X160288812Y-104558935D01*
X160288816Y-104558940D01*
X160469739Y-104739863D01*
X160469744Y-104739867D01*
X160552511Y-104800000D01*
X160676733Y-104890252D01*
X160825760Y-104966185D01*
X160904704Y-105006410D01*
X160904707Y-105006411D01*
X160993952Y-105035408D01*
X161148041Y-105085474D01*
X161400750Y-105125500D01*
X161400751Y-105125500D01*
X161656609Y-105125500D01*
X161656610Y-105125500D01*
X161909319Y-105085474D01*
X162152655Y-105006410D01*
X162380627Y-104890252D01*
X162587622Y-104739862D01*
X162768542Y-104558942D01*
X162918932Y-104351947D01*
X163035090Y-104123975D01*
X163114154Y-103880639D01*
X163154180Y-103627930D01*
X163154180Y-103372070D01*
X163114154Y-103119361D01*
X163074050Y-102995932D01*
X163035091Y-102876027D01*
X163035090Y-102876024D01*
X162994865Y-102797080D01*
X162918932Y-102648053D01*
X162808033Y-102495413D01*
X162768547Y-102441064D01*
X162768543Y-102441059D01*
X162587620Y-102260136D01*
X162587615Y-102260132D01*
X162380630Y-102109750D01*
X162380629Y-102109749D01*
X162380627Y-102109748D01*
X162307590Y-102072533D01*
X162152655Y-101993589D01*
X162152652Y-101993588D01*
X161909320Y-101914526D01*
X161782964Y-101894513D01*
X161656610Y-101874500D01*
X161400750Y-101874500D01*
X161316513Y-101887842D01*
X161148039Y-101914526D01*
X160904707Y-101993588D01*
X160904704Y-101993589D01*
X160676729Y-102109750D01*
X160469744Y-102260132D01*
X160469739Y-102260136D01*
X160288816Y-102441059D01*
X160288812Y-102441064D01*
X160138430Y-102648049D01*
X160022269Y-102876024D01*
X160022268Y-102876027D01*
X159943206Y-103119359D01*
X159903180Y-103372070D01*
X157750000Y-103372070D01*
X157750000Y-103123619D01*
X157769685Y-103056580D01*
X157772410Y-103052516D01*
X157852715Y-102937830D01*
X157952583Y-102723663D01*
X158013743Y-102495408D01*
X158034339Y-102260000D01*
X158013743Y-102024592D01*
X157962140Y-101832003D01*
X157952585Y-101796344D01*
X157952584Y-101796343D01*
X157952583Y-101796337D01*
X157852715Y-101582171D01*
X157825425Y-101543197D01*
X157772425Y-101467504D01*
X157750098Y-101401298D01*
X157750000Y-101396381D01*
X157750000Y-100624500D01*
X157769685Y-100557461D01*
X157822489Y-100511706D01*
X157874000Y-100500500D01*
X161462788Y-100500500D01*
X161962787Y-100500500D01*
X161962791Y-100500501D01*
G37*
%TD.AperFunction*%
%TA.AperFunction,Conductor*%
G36*
X131484855Y-124876546D02*
G01*
X131501575Y-124895842D01*
X131631500Y-125081395D01*
X131631505Y-125081401D01*
X131798599Y-125248495D01*
X131930500Y-125340853D01*
X131984595Y-125378731D01*
X132028219Y-125433308D01*
X132035412Y-125502807D01*
X132003890Y-125565161D01*
X131984594Y-125581881D01*
X131908627Y-125635073D01*
X131908626Y-125635073D01*
X132540591Y-126267037D01*
X132477007Y-126284075D01*
X132362993Y-126349901D01*
X132269901Y-126442993D01*
X132204075Y-126557007D01*
X132187037Y-126620590D01*
X131555073Y-125988626D01*
X131555073Y-125988627D01*
X131501575Y-126065031D01*
X131446999Y-126108656D01*
X131377500Y-126115850D01*
X131315145Y-126084327D01*
X131298425Y-126065032D01*
X131244925Y-125988626D01*
X130612962Y-126620590D01*
X130595925Y-126557007D01*
X130530099Y-126442993D01*
X130437007Y-126349901D01*
X130322993Y-126284075D01*
X130259407Y-126267037D01*
X130891372Y-125635073D01*
X130891372Y-125635072D01*
X130815405Y-125581879D01*
X130771780Y-125527302D01*
X130764588Y-125457804D01*
X130796110Y-125395449D01*
X130815406Y-125378730D01*
X130815842Y-125378425D01*
X131001401Y-125248495D01*
X131168495Y-125081401D01*
X131298425Y-124895842D01*
X131353002Y-124852217D01*
X131422500Y-124845023D01*
X131484855Y-124876546D01*
G37*
%TD.AperFunction*%
%TA.AperFunction,Conductor*%
G36*
X128237106Y-117770185D02*
G01*
X128268441Y-117799012D01*
X128271328Y-117802774D01*
X128271718Y-117803282D01*
X128397159Y-117899536D01*
X128543238Y-117960044D01*
X128660639Y-117975500D01*
X128939360Y-117975499D01*
X129043897Y-117961737D01*
X129112929Y-117972503D01*
X129147760Y-117996995D01*
X129763181Y-118612416D01*
X129796666Y-118673739D01*
X129799500Y-118700096D01*
X129799500Y-118797869D01*
X129799501Y-118797876D01*
X129805909Y-118857484D01*
X129842901Y-118956668D01*
X129847885Y-119026360D01*
X129842901Y-119043332D01*
X129805910Y-119142511D01*
X129805909Y-119142515D01*
X129805909Y-119142517D01*
X129799500Y-119202127D01*
X129799500Y-119202134D01*
X129799500Y-119202135D01*
X129799500Y-119797870D01*
X129799501Y-119797876D01*
X129805908Y-119857483D01*
X129856203Y-119992328D01*
X129856204Y-119992331D01*
X129867328Y-120007190D01*
X129874766Y-120017126D01*
X129899184Y-120082590D01*
X129899500Y-120091438D01*
X129899500Y-121163330D01*
X129899499Y-121163348D01*
X129899499Y-121329054D01*
X129899498Y-121329054D01*
X129916825Y-121393717D01*
X129940423Y-121481785D01*
X129964169Y-121522914D01*
X129969358Y-121531900D01*
X129969359Y-121531904D01*
X129969360Y-121531904D01*
X129980624Y-121551415D01*
X130019479Y-121618714D01*
X130019481Y-121618717D01*
X130138349Y-121737585D01*
X130138355Y-121737590D01*
X131602351Y-123201586D01*
X131635836Y-123262909D01*
X131630852Y-123332601D01*
X131616245Y-123360390D01*
X131501575Y-123524158D01*
X131446999Y-123567783D01*
X131377500Y-123574977D01*
X131315145Y-123543455D01*
X131298425Y-123524158D01*
X131168494Y-123338597D01*
X131001402Y-123171506D01*
X131001395Y-123171501D01*
X130807834Y-123035967D01*
X130807830Y-123035965D01*
X130780024Y-123022999D01*
X130593663Y-122936097D01*
X130593659Y-122936096D01*
X130593655Y-122936094D01*
X130365413Y-122874938D01*
X130365403Y-122874936D01*
X130130001Y-122854341D01*
X130129999Y-122854341D01*
X129894596Y-122874936D01*
X129894586Y-122874938D01*
X129666344Y-122936094D01*
X129666335Y-122936098D01*
X129452171Y-123035964D01*
X129452169Y-123035965D01*
X129258597Y-123171505D01*
X129091505Y-123338597D01*
X128961575Y-123524158D01*
X128906998Y-123567783D01*
X128837500Y-123574977D01*
X128775145Y-123543454D01*
X128758425Y-123524158D01*
X128628494Y-123338597D01*
X128461402Y-123171506D01*
X128461395Y-123171501D01*
X128267834Y-123035967D01*
X128267830Y-123035965D01*
X128240024Y-123022999D01*
X128053663Y-122936097D01*
X128053659Y-122936096D01*
X128053655Y-122936094D01*
X127825413Y-122874938D01*
X127825403Y-122874936D01*
X127590001Y-122854341D01*
X127589999Y-122854341D01*
X127354596Y-122874936D01*
X127354583Y-122874939D01*
X127226241Y-122909327D01*
X127156392Y-122907664D01*
X127106468Y-122877233D01*
X126886819Y-122657584D01*
X126853334Y-122596261D01*
X126850500Y-122569903D01*
X126850500Y-120374499D01*
X126870185Y-120307460D01*
X126922989Y-120261705D01*
X126974500Y-120250499D01*
X126997871Y-120250499D01*
X126997872Y-120250499D01*
X127057483Y-120244091D01*
X127192331Y-120193796D01*
X127307546Y-120107546D01*
X127393796Y-119992331D01*
X127444091Y-119857483D01*
X127450500Y-119797873D01*
X127450499Y-119202128D01*
X127444091Y-119142517D01*
X127407096Y-119043330D01*
X127402113Y-118973642D01*
X127407092Y-118956680D01*
X127444091Y-118857483D01*
X127450500Y-118797873D01*
X127450499Y-118202128D01*
X127444091Y-118142517D01*
X127437477Y-118124785D01*
X127393797Y-118007671D01*
X127393793Y-118007664D01*
X127350204Y-117949437D01*
X127325786Y-117883973D01*
X127340637Y-117815700D01*
X127361926Y-117787307D01*
X127362147Y-117787087D01*
X127362557Y-117786679D01*
X127423933Y-117753292D01*
X127450098Y-117750500D01*
X128170067Y-117750500D01*
X128237106Y-117770185D01*
G37*
%TD.AperFunction*%
%TA.AperFunction,Conductor*%
G36*
X112315446Y-118283513D02*
G01*
X112320745Y-118285368D01*
X112320751Y-118285368D01*
X112320752Y-118285369D01*
X112428984Y-118297564D01*
X112493398Y-118324630D01*
X112532953Y-118382225D01*
X112536354Y-118446738D01*
X112535144Y-118452388D01*
X112525000Y-118551677D01*
X112525000Y-118600000D01*
X113351000Y-118600000D01*
X113418039Y-118619685D01*
X113463794Y-118672489D01*
X113475000Y-118724000D01*
X113475000Y-118850000D01*
X113601000Y-118850000D01*
X113668039Y-118869685D01*
X113713794Y-118922489D01*
X113725000Y-118974000D01*
X113725000Y-119824999D01*
X113748308Y-119824999D01*
X113748322Y-119824998D01*
X113847607Y-119814855D01*
X114008481Y-119761547D01*
X114008492Y-119761542D01*
X114152731Y-119672573D01*
X114161959Y-119663345D01*
X114223279Y-119629856D01*
X114292971Y-119634835D01*
X114337327Y-119663339D01*
X114346956Y-119672968D01*
X114365596Y-119684465D01*
X114412321Y-119736412D01*
X114424500Y-119790004D01*
X114424500Y-120938330D01*
X114424499Y-120938348D01*
X114424499Y-121104054D01*
X114424498Y-121104054D01*
X114424499Y-121104057D01*
X114465423Y-121256785D01*
X114465424Y-121256787D01*
X114465423Y-121256787D01*
X114480195Y-121282371D01*
X114480196Y-121282373D01*
X114544475Y-121393709D01*
X114544481Y-121393717D01*
X114663349Y-121512585D01*
X114663355Y-121512590D01*
X114765139Y-121614374D01*
X114765149Y-121614385D01*
X114769479Y-121618715D01*
X114769480Y-121618716D01*
X114881284Y-121730520D01*
X114950532Y-121770500D01*
X115018215Y-121809577D01*
X115170943Y-121850500D01*
X115535217Y-121850500D01*
X115602256Y-121870185D01*
X115648011Y-121922989D01*
X115657955Y-121992147D01*
X115628930Y-122055703D01*
X115622898Y-122062181D01*
X115321898Y-122363181D01*
X115260575Y-122396666D01*
X115234217Y-122399500D01*
X113480940Y-122399500D01*
X113440019Y-122410464D01*
X113440019Y-122410465D01*
X113402751Y-122420451D01*
X113328214Y-122440423D01*
X113328209Y-122440426D01*
X113191290Y-122519475D01*
X113191282Y-122519481D01*
X113079478Y-122631286D01*
X112833530Y-122877233D01*
X112772207Y-122910718D01*
X112713756Y-122909327D01*
X112585413Y-122874938D01*
X112585403Y-122874936D01*
X112350001Y-122854341D01*
X112349999Y-122854341D01*
X112114596Y-122874936D01*
X112114586Y-122874938D01*
X111886344Y-122936094D01*
X111886335Y-122936098D01*
X111672171Y-123035964D01*
X111672169Y-123035965D01*
X111545623Y-123124574D01*
X111479417Y-123146901D01*
X111411650Y-123129891D01*
X111363837Y-123078943D01*
X111350500Y-123022999D01*
X111350500Y-120274499D01*
X111370185Y-120207460D01*
X111422989Y-120161705D01*
X111474500Y-120150499D01*
X111697871Y-120150499D01*
X111697872Y-120150499D01*
X111757483Y-120144091D01*
X111892331Y-120093796D01*
X112007546Y-120007546D01*
X112093796Y-119892331D01*
X112144091Y-119757483D01*
X112150500Y-119697873D01*
X112150500Y-119148322D01*
X112525001Y-119148322D01*
X112535144Y-119247607D01*
X112588452Y-119408481D01*
X112588457Y-119408492D01*
X112677424Y-119552728D01*
X112677427Y-119552732D01*
X112797267Y-119672572D01*
X112797271Y-119672575D01*
X112941507Y-119761542D01*
X112941518Y-119761547D01*
X113102393Y-119814855D01*
X113201683Y-119824999D01*
X113225000Y-119824998D01*
X113225000Y-119100000D01*
X112525001Y-119100000D01*
X112525001Y-119148322D01*
X112150500Y-119148322D01*
X112150499Y-118400556D01*
X112170184Y-118333518D01*
X112222987Y-118287763D01*
X112292146Y-118277819D01*
X112315446Y-118283513D01*
G37*
%TD.AperFunction*%
%TA.AperFunction,Conductor*%
G36*
X124468834Y-118082913D02*
G01*
X124524767Y-118124785D01*
X124549184Y-118190249D01*
X124549500Y-118199095D01*
X124549500Y-118797870D01*
X124549501Y-118797876D01*
X124555909Y-118857484D01*
X124592901Y-118956668D01*
X124597885Y-119026360D01*
X124592901Y-119043332D01*
X124555910Y-119142511D01*
X124555909Y-119142515D01*
X124555909Y-119142517D01*
X124549500Y-119202127D01*
X124549500Y-119202134D01*
X124549500Y-119202135D01*
X124549500Y-119797870D01*
X124549501Y-119797876D01*
X124555908Y-119857483D01*
X124606203Y-119992328D01*
X124606204Y-119992331D01*
X124617328Y-120007190D01*
X124624766Y-120017126D01*
X124649184Y-120082590D01*
X124649500Y-120091438D01*
X124649500Y-121169902D01*
X124629815Y-121236941D01*
X124613181Y-121257583D01*
X122993530Y-122877233D01*
X122932207Y-122910718D01*
X122873756Y-122909327D01*
X122745413Y-122874938D01*
X122745403Y-122874936D01*
X122510001Y-122854341D01*
X122509998Y-122854341D01*
X122419122Y-122862291D01*
X122350622Y-122848524D01*
X122300439Y-122799908D01*
X122284506Y-122731880D01*
X122300932Y-122676756D01*
X122309577Y-122661785D01*
X122350500Y-122509057D01*
X122350500Y-122350943D01*
X122350500Y-120091438D01*
X122370185Y-120024399D01*
X122375234Y-120017126D01*
X122393796Y-119992331D01*
X122444091Y-119857483D01*
X122450500Y-119797873D01*
X122450499Y-119224499D01*
X122470183Y-119157461D01*
X122522987Y-119111706D01*
X122574499Y-119100500D01*
X123013331Y-119100500D01*
X123013347Y-119100501D01*
X123020943Y-119100501D01*
X123179054Y-119100501D01*
X123179057Y-119100501D01*
X123331785Y-119059577D01*
X123401233Y-119019481D01*
X123468716Y-118980520D01*
X123580520Y-118868716D01*
X123580520Y-118868714D01*
X123590724Y-118858511D01*
X123590728Y-118858506D01*
X124337821Y-118111412D01*
X124399142Y-118077929D01*
X124468834Y-118082913D01*
G37*
%TD.AperFunction*%
%TA.AperFunction,Conductor*%
G36*
X144991940Y-117995184D02*
G01*
X145012582Y-118011818D01*
X145088349Y-118087585D01*
X145088355Y-118087590D01*
X145865139Y-118864374D01*
X145865149Y-118864385D01*
X145869479Y-118868715D01*
X145869480Y-118868716D01*
X145981284Y-118980520D01*
X145981286Y-118980521D01*
X145981287Y-118980522D01*
X146001563Y-118992228D01*
X146049780Y-119042794D01*
X146063004Y-119111401D01*
X146057590Y-119134940D01*
X146057693Y-119134965D01*
X146055910Y-119142508D01*
X146055909Y-119142516D01*
X146055909Y-119142517D01*
X146049500Y-119202127D01*
X146049500Y-119202134D01*
X146049500Y-119202135D01*
X146049500Y-119797870D01*
X146049501Y-119797876D01*
X146055908Y-119857483D01*
X146106203Y-119992328D01*
X146106204Y-119992331D01*
X146117328Y-120007190D01*
X146124766Y-120017126D01*
X146149184Y-120082590D01*
X146149500Y-120091438D01*
X146149500Y-120413330D01*
X146149499Y-120413348D01*
X146149499Y-120579054D01*
X146149498Y-120579054D01*
X146190424Y-120731789D01*
X146190425Y-120731790D01*
X146212186Y-120769480D01*
X146212187Y-120769482D01*
X146269475Y-120868709D01*
X146269481Y-120868717D01*
X146388349Y-120987585D01*
X146388355Y-120987590D01*
X148047291Y-122646526D01*
X148080776Y-122707849D01*
X148075792Y-122777541D01*
X148033920Y-122833474D01*
X147968456Y-122857891D01*
X147948804Y-122857735D01*
X147910004Y-122854341D01*
X147909999Y-122854341D01*
X147674596Y-122874936D01*
X147674583Y-122874939D01*
X147546241Y-122909327D01*
X147476392Y-122907664D01*
X147426468Y-122877233D01*
X143749790Y-119200555D01*
X143716305Y-119139232D01*
X143721289Y-119069540D01*
X143763161Y-119013607D01*
X143775463Y-119005491D01*
X143818716Y-118980520D01*
X143930520Y-118868716D01*
X143930520Y-118868714D01*
X143940724Y-118858511D01*
X143940728Y-118858506D01*
X144787416Y-118011818D01*
X144848739Y-117978333D01*
X144875097Y-117975499D01*
X144924901Y-117975499D01*
X144991940Y-117995184D01*
G37*
%TD.AperFunction*%
%TA.AperFunction,Conductor*%
G36*
X133885059Y-117959151D02*
G01*
X133885384Y-117957940D01*
X133891667Y-117959623D01*
X133892093Y-117959654D01*
X133892757Y-117959915D01*
X133893234Y-117960043D01*
X133893236Y-117960043D01*
X133893238Y-117960044D01*
X134010639Y-117975500D01*
X134074901Y-117975499D01*
X134141940Y-117995183D01*
X134162583Y-118011818D01*
X135015139Y-118864374D01*
X135015149Y-118864385D01*
X135019479Y-118868715D01*
X135019480Y-118868716D01*
X135131284Y-118980520D01*
X135198767Y-119019481D01*
X135268215Y-119059577D01*
X135420942Y-119100500D01*
X135420943Y-119100500D01*
X135425500Y-119100500D01*
X135492539Y-119120185D01*
X135538294Y-119172989D01*
X135549500Y-119224500D01*
X135549500Y-119797870D01*
X135549501Y-119797876D01*
X135555908Y-119857483D01*
X135606203Y-119992328D01*
X135606204Y-119992331D01*
X135617328Y-120007190D01*
X135624766Y-120017126D01*
X135649184Y-120082590D01*
X135649500Y-120091438D01*
X135649500Y-121600902D01*
X135629815Y-121667941D01*
X135577011Y-121713696D01*
X135507853Y-121723640D01*
X135444297Y-121694615D01*
X135437819Y-121688583D01*
X132887590Y-119138355D01*
X132887588Y-119138352D01*
X132836917Y-119087681D01*
X132803432Y-119026358D01*
X132808416Y-118956666D01*
X132836917Y-118912319D01*
X132860942Y-118888294D01*
X132880520Y-118868716D01*
X132880520Y-118868714D01*
X132890724Y-118858511D01*
X132890728Y-118858506D01*
X133761080Y-117988153D01*
X133822401Y-117954670D01*
X133885059Y-117959151D01*
G37*
%TD.AperFunction*%
%TA.AperFunction,Conductor*%
G36*
X140100830Y-117600907D02*
G01*
X140156767Y-117642774D01*
X140172065Y-117669637D01*
X140175461Y-117677836D01*
X140179526Y-117684876D01*
X140177783Y-117685882D01*
X140199069Y-117740932D01*
X140199500Y-117751257D01*
X140199500Y-117963330D01*
X140199499Y-117963348D01*
X140199499Y-118129054D01*
X140199498Y-118129054D01*
X140231906Y-118250000D01*
X140240423Y-118281785D01*
X140265160Y-118324630D01*
X140269358Y-118331900D01*
X140269359Y-118331904D01*
X140269360Y-118331904D01*
X140319479Y-118418714D01*
X140319481Y-118418717D01*
X140438349Y-118537585D01*
X140438355Y-118537590D01*
X140513181Y-118612416D01*
X140546666Y-118673739D01*
X140549500Y-118700096D01*
X140549500Y-118797869D01*
X140549501Y-118797876D01*
X140555909Y-118857484D01*
X140592901Y-118956668D01*
X140597885Y-119026360D01*
X140592901Y-119043332D01*
X140555910Y-119142511D01*
X140555909Y-119142515D01*
X140555909Y-119142517D01*
X140549500Y-119202127D01*
X140549500Y-119202134D01*
X140549500Y-119202135D01*
X140549500Y-119797870D01*
X140549501Y-119797876D01*
X140555908Y-119857483D01*
X140606203Y-119992328D01*
X140606204Y-119992331D01*
X140617328Y-120007190D01*
X140624766Y-120017126D01*
X140649184Y-120082590D01*
X140649500Y-120091438D01*
X140649500Y-120916984D01*
X140649499Y-120917002D01*
X140649499Y-121082708D01*
X140649498Y-121082708D01*
X140690423Y-121235441D01*
X140690424Y-121235442D01*
X140705448Y-121261464D01*
X140721921Y-121329364D01*
X140699069Y-121395391D01*
X140644147Y-121438582D01*
X140574594Y-121445223D01*
X140512491Y-121413207D01*
X140510380Y-121411145D01*
X138486818Y-119387583D01*
X138453333Y-119326260D01*
X138450499Y-119299902D01*
X138450499Y-119202129D01*
X138450498Y-119202123D01*
X138450329Y-119200555D01*
X138444091Y-119142517D01*
X138407096Y-119043330D01*
X138402113Y-118973642D01*
X138407092Y-118956680D01*
X138444091Y-118857483D01*
X138450500Y-118797873D01*
X138450499Y-118700097D01*
X138470183Y-118633060D01*
X138486819Y-118612416D01*
X138580517Y-118518719D01*
X138580517Y-118518718D01*
X138580520Y-118518716D01*
X138659577Y-118381784D01*
X138700501Y-118229057D01*
X138700501Y-118070942D01*
X138700501Y-118063347D01*
X138700500Y-118063329D01*
X138700500Y-117874500D01*
X138720185Y-117807461D01*
X138772989Y-117761706D01*
X138824500Y-117750500D01*
X139513331Y-117750500D01*
X139513347Y-117750501D01*
X139520943Y-117750501D01*
X139679054Y-117750501D01*
X139679057Y-117750501D01*
X139831785Y-117709577D01*
X139886753Y-117677841D01*
X139968716Y-117630520D01*
X139969821Y-117629414D01*
X139970982Y-117628780D01*
X139975161Y-117625574D01*
X139975660Y-117626225D01*
X140031138Y-117595928D01*
X140100830Y-117600907D01*
G37*
%TD.AperFunction*%
%TA.AperFunction,Conductor*%
G36*
X117592539Y-117932685D02*
G01*
X117638294Y-117985489D01*
X117649500Y-118037000D01*
X117649500Y-118853201D01*
X117652401Y-118890067D01*
X117652402Y-118890073D01*
X117698254Y-119047893D01*
X117698255Y-119047896D01*
X117781917Y-119189362D01*
X117781921Y-119189367D01*
X117783972Y-119191418D01*
X117785067Y-119193423D01*
X117786702Y-119195531D01*
X117786362Y-119195794D01*
X117817461Y-119252739D01*
X117812482Y-119322431D01*
X117783978Y-119366786D01*
X116537584Y-120613181D01*
X116476261Y-120646666D01*
X116449903Y-120649500D01*
X115749500Y-120649500D01*
X115682461Y-120629815D01*
X115636706Y-120577011D01*
X115625500Y-120525500D01*
X115625500Y-119790004D01*
X115645185Y-119722965D01*
X115684403Y-119684465D01*
X115703044Y-119672968D01*
X115822968Y-119553044D01*
X115869998Y-119476796D01*
X115915795Y-119402550D01*
X115917581Y-119403652D01*
X115956879Y-119359002D01*
X116024069Y-119339836D01*
X116086233Y-119357100D01*
X116139803Y-119388782D01*
X116297514Y-119434600D01*
X116297511Y-119434600D01*
X116299998Y-119434795D01*
X116300000Y-119434795D01*
X116800000Y-119434795D01*
X116800001Y-119434795D01*
X116802486Y-119434600D01*
X116960198Y-119388781D01*
X117101552Y-119305185D01*
X117101561Y-119305178D01*
X117217678Y-119189061D01*
X117217685Y-119189052D01*
X117301282Y-119047696D01*
X117301283Y-119047693D01*
X117347099Y-118889995D01*
X117347100Y-118889989D01*
X117349999Y-118853149D01*
X117350000Y-118853134D01*
X117350000Y-118525000D01*
X116800000Y-118525000D01*
X116800000Y-119434795D01*
X116300000Y-119434795D01*
X116300000Y-118399000D01*
X116319685Y-118331961D01*
X116372489Y-118286206D01*
X116424000Y-118275000D01*
X116550000Y-118275000D01*
X116550000Y-118149000D01*
X116569685Y-118081961D01*
X116622489Y-118036206D01*
X116674000Y-118025000D01*
X117350000Y-118025000D01*
X117354988Y-118020011D01*
X117369685Y-117969961D01*
X117422489Y-117924206D01*
X117474000Y-117913000D01*
X117525500Y-117913000D01*
X117592539Y-117932685D01*
G37*
%TD.AperFunction*%
%TA.AperFunction,Conductor*%
G36*
X112780976Y-112845090D02*
G01*
X112821228Y-112896905D01*
X112832033Y-112922989D01*
X112867057Y-113007546D01*
X112875464Y-113027841D01*
X112971718Y-113153282D01*
X113097159Y-113249536D01*
X113243238Y-113310044D01*
X113292653Y-113316549D01*
X113356549Y-113344815D01*
X113395021Y-113403139D01*
X113399688Y-113453369D01*
X113398017Y-113468215D01*
X113397285Y-113474709D01*
X113370219Y-113539123D01*
X113312624Y-113578679D01*
X113290250Y-113583766D01*
X113243245Y-113589954D01*
X113243237Y-113589956D01*
X113097160Y-113650463D01*
X112971718Y-113746718D01*
X112875463Y-113872160D01*
X112814956Y-114018237D01*
X112814955Y-114018239D01*
X112799500Y-114135638D01*
X112799500Y-114664363D01*
X112814953Y-114781753D01*
X112814956Y-114781762D01*
X112830238Y-114818657D01*
X112839626Y-114841320D01*
X112847095Y-114910790D01*
X112815820Y-114973269D01*
X112795573Y-114989725D01*
X112795715Y-114989906D01*
X112789810Y-114994531D01*
X112669530Y-115114811D01*
X112581522Y-115260393D01*
X112530913Y-115422807D01*
X112525782Y-115479275D01*
X112524500Y-115493384D01*
X112524500Y-116006616D01*
X112526423Y-116027778D01*
X112530913Y-116077192D01*
X112530913Y-116077194D01*
X112530914Y-116077196D01*
X112581522Y-116239606D01*
X112669339Y-116384873D01*
X112669530Y-116385188D01*
X112771661Y-116487319D01*
X112805146Y-116548642D01*
X112800162Y-116618334D01*
X112771658Y-116662684D01*
X112757835Y-116676506D01*
X112696511Y-116709989D01*
X112656274Y-116712042D01*
X112500004Y-116694435D01*
X112499996Y-116694435D01*
X112320750Y-116714630D01*
X112320745Y-116714631D01*
X112150476Y-116774211D01*
X111997734Y-116870186D01*
X111992290Y-116874528D01*
X111991158Y-116873108D01*
X111937877Y-116902192D01*
X111868204Y-116897204D01*
X111757485Y-116855909D01*
X111757483Y-116855908D01*
X111697883Y-116849501D01*
X111697881Y-116849500D01*
X111697873Y-116849500D01*
X111697865Y-116849500D01*
X111474500Y-116849500D01*
X111407461Y-116829815D01*
X111361706Y-116777011D01*
X111350500Y-116725500D01*
X111350500Y-113274499D01*
X111370185Y-113207460D01*
X111422989Y-113161705D01*
X111474500Y-113150499D01*
X112197871Y-113150499D01*
X112197872Y-113150499D01*
X112257483Y-113144091D01*
X112392331Y-113093796D01*
X112507546Y-113007546D01*
X112593796Y-112892331D01*
X112593798Y-112892323D01*
X112597834Y-112884935D01*
X112647238Y-112835528D01*
X112715511Y-112820675D01*
X112780976Y-112845090D01*
G37*
%TD.AperFunction*%
%TA.AperFunction,Conductor*%
G36*
X120725273Y-106092728D02*
G01*
X120776860Y-106106550D01*
X120883272Y-106135063D01*
X121059714Y-106150500D01*
X121118679Y-106155659D01*
X121118680Y-106155659D01*
X121118681Y-106155659D01*
X121142350Y-106153588D01*
X121291276Y-106140558D01*
X121359775Y-106154324D01*
X121409958Y-106202939D01*
X121425892Y-106270968D01*
X121421858Y-106296179D01*
X121399499Y-106379623D01*
X121399499Y-106547726D01*
X121399500Y-106547739D01*
X121399500Y-109413330D01*
X121399499Y-109413348D01*
X121399499Y-109579054D01*
X121399498Y-109579054D01*
X121440424Y-109731789D01*
X121440425Y-109731790D01*
X121462186Y-109769480D01*
X121462187Y-109769482D01*
X121519475Y-109868709D01*
X121519481Y-109868717D01*
X121638349Y-109987585D01*
X121638355Y-109987590D01*
X121765139Y-110114374D01*
X121765149Y-110114385D01*
X121881285Y-110230521D01*
X121902242Y-110242620D01*
X121960691Y-110276365D01*
X122008906Y-110326931D01*
X122022130Y-110395538D01*
X122015733Y-110424706D01*
X121964630Y-110570750D01*
X121954837Y-110657668D01*
X121927770Y-110722082D01*
X121919298Y-110731465D01*
X121631286Y-111019478D01*
X121519481Y-111131282D01*
X121519479Y-111131285D01*
X121474264Y-111209602D01*
X121474262Y-111209604D01*
X121440425Y-111268209D01*
X121440423Y-111268212D01*
X121426687Y-111319478D01*
X121399499Y-111420943D01*
X121399499Y-111420945D01*
X121399499Y-111589046D01*
X121399500Y-111589059D01*
X121399500Y-113616936D01*
X121379815Y-113683975D01*
X121327011Y-113729730D01*
X121257853Y-113739674D01*
X121234547Y-113733978D01*
X121179260Y-113714633D01*
X121179249Y-113714630D01*
X121000004Y-113694435D01*
X120999996Y-113694435D01*
X120820750Y-113714630D01*
X120820745Y-113714631D01*
X120650476Y-113774211D01*
X120497737Y-113870184D01*
X120370182Y-113997739D01*
X120329493Y-114062496D01*
X120277158Y-114108787D01*
X120208105Y-114119434D01*
X120144257Y-114091059D01*
X120105885Y-114032669D01*
X120100500Y-113996523D01*
X120100500Y-111720941D01*
X120096912Y-111707549D01*
X120072571Y-111616708D01*
X120059577Y-111568215D01*
X120025448Y-111509102D01*
X120025448Y-111509101D01*
X119980524Y-111431290D01*
X119980521Y-111431286D01*
X119980520Y-111431284D01*
X119868716Y-111319480D01*
X119868715Y-111319479D01*
X119864385Y-111315149D01*
X119864374Y-111315139D01*
X119336818Y-110787583D01*
X119303333Y-110726260D01*
X119300499Y-110699902D01*
X119300499Y-109802129D01*
X119300498Y-109802123D01*
X119299759Y-109795250D01*
X119294091Y-109742517D01*
X119290088Y-109731785D01*
X119243797Y-109607671D01*
X119243793Y-109607664D01*
X119181087Y-109523901D01*
X119157546Y-109492454D01*
X119099854Y-109449265D01*
X119057984Y-109393333D01*
X119053000Y-109323641D01*
X119086485Y-109262318D01*
X119099850Y-109250736D01*
X119157546Y-109207546D01*
X119243796Y-109092331D01*
X119294091Y-108957483D01*
X119294091Y-108957481D01*
X119295874Y-108949938D01*
X119298022Y-108950445D01*
X119320470Y-108896247D01*
X119377861Y-108856397D01*
X119447686Y-108853901D01*
X119494340Y-108877106D01*
X119497736Y-108879814D01*
X119497738Y-108879816D01*
X119650478Y-108975789D01*
X119775926Y-109019685D01*
X119820745Y-109035368D01*
X119820750Y-109035369D01*
X119999996Y-109055565D01*
X120000000Y-109055565D01*
X120000004Y-109055565D01*
X120179249Y-109035369D01*
X120179252Y-109035368D01*
X120179255Y-109035368D01*
X120349522Y-108975789D01*
X120502262Y-108879816D01*
X120629816Y-108752262D01*
X120725789Y-108599522D01*
X120785368Y-108429255D01*
X120785557Y-108427581D01*
X120805565Y-108250003D01*
X120805565Y-108249996D01*
X120785369Y-108070750D01*
X120785368Y-108070745D01*
X120761405Y-108002262D01*
X120725789Y-107900478D01*
X120724048Y-107897708D01*
X120666151Y-107805565D01*
X120629816Y-107747738D01*
X120629814Y-107747736D01*
X120629813Y-107747734D01*
X120627550Y-107744896D01*
X120626659Y-107742715D01*
X120626111Y-107741842D01*
X120626264Y-107741745D01*
X120601144Y-107680209D01*
X120600500Y-107667587D01*
X120600500Y-107420940D01*
X120598892Y-107414939D01*
X120573405Y-107319820D01*
X120569180Y-107287727D01*
X120569180Y-106212503D01*
X120588865Y-106145464D01*
X120641669Y-106099709D01*
X120710827Y-106089765D01*
X120725273Y-106092728D01*
G37*
%TD.AperFunction*%
%TA.AperFunction,Conductor*%
G36*
X141864795Y-106171360D02*
G01*
X141931735Y-106191376D01*
X141977228Y-106244406D01*
X141988180Y-106295358D01*
X141988180Y-111252010D01*
X141988179Y-111252028D01*
X141988179Y-111259623D01*
X141988179Y-111417737D01*
X142012661Y-111509102D01*
X142029103Y-111570466D01*
X142042217Y-111593178D01*
X142042218Y-111593183D01*
X142042219Y-111593183D01*
X142108155Y-111707389D01*
X142108161Y-111707397D01*
X142169298Y-111768534D01*
X142202783Y-111829857D01*
X142204837Y-111842331D01*
X142214631Y-111929252D01*
X142214631Y-111929254D01*
X142214632Y-111929255D01*
X142231259Y-111976773D01*
X142234820Y-112046552D01*
X142201900Y-112105407D01*
X142176025Y-112131283D01*
X142176024Y-112131282D01*
X142176022Y-112131286D01*
X140712181Y-113595127D01*
X140650858Y-113628612D01*
X140581166Y-113623628D01*
X140525233Y-113581756D01*
X140500816Y-113516292D01*
X140500500Y-113507446D01*
X140500500Y-106989059D01*
X140500501Y-106989046D01*
X140500501Y-106820945D01*
X140500501Y-106820943D01*
X140459577Y-106668215D01*
X140420482Y-106600501D01*
X140382464Y-106534651D01*
X140380522Y-106531287D01*
X140380521Y-106531286D01*
X140380520Y-106531284D01*
X140268716Y-106419480D01*
X140268715Y-106419479D01*
X140264385Y-106415149D01*
X140264374Y-106415139D01*
X140224591Y-106375356D01*
X140191106Y-106314033D01*
X140196090Y-106244341D01*
X140237962Y-106188408D01*
X140303426Y-106163991D01*
X140312868Y-106163677D01*
X141864795Y-106171360D01*
G37*
%TD.AperFunction*%
%TA.AperFunction,Conductor*%
G36*
X136277514Y-108532914D02*
G01*
X136333447Y-108574786D01*
X136357864Y-108640250D01*
X136358180Y-108649096D01*
X136358180Y-111049518D01*
X136358179Y-111049536D01*
X136358179Y-111215242D01*
X136358178Y-111215242D01*
X136399103Y-111367973D01*
X136427833Y-111417733D01*
X136427834Y-111417737D01*
X136427835Y-111417737D01*
X136478159Y-111504902D01*
X136478161Y-111504905D01*
X136597029Y-111623773D01*
X136597035Y-111623778D01*
X136803007Y-111829750D01*
X136836492Y-111891073D01*
X136838546Y-111903547D01*
X136848339Y-111990466D01*
X136907919Y-112160738D01*
X137003892Y-112313478D01*
X137005076Y-112314962D01*
X137005541Y-112316101D01*
X137007598Y-112319375D01*
X137007024Y-112319735D01*
X137031484Y-112379649D01*
X137018727Y-112448344D01*
X136995809Y-112479955D01*
X136624132Y-112851633D01*
X136562809Y-112885118D01*
X136493118Y-112880134D01*
X136437184Y-112838263D01*
X136431457Y-112829924D01*
X136402215Y-112783386D01*
X136379816Y-112747738D01*
X136252262Y-112620184D01*
X136226182Y-112603797D01*
X136099523Y-112524211D01*
X135929254Y-112464631D01*
X135929249Y-112464630D01*
X135750004Y-112444435D01*
X135749996Y-112444435D01*
X135570750Y-112464630D01*
X135570745Y-112464631D01*
X135400476Y-112524211D01*
X135247736Y-112620185D01*
X135244903Y-112622445D01*
X135242724Y-112623334D01*
X135241842Y-112623889D01*
X135241744Y-112623734D01*
X135180217Y-112648855D01*
X135167588Y-112649500D01*
X131898627Y-112649500D01*
X131831588Y-112629815D01*
X131810946Y-112613181D01*
X130336119Y-111138355D01*
X130336117Y-111138352D01*
X130259946Y-111062181D01*
X130226461Y-111000858D01*
X130231445Y-110931166D01*
X130273317Y-110875233D01*
X130338781Y-110850816D01*
X130347627Y-110850500D01*
X133522011Y-110850500D01*
X133522027Y-110850501D01*
X133529623Y-110850501D01*
X133687734Y-110850501D01*
X133687737Y-110850501D01*
X133840465Y-110809577D01*
X133901720Y-110774211D01*
X133977396Y-110730520D01*
X134089200Y-110618716D01*
X134089200Y-110618714D01*
X134099404Y-110608511D01*
X134099407Y-110608506D01*
X136146500Y-108561413D01*
X136207822Y-108527930D01*
X136277514Y-108532914D01*
G37*
%TD.AperFunction*%
%TA.AperFunction,Conductor*%
G36*
X117793039Y-112319685D02*
G01*
X117838794Y-112372489D01*
X117850000Y-112424000D01*
X117850000Y-112575500D01*
X117830315Y-112642539D01*
X117777511Y-112688294D01*
X117726000Y-112699500D01*
X117236669Y-112699500D01*
X117236653Y-112699499D01*
X117229057Y-112699499D01*
X117070943Y-112699499D01*
X116991010Y-112720917D01*
X116918216Y-112740422D01*
X116876752Y-112764362D01*
X116876751Y-112764361D01*
X116843801Y-112783386D01*
X116781800Y-112800000D01*
X115826289Y-112800000D01*
X115760315Y-112780993D01*
X115749521Y-112774210D01*
X115579254Y-112714631D01*
X115579249Y-112714630D01*
X115400004Y-112694435D01*
X115399997Y-112694435D01*
X115315034Y-112704008D01*
X115292150Y-112700000D01*
X114974500Y-112700000D01*
X114907461Y-112680315D01*
X114861706Y-112627511D01*
X114850500Y-112576001D01*
X114850499Y-112424001D01*
X114870183Y-112356961D01*
X114922987Y-112311206D01*
X114974499Y-112300000D01*
X117726000Y-112300000D01*
X117793039Y-112319685D01*
G37*
%TD.AperFunction*%
%TA.AperFunction,Conductor*%
G36*
X144462920Y-106184222D02*
G01*
X144529857Y-106204237D01*
X144549983Y-106220538D01*
X145281861Y-106952416D01*
X145315346Y-107013739D01*
X145318180Y-107040097D01*
X145318180Y-108347434D01*
X145298495Y-108414473D01*
X145291130Y-108424743D01*
X145288866Y-108427581D01*
X145192891Y-108580323D01*
X145133311Y-108750592D01*
X145133310Y-108750597D01*
X145113115Y-108929843D01*
X145113115Y-108929850D01*
X145133310Y-109109096D01*
X145133311Y-109109101D01*
X145192891Y-109279370D01*
X145272587Y-109406204D01*
X145288864Y-109432109D01*
X145416418Y-109559663D01*
X145456839Y-109585061D01*
X145559392Y-109649500D01*
X145569158Y-109655636D01*
X145739425Y-109715215D01*
X145808064Y-109722948D01*
X145872476Y-109750013D01*
X145912032Y-109807607D01*
X145918180Y-109846168D01*
X145918180Y-111834899D01*
X145913955Y-111866992D01*
X145899499Y-111920943D01*
X145899499Y-112067589D01*
X145879814Y-112134628D01*
X145872445Y-112144903D01*
X145870184Y-112147737D01*
X145774210Y-112300478D01*
X145714630Y-112470750D01*
X145706898Y-112539383D01*
X145679832Y-112603797D01*
X145622237Y-112643352D01*
X145583678Y-112649500D01*
X145050097Y-112649500D01*
X144983058Y-112629815D01*
X144962416Y-112613181D01*
X144487590Y-112138355D01*
X144487588Y-112138352D01*
X144368717Y-112019481D01*
X144368716Y-112019480D01*
X144257934Y-111955520D01*
X144257934Y-111955519D01*
X144257929Y-111955518D01*
X144248806Y-111950250D01*
X144231786Y-111940423D01*
X144190095Y-111929252D01*
X144079057Y-111899499D01*
X143927477Y-111899499D01*
X143860438Y-111879814D01*
X143814683Y-111827010D01*
X143804256Y-111761619D01*
X143805565Y-111749998D01*
X143805565Y-111749996D01*
X143785369Y-111570750D01*
X143785368Y-111570745D01*
X143766541Y-111516941D01*
X143725789Y-111400478D01*
X143629816Y-111247738D01*
X143502262Y-111120184D01*
X143401914Y-111057131D01*
X143349524Y-111024212D01*
X143349520Y-111024210D01*
X143272225Y-110997163D01*
X143215449Y-110956441D01*
X143189702Y-110891488D01*
X143189180Y-110880122D01*
X143189180Y-106302530D01*
X143208865Y-106235491D01*
X143261669Y-106189736D01*
X143313786Y-106178533D01*
X144462920Y-106184222D01*
G37*
%TD.AperFunction*%
%TA.AperFunction,Conductor*%
G36*
X149724794Y-106210271D02*
G01*
X149791735Y-106230287D01*
X149837228Y-106283317D01*
X149848180Y-106334269D01*
X149848180Y-108251222D01*
X149828495Y-108318261D01*
X149811861Y-108338903D01*
X148269481Y-109881282D01*
X148269479Y-109881285D01*
X148254838Y-109906645D01*
X148233020Y-109944435D01*
X148190423Y-110018215D01*
X148149499Y-110170943D01*
X148149499Y-110170945D01*
X148149499Y-110339046D01*
X148149500Y-110339059D01*
X148149500Y-111449902D01*
X148129815Y-111516941D01*
X148113181Y-111537583D01*
X147383778Y-112266985D01*
X147322455Y-112300470D01*
X147252763Y-112295486D01*
X147196830Y-112253614D01*
X147191103Y-112245276D01*
X147134732Y-112155562D01*
X147115733Y-112088327D01*
X147118449Y-112068479D01*
X147118120Y-112068436D01*
X147119181Y-112060377D01*
X147119181Y-111894667D01*
X147119180Y-111894649D01*
X147119180Y-107773398D01*
X147138865Y-107706359D01*
X147191669Y-107660604D01*
X147260827Y-107650660D01*
X147309150Y-107668404D01*
X147339360Y-107687386D01*
X147400475Y-107725788D01*
X147570745Y-107785368D01*
X147570750Y-107785369D01*
X147749996Y-107805565D01*
X147750000Y-107805565D01*
X147750004Y-107805565D01*
X147929249Y-107785369D01*
X147929252Y-107785368D01*
X147929255Y-107785368D01*
X148099522Y-107725789D01*
X148252262Y-107629816D01*
X148379816Y-107502262D01*
X148475789Y-107349522D01*
X148535368Y-107179255D01*
X148537773Y-107157913D01*
X148555565Y-107000003D01*
X148555565Y-106999996D01*
X148535369Y-106820750D01*
X148535368Y-106820745D01*
X148527044Y-106796956D01*
X148475789Y-106650478D01*
X148379816Y-106497738D01*
X148379814Y-106497736D01*
X148379813Y-106497734D01*
X148377550Y-106494896D01*
X148376659Y-106492715D01*
X148376111Y-106491842D01*
X148376264Y-106491745D01*
X148351144Y-106430209D01*
X148350500Y-106417587D01*
X148350500Y-106328081D01*
X148370185Y-106261042D01*
X148422989Y-106215287D01*
X148475106Y-106204084D01*
X149724794Y-106210271D01*
G37*
%TD.AperFunction*%
%TA.AperFunction,Conductor*%
G36*
X135426621Y-107370185D02*
G01*
X135472376Y-107422989D01*
X135482320Y-107492147D01*
X135453295Y-107555703D01*
X135447263Y-107562181D01*
X133396264Y-109613181D01*
X133334941Y-109646666D01*
X133308583Y-109649500D01*
X130837022Y-109649500D01*
X130769983Y-109629815D01*
X130724228Y-109577011D01*
X130714284Y-109507853D01*
X130735447Y-109454377D01*
X130754032Y-109427834D01*
X130754031Y-109427834D01*
X130754035Y-109427830D01*
X130853903Y-109213663D01*
X130915063Y-108985408D01*
X130935659Y-108750000D01*
X130915063Y-108514592D01*
X130862457Y-108318261D01*
X130853905Y-108286344D01*
X130853904Y-108286343D01*
X130853903Y-108286337D01*
X130754035Y-108072171D01*
X130748425Y-108064158D01*
X130618494Y-107878597D01*
X130451402Y-107711506D01*
X130451396Y-107711501D01*
X130257987Y-107576075D01*
X130214362Y-107521498D01*
X130207168Y-107452000D01*
X130238691Y-107389645D01*
X130298921Y-107354231D01*
X130329110Y-107350500D01*
X135359582Y-107350500D01*
X135426621Y-107370185D01*
G37*
%TD.AperFunction*%
%TA.AperFunction,Conductor*%
G36*
X154564796Y-106234231D02*
G01*
X154631735Y-106254247D01*
X154677228Y-106307277D01*
X154688180Y-106358229D01*
X154688180Y-108661223D01*
X154668495Y-108728262D01*
X154651861Y-108748904D01*
X154037584Y-109363181D01*
X153976261Y-109396666D01*
X153949903Y-109399500D01*
X152999098Y-109399500D01*
X152932059Y-109379815D01*
X152886304Y-109327011D01*
X152876360Y-109257853D01*
X152905385Y-109194297D01*
X152911417Y-109187819D01*
X153063868Y-109035368D01*
X153229200Y-108870036D01*
X153308257Y-108733105D01*
X153349181Y-108580377D01*
X153349181Y-108422262D01*
X153349181Y-108414667D01*
X153349180Y-108414649D01*
X153349180Y-106352827D01*
X153368865Y-106285788D01*
X153421669Y-106240033D01*
X153473786Y-106228830D01*
X154564796Y-106234231D01*
G37*
%TD.AperFunction*%
%TA.AperFunction,Conductor*%
G36*
X124960025Y-106087673D02*
G01*
X125026962Y-106107688D01*
X125047088Y-106123989D01*
X126037473Y-107114374D01*
X126037483Y-107114385D01*
X126041813Y-107118715D01*
X126041814Y-107118716D01*
X126153618Y-107230520D01*
X126153620Y-107230521D01*
X126153624Y-107230524D01*
X126252704Y-107287727D01*
X126290550Y-107309577D01*
X126369756Y-107330799D01*
X126429415Y-107367164D01*
X126459945Y-107430010D01*
X126451651Y-107499386D01*
X126407166Y-107553264D01*
X126390069Y-107562955D01*
X126362172Y-107575963D01*
X126362169Y-107575965D01*
X126168600Y-107711503D01*
X126046284Y-107833819D01*
X125984961Y-107867303D01*
X125915269Y-107862319D01*
X125859336Y-107820447D01*
X125842421Y-107789470D01*
X125793354Y-107657913D01*
X125793350Y-107657906D01*
X125707190Y-107542812D01*
X125707187Y-107542809D01*
X125592093Y-107456649D01*
X125592086Y-107456645D01*
X125457379Y-107406403D01*
X125457372Y-107406401D01*
X125397844Y-107400000D01*
X124750000Y-107400000D01*
X124750000Y-108316988D01*
X124692993Y-108284075D01*
X124565826Y-108250000D01*
X124434174Y-108250000D01*
X124307007Y-108284075D01*
X124250000Y-108316988D01*
X124250000Y-107400000D01*
X123602155Y-107400000D01*
X123542627Y-107406401D01*
X123542620Y-107406403D01*
X123407913Y-107456645D01*
X123407906Y-107456649D01*
X123292812Y-107542809D01*
X123292809Y-107542812D01*
X123206649Y-107657906D01*
X123206645Y-107657913D01*
X123156403Y-107792620D01*
X123156401Y-107792627D01*
X123150000Y-107852155D01*
X123150000Y-108500000D01*
X124066988Y-108500000D01*
X124034075Y-108557007D01*
X124000000Y-108684174D01*
X124000000Y-108815826D01*
X124034075Y-108942993D01*
X124066988Y-109000000D01*
X123150000Y-109000000D01*
X123150000Y-109025499D01*
X123130315Y-109092538D01*
X123077511Y-109138293D01*
X123026000Y-109149499D01*
X122913347Y-109149499D01*
X122913331Y-109149500D01*
X122724500Y-109149500D01*
X122657461Y-109129815D01*
X122611706Y-109077011D01*
X122600500Y-109025500D01*
X122600500Y-106758776D01*
X122620185Y-106691737D01*
X122636815Y-106671099D01*
X123175150Y-106132763D01*
X123236471Y-106099280D01*
X123294918Y-106100670D01*
X123423272Y-106135063D01*
X123599714Y-106150500D01*
X123658679Y-106155659D01*
X123658680Y-106155659D01*
X123658681Y-106155659D01*
X123717646Y-106150500D01*
X123894088Y-106135063D01*
X124071020Y-106087654D01*
X124103708Y-106083434D01*
X124960025Y-106087673D01*
G37*
%TD.AperFunction*%
%TA.AperFunction,Conductor*%
G36*
X112218039Y-107519685D02*
G01*
X112263794Y-107572489D01*
X112275000Y-107624000D01*
X112275000Y-107895000D01*
X112288681Y-107908681D01*
X112322166Y-107970004D01*
X112325000Y-107996362D01*
X112325000Y-108876000D01*
X112305315Y-108943039D01*
X112252511Y-108988794D01*
X112201000Y-109000000D01*
X111949000Y-109000000D01*
X111881961Y-108980315D01*
X111836206Y-108927511D01*
X111825000Y-108876000D01*
X111825000Y-108605000D01*
X111811319Y-108591319D01*
X111777834Y-108529996D01*
X111775000Y-108503638D01*
X111775000Y-107624000D01*
X111794685Y-107556961D01*
X111847489Y-107511206D01*
X111899000Y-107500000D01*
X112151000Y-107500000D01*
X112218039Y-107519685D01*
G37*
%TD.AperFunction*%
%TA.AperFunction,Conductor*%
G36*
X107193039Y-100520185D02*
G01*
X107238794Y-100572989D01*
X107250000Y-100624500D01*
X107250000Y-101543197D01*
X107238382Y-101595602D01*
X107144778Y-101796335D01*
X107144774Y-101796344D01*
X107083618Y-102024586D01*
X107083616Y-102024596D01*
X107063021Y-102259999D01*
X107063021Y-102260000D01*
X107083616Y-102495403D01*
X107083618Y-102495413D01*
X107144774Y-102723655D01*
X107144776Y-102723659D01*
X107144777Y-102723663D01*
X107215825Y-102876025D01*
X107238382Y-102924398D01*
X107250000Y-102976803D01*
X107250000Y-103502226D01*
X107230315Y-103569265D01*
X107213681Y-103589907D01*
X107211132Y-103592455D01*
X107124886Y-103707664D01*
X107124882Y-103707671D01*
X107074588Y-103842517D01*
X107068181Y-103902116D01*
X107068180Y-103902135D01*
X107068180Y-105697870D01*
X107068181Y-105697876D01*
X107074588Y-105757483D01*
X107124882Y-105892328D01*
X107124886Y-105892335D01*
X107211132Y-106007544D01*
X107211135Y-106007547D01*
X107326344Y-106093793D01*
X107326351Y-106093797D01*
X107363595Y-106107688D01*
X107461197Y-106144091D01*
X107520807Y-106150500D01*
X107675903Y-106150499D01*
X107742941Y-106170183D01*
X107788696Y-106222987D01*
X107798640Y-106292145D01*
X107769615Y-106355701D01*
X107763583Y-106362180D01*
X107637582Y-106488181D01*
X107576259Y-106521666D01*
X107549901Y-106524500D01*
X107201662Y-106524500D01*
X107201644Y-106524501D01*
X107102292Y-106534650D01*
X107102289Y-106534651D01*
X106941305Y-106587996D01*
X106941294Y-106588001D01*
X106796959Y-106677029D01*
X106796955Y-106677032D01*
X106677032Y-106796955D01*
X106677029Y-106796959D01*
X106588001Y-106941294D01*
X106587996Y-106941305D01*
X106534651Y-107102290D01*
X106524500Y-107201647D01*
X106524500Y-107525500D01*
X106504815Y-107592539D01*
X106452011Y-107638294D01*
X106400500Y-107649500D01*
X105829091Y-107649500D01*
X105762052Y-107629815D01*
X105716711Y-107577909D01*
X105714037Y-107572175D01*
X105714034Y-107572170D01*
X105693475Y-107542809D01*
X105609577Y-107422989D01*
X105578494Y-107378597D01*
X105411402Y-107211506D01*
X105411395Y-107211501D01*
X105217834Y-107075967D01*
X105217830Y-107075965D01*
X105111675Y-107026464D01*
X105003663Y-106976097D01*
X105003659Y-106976096D01*
X105003655Y-106976094D01*
X104775413Y-106914938D01*
X104775403Y-106914936D01*
X104540001Y-106894341D01*
X104539999Y-106894341D01*
X104304596Y-106914936D01*
X104304586Y-106914938D01*
X104076344Y-106976094D01*
X104076335Y-106976098D01*
X103862171Y-107075964D01*
X103862169Y-107075965D01*
X103668600Y-107211503D01*
X103546284Y-107333819D01*
X103484961Y-107367303D01*
X103415269Y-107362319D01*
X103359336Y-107320447D01*
X103342421Y-107289470D01*
X103293354Y-107157913D01*
X103293350Y-107157906D01*
X103207190Y-107042812D01*
X103207187Y-107042809D01*
X103092093Y-106956649D01*
X103092086Y-106956645D01*
X102957379Y-106906403D01*
X102957372Y-106906401D01*
X102897844Y-106900000D01*
X102250000Y-106900000D01*
X102250000Y-107816988D01*
X102192993Y-107784075D01*
X102065826Y-107750000D01*
X101934174Y-107750000D01*
X101807007Y-107784075D01*
X101750000Y-107816988D01*
X101750000Y-106900000D01*
X101102155Y-106900000D01*
X101042627Y-106906401D01*
X101042620Y-106906403D01*
X100907913Y-106956645D01*
X100907906Y-106956649D01*
X100792812Y-107042809D01*
X100752446Y-107096731D01*
X100696512Y-107138601D01*
X100626820Y-107143585D01*
X100565497Y-107110099D01*
X100532013Y-107048775D01*
X100529180Y-107022419D01*
X100529180Y-103372070D01*
X101903180Y-103372070D01*
X101903180Y-103627929D01*
X101943206Y-103880640D01*
X102022268Y-104123972D01*
X102022269Y-104123975D01*
X102086738Y-104250500D01*
X102130474Y-104336337D01*
X102138430Y-104351950D01*
X102288812Y-104558935D01*
X102288816Y-104558940D01*
X102469739Y-104739863D01*
X102469744Y-104739867D01*
X102552511Y-104800000D01*
X102676733Y-104890252D01*
X102825760Y-104966185D01*
X102904704Y-105006410D01*
X102904707Y-105006411D01*
X102993952Y-105035408D01*
X103148041Y-105085474D01*
X103400750Y-105125500D01*
X103400751Y-105125500D01*
X103656609Y-105125500D01*
X103656610Y-105125500D01*
X103909319Y-105085474D01*
X104152655Y-105006410D01*
X104380627Y-104890252D01*
X104587622Y-104739862D01*
X104768542Y-104558942D01*
X104918932Y-104351947D01*
X105035090Y-104123975D01*
X105114154Y-103880639D01*
X105154180Y-103627930D01*
X105154180Y-103372070D01*
X105114154Y-103119361D01*
X105074050Y-102995932D01*
X105035091Y-102876027D01*
X105035090Y-102876024D01*
X104994865Y-102797080D01*
X104918932Y-102648053D01*
X104808033Y-102495413D01*
X104768547Y-102441064D01*
X104768543Y-102441059D01*
X104587620Y-102260136D01*
X104587615Y-102260132D01*
X104380630Y-102109750D01*
X104380629Y-102109749D01*
X104380627Y-102109748D01*
X104307590Y-102072533D01*
X104152655Y-101993589D01*
X104152652Y-101993588D01*
X103909320Y-101914526D01*
X103782964Y-101894513D01*
X103656610Y-101874500D01*
X103400750Y-101874500D01*
X103316513Y-101887842D01*
X103148039Y-101914526D01*
X102904707Y-101993588D01*
X102904704Y-101993589D01*
X102676729Y-102109750D01*
X102469744Y-102260132D01*
X102469739Y-102260136D01*
X102288816Y-102441059D01*
X102288812Y-102441064D01*
X102138430Y-102648049D01*
X102022269Y-102876024D01*
X102022268Y-102876027D01*
X101943206Y-103119359D01*
X101903180Y-103372070D01*
X100529180Y-103372070D01*
X100529180Y-103003750D01*
X100529406Y-102996263D01*
X100530583Y-102976803D01*
X100546951Y-102706199D01*
X100548756Y-102691338D01*
X100556689Y-102648053D01*
X100600460Y-102409195D01*
X100604044Y-102394661D01*
X100645963Y-102260138D01*
X100689376Y-102120818D01*
X100694678Y-102106838D01*
X100812408Y-101845251D01*
X100819362Y-101832003D01*
X100967753Y-101586531D01*
X100976258Y-101574212D01*
X101153153Y-101348419D01*
X101163078Y-101337216D01*
X101365907Y-101134385D01*
X101377097Y-101124471D01*
X101602904Y-100947561D01*
X101615212Y-100939066D01*
X101860697Y-100790663D01*
X101873938Y-100783714D01*
X102135517Y-100665986D01*
X102149494Y-100660685D01*
X102423354Y-100575345D01*
X102437880Y-100571764D01*
X102720026Y-100520057D01*
X102734882Y-100518253D01*
X103024616Y-100500725D01*
X103032104Y-100500500D01*
X103094575Y-100500500D01*
X107126000Y-100500500D01*
X107193039Y-100520185D01*
G37*
%TD.AperFunction*%
%TD*%
M02*
